<?xml version="1.0" encoding="utf-8" standalone="no"?>
<!DOCTYPE svg PUBLIC "-//W3C//DTD SVG 1.1//EN"
  "http://www.w3.org/Graphics/SVG/1.1/DTD/svg11.dtd">
<!-- Created with matplotlib (https://matplotlib.org/) -->
<svg height="396pt" version="1.1" viewBox="0 0 396 396" width="396pt" xmlns="http://www.w3.org/2000/svg" xmlns:xlink="http://www.w3.org/1999/xlink">
 <metadata>
  <rdf:RDF xmlns:cc="http://creativecommons.org/ns#" xmlns:dc="http://purl.org/dc/elements/1.1/" xmlns:rdf="http://www.w3.org/1999/02/22-rdf-syntax-ns#">
   <cc:Work>
    <dc:type rdf:resource="http://purl.org/dc/dcmitype/StillImage"/>
    <dc:date>2021-02-16T16:16:52.966668</dc:date>
    <dc:format>image/svg+xml</dc:format>
    <dc:creator>
     <cc:Agent>
      <dc:title>Matplotlib v3.3.0, https://matplotlib.org/</dc:title>
     </cc:Agent>
    </dc:creator>
   </cc:Work>
  </rdf:RDF>
 </metadata>
 <defs>
  <style type="text/css">*{stroke-linecap:butt;stroke-linejoin:round;}</style>
 </defs>
 <g id="figure_1">
  <g id="patch_1">
   <path d="M 0 396 
L 396 396 
L 396 0 
L 0 0 
z
" style="fill:#ffffff;"/>
  </g>
  <g id="axes_1">
   <g id="patch_2">
    <path d="M 49.5 346.5 
L 356.4 346.5 
L 356.4 47.52 
L 49.5 47.52 
z
" style="fill:#ffffff;"/>
   </g>
   <g id="matplotlib.axis_1">
    <g id="xtick_1">
     <g id="text_1">
      <!-- 0.0 -->
      <g style="fill:#262626;" transform="translate(54.703281 364.358281)scale(0.11 -0.11)">
       <defs>
        <path d="M 31.78125 66.40625 
Q 24.171875 66.40625 20.328125 58.90625 
Q 16.5 51.421875 16.5 36.375 
Q 16.5 21.390625 20.328125 13.890625 
Q 24.171875 6.390625 31.78125 6.390625 
Q 39.453125 6.390625 43.28125 13.890625 
Q 47.125 21.390625 47.125 36.375 
Q 47.125 51.421875 43.28125 58.90625 
Q 39.453125 66.40625 31.78125 66.40625 
z
M 31.78125 74.21875 
Q 44.046875 74.21875 50.515625 64.515625 
Q 56.984375 54.828125 56.984375 36.375 
Q 56.984375 17.96875 50.515625 8.265625 
Q 44.046875 -1.421875 31.78125 -1.421875 
Q 19.53125 -1.421875 13.0625 8.265625 
Q 6.59375 17.96875 6.59375 36.375 
Q 6.59375 54.828125 13.0625 64.515625 
Q 19.53125 74.21875 31.78125 74.21875 
z
" id="DejaVuSans-48"/>
        <path d="M 10.6875 12.40625 
L 21 12.40625 
L 21 0 
L 10.6875 0 
z
" id="DejaVuSans-46"/>
       </defs>
       <use xlink:href="#DejaVuSans-48"/>
       <use x="63.623047" xlink:href="#DejaVuSans-46"/>
       <use x="95.410156" xlink:href="#DejaVuSans-48"/>
      </g>
     </g>
    </g>
    <g id="xtick_2">
     <g id="text_2">
      <!-- 0.2 -->
      <g style="fill:#262626;" transform="translate(110.503281 364.358281)scale(0.11 -0.11)">
       <defs>
        <path d="M 19.1875 8.296875 
L 53.609375 8.296875 
L 53.609375 0 
L 7.328125 0 
L 7.328125 8.296875 
Q 12.9375 14.109375 22.625 23.890625 
Q 32.328125 33.6875 34.8125 36.53125 
Q 39.546875 41.84375 41.421875 45.53125 
Q 43.3125 49.21875 43.3125 52.78125 
Q 43.3125 58.59375 39.234375 62.25 
Q 35.15625 65.921875 28.609375 65.921875 
Q 23.96875 65.921875 18.8125 64.3125 
Q 13.671875 62.703125 7.8125 59.421875 
L 7.8125 69.390625 
Q 13.765625 71.78125 18.9375 73 
Q 24.125 74.21875 28.421875 74.21875 
Q 39.75 74.21875 46.484375 68.546875 
Q 53.21875 62.890625 53.21875 53.421875 
Q 53.21875 48.921875 51.53125 44.890625 
Q 49.859375 40.875 45.40625 35.40625 
Q 44.1875 33.984375 37.640625 27.21875 
Q 31.109375 20.453125 19.1875 8.296875 
z
" id="DejaVuSans-50"/>
       </defs>
       <use xlink:href="#DejaVuSans-48"/>
       <use x="63.623047" xlink:href="#DejaVuSans-46"/>
       <use x="95.410156" xlink:href="#DejaVuSans-50"/>
      </g>
     </g>
    </g>
    <g id="xtick_3">
     <g id="text_3">
      <!-- 0.4 -->
      <g style="fill:#262626;" transform="translate(166.303281 364.358281)scale(0.11 -0.11)">
       <defs>
        <path d="M 37.796875 64.3125 
L 12.890625 25.390625 
L 37.796875 25.390625 
z
M 35.203125 72.90625 
L 47.609375 72.90625 
L 47.609375 25.390625 
L 58.015625 25.390625 
L 58.015625 17.1875 
L 47.609375 17.1875 
L 47.609375 0 
L 37.796875 0 
L 37.796875 17.1875 
L 4.890625 17.1875 
L 4.890625 26.703125 
z
" id="DejaVuSans-52"/>
       </defs>
       <use xlink:href="#DejaVuSans-48"/>
       <use x="63.623047" xlink:href="#DejaVuSans-46"/>
       <use x="95.410156" xlink:href="#DejaVuSans-52"/>
      </g>
     </g>
    </g>
    <g id="xtick_4">
     <g id="text_4">
      <!-- 0.6 -->
      <g style="fill:#262626;" transform="translate(222.103281 364.358281)scale(0.11 -0.11)">
       <defs>
        <path d="M 33.015625 40.375 
Q 26.375 40.375 22.484375 35.828125 
Q 18.609375 31.296875 18.609375 23.390625 
Q 18.609375 15.53125 22.484375 10.953125 
Q 26.375 6.390625 33.015625 6.390625 
Q 39.65625 6.390625 43.53125 10.953125 
Q 47.40625 15.53125 47.40625 23.390625 
Q 47.40625 31.296875 43.53125 35.828125 
Q 39.65625 40.375 33.015625 40.375 
z
M 52.59375 71.296875 
L 52.59375 62.3125 
Q 48.875 64.0625 45.09375 64.984375 
Q 41.3125 65.921875 37.59375 65.921875 
Q 27.828125 65.921875 22.671875 59.328125 
Q 17.53125 52.734375 16.796875 39.40625 
Q 19.671875 43.65625 24.015625 45.921875 
Q 28.375 48.1875 33.59375 48.1875 
Q 44.578125 48.1875 50.953125 41.515625 
Q 57.328125 34.859375 57.328125 23.390625 
Q 57.328125 12.15625 50.6875 5.359375 
Q 44.046875 -1.421875 33.015625 -1.421875 
Q 20.359375 -1.421875 13.671875 8.265625 
Q 6.984375 17.96875 6.984375 36.375 
Q 6.984375 53.65625 15.1875 63.9375 
Q 23.390625 74.21875 37.203125 74.21875 
Q 40.921875 74.21875 44.703125 73.484375 
Q 48.484375 72.75 52.59375 71.296875 
z
" id="DejaVuSans-54"/>
       </defs>
       <use xlink:href="#DejaVuSans-48"/>
       <use x="63.623047" xlink:href="#DejaVuSans-46"/>
       <use x="95.410156" xlink:href="#DejaVuSans-54"/>
      </g>
     </g>
    </g>
    <g id="xtick_5">
     <g id="text_5">
      <!-- 0.8 -->
      <g style="fill:#262626;" transform="translate(277.903281 364.358281)scale(0.11 -0.11)">
       <defs>
        <path d="M 31.78125 34.625 
Q 24.75 34.625 20.71875 30.859375 
Q 16.703125 27.09375 16.703125 20.515625 
Q 16.703125 13.921875 20.71875 10.15625 
Q 24.75 6.390625 31.78125 6.390625 
Q 38.8125 6.390625 42.859375 10.171875 
Q 46.921875 13.96875 46.921875 20.515625 
Q 46.921875 27.09375 42.890625 30.859375 
Q 38.875 34.625 31.78125 34.625 
z
M 21.921875 38.8125 
Q 15.578125 40.375 12.03125 44.71875 
Q 8.5 49.078125 8.5 55.328125 
Q 8.5 64.0625 14.71875 69.140625 
Q 20.953125 74.21875 31.78125 74.21875 
Q 42.671875 74.21875 48.875 69.140625 
Q 55.078125 64.0625 55.078125 55.328125 
Q 55.078125 49.078125 51.53125 44.71875 
Q 48 40.375 41.703125 38.8125 
Q 48.828125 37.15625 52.796875 32.3125 
Q 56.78125 27.484375 56.78125 20.515625 
Q 56.78125 9.90625 50.3125 4.234375 
Q 43.84375 -1.421875 31.78125 -1.421875 
Q 19.734375 -1.421875 13.25 4.234375 
Q 6.78125 9.90625 6.78125 20.515625 
Q 6.78125 27.484375 10.78125 32.3125 
Q 14.796875 37.15625 21.921875 38.8125 
z
M 18.3125 54.390625 
Q 18.3125 48.734375 21.84375 45.5625 
Q 25.390625 42.390625 31.78125 42.390625 
Q 38.140625 42.390625 41.71875 45.5625 
Q 45.3125 48.734375 45.3125 54.390625 
Q 45.3125 60.0625 41.71875 63.234375 
Q 38.140625 66.40625 31.78125 66.40625 
Q 25.390625 66.40625 21.84375 63.234375 
Q 18.3125 60.0625 18.3125 54.390625 
z
" id="DejaVuSans-56"/>
       </defs>
       <use xlink:href="#DejaVuSans-48"/>
       <use x="63.623047" xlink:href="#DejaVuSans-46"/>
       <use x="95.410156" xlink:href="#DejaVuSans-56"/>
      </g>
     </g>
    </g>
    <g id="xtick_6">
     <g id="text_6">
      <!-- 1.0 -->
      <g style="fill:#262626;" transform="translate(333.703281 364.358281)scale(0.11 -0.11)">
       <defs>
        <path d="M 12.40625 8.296875 
L 28.515625 8.296875 
L 28.515625 63.921875 
L 10.984375 60.40625 
L 10.984375 69.390625 
L 28.421875 72.90625 
L 38.28125 72.90625 
L 38.28125 8.296875 
L 54.390625 8.296875 
L 54.390625 0 
L 12.40625 0 
z
" id="DejaVuSans-49"/>
       </defs>
       <use xlink:href="#DejaVuSans-49"/>
       <use x="63.623047" xlink:href="#DejaVuSans-46"/>
       <use x="95.410156" xlink:href="#DejaVuSans-48"/>
      </g>
     </g>
    </g>
    <g id="text_7">
     <!-- False positive rate -->
     <g style="fill:#262626;" transform="translate(148.349063 379.764063)scale(0.12 -0.12)">
      <defs>
       <path d="M 9.8125 72.90625 
L 51.703125 72.90625 
L 51.703125 64.59375 
L 19.671875 64.59375 
L 19.671875 43.109375 
L 48.578125 43.109375 
L 48.578125 34.8125 
L 19.671875 34.8125 
L 19.671875 0 
L 9.8125 0 
z
" id="DejaVuSans-70"/>
       <path d="M 34.28125 27.484375 
Q 23.390625 27.484375 19.1875 25 
Q 14.984375 22.515625 14.984375 16.5 
Q 14.984375 11.71875 18.140625 8.90625 
Q 21.296875 6.109375 26.703125 6.109375 
Q 34.1875 6.109375 38.703125 11.40625 
Q 43.21875 16.703125 43.21875 25.484375 
L 43.21875 27.484375 
z
M 52.203125 31.203125 
L 52.203125 0 
L 43.21875 0 
L 43.21875 8.296875 
Q 40.140625 3.328125 35.546875 0.953125 
Q 30.953125 -1.421875 24.3125 -1.421875 
Q 15.921875 -1.421875 10.953125 3.296875 
Q 6 8.015625 6 15.921875 
Q 6 25.140625 12.171875 29.828125 
Q 18.359375 34.515625 30.609375 34.515625 
L 43.21875 34.515625 
L 43.21875 35.40625 
Q 43.21875 41.609375 39.140625 45 
Q 35.0625 48.390625 27.6875 48.390625 
Q 23 48.390625 18.546875 47.265625 
Q 14.109375 46.140625 10.015625 43.890625 
L 10.015625 52.203125 
Q 14.9375 54.109375 19.578125 55.046875 
Q 24.21875 56 28.609375 56 
Q 40.484375 56 46.34375 49.84375 
Q 52.203125 43.703125 52.203125 31.203125 
z
" id="DejaVuSans-97"/>
       <path d="M 9.421875 75.984375 
L 18.40625 75.984375 
L 18.40625 0 
L 9.421875 0 
z
" id="DejaVuSans-108"/>
       <path d="M 44.28125 53.078125 
L 44.28125 44.578125 
Q 40.484375 46.53125 36.375 47.5 
Q 32.28125 48.484375 27.875 48.484375 
Q 21.1875 48.484375 17.84375 46.4375 
Q 14.5 44.390625 14.5 40.28125 
Q 14.5 37.15625 16.890625 35.375 
Q 19.28125 33.59375 26.515625 31.984375 
L 29.59375 31.296875 
Q 39.15625 29.25 43.1875 25.515625 
Q 47.21875 21.78125 47.21875 15.09375 
Q 47.21875 7.46875 41.1875 3.015625 
Q 35.15625 -1.421875 24.609375 -1.421875 
Q 20.21875 -1.421875 15.453125 -0.5625 
Q 10.6875 0.296875 5.421875 2 
L 5.421875 11.28125 
Q 10.40625 8.6875 15.234375 7.390625 
Q 20.0625 6.109375 24.8125 6.109375 
Q 31.15625 6.109375 34.5625 8.28125 
Q 37.984375 10.453125 37.984375 14.40625 
Q 37.984375 18.0625 35.515625 20.015625 
Q 33.0625 21.96875 24.703125 23.78125 
L 21.578125 24.515625 
Q 13.234375 26.265625 9.515625 29.90625 
Q 5.8125 33.546875 5.8125 39.890625 
Q 5.8125 47.609375 11.28125 51.796875 
Q 16.75 56 26.8125 56 
Q 31.78125 56 36.171875 55.265625 
Q 40.578125 54.546875 44.28125 53.078125 
z
" id="DejaVuSans-115"/>
       <path d="M 56.203125 29.59375 
L 56.203125 25.203125 
L 14.890625 25.203125 
Q 15.484375 15.921875 20.484375 11.0625 
Q 25.484375 6.203125 34.421875 6.203125 
Q 39.59375 6.203125 44.453125 7.46875 
Q 49.3125 8.734375 54.109375 11.28125 
L 54.109375 2.78125 
Q 49.265625 0.734375 44.1875 -0.34375 
Q 39.109375 -1.421875 33.890625 -1.421875 
Q 20.796875 -1.421875 13.15625 6.1875 
Q 5.515625 13.8125 5.515625 26.8125 
Q 5.515625 40.234375 12.765625 48.109375 
Q 20.015625 56 32.328125 56 
Q 43.359375 56 49.78125 48.890625 
Q 56.203125 41.796875 56.203125 29.59375 
z
M 47.21875 32.234375 
Q 47.125 39.59375 43.09375 43.984375 
Q 39.0625 48.390625 32.421875 48.390625 
Q 24.90625 48.390625 20.390625 44.140625 
Q 15.875 39.890625 15.1875 32.171875 
z
" id="DejaVuSans-101"/>
       <path id="DejaVuSans-32"/>
       <path d="M 18.109375 8.203125 
L 18.109375 -20.796875 
L 9.078125 -20.796875 
L 9.078125 54.6875 
L 18.109375 54.6875 
L 18.109375 46.390625 
Q 20.953125 51.265625 25.265625 53.625 
Q 29.59375 56 35.59375 56 
Q 45.5625 56 51.78125 48.09375 
Q 58.015625 40.1875 58.015625 27.296875 
Q 58.015625 14.40625 51.78125 6.484375 
Q 45.5625 -1.421875 35.59375 -1.421875 
Q 29.59375 -1.421875 25.265625 0.953125 
Q 20.953125 3.328125 18.109375 8.203125 
z
M 48.6875 27.296875 
Q 48.6875 37.203125 44.609375 42.84375 
Q 40.53125 48.484375 33.40625 48.484375 
Q 26.265625 48.484375 22.1875 42.84375 
Q 18.109375 37.203125 18.109375 27.296875 
Q 18.109375 17.390625 22.1875 11.75 
Q 26.265625 6.109375 33.40625 6.109375 
Q 40.53125 6.109375 44.609375 11.75 
Q 48.6875 17.390625 48.6875 27.296875 
z
" id="DejaVuSans-112"/>
       <path d="M 30.609375 48.390625 
Q 23.390625 48.390625 19.1875 42.75 
Q 14.984375 37.109375 14.984375 27.296875 
Q 14.984375 17.484375 19.15625 11.84375 
Q 23.34375 6.203125 30.609375 6.203125 
Q 37.796875 6.203125 41.984375 11.859375 
Q 46.1875 17.53125 46.1875 27.296875 
Q 46.1875 37.015625 41.984375 42.703125 
Q 37.796875 48.390625 30.609375 48.390625 
z
M 30.609375 56 
Q 42.328125 56 49.015625 48.375 
Q 55.71875 40.765625 55.71875 27.296875 
Q 55.71875 13.875 49.015625 6.21875 
Q 42.328125 -1.421875 30.609375 -1.421875 
Q 18.84375 -1.421875 12.171875 6.21875 
Q 5.515625 13.875 5.515625 27.296875 
Q 5.515625 40.765625 12.171875 48.375 
Q 18.84375 56 30.609375 56 
z
" id="DejaVuSans-111"/>
       <path d="M 9.421875 54.6875 
L 18.40625 54.6875 
L 18.40625 0 
L 9.421875 0 
z
M 9.421875 75.984375 
L 18.40625 75.984375 
L 18.40625 64.59375 
L 9.421875 64.59375 
z
" id="DejaVuSans-105"/>
       <path d="M 18.3125 70.21875 
L 18.3125 54.6875 
L 36.8125 54.6875 
L 36.8125 47.703125 
L 18.3125 47.703125 
L 18.3125 18.015625 
Q 18.3125 11.328125 20.140625 9.421875 
Q 21.96875 7.515625 27.59375 7.515625 
L 36.8125 7.515625 
L 36.8125 0 
L 27.59375 0 
Q 17.1875 0 13.234375 3.875 
Q 9.28125 7.765625 9.28125 18.015625 
L 9.28125 47.703125 
L 2.6875 47.703125 
L 2.6875 54.6875 
L 9.28125 54.6875 
L 9.28125 70.21875 
z
" id="DejaVuSans-116"/>
       <path d="M 2.984375 54.6875 
L 12.5 54.6875 
L 29.59375 8.796875 
L 46.6875 54.6875 
L 56.203125 54.6875 
L 35.6875 0 
L 23.484375 0 
z
" id="DejaVuSans-118"/>
       <path d="M 41.109375 46.296875 
Q 39.59375 47.171875 37.8125 47.578125 
Q 36.03125 48 33.890625 48 
Q 26.265625 48 22.1875 43.046875 
Q 18.109375 38.09375 18.109375 28.8125 
L 18.109375 0 
L 9.078125 0 
L 9.078125 54.6875 
L 18.109375 54.6875 
L 18.109375 46.1875 
Q 20.953125 51.171875 25.484375 53.578125 
Q 30.03125 56 36.53125 56 
Q 37.453125 56 38.578125 55.875 
Q 39.703125 55.765625 41.0625 55.515625 
z
" id="DejaVuSans-114"/>
      </defs>
      <use xlink:href="#DejaVuSans-70"/>
      <use x="48.394531" xlink:href="#DejaVuSans-97"/>
      <use x="109.673828" xlink:href="#DejaVuSans-108"/>
      <use x="137.457031" xlink:href="#DejaVuSans-115"/>
      <use x="189.556641" xlink:href="#DejaVuSans-101"/>
      <use x="251.080078" xlink:href="#DejaVuSans-32"/>
      <use x="282.867188" xlink:href="#DejaVuSans-112"/>
      <use x="346.34375" xlink:href="#DejaVuSans-111"/>
      <use x="407.525391" xlink:href="#DejaVuSans-115"/>
      <use x="459.625" xlink:href="#DejaVuSans-105"/>
      <use x="487.408203" xlink:href="#DejaVuSans-116"/>
      <use x="526.617188" xlink:href="#DejaVuSans-105"/>
      <use x="554.400391" xlink:href="#DejaVuSans-118"/>
      <use x="613.580078" xlink:href="#DejaVuSans-101"/>
      <use x="675.103516" xlink:href="#DejaVuSans-32"/>
      <use x="706.890625" xlink:href="#DejaVuSans-114"/>
      <use x="748.003906" xlink:href="#DejaVuSans-97"/>
      <use x="809.283203" xlink:href="#DejaVuSans-116"/>
      <use x="848.492188" xlink:href="#DejaVuSans-101"/>
     </g>
    </g>
   </g>
   <g id="matplotlib.axis_2">
    <g id="ytick_1">
     <g id="text_8">
      <!-- 0.0 -->
      <g style="fill:#262626;" transform="translate(22.506563 337.089141)scale(0.11 -0.11)">
       <use xlink:href="#DejaVuSans-48"/>
       <use x="63.623047" xlink:href="#DejaVuSans-46"/>
       <use x="95.410156" xlink:href="#DejaVuSans-48"/>
      </g>
     </g>
    </g>
    <g id="ytick_2">
     <g id="text_9">
      <!-- 0.2 -->
      <g style="fill:#262626;" transform="translate(22.506563 282.729141)scale(0.11 -0.11)">
       <use xlink:href="#DejaVuSans-48"/>
       <use x="63.623047" xlink:href="#DejaVuSans-46"/>
       <use x="95.410156" xlink:href="#DejaVuSans-50"/>
      </g>
     </g>
    </g>
    <g id="ytick_3">
     <g id="text_10">
      <!-- 0.4 -->
      <g style="fill:#262626;" transform="translate(22.506563 228.369141)scale(0.11 -0.11)">
       <use xlink:href="#DejaVuSans-48"/>
       <use x="63.623047" xlink:href="#DejaVuSans-46"/>
       <use x="95.410156" xlink:href="#DejaVuSans-52"/>
      </g>
     </g>
    </g>
    <g id="ytick_4">
     <g id="text_11">
      <!-- 0.6 -->
      <g style="fill:#262626;" transform="translate(22.506563 174.009141)scale(0.11 -0.11)">
       <use xlink:href="#DejaVuSans-48"/>
       <use x="63.623047" xlink:href="#DejaVuSans-46"/>
       <use x="95.410156" xlink:href="#DejaVuSans-54"/>
      </g>
     </g>
    </g>
    <g id="ytick_5">
     <g id="text_12">
      <!-- 0.8 -->
      <g style="fill:#262626;" transform="translate(22.506563 119.649141)scale(0.11 -0.11)">
       <use xlink:href="#DejaVuSans-48"/>
       <use x="63.623047" xlink:href="#DejaVuSans-46"/>
       <use x="95.410156" xlink:href="#DejaVuSans-56"/>
      </g>
     </g>
    </g>
    <g id="ytick_6">
     <g id="text_13">
      <!-- 1.0 -->
      <g style="fill:#262626;" transform="translate(22.506563 65.289141)scale(0.11 -0.11)">
       <use xlink:href="#DejaVuSans-49"/>
       <use x="63.623047" xlink:href="#DejaVuSans-46"/>
       <use x="95.410156" xlink:href="#DejaVuSans-48"/>
      </g>
     </g>
    </g>
    <g id="text_14">
     <!-- True positive rate -->
     <g style="fill:#262626;" transform="translate(16.010937 249.286875)rotate(-90)scale(0.12 -0.12)">
      <defs>
       <path d="M -0.296875 72.90625 
L 61.375 72.90625 
L 61.375 64.59375 
L 35.5 64.59375 
L 35.5 0 
L 25.59375 0 
L 25.59375 64.59375 
L -0.296875 64.59375 
z
" id="DejaVuSans-84"/>
       <path d="M 8.5 21.578125 
L 8.5 54.6875 
L 17.484375 54.6875 
L 17.484375 21.921875 
Q 17.484375 14.15625 20.5 10.265625 
Q 23.53125 6.390625 29.59375 6.390625 
Q 36.859375 6.390625 41.078125 11.03125 
Q 45.3125 15.671875 45.3125 23.6875 
L 45.3125 54.6875 
L 54.296875 54.6875 
L 54.296875 0 
L 45.3125 0 
L 45.3125 8.40625 
Q 42.046875 3.421875 37.71875 1 
Q 33.40625 -1.421875 27.6875 -1.421875 
Q 18.265625 -1.421875 13.375 4.4375 
Q 8.5 10.296875 8.5 21.578125 
z
M 31.109375 56 
z
" id="DejaVuSans-117"/>
      </defs>
      <use xlink:href="#DejaVuSans-84"/>
      <use x="46.333984" xlink:href="#DejaVuSans-114"/>
      <use x="87.447266" xlink:href="#DejaVuSans-117"/>
      <use x="150.826172" xlink:href="#DejaVuSans-101"/>
      <use x="212.349609" xlink:href="#DejaVuSans-32"/>
      <use x="244.136719" xlink:href="#DejaVuSans-112"/>
      <use x="307.613281" xlink:href="#DejaVuSans-111"/>
      <use x="368.794922" xlink:href="#DejaVuSans-115"/>
      <use x="420.894531" xlink:href="#DejaVuSans-105"/>
      <use x="448.677734" xlink:href="#DejaVuSans-116"/>
      <use x="487.886719" xlink:href="#DejaVuSans-105"/>
      <use x="515.669922" xlink:href="#DejaVuSans-118"/>
      <use x="574.849609" xlink:href="#DejaVuSans-101"/>
      <use x="636.373047" xlink:href="#DejaVuSans-32"/>
      <use x="668.160156" xlink:href="#DejaVuSans-114"/>
      <use x="709.273438" xlink:href="#DejaVuSans-97"/>
      <use x="770.552734" xlink:href="#DejaVuSans-116"/>
      <use x="809.761719" xlink:href="#DejaVuSans-101"/>
     </g>
    </g>
   </g>
   <g id="line2d_1">
    <path clip-path="url(#p7989505778)" d="M 63.45 332.91 
L 63.45 322.15125 
L 65.941071 322.15125 
L 65.941071 318.75375 
L 68.432143 318.75375 
L 68.432143 315.9225 
L 70.923214 315.9225 
L 70.923214 307.42875 
L 73.414286 307.42875 
L 73.414286 295.5375 
L 75.905357 295.5375 
L 75.905357 270.6225 
L 78.396429 270.6225 
L 78.396429 265.52625 
L 80.8875 265.52625 
L 80.8875 264.96 
L 83.378571 264.96 
L 83.378571 262.695 
L 85.869643 262.695 
L 85.869643 260.43 
L 88.360714 260.43 
L 88.360714 258.165 
L 90.851786 258.165 
L 90.851786 255.33375 
L 93.342857 255.33375 
L 93.342857 249.105 
L 95.833929 249.105 
L 95.833929 247.9725 
L 98.325 247.9725 
L 98.325 241.74375 
L 100.816071 241.74375 
L 100.816071 231.55125 
L 103.307143 231.55125 
L 103.307143 225.88875 
L 105.798214 225.88875 
L 105.798214 219.66 
L 108.289286 219.66 
L 108.289286 215.69625 
L 110.780357 215.69625 
L 110.780357 211.16625 
L 113.271429 211.16625 
L 113.271429 203.23875 
L 115.7625 203.23875 
L 115.7625 202.6725 
L 118.253571 202.6725 
L 118.253571 194.745 
L 123.235714 194.745 
L 123.235714 193.6125 
L 125.726786 193.6125 
L 125.726786 192.48 
L 128.217857 192.48 
L 128.217857 184.5525 
L 130.708929 184.5525 
L 130.708929 181.72125 
L 133.2 181.72125 
L 133.2 181.155 
L 135.691071 181.155 
L 135.691071 178.89 
L 138.182143 178.89 
L 138.182143 172.66125 
L 140.673214 172.66125 
L 140.673214 171.52875 
L 143.164286 171.52875 
L 143.164286 167.565 
L 148.146429 167.565 
L 148.146429 166.4325 
L 150.6375 166.4325 
L 150.6375 163.60125 
L 153.128571 163.60125 
L 153.128571 143.21625 
L 155.619643 143.21625 
L 155.619643 137.55375 
L 158.110714 137.55375 
L 158.110714 131.325 
L 160.601786 131.325 
L 160.601786 130.1925 
L 165.583929 130.1925 
L 165.583929 122.83125 
L 168.075 122.83125 
L 168.075 121.69875 
L 170.566071 121.69875 
L 170.566071 120 
L 173.057143 120 
L 173.057143 112.0725 
L 178.039286 112.0725 
L 178.039286 108.675 
L 180.530357 108.675 
L 180.530357 108.10875 
L 183.021429 108.10875 
L 183.021429 106.97625 
L 185.5125 106.97625 
L 185.5125 104.145 
L 190.494643 104.145 
L 190.494643 103.0125 
L 192.985714 103.0125 
L 192.985714 102.44625 
L 197.967857 102.44625 
L 197.967857 101.88 
L 202.95 101.88 
L 202.95 101.31375 
L 205.441071 101.31375 
L 205.441071 100.7475 
L 207.932143 100.7475 
L 207.932143 97.35 
L 212.914286 97.35 
L 212.914286 95.65125 
L 220.3875 95.65125 
L 220.3875 93.9525 
L 222.878571 93.9525 
L 222.878571 90.555 
L 227.860714 90.555 
L 227.860714 89.4225 
L 232.842857 89.4225 
L 232.842857 88.85625 
L 235.333929 88.85625 
L 235.333929 88.29 
L 237.825 88.29 
L 237.825 87.72375 
L 240.316071 87.72375 
L 240.316071 85.45875 
L 242.807143 85.45875 
L 242.807143 84.32625 
L 250.280357 84.32625 
L 250.280357 83.76 
L 252.771429 83.76 
L 252.771429 83.19375 
L 255.2625 83.19375 
L 255.2625 81.495 
L 257.753571 81.495 
L 257.753571 79.23 
L 265.226786 79.23 
L 265.226786 78.66375 
L 267.717857 78.66375 
L 267.717857 78.0975 
L 270.208929 78.0975 
L 270.208929 77.53125 
L 272.7 77.53125 
L 272.7 76.39875 
L 277.682143 76.39875 
L 277.682143 75.26625 
L 280.173214 75.26625 
L 280.173214 74.7 
L 282.664286 74.7 
L 282.664286 73.5675 
L 290.1375 73.5675 
L 290.1375 72.435 
L 292.628571 72.435 
L 292.628571 71.3025 
L 295.119643 71.3025 
L 295.119643 69.60375 
L 302.592857 69.60375 
L 302.592857 67.905 
L 312.557143 67.905 
L 312.557143 66.20625 
L 320.030357 66.20625 
L 320.030357 65.64 
L 322.521429 65.64 
L 322.521429 63.94125 
L 325.0125 63.94125 
L 325.0125 62.2425 
L 332.485714 62.2425 
L 332.485714 61.67625 
L 337.467857 61.67625 
L 337.467857 61.11 
L 342.45 61.11 
L 342.45 61.11 
" style="fill:none;stroke:#4c72b0;stroke-linecap:round;stroke-width:4;"/>
   </g>
   <g id="line2d_2">
    <path clip-path="url(#p7989505778)" d="M 63.45 332.91 
L 342.45 61.11 
" style="fill:none;stroke:#000000;stroke-dasharray:3.7,1.6;stroke-dashoffset:0;"/>
   </g>
   <g id="line2d_3">
    <path clip-path="url(#p7989505778)" d="M 63.45 332.91 
L 65.941071 332.91 
L 68.432143 332.34375 
L 68.432143 328.94625 
L 70.923214 328.38 
L 70.923214 322.7175 
L 73.414286 322.15125 
L 73.414286 318.1875 
L 78.396429 318.1875 
L 78.396429 316.48875 
L 80.8875 315.9225 
L 83.378571 315.9225 
L 83.378571 304.03125 
L 85.869643 304.03125 
L 85.869643 302.89875 
L 88.360714 301.76625 
L 88.360714 300.0675 
L 90.851786 300.0675 
L 90.851786 289.30875 
L 93.342857 287.61 
L 93.342857 286.4775 
L 95.833929 285.91125 
L 95.833929 284.2125 
L 98.325 284.2125 
L 98.325 276.285 
L 100.816071 275.1525 
L 100.816071 262.695 
L 103.307143 261.5625 
L 105.798214 261.5625 
L 105.798214 247.40625 
L 108.289286 246.27375 
L 108.289286 241.1775 
L 110.780357 240.045 
L 110.780357 223.62375 
L 113.271429 222.49125 
L 113.271429 207.76875 
L 115.7625 207.76875 
L 115.7625 203.23875 
L 118.253571 203.23875 
L 118.253571 196.44375 
L 120.744643 196.44375 
L 120.744643 190.215 
L 123.235714 189.64875 
L 123.235714 181.72125 
L 125.726786 180.0225 
L 125.726786 178.32375 
L 130.708929 176.625 
L 135.691071 174.36 
L 135.691071 172.095 
L 140.673214 171.52875 
L 145.655357 170.39625 
L 145.655357 164.73375 
L 148.146429 164.73375 
L 150.6375 163.60125 
L 155.619643 162.46875 
L 160.601786 162.46875 
L 160.601786 160.77 
L 163.092857 159.6375 
L 163.092857 154.54125 
L 165.583929 152.8425 
L 168.075 151.71 
L 168.075 151.14375 
L 173.057143 148.87875 
L 175.548214 148.3125 
L 175.548214 146.61375 
L 180.530357 144.34875 
L 180.530357 143.21625 
L 183.021429 142.65 
L 183.021429 141.5175 
L 185.5125 138.68625 
L 188.003571 137.55375 
L 190.494643 136.9875 
L 190.494643 135.855 
L 192.985714 135.855 
L 202.95 131.325 
L 205.441071 130.75875 
L 207.932143 129.06 
L 207.932143 128.49375 
L 212.914286 126.22875 
L 212.914286 124.53 
L 215.405357 122.265 
L 217.896429 122.265 
L 220.3875 121.69875 
L 220.3875 118.30125 
L 222.878571 116.03625 
L 225.369643 116.03625 
L 227.860714 114.3375 
L 227.860714 110.94 
L 230.351786 110.37375 
L 235.333929 109.8075 
L 235.333929 108.675 
L 237.825 106.97625 
L 237.825 104.145 
L 245.298214 104.145 
L 247.789286 103.0125 
L 247.789286 102.44625 
L 250.280357 101.31375 
L 250.280357 100.18125 
L 252.771429 100.18125 
L 252.771429 98.4825 
L 255.2625 97.35 
L 255.2625 95.65125 
L 257.753571 93.9525 
L 262.735714 92.82 
L 262.735714 91.6875 
L 267.717857 91.6875 
L 275.191071 90.555 
L 277.682143 90.555 
L 277.682143 88.85625 
L 280.173214 88.85625 
L 282.664286 87.72375 
L 282.664286 87.1575 
L 285.155357 87.1575 
L 285.155357 83.76 
L 287.646429 83.76 
L 287.646429 82.06125 
L 290.1375 82.06125 
L 292.628571 80.3625 
L 295.119643 80.3625 
L 300.101786 79.23 
L 300.101786 78.66375 
L 302.592857 76.39875 
L 302.592857 74.13375 
L 305.083929 71.86875 
L 307.575 71.86875 
L 310.066071 71.3025 
L 312.557143 71.3025 
L 315.048214 70.73625 
L 315.048214 65.64 
L 320.030357 64.5075 
L 320.030357 62.80875 
L 334.976786 62.80875 
L 337.467857 62.2425 
L 337.467857 61.67625 
L 339.958929 61.11 
L 342.45 61.11 
L 342.45 61.11 
" style="fill:none;stroke:#dd8452;stroke-linecap:round;stroke-width:4;"/>
   </g>
   <g id="line2d_4">
    <path clip-path="url(#p7989505778)" d="M 63.45 332.91 
L 342.45 61.11 
" style="fill:none;stroke:#000000;stroke-dasharray:3.7,1.6;stroke-dashoffset:0;"/>
   </g>
   <g id="patch_3">
    <path d="M 49.5 346.5 
L 49.5 47.52 
" style="fill:none;stroke:#cccccc;stroke-linecap:square;stroke-linejoin:miter;stroke-width:1.25;"/>
   </g>
   <g id="patch_4">
    <path d="M 356.4 346.5 
L 356.4 47.52 
" style="fill:none;stroke:#cccccc;stroke-linecap:square;stroke-linejoin:miter;stroke-width:1.25;"/>
   </g>
   <g id="patch_5">
    <path d="M 49.5 346.5 
L 356.4 346.5 
" style="fill:none;stroke:#cccccc;stroke-linecap:square;stroke-linejoin:miter;stroke-width:1.25;"/>
   </g>
   <g id="patch_6">
    <path d="M 49.5 47.52 
L 356.4 47.52 
" style="fill:none;stroke:#cccccc;stroke-linecap:square;stroke-linejoin:miter;stroke-width:1.25;"/>
   </g>
   <g id="legend_1">
    <g id="patch_7">
     <path d="M 130.417031 341 
L 348.7 341 
Q 350.9 341 350.9 338.8 
L 350.9 307.608125 
Q 350.9 305.408125 348.7 305.408125 
L 130.417031 305.408125 
Q 128.217031 305.408125 128.217031 307.608125 
L 128.217031 338.8 
Q 128.217031 341 130.417031 341 
z
" style="fill:#ffffff;opacity:0.8;stroke:#cccccc;stroke-linejoin:miter;"/>
    </g>
    <g id="line2d_5">
     <path d="M 132.617031 314.316406 
L 154.617031 314.316406 
" style="fill:none;stroke:#4c72b0;stroke-linecap:round;stroke-width:4;"/>
    </g>
    <g id="line2d_6"/>
    <g id="text_15">
     <!-- AI-detected TILs (AUC=0.74) -->
     <g style="fill:#262626;" transform="translate(163.417031 318.166406)scale(0.11 -0.11)">
      <defs>
       <path d="M 34.1875 63.1875 
L 20.796875 26.90625 
L 47.609375 26.90625 
z
M 28.609375 72.90625 
L 39.796875 72.90625 
L 67.578125 0 
L 57.328125 0 
L 50.6875 18.703125 
L 17.828125 18.703125 
L 11.1875 0 
L 0.78125 0 
z
" id="DejaVuSans-65"/>
       <path d="M 9.8125 72.90625 
L 19.671875 72.90625 
L 19.671875 0 
L 9.8125 0 
z
" id="DejaVuSans-73"/>
       <path d="M 4.890625 31.390625 
L 31.203125 31.390625 
L 31.203125 23.390625 
L 4.890625 23.390625 
z
" id="DejaVuSans-45"/>
       <path d="M 45.40625 46.390625 
L 45.40625 75.984375 
L 54.390625 75.984375 
L 54.390625 0 
L 45.40625 0 
L 45.40625 8.203125 
Q 42.578125 3.328125 38.25 0.953125 
Q 33.9375 -1.421875 27.875 -1.421875 
Q 17.96875 -1.421875 11.734375 6.484375 
Q 5.515625 14.40625 5.515625 27.296875 
Q 5.515625 40.1875 11.734375 48.09375 
Q 17.96875 56 27.875 56 
Q 33.9375 56 38.25 53.625 
Q 42.578125 51.265625 45.40625 46.390625 
z
M 14.796875 27.296875 
Q 14.796875 17.390625 18.875 11.75 
Q 22.953125 6.109375 30.078125 6.109375 
Q 37.203125 6.109375 41.296875 11.75 
Q 45.40625 17.390625 45.40625 27.296875 
Q 45.40625 37.203125 41.296875 42.84375 
Q 37.203125 48.484375 30.078125 48.484375 
Q 22.953125 48.484375 18.875 42.84375 
Q 14.796875 37.203125 14.796875 27.296875 
z
" id="DejaVuSans-100"/>
       <path d="M 48.78125 52.59375 
L 48.78125 44.1875 
Q 44.96875 46.296875 41.140625 47.34375 
Q 37.3125 48.390625 33.40625 48.390625 
Q 24.65625 48.390625 19.8125 42.84375 
Q 14.984375 37.3125 14.984375 27.296875 
Q 14.984375 17.28125 19.8125 11.734375 
Q 24.65625 6.203125 33.40625 6.203125 
Q 37.3125 6.203125 41.140625 7.25 
Q 44.96875 8.296875 48.78125 10.40625 
L 48.78125 2.09375 
Q 45.015625 0.34375 40.984375 -0.53125 
Q 36.96875 -1.421875 32.421875 -1.421875 
Q 20.0625 -1.421875 12.78125 6.34375 
Q 5.515625 14.109375 5.515625 27.296875 
Q 5.515625 40.671875 12.859375 48.328125 
Q 20.21875 56 33.015625 56 
Q 37.15625 56 41.109375 55.140625 
Q 45.0625 54.296875 48.78125 52.59375 
z
" id="DejaVuSans-99"/>
       <path d="M 9.8125 72.90625 
L 19.671875 72.90625 
L 19.671875 8.296875 
L 55.171875 8.296875 
L 55.171875 0 
L 9.8125 0 
z
" id="DejaVuSans-76"/>
       <path d="M 31 75.875 
Q 24.46875 64.65625 21.28125 53.65625 
Q 18.109375 42.671875 18.109375 31.390625 
Q 18.109375 20.125 21.3125 9.0625 
Q 24.515625 -2 31 -13.1875 
L 23.1875 -13.1875 
Q 15.875 -1.703125 12.234375 9.375 
Q 8.59375 20.453125 8.59375 31.390625 
Q 8.59375 42.28125 12.203125 53.3125 
Q 15.828125 64.359375 23.1875 75.875 
z
" id="DejaVuSans-40"/>
       <path d="M 8.6875 72.90625 
L 18.609375 72.90625 
L 18.609375 28.609375 
Q 18.609375 16.890625 22.84375 11.734375 
Q 27.09375 6.59375 36.625 6.59375 
Q 46.09375 6.59375 50.34375 11.734375 
Q 54.59375 16.890625 54.59375 28.609375 
L 54.59375 72.90625 
L 64.5 72.90625 
L 64.5 27.390625 
Q 64.5 13.140625 57.4375 5.859375 
Q 50.390625 -1.421875 36.625 -1.421875 
Q 22.796875 -1.421875 15.734375 5.859375 
Q 8.6875 13.140625 8.6875 27.390625 
z
" id="DejaVuSans-85"/>
       <path d="M 64.40625 67.28125 
L 64.40625 56.890625 
Q 59.421875 61.53125 53.78125 63.8125 
Q 48.140625 66.109375 41.796875 66.109375 
Q 29.296875 66.109375 22.65625 58.46875 
Q 16.015625 50.828125 16.015625 36.375 
Q 16.015625 21.96875 22.65625 14.328125 
Q 29.296875 6.6875 41.796875 6.6875 
Q 48.140625 6.6875 53.78125 8.984375 
Q 59.421875 11.28125 64.40625 15.921875 
L 64.40625 5.609375 
Q 59.234375 2.09375 53.4375 0.328125 
Q 47.65625 -1.421875 41.21875 -1.421875 
Q 24.65625 -1.421875 15.125 8.703125 
Q 5.609375 18.84375 5.609375 36.375 
Q 5.609375 53.953125 15.125 64.078125 
Q 24.65625 74.21875 41.21875 74.21875 
Q 47.75 74.21875 53.53125 72.484375 
Q 59.328125 70.75 64.40625 67.28125 
z
" id="DejaVuSans-67"/>
       <path d="M 10.59375 45.40625 
L 73.1875 45.40625 
L 73.1875 37.203125 
L 10.59375 37.203125 
z
M 10.59375 25.484375 
L 73.1875 25.484375 
L 73.1875 17.1875 
L 10.59375 17.1875 
z
" id="DejaVuSans-61"/>
       <path d="M 8.203125 72.90625 
L 55.078125 72.90625 
L 55.078125 68.703125 
L 28.609375 0 
L 18.3125 0 
L 43.21875 64.59375 
L 8.203125 64.59375 
z
" id="DejaVuSans-55"/>
       <path d="M 8.015625 75.875 
L 15.828125 75.875 
Q 23.140625 64.359375 26.78125 53.3125 
Q 30.421875 42.28125 30.421875 31.390625 
Q 30.421875 20.453125 26.78125 9.375 
Q 23.140625 -1.703125 15.828125 -13.1875 
L 8.015625 -13.1875 
Q 14.5 -2 17.703125 9.0625 
Q 20.90625 20.125 20.90625 31.390625 
Q 20.90625 42.671875 17.703125 53.65625 
Q 14.5 64.65625 8.015625 75.875 
z
" id="DejaVuSans-41"/>
      </defs>
      <use xlink:href="#DejaVuSans-65"/>
      <use x="68.408203" xlink:href="#DejaVuSans-73"/>
      <use x="97.900391" xlink:href="#DejaVuSans-45"/>
      <use x="133.984375" xlink:href="#DejaVuSans-100"/>
      <use x="197.460938" xlink:href="#DejaVuSans-101"/>
      <use x="258.984375" xlink:href="#DejaVuSans-116"/>
      <use x="298.193359" xlink:href="#DejaVuSans-101"/>
      <use x="359.716797" xlink:href="#DejaVuSans-99"/>
      <use x="414.697266" xlink:href="#DejaVuSans-116"/>
      <use x="453.90625" xlink:href="#DejaVuSans-101"/>
      <use x="515.429688" xlink:href="#DejaVuSans-100"/>
      <use x="578.90625" xlink:href="#DejaVuSans-32"/>
      <use x="610.693359" xlink:href="#DejaVuSans-84"/>
      <use x="671.777344" xlink:href="#DejaVuSans-73"/>
      <use x="701.269531" xlink:href="#DejaVuSans-76"/>
      <use x="756.982422" xlink:href="#DejaVuSans-115"/>
      <use x="809.082031" xlink:href="#DejaVuSans-32"/>
      <use x="840.869141" xlink:href="#DejaVuSans-40"/>
      <use x="879.882812" xlink:href="#DejaVuSans-65"/>
      <use x="948.291016" xlink:href="#DejaVuSans-85"/>
      <use x="1021.484375" xlink:href="#DejaVuSans-67"/>
      <use x="1091.308594" xlink:href="#DejaVuSans-61"/>
      <use x="1175.097656" xlink:href="#DejaVuSans-48"/>
      <use x="1238.720703" xlink:href="#DejaVuSans-46"/>
      <use x="1270.507812" xlink:href="#DejaVuSans-55"/>
      <use x="1334.130859" xlink:href="#DejaVuSans-52"/>
      <use x="1397.753906" xlink:href="#DejaVuSans-41"/>
     </g>
    </g>
    <g id="line2d_7">
     <path d="M 132.617031 330.462344 
L 154.617031 330.462344 
" style="fill:none;stroke:#dd8452;stroke-linecap:round;stroke-width:4;"/>
    </g>
    <g id="line2d_8"/>
    <g id="text_16">
     <!-- ITWG-estimated TILs (AUC=0.67) -->
     <g style="fill:#262626;" transform="translate(163.417031 334.312344)scale(0.11 -0.11)">
      <defs>
       <path d="M 3.328125 72.90625 
L 13.28125 72.90625 
L 28.609375 11.28125 
L 43.890625 72.90625 
L 54.984375 72.90625 
L 70.3125 11.28125 
L 85.59375 72.90625 
L 95.609375 72.90625 
L 77.296875 0 
L 64.890625 0 
L 49.515625 63.28125 
L 33.984375 0 
L 21.578125 0 
z
" id="DejaVuSans-87"/>
       <path d="M 59.515625 10.40625 
L 59.515625 29.984375 
L 43.40625 29.984375 
L 43.40625 38.09375 
L 69.28125 38.09375 
L 69.28125 6.78125 
Q 63.578125 2.734375 56.6875 0.65625 
Q 49.8125 -1.421875 42 -1.421875 
Q 24.90625 -1.421875 15.25 8.5625 
Q 5.609375 18.5625 5.609375 36.375 
Q 5.609375 54.25 15.25 64.234375 
Q 24.90625 74.21875 42 74.21875 
Q 49.125 74.21875 55.546875 72.453125 
Q 61.96875 70.703125 67.390625 67.28125 
L 67.390625 56.78125 
Q 61.921875 61.421875 55.765625 63.765625 
Q 49.609375 66.109375 42.828125 66.109375 
Q 29.4375 66.109375 22.71875 58.640625 
Q 16.015625 51.171875 16.015625 36.375 
Q 16.015625 21.625 22.71875 14.15625 
Q 29.4375 6.6875 42.828125 6.6875 
Q 48.046875 6.6875 52.140625 7.59375 
Q 56.25 8.5 59.515625 10.40625 
z
" id="DejaVuSans-71"/>
       <path d="M 52 44.1875 
Q 55.375 50.25 60.0625 53.125 
Q 64.75 56 71.09375 56 
Q 79.640625 56 84.28125 50.015625 
Q 88.921875 44.046875 88.921875 33.015625 
L 88.921875 0 
L 79.890625 0 
L 79.890625 32.71875 
Q 79.890625 40.578125 77.09375 44.375 
Q 74.3125 48.1875 68.609375 48.1875 
Q 61.625 48.1875 57.5625 43.546875 
Q 53.515625 38.921875 53.515625 30.90625 
L 53.515625 0 
L 44.484375 0 
L 44.484375 32.71875 
Q 44.484375 40.625 41.703125 44.40625 
Q 38.921875 48.1875 33.109375 48.1875 
Q 26.21875 48.1875 22.15625 43.53125 
Q 18.109375 38.875 18.109375 30.90625 
L 18.109375 0 
L 9.078125 0 
L 9.078125 54.6875 
L 18.109375 54.6875 
L 18.109375 46.1875 
Q 21.1875 51.21875 25.484375 53.609375 
Q 29.78125 56 35.6875 56 
Q 41.65625 56 45.828125 52.96875 
Q 50 49.953125 52 44.1875 
z
" id="DejaVuSans-109"/>
      </defs>
      <use xlink:href="#DejaVuSans-73"/>
      <use x="29.492188" xlink:href="#DejaVuSans-84"/>
      <use x="90.576172" xlink:href="#DejaVuSans-87"/>
      <use x="189.453125" xlink:href="#DejaVuSans-71"/>
      <use x="266.943359" xlink:href="#DejaVuSans-45"/>
      <use x="303.027344" xlink:href="#DejaVuSans-101"/>
      <use x="364.550781" xlink:href="#DejaVuSans-115"/>
      <use x="416.650391" xlink:href="#DejaVuSans-116"/>
      <use x="455.859375" xlink:href="#DejaVuSans-105"/>
      <use x="483.642578" xlink:href="#DejaVuSans-109"/>
      <use x="581.054688" xlink:href="#DejaVuSans-97"/>
      <use x="642.333984" xlink:href="#DejaVuSans-116"/>
      <use x="681.542969" xlink:href="#DejaVuSans-101"/>
      <use x="743.066406" xlink:href="#DejaVuSans-100"/>
      <use x="806.542969" xlink:href="#DejaVuSans-32"/>
      <use x="838.330078" xlink:href="#DejaVuSans-84"/>
      <use x="899.414062" xlink:href="#DejaVuSans-73"/>
      <use x="928.90625" xlink:href="#DejaVuSans-76"/>
      <use x="984.619141" xlink:href="#DejaVuSans-115"/>
      <use x="1036.71875" xlink:href="#DejaVuSans-32"/>
      <use x="1068.505859" xlink:href="#DejaVuSans-40"/>
      <use x="1107.519531" xlink:href="#DejaVuSans-65"/>
      <use x="1175.927734" xlink:href="#DejaVuSans-85"/>
      <use x="1249.121094" xlink:href="#DejaVuSans-67"/>
      <use x="1318.945312" xlink:href="#DejaVuSans-61"/>
      <use x="1402.734375" xlink:href="#DejaVuSans-48"/>
      <use x="1466.357422" xlink:href="#DejaVuSans-46"/>
      <use x="1498.144531" xlink:href="#DejaVuSans-54"/>
      <use x="1561.767578" xlink:href="#DejaVuSans-55"/>
      <use x="1625.390625" xlink:href="#DejaVuSans-41"/>
     </g>
    </g>
   </g>
  </g>
 </g>
 <defs>
  <clipPath id="p7989505778">
   <rect height="298.98" width="306.9" x="49.5" y="47.52"/>
  </clipPath>
 </defs>
</svg>
