<?xml version="1.0" encoding="utf-8" standalone="no"?>
<!DOCTYPE svg PUBLIC "-//W3C//DTD SVG 1.1//EN"
  "http://www.w3.org/Graphics/SVG/1.1/DTD/svg11.dtd">
<!-- Created with matplotlib (https://matplotlib.org/) -->
<svg height="337.077812pt" version="1.1" viewBox="0 0 894.007187 337.077812" width="894.007187pt" xmlns="http://www.w3.org/2000/svg" xmlns:xlink="http://www.w3.org/1999/xlink">
 <metadata>
  <rdf:RDF xmlns:cc="http://creativecommons.org/ns#" xmlns:dc="http://purl.org/dc/elements/1.1/" xmlns:rdf="http://www.w3.org/1999/02/22-rdf-syntax-ns#">
   <cc:Work>
    <dc:type rdf:resource="http://purl.org/dc/dcmitype/StillImage"/>
    <dc:date>2020-12-08T14:59:11.902848</dc:date>
    <dc:format>image/svg+xml</dc:format>
    <dc:creator>
     <cc:Agent>
      <dc:title>Matplotlib v3.3.0, https://matplotlib.org/</dc:title>
     </cc:Agent>
    </dc:creator>
   </cc:Work>
  </rdf:RDF>
 </metadata>
 <defs>
  <style type="text/css">*{stroke-linecap:butt;stroke-linejoin:round;}</style>
 </defs>
 <g id="figure_1">
  <g id="patch_1">
   <path d="M 0 337.077812 
L 894.007187 337.077812 
L 894.007187 0 
L 0 0 
z
" style="fill:#ffffff;"/>
  </g>
  <g id="axes_1">
   <g id="patch_2">
    <path d="M 49.807188 294.118125 
L 295.983658 294.118125 
L 295.983658 22.318125 
L 49.807188 22.318125 
z
" style="fill:#ffffff;"/>
   </g>
   <g id="matplotlib.axis_1">
    <g id="xtick_1">
     <g id="text_1">
      <!-- 0.0 -->
      <g style="fill:#262626;" transform="translate(52.250308 311.976406)scale(0.11 -0.11)">
       <defs>
        <path d="M 31.78125 3.421875 
Q 39.265625 3.421875 42.96875 11.625 
Q 46.6875 19.828125 46.6875 36.375 
Q 46.6875 52.984375 42.96875 61.1875 
Q 39.265625 69.390625 31.78125 69.390625 
Q 24.3125 69.390625 20.59375 61.1875 
Q 16.890625 52.984375 16.890625 36.375 
Q 16.890625 19.828125 20.59375 11.625 
Q 24.3125 3.421875 31.78125 3.421875 
z
M 31.78125 -1.421875 
Q 19.921875 -1.421875 13.25 8.53125 
Q 6.59375 18.5 6.59375 36.375 
Q 6.59375 54.296875 13.25 64.25 
Q 19.921875 74.21875 31.78125 74.21875 
Q 43.703125 74.21875 50.34375 64.25 
Q 56.984375 54.296875 56.984375 36.375 
Q 56.984375 18.5 50.34375 8.53125 
Q 43.703125 -1.421875 31.78125 -1.421875 
z
" id="DejaVuSerif-48"/>
        <path d="M 9.421875 5.078125 
Q 9.421875 7.8125 11.28125 9.71875 
Q 13.140625 11.625 15.921875 11.625 
Q 18.609375 11.625 20.5 9.71875 
Q 22.40625 7.8125 22.40625 5.078125 
Q 22.40625 2.390625 20.5 0.484375 
Q 18.609375 -1.421875 15.921875 -1.421875 
Q 13.140625 -1.421875 11.28125 0.453125 
Q 9.421875 2.34375 9.421875 5.078125 
z
" id="DejaVuSerif-46"/>
       </defs>
       <use xlink:href="#DejaVuSerif-48"/>
       <use x="63.623047" xlink:href="#DejaVuSerif-46"/>
       <use x="95.410156" xlink:href="#DejaVuSerif-48"/>
      </g>
     </g>
    </g>
    <g id="xtick_2">
     <g id="text_2">
      <!-- 0.2 -->
      <g style="fill:#262626;" transform="translate(97.009667 311.976406)scale(0.11 -0.11)">
       <defs>
        <path d="M 12.796875 55.515625 
L 7.328125 55.515625 
L 7.328125 68.5 
Q 12.546875 71.296875 17.84375 72.75 
Q 23.140625 74.21875 28.21875 74.21875 
Q 39.59375 74.21875 46.1875 68.703125 
Q 52.78125 63.1875 52.78125 53.71875 
Q 52.78125 43.015625 37.84375 28.125 
Q 36.671875 27 36.078125 26.421875 
L 17.671875 8.015625 
L 48.09375 8.015625 
L 48.09375 17 
L 53.8125 17 
L 53.8125 0 
L 6.78125 0 
L 6.78125 5.328125 
L 28.90625 27.390625 
Q 36.234375 34.71875 39.359375 40.84375 
Q 42.484375 46.96875 42.484375 53.71875 
Q 42.484375 61.078125 38.640625 65.234375 
Q 34.8125 69.390625 28.078125 69.390625 
Q 21.09375 69.390625 17.28125 65.921875 
Q 13.484375 62.453125 12.796875 55.515625 
z
" id="DejaVuSerif-50"/>
       </defs>
       <use xlink:href="#DejaVuSerif-48"/>
       <use x="63.623047" xlink:href="#DejaVuSerif-46"/>
       <use x="95.410156" xlink:href="#DejaVuSerif-50"/>
      </g>
     </g>
    </g>
    <g id="xtick_3">
     <g id="text_3">
      <!-- 0.4 -->
      <g style="fill:#262626;" transform="translate(141.769025 311.976406)scale(0.11 -0.11)">
       <defs>
        <path d="M 34.90625 24.703125 
L 34.90625 63.484375 
L 10.015625 24.703125 
z
M 56.390625 0 
L 23.1875 0 
L 23.1875 5.171875 
L 34.90625 5.171875 
L 34.90625 19.484375 
L 3.078125 19.484375 
L 3.078125 24.8125 
L 35.015625 74.21875 
L 44.671875 74.21875 
L 44.671875 24.703125 
L 58.59375 24.703125 
L 58.59375 19.484375 
L 44.671875 19.484375 
L 44.671875 5.171875 
L 56.390625 5.171875 
z
" id="DejaVuSerif-52"/>
       </defs>
       <use xlink:href="#DejaVuSerif-48"/>
       <use x="63.623047" xlink:href="#DejaVuSerif-46"/>
       <use x="95.410156" xlink:href="#DejaVuSerif-52"/>
      </g>
     </g>
    </g>
    <g id="xtick_4">
     <g id="text_4">
      <!-- 0.6 -->
      <g style="fill:#262626;" transform="translate(186.528383 311.976406)scale(0.11 -0.11)">
       <defs>
        <path d="M 32.71875 3.421875 
Q 39.59375 3.421875 43.296875 8.46875 
Q 47.015625 13.53125 47.015625 23 
Q 47.015625 32.46875 43.296875 37.515625 
Q 39.59375 42.578125 32.71875 42.578125 
Q 25.734375 42.578125 22.0625 37.6875 
Q 18.40625 32.8125 18.40625 23.578125 
Q 18.40625 13.875 22.109375 8.640625 
Q 25.828125 3.421875 32.71875 3.421875 
z
M 16.796875 40.140625 
Q 20.125 43.796875 24.3125 45.59375 
Q 28.515625 47.40625 33.796875 47.40625 
Q 44.671875 47.40625 51 40.859375 
Q 57.328125 34.328125 57.328125 23 
Q 57.328125 11.921875 50.515625 5.25 
Q 43.703125 -1.421875 32.328125 -1.421875 
Q 19.96875 -1.421875 13.328125 7.78125 
Q 6.6875 17 6.6875 34.078125 
Q 6.6875 53.21875 14.546875 63.71875 
Q 22.40625 74.21875 36.71875 74.21875 
Q 40.578125 74.21875 44.828125 73.484375 
Q 49.078125 72.75 53.515625 71.296875 
L 53.515625 59.28125 
L 48 59.28125 
Q 47.40625 64.203125 44.234375 66.796875 
Q 41.0625 69.390625 35.6875 69.390625 
Q 26.21875 69.390625 21.578125 62.203125 
Q 16.9375 55.03125 16.796875 40.140625 
z
" id="DejaVuSerif-54"/>
       </defs>
       <use xlink:href="#DejaVuSerif-48"/>
       <use x="63.623047" xlink:href="#DejaVuSerif-46"/>
       <use x="95.410156" xlink:href="#DejaVuSerif-54"/>
      </g>
     </g>
    </g>
    <g id="xtick_5">
     <g id="text_5">
      <!-- 0.8 -->
      <g style="fill:#262626;" transform="translate(231.287741 311.976406)scale(0.11 -0.11)">
       <defs>
        <path d="M 46.578125 19.921875 
Q 46.578125 27.734375 42.6875 32.046875 
Q 38.8125 36.375 31.78125 36.375 
Q 24.75 36.375 20.875 32.046875 
Q 17 27.734375 17 19.921875 
Q 17 12.0625 20.875 7.734375 
Q 24.75 3.421875 31.78125 3.421875 
Q 38.8125 3.421875 42.6875 7.734375 
Q 46.578125 12.0625 46.578125 19.921875 
z
M 44.578125 55.328125 
Q 44.578125 61.96875 41.203125 65.671875 
Q 37.84375 69.390625 31.78125 69.390625 
Q 25.78125 69.390625 22.390625 65.671875 
Q 19 61.96875 19 55.328125 
Q 19 48.640625 22.390625 44.921875 
Q 25.78125 41.21875 31.78125 41.21875 
Q 37.84375 41.21875 41.203125 44.921875 
Q 44.578125 48.640625 44.578125 55.328125 
z
M 39.3125 38.8125 
Q 47.609375 37.703125 52.25 32.6875 
Q 56.890625 27.6875 56.890625 19.921875 
Q 56.890625 9.671875 50.390625 4.125 
Q 43.890625 -1.421875 31.78125 -1.421875 
Q 19.734375 -1.421875 13.203125 4.125 
Q 6.6875 9.671875 6.6875 19.921875 
Q 6.6875 27.6875 11.328125 32.6875 
Q 15.96875 37.703125 24.3125 38.8125 
Q 16.9375 40.140625 13 44.40625 
Q 9.078125 48.6875 9.078125 55.328125 
Q 9.078125 64.109375 15.125 69.15625 
Q 21.1875 74.21875 31.78125 74.21875 
Q 42.390625 74.21875 48.4375 69.15625 
Q 54.5 64.109375 54.5 55.328125 
Q 54.5 48.6875 50.5625 44.40625 
Q 46.625 40.140625 39.3125 38.8125 
z
" id="DejaVuSerif-56"/>
       </defs>
       <use xlink:href="#DejaVuSerif-48"/>
       <use x="63.623047" xlink:href="#DejaVuSerif-46"/>
       <use x="95.410156" xlink:href="#DejaVuSerif-56"/>
      </g>
     </g>
    </g>
    <g id="xtick_6">
     <g id="text_6">
      <!-- 1.0 -->
      <g style="fill:#262626;" transform="translate(276.0471 311.976406)scale(0.11 -0.11)">
       <defs>
        <path d="M 14.203125 0 
L 14.203125 5.171875 
L 26.90625 5.171875 
L 26.90625 65.828125 
L 12.203125 56.296875 
L 12.203125 62.703125 
L 29.984375 74.21875 
L 36.71875 74.21875 
L 36.71875 5.171875 
L 49.421875 5.171875 
L 49.421875 0 
z
" id="DejaVuSerif-49"/>
       </defs>
       <use xlink:href="#DejaVuSerif-49"/>
       <use x="63.623047" xlink:href="#DejaVuSerif-46"/>
       <use x="95.410156" xlink:href="#DejaVuSerif-48"/>
      </g>
     </g>
    </g>
    <g id="text_7">
     <!-- False positive rate -->
     <g style="fill:#262626;" transform="translate(117.06636 327.382187)scale(0.12 -0.12)">
      <defs>
       <path d="M 5.515625 0 
L 5.515625 5.171875 
L 14.796875 5.171875 
L 14.796875 67.671875 
L 5.515625 67.671875 
L 5.515625 72.90625 
L 65.1875 72.90625 
L 65.1875 56.6875 
L 59.1875 56.6875 
L 59.1875 66.890625 
L 24.703125 66.890625 
L 24.703125 42.484375 
L 49.609375 42.484375 
L 49.609375 51.609375 
L 55.609375 51.609375 
L 55.609375 27.390625 
L 49.609375 27.390625 
L 49.609375 36.53125 
L 24.703125 36.53125 
L 24.703125 5.171875 
L 36.375 5.171875 
L 36.375 0 
z
" id="DejaVuSerif-70"/>
       <path d="M 39.796875 16.3125 
L 39.796875 27.296875 
L 28.21875 27.296875 
Q 21.53125 27.296875 18.25 24.40625 
Q 14.984375 21.53125 14.984375 15.578125 
Q 14.984375 10.15625 18.296875 6.984375 
Q 21.625 3.8125 27.296875 3.8125 
Q 32.90625 3.8125 36.34375 7.28125 
Q 39.796875 10.75 39.796875 16.3125 
z
M 48.78125 32.421875 
L 48.78125 5.171875 
L 56.78125 5.171875 
L 56.78125 0 
L 39.796875 0 
L 39.796875 5.609375 
Q 36.8125 2 32.90625 0.28125 
Q 29 -1.421875 23.78125 -1.421875 
Q 15.140625 -1.421875 10.0625 3.171875 
Q 4.984375 7.765625 4.984375 15.578125 
Q 4.984375 23.640625 10.796875 28.078125 
Q 16.609375 32.515625 27.203125 32.515625 
L 39.796875 32.515625 
L 39.796875 36.078125 
Q 39.796875 42 36.203125 45.234375 
Q 32.625 48.484375 26.125 48.484375 
Q 20.75 48.484375 17.578125 46.046875 
Q 14.40625 43.609375 13.625 38.8125 
L 8.984375 38.8125 
L 8.984375 49.3125 
Q 13.671875 51.3125 18.09375 52.3125 
Q 22.515625 53.328125 26.703125 53.328125 
Q 37.5 53.328125 43.140625 47.96875 
Q 48.78125 42.625 48.78125 32.421875 
z
" id="DejaVuSerif-97"/>
       <path d="M 20.515625 5.171875 
L 29 5.171875 
L 29 0 
L 2.875 0 
L 2.875 5.171875 
L 11.53125 5.171875 
L 11.53125 70.796875 
L 2.875 70.796875 
L 2.875 75.984375 
L 20.515625 75.984375 
z
" id="DejaVuSerif-108"/>
       <path d="M 5.609375 2.875 
L 5.609375 14.984375 
L 10.796875 14.984375 
Q 10.984375 9.1875 14.421875 6.296875 
Q 17.875 3.421875 24.609375 3.421875 
Q 30.671875 3.421875 33.84375 5.6875 
Q 37.015625 7.953125 37.015625 12.3125 
Q 37.015625 15.71875 34.6875 17.8125 
Q 32.375 19.921875 24.90625 22.3125 
L 18.40625 24.515625 
Q 11.71875 26.65625 8.71875 29.875 
Q 5.71875 33.109375 5.71875 38.09375 
Q 5.71875 45.21875 10.9375 49.265625 
Q 16.15625 53.328125 25.390625 53.328125 
Q 29.5 53.328125 34.03125 52.25 
Q 38.578125 51.171875 43.40625 49.125 
L 43.40625 37.796875 
L 38.234375 37.796875 
Q 38.03125 42.828125 34.703125 45.65625 
Q 31.390625 48.484375 25.6875 48.484375 
Q 20.015625 48.484375 17.109375 46.484375 
Q 14.203125 44.484375 14.203125 40.484375 
Q 14.203125 37.203125 16.40625 35.21875 
Q 18.609375 33.25 25.203125 31.203125 
L 32.328125 29 
Q 39.703125 26.703125 42.9375 23.265625 
Q 46.1875 19.828125 46.1875 14.40625 
Q 46.1875 7.03125 40.546875 2.796875 
Q 34.90625 -1.421875 25 -1.421875 
Q 19.96875 -1.421875 15.1875 -0.34375 
Q 10.40625 0.734375 5.609375 2.875 
z
" id="DejaVuSerif-115"/>
       <path d="M 54.203125 25 
L 15.484375 25 
L 15.484375 24.609375 
Q 15.484375 14.109375 19.4375 8.765625 
Q 23.390625 3.421875 31.109375 3.421875 
Q 37.015625 3.421875 40.796875 6.515625 
Q 44.578125 9.625 46.09375 15.71875 
L 53.328125 15.71875 
Q 51.171875 7.171875 45.375 2.875 
Q 39.59375 -1.421875 30.171875 -1.421875 
Q 18.796875 -1.421875 11.890625 6.078125 
Q 4.984375 13.578125 4.984375 25.984375 
Q 4.984375 38.28125 11.765625 45.796875 
Q 18.5625 53.328125 29.59375 53.328125 
Q 41.359375 53.328125 47.65625 46.0625 
Q 53.953125 38.8125 54.203125 25 
z
M 43.609375 30.171875 
Q 43.3125 39.265625 39.765625 43.875 
Q 36.234375 48.484375 29.59375 48.484375 
Q 23.390625 48.484375 19.828125 43.84375 
Q 16.265625 39.203125 15.484375 30.171875 
z
" id="DejaVuSerif-101"/>
       <path id="DejaVuSerif-32"/>
       <path d="M 20.515625 28.515625 
L 20.515625 23.390625 
Q 20.515625 14.015625 24.09375 9.109375 
Q 27.6875 4.203125 34.515625 4.203125 
Q 41.40625 4.203125 44.9375 9.71875 
Q 48.484375 15.234375 48.484375 25.984375 
Q 48.484375 36.765625 44.9375 42.234375 
Q 41.40625 47.703125 34.515625 47.703125 
Q 27.6875 47.703125 24.09375 42.765625 
Q 20.515625 37.84375 20.515625 28.515625 
z
M 11.53125 46.6875 
L 2.875 46.6875 
L 2.875 51.90625 
L 20.515625 51.90625 
L 20.515625 43.796875 
Q 23.140625 48.6875 27.21875 51 
Q 31.296875 53.328125 37.3125 53.328125 
Q 46.875 53.328125 52.921875 45.75 
Q 58.984375 38.1875 58.984375 25.984375 
Q 58.984375 13.765625 52.921875 6.171875 
Q 46.875 -1.421875 37.3125 -1.421875 
Q 31.296875 -1.421875 27.21875 0.890625 
Q 23.140625 3.21875 20.515625 8.109375 
L 20.515625 -15.578125 
L 29 -15.578125 
L 29 -20.796875 
L 2.875 -20.796875 
L 2.875 -15.578125 
L 11.53125 -15.578125 
z
" id="DejaVuSerif-112"/>
       <path d="M 30.078125 3.421875 
Q 37.3125 3.421875 40.984375 9.125 
Q 44.671875 14.84375 44.671875 25.984375 
Q 44.671875 37.109375 40.984375 42.796875 
Q 37.3125 48.484375 30.078125 48.484375 
Q 22.859375 48.484375 19.171875 42.796875 
Q 15.484375 37.109375 15.484375 25.984375 
Q 15.484375 14.84375 19.1875 9.125 
Q 22.90625 3.421875 30.078125 3.421875 
z
M 30.078125 -1.421875 
Q 18.75 -1.421875 11.859375 6.078125 
Q 4.984375 13.578125 4.984375 25.984375 
Q 4.984375 38.375 11.84375 45.84375 
Q 18.703125 53.328125 30.078125 53.328125 
Q 41.453125 53.328125 48.3125 45.84375 
Q 55.171875 38.375 55.171875 25.984375 
Q 55.171875 13.578125 48.3125 6.078125 
Q 41.453125 -1.421875 30.078125 -1.421875 
z
" id="DejaVuSerif-111"/>
       <path d="M 9.71875 68.015625 
Q 9.71875 70.265625 11.34375 71.921875 
Q 12.984375 73.578125 15.28125 73.578125 
Q 17.53125 73.578125 19.15625 71.921875 
Q 20.796875 70.265625 20.796875 68.015625 
Q 20.796875 65.71875 19.1875 64.109375 
Q 17.578125 62.5 15.28125 62.5 
Q 12.984375 62.5 11.34375 64.109375 
Q 9.71875 65.71875 9.71875 68.015625 
z
M 21.1875 5.171875 
L 29.6875 5.171875 
L 29.6875 0 
L 3.609375 0 
L 3.609375 5.171875 
L 12.203125 5.171875 
L 12.203125 46.6875 
L 3.609375 46.6875 
L 3.609375 51.90625 
L 21.1875 51.90625 
z
" id="DejaVuSerif-105"/>
       <path d="M 10.796875 46.6875 
L 2.875 46.6875 
L 2.875 51.90625 
L 10.796875 51.90625 
L 10.796875 68.015625 
L 19.828125 68.015625 
L 19.828125 51.90625 
L 36.71875 51.90625 
L 36.71875 46.6875 
L 19.828125 46.6875 
L 19.828125 13.71875 
Q 19.828125 7.125 21.09375 5.265625 
Q 22.359375 3.421875 25.78125 3.421875 
Q 29.296875 3.421875 30.90625 5.484375 
Q 32.515625 7.5625 32.625 12.203125 
L 39.40625 12.203125 
Q 39.015625 5.125 35.546875 1.84375 
Q 32.078125 -1.421875 25 -1.421875 
Q 17.234375 -1.421875 14.015625 2.015625 
Q 10.796875 5.46875 10.796875 13.71875 
z
" id="DejaVuSerif-116"/>
       <path d="M 24.703125 0 
L 5.609375 46.6875 
L -0.296875 46.6875 
L -0.296875 51.90625 
L 23.578125 51.90625 
L 23.578125 46.6875 
L 15.28125 46.6875 
L 29.890625 10.984375 
L 44.484375 46.6875 
L 36.71875 46.6875 
L 36.71875 51.90625 
L 56.203125 51.90625 
L 56.203125 46.6875 
L 50.390625 46.6875 
L 31.296875 0 
z
" id="DejaVuSerif-118"/>
       <path d="M 47.796875 52 
L 47.796875 39.015625 
L 42.625 39.015625 
Q 42.390625 42.875 40.484375 44.78125 
Q 38.578125 46.6875 34.90625 46.6875 
Q 28.265625 46.6875 24.71875 42.09375 
Q 21.1875 37.5 21.1875 28.90625 
L 21.1875 5.171875 
L 31.59375 5.171875 
L 31.59375 0 
L 4.109375 0 
L 4.109375 5.171875 
L 12.203125 5.171875 
L 12.203125 46.78125 
L 3.609375 46.78125 
L 3.609375 51.90625 
L 21.1875 51.90625 
L 21.1875 42.671875 
Q 23.828125 48.09375 27.96875 50.703125 
Q 32.125 53.328125 38.09375 53.328125 
Q 40.28125 53.328125 42.703125 52.984375 
Q 45.125 52.640625 47.796875 52 
z
" id="DejaVuSerif-114"/>
      </defs>
      <use xlink:href="#DejaVuSerif-70"/>
      <use x="62.634766" xlink:href="#DejaVuSerif-97"/>
      <use x="122.253906" xlink:href="#DejaVuSerif-108"/>
      <use x="154.236328" xlink:href="#DejaVuSerif-115"/>
      <use x="205.554688" xlink:href="#DejaVuSerif-101"/>
      <use x="264.734375" xlink:href="#DejaVuSerif-32"/>
      <use x="296.521484" xlink:href="#DejaVuSerif-112"/>
      <use x="360.535156" xlink:href="#DejaVuSerif-111"/>
      <use x="420.740234" xlink:href="#DejaVuSerif-115"/>
      <use x="472.058594" xlink:href="#DejaVuSerif-105"/>
      <use x="504.041016" xlink:href="#DejaVuSerif-116"/>
      <use x="544.226562" xlink:href="#DejaVuSerif-105"/>
      <use x="576.208984" xlink:href="#DejaVuSerif-118"/>
      <use x="632.703125" xlink:href="#DejaVuSerif-101"/>
      <use x="691.882812" xlink:href="#DejaVuSerif-32"/>
      <use x="723.669922" xlink:href="#DejaVuSerif-114"/>
      <use x="771.472656" xlink:href="#DejaVuSerif-97"/>
      <use x="831.091797" xlink:href="#DejaVuSerif-116"/>
      <use x="871.277344" xlink:href="#DejaVuSerif-101"/>
     </g>
    </g>
   </g>
   <g id="matplotlib.axis_2">
    <g id="ytick_1">
     <g id="text_8">
      <!-- 0.0 -->
      <g style="fill:#262626;" transform="translate(22.81375 285.94272)scale(0.11 -0.11)">
       <use xlink:href="#DejaVuSerif-48"/>
       <use x="63.623047" xlink:href="#DejaVuSerif-46"/>
       <use x="95.410156" xlink:href="#DejaVuSerif-48"/>
      </g>
     </g>
    </g>
    <g id="ytick_2">
     <g id="text_9">
      <!-- 0.2 -->
      <g style="fill:#262626;" transform="translate(22.81375 236.524538)scale(0.11 -0.11)">
       <use xlink:href="#DejaVuSerif-48"/>
       <use x="63.623047" xlink:href="#DejaVuSerif-46"/>
       <use x="95.410156" xlink:href="#DejaVuSerif-50"/>
      </g>
     </g>
    </g>
    <g id="ytick_3">
     <g id="text_10">
      <!-- 0.4 -->
      <g style="fill:#262626;" transform="translate(22.81375 187.106357)scale(0.11 -0.11)">
       <use xlink:href="#DejaVuSerif-48"/>
       <use x="63.623047" xlink:href="#DejaVuSerif-46"/>
       <use x="95.410156" xlink:href="#DejaVuSerif-52"/>
      </g>
     </g>
    </g>
    <g id="ytick_4">
     <g id="text_11">
      <!-- 0.6 -->
      <g style="fill:#262626;" transform="translate(22.81375 137.688175)scale(0.11 -0.11)">
       <use xlink:href="#DejaVuSerif-48"/>
       <use x="63.623047" xlink:href="#DejaVuSerif-46"/>
       <use x="95.410156" xlink:href="#DejaVuSerif-54"/>
      </g>
     </g>
    </g>
    <g id="ytick_5">
     <g id="text_12">
      <!-- 0.8 -->
      <g style="fill:#262626;" transform="translate(22.81375 88.269993)scale(0.11 -0.11)">
       <use xlink:href="#DejaVuSerif-48"/>
       <use x="63.623047" xlink:href="#DejaVuSerif-46"/>
       <use x="95.410156" xlink:href="#DejaVuSerif-56"/>
      </g>
     </g>
    </g>
    <g id="ytick_6">
     <g id="text_13">
      <!-- 1.0 -->
      <g style="fill:#262626;" transform="translate(22.81375 38.851811)scale(0.11 -0.11)">
       <use xlink:href="#DejaVuSerif-49"/>
       <use x="63.623047" xlink:href="#DejaVuSerif-46"/>
       <use x="95.410156" xlink:href="#DejaVuSerif-48"/>
      </g>
     </g>
    </g>
    <g id="text_14">
     <!-- True positive rate -->
     <g style="fill:#262626;" transform="translate(16.318125 212.447812)rotate(-90)scale(0.12 -0.12)">
      <defs>
       <path d="M 19.09375 0 
L 19.09375 5.171875 
L 28.421875 5.171875 
L 28.421875 67.09375 
L 6.984375 67.09375 
L 6.984375 55.71875 
L 0.984375 55.71875 
L 0.984375 72.90625 
L 65.71875 72.90625 
L 65.71875 55.71875 
L 59.71875 55.71875 
L 59.71875 67.09375 
L 38.28125 67.09375 
L 38.28125 5.171875 
L 47.609375 5.171875 
L 47.609375 0 
z
" id="DejaVuSerif-84"/>
       <path d="M 35.40625 51.90625 
L 52.203125 51.90625 
L 52.203125 5.171875 
L 60.6875 5.171875 
L 60.6875 0 
L 43.21875 0 
L 43.21875 9.1875 
Q 40.71875 4 36.765625 1.28125 
Q 32.8125 -1.421875 27.59375 -1.421875 
Q 18.953125 -1.421875 14.875 3.484375 
Q 10.796875 8.40625 10.796875 18.890625 
L 10.796875 46.6875 
L 2.6875 46.6875 
L 2.6875 51.90625 
L 19.828125 51.90625 
L 19.828125 21.6875 
Q 19.828125 12.203125 22.140625 8.6875 
Q 24.46875 5.171875 30.421875 5.171875 
Q 36.671875 5.171875 39.9375 9.765625 
Q 43.21875 14.359375 43.21875 23.09375 
L 43.21875 46.6875 
L 35.40625 46.6875 
z
" id="DejaVuSerif-117"/>
      </defs>
      <use xlink:href="#DejaVuSerif-84"/>
      <use x="66.699219" xlink:href="#DejaVuSerif-114"/>
      <use x="114.501953" xlink:href="#DejaVuSerif-117"/>
      <use x="178.90625" xlink:href="#DejaVuSerif-101"/>
      <use x="238.085938" xlink:href="#DejaVuSerif-32"/>
      <use x="269.873047" xlink:href="#DejaVuSerif-112"/>
      <use x="333.886719" xlink:href="#DejaVuSerif-111"/>
      <use x="394.091797" xlink:href="#DejaVuSerif-115"/>
      <use x="445.410156" xlink:href="#DejaVuSerif-105"/>
      <use x="477.392578" xlink:href="#DejaVuSerif-116"/>
      <use x="517.578125" xlink:href="#DejaVuSerif-105"/>
      <use x="549.560547" xlink:href="#DejaVuSerif-118"/>
      <use x="606.054688" xlink:href="#DejaVuSerif-101"/>
      <use x="665.234375" xlink:href="#DejaVuSerif-32"/>
      <use x="697.021484" xlink:href="#DejaVuSerif-114"/>
      <use x="744.824219" xlink:href="#DejaVuSerif-97"/>
      <use x="804.443359" xlink:href="#DejaVuSerif-116"/>
      <use x="844.628906" xlink:href="#DejaVuSerif-101"/>
     </g>
    </g>
   </g>
   <g id="PolyCollection_1">
    <defs>
     <path d="M 61.405415 -58.746051 
L 61.405415 -55.314233 
L 61.813804 -58.746051 
L 62.222192 -69.041506 
L 63.038969 -75.905142 
L 64.264134 -79.33696 
L 64.672522 -82.768778 
L 65.897687 -86.200597 
L 66.714463 -99.927869 
L 67.53124 -103.359688 
L 70.389958 -113.655142 
L 71.615123 -117.08696 
L 73.657065 -123.950597 
L 74.473841 -130.814233 
L 75.290618 -134.246051 
L 76.107394 -141.109688 
L 77.740948 -144.541506 
L 83.458384 -147.973324 
L 83.866772 -151.405142 
L 85.500325 -158.268778 
L 86.317102 -161.700597 
L 87.133879 -165.132415 
L 88.767432 -168.564233 
L 89.17582 -171.996051 
L 101.427469 -175.427869 
L 102.652634 -192.58696 
L 114.495895 -196.018778 
L 114.904283 -199.450597 
L 116.129448 -202.882415 
L 119.396555 -206.314233 
L 122.255273 -209.746051 
L 122.663661 -213.177869 
L 131.648204 -216.609688 
L 137.36564 -220.041506 
L 138.999193 -223.473324 
L 141.041135 -226.905142 
L 148.392124 -230.33696 
L 165.136045 -237.200597 
L 169.219928 -240.632415 
L 186.372237 -244.064233 
L 186.780625 -247.496051 
L 204.341322 -250.927869 
L 213.734253 -254.359688 
L 215.367807 -257.791506 
L 215.776195 -261.223324 
L 219.860078 -268.08696 
L 222.310408 -271.518778 
L 227.619456 -274.950597 
L 230.886562 -278.382415 
L 231.29495 -281.814233 
L 231.703339 -285.246051 
L 236.19561 -288.677869 
L 239.462717 -292.109688 
L 243.5466 -295.541506 
L 266.824733 -298.973324 
L 266.824733 -302.405142 
L 266.824733 -302.405142 
L 243.5466 -298.973324 
L 239.462717 -295.541506 
L 236.19561 -292.109688 
L 231.703339 -288.677869 
L 231.29495 -285.246051 
L 230.886562 -281.814233 
L 227.619456 -278.382415 
L 222.310408 -274.950597 
L 219.860078 -271.518778 
L 215.776195 -268.08696 
L 215.367807 -261.223324 
L 213.734253 -257.791506 
L 204.341322 -254.359688 
L 186.780625 -250.927869 
L 186.372237 -247.496051 
L 169.219928 -244.064233 
L 165.136045 -240.632415 
L 148.392124 -237.200597 
L 141.041135 -230.33696 
L 138.999193 -226.905142 
L 137.36564 -223.473324 
L 131.648204 -220.041506 
L 122.663661 -216.609688 
L 122.255273 -213.177869 
L 119.396555 -209.746051 
L 116.129448 -206.314233 
L 114.904283 -202.882415 
L 114.495895 -199.450597 
L 102.652634 -196.018778 
L 101.427469 -192.58696 
L 89.17582 -175.427869 
L 88.767432 -171.996051 
L 87.133879 -168.564233 
L 86.317102 -165.132415 
L 85.500325 -161.700597 
L 83.866772 -158.268778 
L 83.458384 -151.405142 
L 77.740948 -147.973324 
L 76.107394 -144.541506 
L 75.290618 -141.109688 
L 74.473841 -134.246051 
L 73.657065 -130.814233 
L 71.615123 -123.950597 
L 70.389958 -117.08696 
L 67.53124 -113.655142 
L 66.714463 -103.359688 
L 65.897687 -99.927869 
L 64.672522 -86.200597 
L 64.264134 -82.768778 
L 63.038969 -79.33696 
L 62.222192 -75.905142 
L 61.813804 -69.041506 
L 61.405415 -58.746051 
z
" id="m9e0d116337" style="stroke:#4c72b0;stroke-opacity:0.2;"/>
    </defs>
    <g clip-path="url(#p81e6e48d39)">
     <use style="fill:#4c72b0;fill-opacity:0.2;stroke:#4c72b0;stroke-opacity:0.2;" x="0" xlink:href="#m9e0d116337" y="337.077812"/>
    </g>
   </g>
   <g id="PolyCollection_2">
    <defs>
     <path d="M 61.978592 -65.609688 
L 61.978592 -55.314233 
L 67.867981 -65.609688 
L 68.849546 -75.905142 
L 81.609889 -96.496051 
L 87.499279 -106.791506 
L 89.462408 -127.382415 
L 99.278057 -137.677869 
L 101.241187 -147.973324 
L 105.167446 -158.268778 
L 108.112141 -168.564233 
L 113.019965 -178.859688 
L 114.983095 -189.155142 
L 115.96466 -199.450597 
L 125.780309 -209.746051 
L 131.669698 -220.041506 
L 145.411606 -230.33696 
L 162.098209 -240.632415 
L 168.969163 -250.927869 
L 199.397674 -261.223324 
L 226.881491 -271.518778 
L 255.346872 -281.814233 
L 274.97817 -292.109688 
L 274.97817 -302.405142 
L 274.97817 -302.405142 
L 255.346872 -292.109688 
L 226.881491 -281.814233 
L 199.397674 -271.518778 
L 168.969163 -261.223324 
L 162.098209 -250.927869 
L 145.411606 -240.632415 
L 131.669698 -230.33696 
L 125.780309 -220.041506 
L 115.96466 -209.746051 
L 114.983095 -199.450597 
L 113.019965 -189.155142 
L 108.112141 -178.859688 
L 105.167446 -168.564233 
L 101.241187 -158.268778 
L 99.278057 -147.973324 
L 89.462408 -137.677869 
L 87.499279 -127.382415 
L 81.609889 -106.791506 
L 68.849546 -96.496051 
L 67.867981 -75.905142 
L 61.978592 -65.609688 
z
" id="m9dca8c86c0" style="stroke:#dd8452;stroke-opacity:0.2;"/>
    </defs>
    <g clip-path="url(#p81e6e48d39)">
     <use style="fill:#dd8452;fill-opacity:0.2;stroke:#dd8452;stroke-opacity:0.2;" x="0" xlink:href="#m9dca8c86c0" y="337.077812"/>
    </g>
   </g>
   <g id="line2d_1">
    <path clip-path="url(#p81e6e48d39)" d="M 60.997027 281.76358 
L 61.405415 280.04767 
L 61.813804 273.184034 
L 62.222192 264.604489 
L 63.038969 259.456761 
L 64.264134 256.024943 
L 64.672522 252.593125 
L 65.897687 244.01358 
L 66.714463 235.434034 
L 67.53124 228.570398 
L 70.389958 221.706761 
L 71.615123 216.559034 
L 73.657065 209.695398 
L 74.473841 204.54767 
L 75.290618 199.399943 
L 76.107394 194.252216 
L 77.740948 190.820398 
L 83.458384 187.38858 
L 83.866772 182.240852 
L 85.500325 177.093125 
L 86.317102 173.661307 
L 87.133879 170.229489 
L 88.767432 166.79767 
L 89.17582 163.365852 
L 101.427469 153.070398 
L 102.652634 142.774943 
L 114.495895 139.343125 
L 114.904283 135.911307 
L 116.129448 132.479489 
L 119.396555 129.04767 
L 122.255273 125.615852 
L 122.663661 122.184034 
L 131.648204 118.752216 
L 137.36564 115.320398 
L 138.999193 111.88858 
L 141.041135 108.456761 
L 148.392124 103.309034 
L 165.136045 98.161307 
L 169.219928 94.729489 
L 186.372237 91.29767 
L 186.780625 87.865852 
L 204.341322 84.434034 
L 213.734253 81.002216 
L 215.367807 77.570398 
L 215.776195 72.42267 
L 219.860078 67.274943 
L 222.310408 63.843125 
L 227.619456 60.411307 
L 230.886562 56.979489 
L 231.29495 53.54767 
L 231.703339 50.115852 
L 236.19561 46.684034 
L 239.462717 43.252216 
L 243.5466 39.820398 
L 266.824733 36.38858 
L 284.793819 34.67267 
" style="fill:none;stroke:#4c72b0;stroke-linecap:round;stroke-width:4;"/>
   </g>
   <g id="line2d_2">
    <path clip-path="url(#p81e6e48d39)" d="M 60.997027 281.76358 
L 61.978592 276.615852 
L 67.867981 266.320398 
L 68.849546 250.877216 
L 81.609889 235.434034 
L 87.499279 219.990852 
L 89.462408 204.54767 
L 99.278057 194.252216 
L 101.241187 183.956761 
L 105.167446 173.661307 
L 108.112141 163.365852 
L 113.019965 153.070398 
L 114.983095 142.774943 
L 115.96466 132.479489 
L 125.780309 122.184034 
L 131.669698 111.88858 
L 145.411606 101.593125 
L 162.098209 91.29767 
L 168.969163 81.002216 
L 199.397674 70.706761 
L 226.881491 60.411307 
L 255.346872 50.115852 
L 274.97817 39.820398 
L 284.793819 34.67267 
" style="fill:none;stroke:#dd8452;stroke-linecap:round;stroke-width:4;"/>
   </g>
   <g id="patch_3">
    <path d="M 49.807188 294.118125 
L 49.807188 22.318125 
" style="fill:none;stroke:#cccccc;stroke-linecap:square;stroke-linejoin:miter;stroke-width:1.25;"/>
   </g>
   <g id="patch_4">
    <path d="M 295.983658 294.118125 
L 295.983658 22.318125 
" style="fill:none;stroke:#cccccc;stroke-linecap:square;stroke-linejoin:miter;stroke-width:1.25;"/>
   </g>
   <g id="patch_5">
    <path d="M 49.807188 294.118125 
L 295.983658 294.118125 
" style="fill:none;stroke:#cccccc;stroke-linecap:square;stroke-linejoin:miter;stroke-width:1.25;"/>
   </g>
   <g id="patch_6">
    <path d="M 49.807188 22.318125 
L 295.983658 22.318125 
" style="fill:none;stroke:#cccccc;stroke-linecap:square;stroke-linejoin:miter;stroke-width:1.25;"/>
   </g>
   <g id="text_15">
    <!-- Distant relapse -->
    <g style="fill:#262626;" transform="translate(126.529485 16.318125)scale(0.12 -0.12)">
     <defs>
      <path d="M 24.703125 5.171875 
L 33.796875 5.171875 
Q 48 5.171875 55.59375 13.28125 
Q 63.1875 21.390625 63.1875 36.53125 
Q 63.1875 51.65625 55.609375 59.65625 
Q 48.046875 67.671875 33.796875 67.671875 
L 24.703125 67.671875 
z
M 5.515625 0 
L 5.515625 5.171875 
L 14.796875 5.171875 
L 14.796875 67.671875 
L 5.515625 67.671875 
L 5.515625 72.90625 
L 34.515625 72.90625 
Q 53.375 72.90625 63.890625 63.28125 
Q 74.421875 53.65625 74.421875 36.53125 
Q 74.421875 19.34375 63.875 9.671875 
Q 53.328125 0 34.515625 0 
z
" id="DejaVuSerif-68"/>
      <path d="M 4.109375 0 
L 4.109375 5.171875 
L 12.203125 5.171875 
L 12.203125 46.6875 
L 3.609375 46.6875 
L 3.609375 51.90625 
L 21.1875 51.90625 
L 21.1875 42.671875 
Q 23.6875 47.953125 27.65625 50.640625 
Q 31.640625 53.328125 36.921875 53.328125 
Q 45.515625 53.328125 49.5625 48.390625 
Q 53.609375 43.453125 53.609375 33.015625 
L 53.609375 5.171875 
L 61.625 5.171875 
L 61.625 0 
L 36.8125 0 
L 36.8125 5.171875 
L 44.578125 5.171875 
L 44.578125 30.171875 
Q 44.578125 39.703125 42.234375 43.234375 
Q 39.890625 46.78125 33.984375 46.78125 
Q 27.734375 46.78125 24.453125 42.203125 
Q 21.1875 37.640625 21.1875 28.90625 
L 21.1875 5.171875 
L 29 5.171875 
L 29 0 
z
" id="DejaVuSerif-110"/>
     </defs>
     <use xlink:href="#DejaVuSerif-68"/>
     <use x="80.175781" xlink:href="#DejaVuSerif-105"/>
     <use x="112.158203" xlink:href="#DejaVuSerif-115"/>
     <use x="163.476562" xlink:href="#DejaVuSerif-116"/>
     <use x="203.662109" xlink:href="#DejaVuSerif-97"/>
     <use x="263.28125" xlink:href="#DejaVuSerif-110"/>
     <use x="327.685547" xlink:href="#DejaVuSerif-116"/>
     <use x="367.871094" xlink:href="#DejaVuSerif-32"/>
     <use x="399.658203" xlink:href="#DejaVuSerif-114"/>
     <use x="447.460938" xlink:href="#DejaVuSerif-101"/>
     <use x="506.640625" xlink:href="#DejaVuSerif-108"/>
     <use x="538.623047" xlink:href="#DejaVuSerif-97"/>
     <use x="598.242188" xlink:href="#DejaVuSerif-112"/>
     <use x="662.255859" xlink:href="#DejaVuSerif-115"/>
     <use x="713.574219" xlink:href="#DejaVuSerif-101"/>
    </g>
   </g>
   <g id="legend_1">
    <g id="patch_7">
     <path d="M 117.692564 288.618125 
L 288.283658 288.618125 
Q 290.483658 288.618125 290.483658 286.418125 
L 290.483658 255.22625 
Q 290.483658 253.02625 288.283658 253.02625 
L 117.692564 253.02625 
Q 115.492564 253.02625 115.492564 255.22625 
L 115.492564 286.418125 
Q 115.492564 288.618125 117.692564 288.618125 
z
" style="fill:#ffffff;opacity:0.8;stroke:#cccccc;stroke-linejoin:miter;"/>
    </g>
    <g id="line2d_3">
     <path d="M 119.892564 261.934531 
L 141.892564 261.934531 
" style="fill:none;stroke:#4c72b0;stroke-linecap:round;stroke-width:4;"/>
    </g>
    <g id="line2d_4"/>
    <g id="text_16">
     <!-- Treated, AUC: 0.7257 -->
     <g style="fill:#262626;" transform="translate(150.692564 265.784531)scale(0.11 -0.11)">
      <defs>
       <path d="M 52.484375 5.171875 
L 61.078125 5.171875 
L 61.078125 0 
L 43.5 0 
L 43.5 8.109375 
Q 40.875 3.21875 36.796875 0.890625 
Q 32.71875 -1.421875 26.703125 -1.421875 
Q 17.140625 -1.421875 11.0625 6.171875 
Q 4.984375 13.765625 4.984375 25.984375 
Q 4.984375 38.1875 11.03125 45.75 
Q 17.09375 53.328125 26.703125 53.328125 
Q 32.71875 53.328125 36.796875 51 
Q 40.875 48.6875 43.5 43.796875 
L 43.5 70.796875 
L 35.015625 70.796875 
L 35.015625 75.984375 
L 52.484375 75.984375 
z
M 43.5 23.390625 
L 43.5 28.515625 
Q 43.5 37.84375 39.90625 42.765625 
Q 36.328125 47.703125 29.5 47.703125 
Q 22.5625 47.703125 19.015625 42.234375 
Q 15.484375 36.765625 15.484375 25.984375 
Q 15.484375 15.234375 19.015625 9.71875 
Q 22.5625 4.203125 29.5 4.203125 
Q 36.328125 4.203125 39.90625 9.109375 
Q 43.5 14.015625 43.5 23.390625 
z
" id="DejaVuSerif-100"/>
       <path d="M 3.609375 -9.71875 
Q 8.203125 -6.34375 10.34375 -1.78125 
Q 12.5 2.78125 12.5 9.28125 
L 12.5 11.078125 
L 22.125 11.078125 
Q 21.734375 2.734375 18.1875 -3.25 
Q 14.65625 -9.234375 7.515625 -13.625 
z
" id="DejaVuSerif-44"/>
       <path d="M 20.015625 26.421875 
L 46.78125 26.421875 
L 33.40625 61.078125 
z
M -0.59375 0 
L -0.59375 5.171875 
L 5.8125 5.171875 
L 31.78125 72.90625 
L 39.984375 72.90625 
L 66.015625 5.171875 
L 73.1875 5.171875 
L 73.1875 0 
L 46.6875 0 
L 46.6875 5.171875 
L 54.78125 5.171875 
L 48.6875 21.1875 
L 18.015625 21.1875 
L 11.921875 5.171875 
L 19.921875 5.171875 
L 19.921875 0 
z
" id="DejaVuSerif-65"/>
       <path d="M 14.015625 67.671875 
L 4.6875 67.671875 
L 4.6875 72.90625 
L 33.203125 72.90625 
L 33.203125 67.671875 
L 23.875 67.671875 
L 23.875 29.984375 
Q 23.875 16.015625 28.4375 10.5 
Q 33.015625 4.984375 44.1875 4.984375 
Q 55.375 4.984375 59.9375 10.5 
Q 64.5 16.015625 64.5 29.984375 
L 64.5 67.671875 
L 55.171875 67.671875 
L 55.171875 72.90625 
L 79.78125 72.90625 
L 79.78125 67.671875 
L 70.515625 67.671875 
L 70.515625 29 
Q 70.515625 12.359375 64.109375 5.46875 
Q 57.71875 -1.421875 42.390625 -1.421875 
Q 27.046875 -1.421875 20.53125 5.515625 
Q 14.015625 12.453125 14.015625 29 
z
" id="DejaVuSerif-85"/>
       <path d="M 70.515625 19.28125 
Q 67.28125 9.078125 59.6875 3.828125 
Q 52.09375 -1.421875 40.484375 -1.421875 
Q 33.34375 -1.421875 27.234375 1.015625 
Q 21.140625 3.46875 16.40625 8.203125 
Q 10.9375 13.671875 8.265625 20.625 
Q 5.609375 27.59375 5.609375 36.375 
Q 5.609375 53.375 15.421875 63.796875 
Q 25.25 74.21875 41.3125 74.21875 
Q 47.265625 74.21875 54 72.65625 
Q 60.75 71.09375 68.5 67.921875 
L 68.5 51.125 
L 62.984375 51.125 
Q 61.1875 60.296875 55.734375 64.640625 
Q 50.296875 69 40.484375 69 
Q 28.8125 69 22.796875 60.71875 
Q 16.796875 52.4375 16.796875 36.375 
Q 16.796875 20.359375 22.796875 12.078125 
Q 28.8125 3.8125 40.484375 3.8125 
Q 48.640625 3.8125 53.90625 7.6875 
Q 59.1875 11.578125 61.53125 19.28125 
z
" id="DejaVuSerif-67"/>
       <path d="M 10.40625 5.078125 
Q 10.40625 7.8125 12.28125 9.71875 
Q 14.15625 11.625 16.890625 11.625 
Q 19.625 11.625 21.5 9.71875 
Q 23.390625 7.8125 23.390625 5.078125 
Q 23.390625 2.34375 21.53125 0.453125 
Q 19.671875 -1.421875 16.890625 -1.421875 
Q 14.109375 -1.421875 12.25 0.453125 
Q 10.40625 2.34375 10.40625 5.078125 
z
M 10.40625 36.921875 
Q 10.40625 39.65625 12.28125 41.53125 
Q 14.15625 43.40625 16.890625 43.40625 
Q 19.671875 43.40625 21.53125 41.546875 
Q 23.390625 39.703125 23.390625 36.921875 
Q 23.390625 34.125 21.53125 32.265625 
Q 19.671875 30.421875 16.890625 30.421875 
Q 14.15625 30.421875 12.28125 32.296875 
Q 10.40625 34.1875 10.40625 36.921875 
z
" id="DejaVuSerif-58"/>
       <path d="M 56.390625 67.921875 
L 27.875 0 
L 20.609375 0 
L 47.796875 64.890625 
L 14.109375 64.890625 
L 14.109375 55.90625 
L 8.40625 55.90625 
L 8.40625 72.90625 
L 56.390625 72.90625 
z
" id="DejaVuSerif-55"/>
       <path d="M 50.296875 72.90625 
L 50.296875 64.890625 
L 16.890625 64.890625 
L 16.890625 44 
Q 19.4375 45.75 22.828125 46.625 
Q 26.21875 47.515625 30.421875 47.515625 
Q 42.234375 47.515625 49.0625 40.96875 
Q 55.90625 34.421875 55.90625 23.09375 
Q 55.90625 11.53125 49 5.046875 
Q 42.09375 -1.421875 29.59375 -1.421875 
Q 24.5625 -1.421875 19.28125 -0.1875 
Q 14.015625 1.03125 8.5 3.515625 
L 8.5 17.671875 
L 14.015625 17.671875 
Q 14.453125 10.75 18.421875 7.078125 
Q 22.40625 3.421875 29.59375 3.421875 
Q 37.3125 3.421875 41.453125 8.5 
Q 45.609375 13.578125 45.609375 23.09375 
Q 45.609375 32.5625 41.484375 37.609375 
Q 37.359375 42.671875 29.59375 42.671875 
Q 25.203125 42.671875 21.84375 41.109375 
Q 18.5 39.546875 15.921875 36.28125 
L 11.71875 36.28125 
L 11.71875 72.90625 
z
" id="DejaVuSerif-53"/>
      </defs>
      <use xlink:href="#DejaVuSerif-84"/>
      <use x="66.699219" xlink:href="#DejaVuSerif-114"/>
      <use x="114.501953" xlink:href="#DejaVuSerif-101"/>
      <use x="173.681641" xlink:href="#DejaVuSerif-97"/>
      <use x="233.300781" xlink:href="#DejaVuSerif-116"/>
      <use x="273.486328" xlink:href="#DejaVuSerif-101"/>
      <use x="332.666016" xlink:href="#DejaVuSerif-100"/>
      <use x="396.679688" xlink:href="#DejaVuSerif-44"/>
      <use x="428.466797" xlink:href="#DejaVuSerif-32"/>
      <use x="460.253906" xlink:href="#DejaVuSerif-65"/>
      <use x="532.470703" xlink:href="#DejaVuSerif-85"/>
      <use x="616.748047" xlink:href="#DejaVuSerif-67"/>
      <use x="693.261719" xlink:href="#DejaVuSerif-58"/>
      <use x="726.953125" xlink:href="#DejaVuSerif-32"/>
      <use x="758.740234" xlink:href="#DejaVuSerif-48"/>
      <use x="822.363281" xlink:href="#DejaVuSerif-46"/>
      <use x="854.150391" xlink:href="#DejaVuSerif-55"/>
      <use x="917.773438" xlink:href="#DejaVuSerif-50"/>
      <use x="981.396484" xlink:href="#DejaVuSerif-53"/>
      <use x="1045.019531" xlink:href="#DejaVuSerif-55"/>
     </g>
    </g>
    <g id="line2d_5">
     <path d="M 119.892564 278.080469 
L 141.892564 278.080469 
" style="fill:none;stroke:#dd8452;stroke-linecap:round;stroke-width:4;"/>
    </g>
    <g id="line2d_6"/>
    <g id="text_17">
     <!-- Untreated, AUC: 0.7025 -->
     <g style="fill:#262626;" transform="translate(150.692564 281.930469)scale(0.11 -0.11)">
      <use xlink:href="#DejaVuSerif-85"/>
      <use x="84.277344" xlink:href="#DejaVuSerif-110"/>
      <use x="148.681641" xlink:href="#DejaVuSerif-116"/>
      <use x="188.867188" xlink:href="#DejaVuSerif-114"/>
      <use x="236.669922" xlink:href="#DejaVuSerif-101"/>
      <use x="295.849609" xlink:href="#DejaVuSerif-97"/>
      <use x="355.46875" xlink:href="#DejaVuSerif-116"/>
      <use x="395.654297" xlink:href="#DejaVuSerif-101"/>
      <use x="454.833984" xlink:href="#DejaVuSerif-100"/>
      <use x="518.847656" xlink:href="#DejaVuSerif-44"/>
      <use x="550.634766" xlink:href="#DejaVuSerif-32"/>
      <use x="582.421875" xlink:href="#DejaVuSerif-65"/>
      <use x="654.638672" xlink:href="#DejaVuSerif-85"/>
      <use x="738.916016" xlink:href="#DejaVuSerif-67"/>
      <use x="815.429688" xlink:href="#DejaVuSerif-58"/>
      <use x="849.121094" xlink:href="#DejaVuSerif-32"/>
      <use x="880.908203" xlink:href="#DejaVuSerif-48"/>
      <use x="944.53125" xlink:href="#DejaVuSerif-46"/>
      <use x="976.318359" xlink:href="#DejaVuSerif-55"/>
      <use x="1039.941406" xlink:href="#DejaVuSerif-48"/>
      <use x="1103.564453" xlink:href="#DejaVuSerif-50"/>
      <use x="1167.1875" xlink:href="#DejaVuSerif-53"/>
     </g>
    </g>
   </g>
  </g>
  <g id="axes_2">
   <g id="patch_8">
    <path d="M 345.218952 294.118125 
L 591.395423 294.118125 
L 591.395423 22.318125 
L 345.218952 22.318125 
z
" style="fill:#ffffff;"/>
   </g>
   <g id="matplotlib.axis_3">
    <g id="xtick_7">
     <g id="text_18">
      <!-- 0.0 -->
      <g style="fill:#262626;" transform="translate(347.662073 311.976406)scale(0.11 -0.11)">
       <use xlink:href="#DejaVuSerif-48"/>
       <use x="63.623047" xlink:href="#DejaVuSerif-46"/>
       <use x="95.410156" xlink:href="#DejaVuSerif-48"/>
      </g>
     </g>
    </g>
    <g id="xtick_8">
     <g id="text_19">
      <!-- 0.2 -->
      <g style="fill:#262626;" transform="translate(392.421431 311.976406)scale(0.11 -0.11)">
       <use xlink:href="#DejaVuSerif-48"/>
       <use x="63.623047" xlink:href="#DejaVuSerif-46"/>
       <use x="95.410156" xlink:href="#DejaVuSerif-50"/>
      </g>
     </g>
    </g>
    <g id="xtick_9">
     <g id="text_20">
      <!-- 0.4 -->
      <g style="fill:#262626;" transform="translate(437.18079 311.976406)scale(0.11 -0.11)">
       <use xlink:href="#DejaVuSerif-48"/>
       <use x="63.623047" xlink:href="#DejaVuSerif-46"/>
       <use x="95.410156" xlink:href="#DejaVuSerif-52"/>
      </g>
     </g>
    </g>
    <g id="xtick_10">
     <g id="text_21">
      <!-- 0.6 -->
      <g style="fill:#262626;" transform="translate(481.940148 311.976406)scale(0.11 -0.11)">
       <use xlink:href="#DejaVuSerif-48"/>
       <use x="63.623047" xlink:href="#DejaVuSerif-46"/>
       <use x="95.410156" xlink:href="#DejaVuSerif-54"/>
      </g>
     </g>
    </g>
    <g id="xtick_11">
     <g id="text_22">
      <!-- 0.8 -->
      <g style="fill:#262626;" transform="translate(526.699506 311.976406)scale(0.11 -0.11)">
       <use xlink:href="#DejaVuSerif-48"/>
       <use x="63.623047" xlink:href="#DejaVuSerif-46"/>
       <use x="95.410156" xlink:href="#DejaVuSerif-56"/>
      </g>
     </g>
    </g>
    <g id="xtick_12">
     <g id="text_23">
      <!-- 1.0 -->
      <g style="fill:#262626;" transform="translate(571.458864 311.976406)scale(0.11 -0.11)">
       <use xlink:href="#DejaVuSerif-49"/>
       <use x="63.623047" xlink:href="#DejaVuSerif-46"/>
       <use x="95.410156" xlink:href="#DejaVuSerif-48"/>
      </g>
     </g>
    </g>
    <g id="text_24">
     <!-- False positive rate -->
     <g style="fill:#262626;" transform="translate(412.478125 327.382187)scale(0.12 -0.12)">
      <use xlink:href="#DejaVuSerif-70"/>
      <use x="62.634766" xlink:href="#DejaVuSerif-97"/>
      <use x="122.253906" xlink:href="#DejaVuSerif-108"/>
      <use x="154.236328" xlink:href="#DejaVuSerif-115"/>
      <use x="205.554688" xlink:href="#DejaVuSerif-101"/>
      <use x="264.734375" xlink:href="#DejaVuSerif-32"/>
      <use x="296.521484" xlink:href="#DejaVuSerif-112"/>
      <use x="360.535156" xlink:href="#DejaVuSerif-111"/>
      <use x="420.740234" xlink:href="#DejaVuSerif-115"/>
      <use x="472.058594" xlink:href="#DejaVuSerif-105"/>
      <use x="504.041016" xlink:href="#DejaVuSerif-116"/>
      <use x="544.226562" xlink:href="#DejaVuSerif-105"/>
      <use x="576.208984" xlink:href="#DejaVuSerif-118"/>
      <use x="632.703125" xlink:href="#DejaVuSerif-101"/>
      <use x="691.882812" xlink:href="#DejaVuSerif-32"/>
      <use x="723.669922" xlink:href="#DejaVuSerif-114"/>
      <use x="771.472656" xlink:href="#DejaVuSerif-97"/>
      <use x="831.091797" xlink:href="#DejaVuSerif-116"/>
      <use x="871.277344" xlink:href="#DejaVuSerif-101"/>
     </g>
    </g>
   </g>
   <g id="matplotlib.axis_4">
    <g id="ytick_7">
     <g id="text_25">
      <!-- 0.0 -->
      <g style="fill:#262626;" transform="translate(318.225515 285.94272)scale(0.11 -0.11)">
       <use xlink:href="#DejaVuSerif-48"/>
       <use x="63.623047" xlink:href="#DejaVuSerif-46"/>
       <use x="95.410156" xlink:href="#DejaVuSerif-48"/>
      </g>
     </g>
    </g>
    <g id="ytick_8">
     <g id="text_26">
      <!-- 0.2 -->
      <g style="fill:#262626;" transform="translate(318.225515 236.524538)scale(0.11 -0.11)">
       <use xlink:href="#DejaVuSerif-48"/>
       <use x="63.623047" xlink:href="#DejaVuSerif-46"/>
       <use x="95.410156" xlink:href="#DejaVuSerif-50"/>
      </g>
     </g>
    </g>
    <g id="ytick_9">
     <g id="text_27">
      <!-- 0.4 -->
      <g style="fill:#262626;" transform="translate(318.225515 187.106357)scale(0.11 -0.11)">
       <use xlink:href="#DejaVuSerif-48"/>
       <use x="63.623047" xlink:href="#DejaVuSerif-46"/>
       <use x="95.410156" xlink:href="#DejaVuSerif-52"/>
      </g>
     </g>
    </g>
    <g id="ytick_10">
     <g id="text_28">
      <!-- 0.6 -->
      <g style="fill:#262626;" transform="translate(318.225515 137.688175)scale(0.11 -0.11)">
       <use xlink:href="#DejaVuSerif-48"/>
       <use x="63.623047" xlink:href="#DejaVuSerif-46"/>
       <use x="95.410156" xlink:href="#DejaVuSerif-54"/>
      </g>
     </g>
    </g>
    <g id="ytick_11">
     <g id="text_29">
      <!-- 0.8 -->
      <g style="fill:#262626;" transform="translate(318.225515 88.269993)scale(0.11 -0.11)">
       <use xlink:href="#DejaVuSerif-48"/>
       <use x="63.623047" xlink:href="#DejaVuSerif-46"/>
       <use x="95.410156" xlink:href="#DejaVuSerif-56"/>
      </g>
     </g>
    </g>
    <g id="ytick_12">
     <g id="text_30">
      <!-- 1.0 -->
      <g style="fill:#262626;" transform="translate(318.225515 38.851811)scale(0.11 -0.11)">
       <use xlink:href="#DejaVuSerif-49"/>
       <use x="63.623047" xlink:href="#DejaVuSerif-46"/>
       <use x="95.410156" xlink:href="#DejaVuSerif-48"/>
      </g>
     </g>
    </g>
   </g>
   <g id="PolyCollection_3">
    <defs>
     <path d="M 357.180505 -61.491506 
L 357.180505 -55.314233 
L 357.566361 -61.491506 
L 358.338074 -67.668778 
L 359.495644 -73.846051 
L 359.881501 -80.023324 
L 364.511779 -86.200597 
L 367.212775 -92.377869 
L 367.598631 -98.555142 
L 368.756201 -104.732415 
L 369.142057 -117.08696 
L 371.843053 -129.441506 
L 373.000623 -135.618778 
L 376.859188 -141.796051 
L 380.331897 -147.973324 
L 384.962176 -154.150597 
L 388.049028 -160.327869 
L 388.820741 -166.505142 
L 389.206597 -172.682415 
L 390.364167 -178.859688 
L 395.380302 -191.214233 
L 398.081298 -197.391506 
L 400.396437 -203.568778 
L 401.939863 -209.746051 
L 406.955998 -215.923324 
L 415.830698 -222.100597 
L 430.493247 -228.277869 
L 435.123525 -240.632415 
L 438.210378 -246.809688 
L 439.367947 -252.98696 
L 442.4548 -259.164233 
L 443.226513 -265.341506 
L 449.786074 -271.518778 
L 452.487069 -277.696051 
L 452.872926 -283.873324 
L 454.802209 -290.050597 
L 460.2042 -296.227869 
L 460.2042 -302.405142 
L 460.2042 -302.405142 
L 454.802209 -296.227869 
L 452.872926 -290.050597 
L 452.487069 -283.873324 
L 449.786074 -277.696051 
L 443.226513 -271.518778 
L 442.4548 -265.341506 
L 439.367947 -259.164233 
L 438.210378 -252.98696 
L 435.123525 -246.809688 
L 430.493247 -240.632415 
L 415.830698 -228.277869 
L 406.955998 -222.100597 
L 401.939863 -215.923324 
L 400.396437 -209.746051 
L 398.081298 -203.568778 
L 395.380302 -197.391506 
L 390.364167 -191.214233 
L 389.206597 -178.859688 
L 388.820741 -172.682415 
L 388.049028 -166.505142 
L 384.962176 -160.327869 
L 380.331897 -154.150597 
L 376.859188 -147.973324 
L 373.000623 -141.796051 
L 371.843053 -135.618778 
L 369.142057 -129.441506 
L 368.756201 -117.08696 
L 367.598631 -104.732415 
L 367.212775 -98.555142 
L 364.511779 -92.377869 
L 359.881501 -86.200597 
L 359.495644 -80.023324 
L 358.338074 -73.846051 
L 357.566361 -67.668778 
L 357.180505 -61.491506 
z
" id="me661a84f91" style="stroke:#4c72b0;stroke-opacity:0.2;"/>
    </defs>
    <g clip-path="url(#p059fdb4ae3)">
     <use style="fill:#4c72b0;fill-opacity:0.2;stroke:#4c72b0;stroke-opacity:0.2;" x="0" xlink:href="#me661a84f91" y="337.077812"/>
    </g>
   </g>
   <g id="PolyCollection_4">
    <defs>
     <path d="M 356.408792 -75.905142 
L 356.408792 -55.314233 
L 357.444888 -75.905142 
L 372.986332 -82.768778 
L 374.022428 -89.632415 
L 378.166813 -96.496051 
L 382.311198 -117.08696 
L 383.347294 -123.950597 
L 386.455583 -130.814233 
L 388.527776 -144.541506 
L 390.599968 -158.268778 
L 400.960931 -171.996051 
L 401.997027 -178.859688 
L 415.466278 -185.723324 
L 421.682856 -192.58696 
L 443.440877 -199.450597 
L 452.765744 -206.314233 
L 467.271091 -213.177869 
L 473.487669 -220.041506 
L 526.328578 -240.632415 
L 532.545155 -254.359688 
L 537.725637 -261.223324 
L 546.014407 -274.950597 
L 548.086599 -281.814233 
L 555.339273 -288.677869 
L 561.555851 -295.541506 
L 561.555851 -302.405142 
L 561.555851 -302.405142 
L 555.339273 -295.541506 
L 548.086599 -288.677869 
L 546.014407 -281.814233 
L 537.725637 -274.950597 
L 532.545155 -261.223324 
L 526.328578 -254.359688 
L 473.487669 -240.632415 
L 467.271091 -220.041506 
L 452.765744 -213.177869 
L 443.440877 -206.314233 
L 421.682856 -199.450597 
L 415.466278 -192.58696 
L 401.997027 -185.723324 
L 400.960931 -178.859688 
L 390.599968 -171.996051 
L 388.527776 -158.268778 
L 386.455583 -144.541506 
L 383.347294 -130.814233 
L 382.311198 -123.950597 
L 378.166813 -117.08696 
L 374.022428 -96.496051 
L 372.986332 -89.632415 
L 357.444888 -82.768778 
L 356.408792 -75.905142 
z
" id="m5206ec985d" style="stroke:#dd8452;stroke-opacity:0.2;"/>
    </defs>
    <g clip-path="url(#p059fdb4ae3)">
     <use style="fill:#dd8452;fill-opacity:0.2;stroke:#dd8452;stroke-opacity:0.2;" x="0" xlink:href="#m5206ec985d" y="337.077812"/>
    </g>
   </g>
   <g id="line2d_7">
    <path clip-path="url(#p059fdb4ae3)" d="M 356.408792 281.76358 
L 356.794648 281.76358 
L 357.180505 278.674943 
L 357.566361 272.49767 
L 358.338074 266.320398 
L 359.495644 260.143125 
L 359.881501 253.965852 
L 364.511779 247.78858 
L 367.212775 241.611307 
L 367.598631 235.434034 
L 368.756201 226.168125 
L 369.142057 213.81358 
L 371.843053 204.54767 
L 373.000623 198.370398 
L 376.859188 192.193125 
L 380.331897 186.015852 
L 384.962176 179.83858 
L 388.049028 173.661307 
L 388.820741 167.484034 
L 389.206597 161.306761 
L 390.364167 152.040852 
L 395.380302 142.774943 
L 398.081298 136.59767 
L 400.396437 130.420398 
L 401.939863 124.243125 
L 406.955998 118.065852 
L 415.830698 111.88858 
L 430.493247 102.62267 
L 435.123525 93.356761 
L 438.210378 87.179489 
L 439.367947 81.002216 
L 442.4548 74.824943 
L 443.226513 68.64767 
L 449.786074 62.470398 
L 452.487069 56.293125 
L 452.872926 50.115852 
L 454.802209 43.93858 
L 460.2042 37.761307 
L 578.662157 34.67267 
L 580.205583 34.67267 
" style="fill:none;stroke:#4c72b0;stroke-linecap:round;stroke-width:4;"/>
   </g>
   <g id="line2d_8">
    <path clip-path="url(#p059fdb4ae3)" d="M 356.408792 272.612064 
L 357.444888 257.740852 
L 372.986332 250.877216 
L 374.022428 244.01358 
L 378.166813 230.286307 
L 382.311198 216.559034 
L 383.347294 209.695398 
L 386.455583 199.399943 
L 388.527776 185.67267 
L 390.599968 171.945398 
L 400.960931 161.649943 
L 401.997027 154.786307 
L 415.466278 147.92267 
L 421.682856 141.059034 
L 443.440877 134.195398 
L 452.765744 127.331761 
L 467.271091 120.468125 
L 473.487669 106.740852 
L 526.328578 89.581761 
L 532.545155 79.286307 
L 537.725637 68.990852 
L 546.014407 58.695398 
L 548.086599 51.831761 
L 555.339273 44.968125 
L 561.555851 38.104489 
L 580.205583 34.67267 
" style="fill:none;stroke:#dd8452;stroke-linecap:round;stroke-width:4;"/>
   </g>
   <g id="patch_9">
    <path d="M 345.218952 294.118125 
L 345.218952 22.318125 
" style="fill:none;stroke:#cccccc;stroke-linecap:square;stroke-linejoin:miter;stroke-width:1.25;"/>
   </g>
   <g id="patch_10">
    <path d="M 591.395423 294.118125 
L 591.395423 22.318125 
" style="fill:none;stroke:#cccccc;stroke-linecap:square;stroke-linejoin:miter;stroke-width:1.25;"/>
   </g>
   <g id="patch_11">
    <path d="M 345.218952 294.118125 
L 591.395423 294.118125 
" style="fill:none;stroke:#cccccc;stroke-linecap:square;stroke-linejoin:miter;stroke-width:1.25;"/>
   </g>
   <g id="patch_12">
    <path d="M 345.218952 22.318125 
L 591.395423 22.318125 
" style="fill:none;stroke:#cccccc;stroke-linecap:square;stroke-linejoin:miter;stroke-width:1.25;"/>
   </g>
   <g id="text_31">
    <!-- Local relapse -->
    <g style="fill:#262626;" transform="translate(427.560625 16.318125)scale(0.12 -0.12)">
     <defs>
      <path d="M 5.515625 0 
L 5.515625 5.171875 
L 14.796875 5.171875 
L 14.796875 67.671875 
L 5.515625 67.671875 
L 5.515625 72.90625 
L 33.984375 72.90625 
L 33.984375 67.671875 
L 24.703125 67.671875 
L 24.703125 6 
L 58.015625 6 
L 58.015625 18.21875 
L 64.015625 18.21875 
L 64.015625 0 
z
" id="DejaVuSerif-76"/>
      <path d="M 51.421875 15.578125 
Q 49.515625 7.28125 44.09375 2.921875 
Q 38.671875 -1.421875 30.078125 -1.421875 
Q 18.75 -1.421875 11.859375 6.078125 
Q 4.984375 13.578125 4.984375 25.984375 
Q 4.984375 38.421875 11.859375 45.875 
Q 18.75 53.328125 30.078125 53.328125 
Q 35.015625 53.328125 39.890625 52.171875 
Q 44.78125 51.03125 49.703125 48.6875 
L 49.703125 35.40625 
L 44.484375 35.40625 
Q 43.453125 42.234375 40.015625 45.359375 
Q 36.578125 48.484375 30.171875 48.484375 
Q 22.90625 48.484375 19.1875 42.84375 
Q 15.484375 37.203125 15.484375 25.984375 
Q 15.484375 14.75 19.171875 9.078125 
Q 22.859375 3.421875 30.171875 3.421875 
Q 35.984375 3.421875 39.453125 6.4375 
Q 42.921875 9.46875 44.1875 15.578125 
z
" id="DejaVuSerif-99"/>
     </defs>
     <use xlink:href="#DejaVuSerif-76"/>
     <use x="66.40625" xlink:href="#DejaVuSerif-111"/>
     <use x="126.611328" xlink:href="#DejaVuSerif-99"/>
     <use x="182.617188" xlink:href="#DejaVuSerif-97"/>
     <use x="242.236328" xlink:href="#DejaVuSerif-108"/>
     <use x="274.21875" xlink:href="#DejaVuSerif-32"/>
     <use x="306.005859" xlink:href="#DejaVuSerif-114"/>
     <use x="353.808594" xlink:href="#DejaVuSerif-101"/>
     <use x="412.988281" xlink:href="#DejaVuSerif-108"/>
     <use x="444.970703" xlink:href="#DejaVuSerif-97"/>
     <use x="504.589844" xlink:href="#DejaVuSerif-112"/>
     <use x="568.603516" xlink:href="#DejaVuSerif-115"/>
     <use x="619.921875" xlink:href="#DejaVuSerif-101"/>
    </g>
   </g>
   <g id="legend_2">
    <g id="patch_13">
     <path d="M 413.104329 288.618125 
L 583.695423 288.618125 
Q 585.895423 288.618125 585.895423 286.418125 
L 585.895423 255.22625 
Q 585.895423 253.02625 583.695423 253.02625 
L 413.104329 253.02625 
Q 410.904329 253.02625 410.904329 255.22625 
L 410.904329 286.418125 
Q 410.904329 288.618125 413.104329 288.618125 
z
" style="fill:#ffffff;opacity:0.8;stroke:#cccccc;stroke-linejoin:miter;"/>
    </g>
    <g id="line2d_9">
     <path d="M 415.304329 261.934531 
L 437.304329 261.934531 
" style="fill:none;stroke:#4c72b0;stroke-linecap:round;stroke-width:4;"/>
    </g>
    <g id="line2d_10"/>
    <g id="text_32">
     <!-- Treated, AUC: 0.8109 -->
     <g style="fill:#262626;" transform="translate(446.104329 265.784531)scale(0.11 -0.11)">
      <defs>
       <path d="M 46.78125 32.671875 
Q 43.5 29 39.25 27.1875 
Q 35.015625 25.390625 29.6875 25.390625 
Q 18.84375 25.390625 12.5625 31.9375 
Q 6.296875 38.484375 6.296875 49.8125 
Q 6.296875 60.890625 13.109375 67.546875 
Q 19.921875 74.21875 31.296875 74.21875 
Q 43.65625 74.21875 50.265625 65.015625 
Q 56.890625 55.8125 56.890625 38.71875 
Q 56.890625 19.578125 49.015625 9.078125 
Q 41.15625 -1.421875 26.90625 -1.421875 
Q 23.046875 -1.421875 18.796875 -0.6875 
Q 14.546875 0.046875 10.109375 1.515625 
L 10.109375 13.625 
L 15.578125 13.625 
Q 16.21875 8.6875 19.390625 6.046875 
Q 22.5625 3.421875 27.875 3.421875 
Q 37.359375 3.421875 41.984375 10.5625 
Q 46.625 17.71875 46.78125 32.671875 
z
M 30.90625 69.390625 
Q 23.96875 69.390625 20.28125 64.328125 
Q 16.609375 59.28125 16.609375 49.8125 
Q 16.609375 40.328125 20.28125 35.25 
Q 23.96875 30.171875 30.90625 30.171875 
Q 37.84375 30.171875 41.53125 35.078125 
Q 45.21875 39.984375 45.21875 49.21875 
Q 45.21875 58.9375 41.5 64.15625 
Q 37.796875 69.390625 30.90625 69.390625 
z
" id="DejaVuSerif-57"/>
      </defs>
      <use xlink:href="#DejaVuSerif-84"/>
      <use x="66.699219" xlink:href="#DejaVuSerif-114"/>
      <use x="114.501953" xlink:href="#DejaVuSerif-101"/>
      <use x="173.681641" xlink:href="#DejaVuSerif-97"/>
      <use x="233.300781" xlink:href="#DejaVuSerif-116"/>
      <use x="273.486328" xlink:href="#DejaVuSerif-101"/>
      <use x="332.666016" xlink:href="#DejaVuSerif-100"/>
      <use x="396.679688" xlink:href="#DejaVuSerif-44"/>
      <use x="428.466797" xlink:href="#DejaVuSerif-32"/>
      <use x="460.253906" xlink:href="#DejaVuSerif-65"/>
      <use x="532.470703" xlink:href="#DejaVuSerif-85"/>
      <use x="616.748047" xlink:href="#DejaVuSerif-67"/>
      <use x="693.261719" xlink:href="#DejaVuSerif-58"/>
      <use x="726.953125" xlink:href="#DejaVuSerif-32"/>
      <use x="758.740234" xlink:href="#DejaVuSerif-48"/>
      <use x="822.363281" xlink:href="#DejaVuSerif-46"/>
      <use x="854.150391" xlink:href="#DejaVuSerif-56"/>
      <use x="917.773438" xlink:href="#DejaVuSerif-49"/>
      <use x="981.396484" xlink:href="#DejaVuSerif-48"/>
      <use x="1045.019531" xlink:href="#DejaVuSerif-57"/>
     </g>
    </g>
    <g id="line2d_11">
     <path d="M 415.304329 278.080469 
L 437.304329 278.080469 
" style="fill:none;stroke:#dd8452;stroke-linecap:round;stroke-width:4;"/>
    </g>
    <g id="line2d_12"/>
    <g id="text_33">
     <!-- Untreated, AUC: 0.6438 -->
     <g style="fill:#262626;" transform="translate(446.104329 281.930469)scale(0.11 -0.11)">
      <defs>
       <path d="M 9.71875 69.828125 
Q 15.4375 71.96875 20.671875 73.09375 
Q 25.921875 74.21875 30.515625 74.21875 
Q 41.21875 74.21875 47.21875 69.59375 
Q 53.21875 64.984375 53.21875 56.78125 
Q 53.21875 50.203125 49.0625 45.78125 
Q 44.921875 41.359375 37.3125 39.796875 
Q 46.296875 38.53125 51.25 33.28125 
Q 56.203125 28.03125 56.203125 19.671875 
Q 56.203125 9.46875 49.34375 4.015625 
Q 42.484375 -1.421875 29.59375 -1.421875 
Q 23.875 -1.421875 18.421875 -0.1875 
Q 12.984375 1.03125 7.625 3.515625 
L 7.625 17.671875 
L 13.09375 17.671875 
Q 13.578125 10.640625 17.828125 7.03125 
Q 22.078125 3.421875 29.78125 3.421875 
Q 37.25 3.421875 41.578125 7.734375 
Q 45.90625 12.0625 45.90625 19.578125 
Q 45.90625 28.171875 41.453125 32.59375 
Q 37.015625 37.015625 28.421875 37.015625 
L 23.78125 37.015625 
L 23.78125 42 
L 26.21875 42 
Q 34.765625 42 39.03125 45.53125 
Q 43.3125 49.078125 43.3125 56.203125 
Q 43.3125 62.59375 39.796875 65.984375 
Q 36.28125 69.390625 29.6875 69.390625 
Q 23.09375 69.390625 19.453125 66.265625 
Q 15.828125 63.140625 15.1875 56.984375 
L 9.71875 56.984375 
z
" id="DejaVuSerif-51"/>
      </defs>
      <use xlink:href="#DejaVuSerif-85"/>
      <use x="84.277344" xlink:href="#DejaVuSerif-110"/>
      <use x="148.681641" xlink:href="#DejaVuSerif-116"/>
      <use x="188.867188" xlink:href="#DejaVuSerif-114"/>
      <use x="236.669922" xlink:href="#DejaVuSerif-101"/>
      <use x="295.849609" xlink:href="#DejaVuSerif-97"/>
      <use x="355.46875" xlink:href="#DejaVuSerif-116"/>
      <use x="395.654297" xlink:href="#DejaVuSerif-101"/>
      <use x="454.833984" xlink:href="#DejaVuSerif-100"/>
      <use x="518.847656" xlink:href="#DejaVuSerif-44"/>
      <use x="550.634766" xlink:href="#DejaVuSerif-32"/>
      <use x="582.421875" xlink:href="#DejaVuSerif-65"/>
      <use x="654.638672" xlink:href="#DejaVuSerif-85"/>
      <use x="738.916016" xlink:href="#DejaVuSerif-67"/>
      <use x="815.429688" xlink:href="#DejaVuSerif-58"/>
      <use x="849.121094" xlink:href="#DejaVuSerif-32"/>
      <use x="880.908203" xlink:href="#DejaVuSerif-48"/>
      <use x="944.53125" xlink:href="#DejaVuSerif-46"/>
      <use x="976.318359" xlink:href="#DejaVuSerif-54"/>
      <use x="1039.941406" xlink:href="#DejaVuSerif-52"/>
      <use x="1103.564453" xlink:href="#DejaVuSerif-51"/>
      <use x="1167.1875" xlink:href="#DejaVuSerif-56"/>
     </g>
    </g>
   </g>
  </g>
  <g id="axes_3">
   <g id="patch_14">
    <path d="M 640.630717 294.118125 
L 886.807188 294.118125 
L 886.807188 22.318125 
L 640.630717 22.318125 
z
" style="fill:#ffffff;"/>
   </g>
   <g id="matplotlib.axis_5">
    <g id="xtick_13">
     <g id="text_34">
      <!-- 0.0 -->
      <g style="fill:#262626;" transform="translate(643.073838 311.976406)scale(0.11 -0.11)">
       <use xlink:href="#DejaVuSerif-48"/>
       <use x="63.623047" xlink:href="#DejaVuSerif-46"/>
       <use x="95.410156" xlink:href="#DejaVuSerif-48"/>
      </g>
     </g>
    </g>
    <g id="xtick_14">
     <g id="text_35">
      <!-- 0.2 -->
      <g style="fill:#262626;" transform="translate(687.833196 311.976406)scale(0.11 -0.11)">
       <use xlink:href="#DejaVuSerif-48"/>
       <use x="63.623047" xlink:href="#DejaVuSerif-46"/>
       <use x="95.410156" xlink:href="#DejaVuSerif-50"/>
      </g>
     </g>
    </g>
    <g id="xtick_15">
     <g id="text_36">
      <!-- 0.4 -->
      <g style="fill:#262626;" transform="translate(732.592554 311.976406)scale(0.11 -0.11)">
       <use xlink:href="#DejaVuSerif-48"/>
       <use x="63.623047" xlink:href="#DejaVuSerif-46"/>
       <use x="95.410156" xlink:href="#DejaVuSerif-52"/>
      </g>
     </g>
    </g>
    <g id="xtick_16">
     <g id="text_37">
      <!-- 0.6 -->
      <g style="fill:#262626;" transform="translate(777.351913 311.976406)scale(0.11 -0.11)">
       <use xlink:href="#DejaVuSerif-48"/>
       <use x="63.623047" xlink:href="#DejaVuSerif-46"/>
       <use x="95.410156" xlink:href="#DejaVuSerif-54"/>
      </g>
     </g>
    </g>
    <g id="xtick_17">
     <g id="text_38">
      <!-- 0.8 -->
      <g style="fill:#262626;" transform="translate(822.111271 311.976406)scale(0.11 -0.11)">
       <use xlink:href="#DejaVuSerif-48"/>
       <use x="63.623047" xlink:href="#DejaVuSerif-46"/>
       <use x="95.410156" xlink:href="#DejaVuSerif-56"/>
      </g>
     </g>
    </g>
    <g id="xtick_18">
     <g id="text_39">
      <!-- 1.0 -->
      <g style="fill:#262626;" transform="translate(866.870629 311.976406)scale(0.11 -0.11)">
       <use xlink:href="#DejaVuSerif-49"/>
       <use x="63.623047" xlink:href="#DejaVuSerif-46"/>
       <use x="95.410156" xlink:href="#DejaVuSerif-48"/>
      </g>
     </g>
    </g>
    <g id="text_40">
     <!-- False positive rate -->
     <g style="fill:#262626;" transform="translate(707.88989 327.382187)scale(0.12 -0.12)">
      <use xlink:href="#DejaVuSerif-70"/>
      <use x="62.634766" xlink:href="#DejaVuSerif-97"/>
      <use x="122.253906" xlink:href="#DejaVuSerif-108"/>
      <use x="154.236328" xlink:href="#DejaVuSerif-115"/>
      <use x="205.554688" xlink:href="#DejaVuSerif-101"/>
      <use x="264.734375" xlink:href="#DejaVuSerif-32"/>
      <use x="296.521484" xlink:href="#DejaVuSerif-112"/>
      <use x="360.535156" xlink:href="#DejaVuSerif-111"/>
      <use x="420.740234" xlink:href="#DejaVuSerif-115"/>
      <use x="472.058594" xlink:href="#DejaVuSerif-105"/>
      <use x="504.041016" xlink:href="#DejaVuSerif-116"/>
      <use x="544.226562" xlink:href="#DejaVuSerif-105"/>
      <use x="576.208984" xlink:href="#DejaVuSerif-118"/>
      <use x="632.703125" xlink:href="#DejaVuSerif-101"/>
      <use x="691.882812" xlink:href="#DejaVuSerif-32"/>
      <use x="723.669922" xlink:href="#DejaVuSerif-114"/>
      <use x="771.472656" xlink:href="#DejaVuSerif-97"/>
      <use x="831.091797" xlink:href="#DejaVuSerif-116"/>
      <use x="871.277344" xlink:href="#DejaVuSerif-101"/>
     </g>
    </g>
   </g>
   <g id="matplotlib.axis_6">
    <g id="ytick_13">
     <g id="text_41">
      <!-- 0.0 -->
      <g style="fill:#262626;" transform="translate(613.637279 285.94272)scale(0.11 -0.11)">
       <use xlink:href="#DejaVuSerif-48"/>
       <use x="63.623047" xlink:href="#DejaVuSerif-46"/>
       <use x="95.410156" xlink:href="#DejaVuSerif-48"/>
      </g>
     </g>
    </g>
    <g id="ytick_14">
     <g id="text_42">
      <!-- 0.2 -->
      <g style="fill:#262626;" transform="translate(613.637279 236.524538)scale(0.11 -0.11)">
       <use xlink:href="#DejaVuSerif-48"/>
       <use x="63.623047" xlink:href="#DejaVuSerif-46"/>
       <use x="95.410156" xlink:href="#DejaVuSerif-50"/>
      </g>
     </g>
    </g>
    <g id="ytick_15">
     <g id="text_43">
      <!-- 0.4 -->
      <g style="fill:#262626;" transform="translate(613.637279 187.106357)scale(0.11 -0.11)">
       <use xlink:href="#DejaVuSerif-48"/>
       <use x="63.623047" xlink:href="#DejaVuSerif-46"/>
       <use x="95.410156" xlink:href="#DejaVuSerif-52"/>
      </g>
     </g>
    </g>
    <g id="ytick_16">
     <g id="text_44">
      <!-- 0.6 -->
      <g style="fill:#262626;" transform="translate(613.637279 137.688175)scale(0.11 -0.11)">
       <use xlink:href="#DejaVuSerif-48"/>
       <use x="63.623047" xlink:href="#DejaVuSerif-46"/>
       <use x="95.410156" xlink:href="#DejaVuSerif-54"/>
      </g>
     </g>
    </g>
    <g id="ytick_17">
     <g id="text_45">
      <!-- 0.8 -->
      <g style="fill:#262626;" transform="translate(613.637279 88.269993)scale(0.11 -0.11)">
       <use xlink:href="#DejaVuSerif-48"/>
       <use x="63.623047" xlink:href="#DejaVuSerif-46"/>
       <use x="95.410156" xlink:href="#DejaVuSerif-56"/>
      </g>
     </g>
    </g>
    <g id="ytick_18">
     <g id="text_46">
      <!-- 1.0 -->
      <g style="fill:#262626;" transform="translate(613.637279 38.851811)scale(0.11 -0.11)">
       <use xlink:href="#DejaVuSerif-49"/>
       <use x="63.623047" xlink:href="#DejaVuSerif-46"/>
       <use x="95.410156" xlink:href="#DejaVuSerif-48"/>
      </g>
     </g>
    </g>
   </g>
   <g id="PolyCollection_5">
    <defs>
     <path d="M 652.687986 -69.569478 
L 652.687986 -55.314233 
L 653.98913 -69.569478 
L 654.422845 -71.945352 
L 655.290274 -76.6971 
L 656.157704 -81.448848 
L 657.025133 -86.200597 
L 660.494851 -88.576471 
L 660.928565 -93.328219 
L 661.36228 -95.704093 
L 662.22971 -100.455841 
L 663.097139 -102.831715 
L 663.964568 -105.20759 
L 666.133142 -117.08696 
L 666.566857 -124.214583 
L 668.73543 -126.590457 
L 669.169145 -128.966331 
L 670.904004 -133.718079 
L 671.337719 -136.093953 
L 671.771433 -145.59745 
L 678.710869 -155.100946 
L 679.144583 -159.852694 
L 685.650304 -162.228569 
L 689.120022 -164.604443 
L 690.421166 -166.980317 
L 690.854881 -169.356191 
L 691.288595 -171.732065 
L 691.72231 -176.483813 
L 700.396604 -178.859688 
L 702.131463 -181.235562 
L 705.167466 -183.611436 
L 705.601181 -188.363184 
L 711.673187 -190.739058 
L 712.974331 -193.114932 
L 715.142904 -195.490806 
L 715.576619 -197.866681 
L 716.010334 -200.242555 
L 716.444049 -202.618429 
L 719.046337 -204.994303 
L 721.21491 -207.370177 
L 723.383484 -212.121925 
L 724.250913 -216.873674 
L 727.720631 -219.249548 
L 744.20179 -221.625422 
L 750.707511 -226.37717 
L 757.646946 -228.753044 
L 765.887526 -231.128918 
L 768.923529 -233.504792 
L 773.260676 -235.880667 
L 774.128105 -240.632415 
L 776.296679 -243.008289 
L 778.031538 -245.384163 
L 780.633826 -247.760037 
L 781.501255 -250.135911 
L 784.537258 -252.511785 
L 791.910408 -254.88766 
L 803.186991 -257.263534 
L 806.656709 -259.639408 
L 811.861285 -264.391156 
L 816.198432 -266.76703 
L 816.632147 -269.142904 
L 819.234435 -273.894653 
L 828.776159 -276.270527 
L 829.209874 -278.646401 
L 831.378447 -285.774023 
L 836.583024 -288.149897 
L 837.016739 -292.901646 
L 839.185312 -295.27752 
L 850.461895 -297.653394 
L 855.232756 -300.029268 
L 855.232756 -302.405142 
L 855.232756 -302.405142 
L 850.461895 -300.029268 
L 839.185312 -297.653394 
L 837.016739 -295.27752 
L 836.583024 -292.901646 
L 831.378447 -288.149897 
L 829.209874 -285.774023 
L 828.776159 -278.646401 
L 819.234435 -276.270527 
L 816.632147 -273.894653 
L 816.198432 -269.142904 
L 811.861285 -266.76703 
L 806.656709 -264.391156 
L 803.186991 -259.639408 
L 791.910408 -257.263534 
L 784.537258 -254.88766 
L 781.501255 -252.511785 
L 780.633826 -250.135911 
L 778.031538 -247.760037 
L 776.296679 -245.384163 
L 774.128105 -243.008289 
L 773.260676 -240.632415 
L 768.923529 -235.880667 
L 765.887526 -233.504792 
L 757.646946 -231.128918 
L 750.707511 -228.753044 
L 744.20179 -226.37717 
L 727.720631 -221.625422 
L 724.250913 -219.249548 
L 723.383484 -216.873674 
L 721.21491 -212.121925 
L 719.046337 -207.370177 
L 716.444049 -204.994303 
L 716.010334 -202.618429 
L 715.576619 -200.242555 
L 715.142904 -197.866681 
L 712.974331 -195.490806 
L 711.673187 -193.114932 
L 705.601181 -190.739058 
L 705.167466 -188.363184 
L 702.131463 -183.611436 
L 700.396604 -181.235562 
L 691.72231 -178.859688 
L 691.288595 -176.483813 
L 690.854881 -171.732065 
L 690.421166 -169.356191 
L 689.120022 -166.980317 
L 685.650304 -164.604443 
L 679.144583 -162.228569 
L 678.710869 -159.852694 
L 671.771433 -155.100946 
L 671.337719 -145.59745 
L 670.904004 -136.093953 
L 669.169145 -133.718079 
L 668.73543 -128.966331 
L 666.566857 -126.590457 
L 666.133142 -124.214583 
L 663.964568 -117.08696 
L 663.097139 -105.20759 
L 662.22971 -102.831715 
L 661.36228 -100.455841 
L 660.928565 -95.704093 
L 660.494851 -93.328219 
L 657.025133 -88.576471 
L 656.157704 -86.200597 
L 655.290274 -81.448848 
L 654.422845 -76.6971 
L 653.98913 -71.945352 
L 652.687986 -69.569478 
z
" id="ma6ea17b4ef" style="stroke:#4c72b0;stroke-opacity:0.2;"/>
    </defs>
    <g clip-path="url(#p202f217dff)">
     <use style="fill:#4c72b0;fill-opacity:0.2;stroke:#4c72b0;stroke-opacity:0.2;" x="0" xlink:href="#ma6ea17b4ef" y="337.077812"/>
    </g>
   </g>
   <g id="PolyCollection_6">
    <defs>
     <path d="M 651.820556 -73.846051 
L 651.820556 -55.314233 
L 654.307188 -73.846051 
L 661.767081 -80.023324 
L 664.253712 -86.200597 
L 666.740343 -89.289233 
L 669.226974 -98.555142 
L 670.470289 -104.732415 
L 674.200236 -107.821051 
L 675.443551 -110.909688 
L 676.686867 -117.08696 
L 681.660129 -123.264233 
L 685.390075 -126.352869 
L 686.633391 -135.618778 
L 687.876706 -141.796051 
L 689.120022 -144.884688 
L 692.849968 -147.973324 
L 695.336599 -154.150597 
L 696.579915 -160.327869 
L 699.066546 -163.416506 
L 700.309861 -166.505142 
L 702.796492 -172.682415 
L 706.526439 -175.771051 
L 707.769754 -178.859688 
L 711.499701 -185.03696 
L 718.959594 -188.125597 
L 725.176171 -191.214233 
L 731.392749 -194.302869 
L 733.87938 -197.391506 
L 735.122696 -203.568778 
L 737.609327 -212.834688 
L 740.095958 -215.923324 
L 741.339273 -222.100597 
L 745.06922 -228.277869 
L 746.312535 -234.455142 
L 751.285797 -240.632415 
L 756.259059 -243.721051 
L 757.502375 -246.809688 
L 762.475637 -249.898324 
L 763.718952 -252.98696 
L 764.962268 -256.075597 
L 769.93553 -259.164233 
L 783.612 -262.252869 
L 796.045155 -265.341506 
L 803.505048 -268.430142 
L 820.911466 -271.518778 
L 824.641412 -274.607415 
L 827.128043 -277.696051 
L 838.317883 -280.784688 
L 840.804514 -283.873324 
L 843.291145 -286.96196 
L 851.994353 -290.050597 
L 853.237669 -293.139233 
L 859.454246 -296.227869 
L 873.130717 -299.316506 
L 873.130717 -302.405142 
L 873.130717 -302.405142 
L 859.454246 -299.316506 
L 853.237669 -296.227869 
L 851.994353 -293.139233 
L 843.291145 -290.050597 
L 840.804514 -286.96196 
L 838.317883 -283.873324 
L 827.128043 -280.784688 
L 824.641412 -277.696051 
L 820.911466 -274.607415 
L 803.505048 -271.518778 
L 796.045155 -268.430142 
L 783.612 -265.341506 
L 769.93553 -262.252869 
L 764.962268 -259.164233 
L 763.718952 -256.075597 
L 762.475637 -252.98696 
L 757.502375 -249.898324 
L 756.259059 -246.809688 
L 751.285797 -243.721051 
L 746.312535 -240.632415 
L 745.06922 -234.455142 
L 741.339273 -228.277869 
L 740.095958 -222.100597 
L 737.609327 -215.923324 
L 735.122696 -212.834688 
L 733.87938 -203.568778 
L 731.392749 -197.391506 
L 725.176171 -194.302869 
L 718.959594 -191.214233 
L 711.499701 -188.125597 
L 707.769754 -185.03696 
L 706.526439 -178.859688 
L 702.796492 -175.771051 
L 700.309861 -172.682415 
L 699.066546 -166.505142 
L 696.579915 -163.416506 
L 695.336599 -160.327869 
L 692.849968 -154.150597 
L 689.120022 -147.973324 
L 687.876706 -144.884688 
L 686.633391 -141.796051 
L 685.390075 -135.618778 
L 681.660129 -126.352869 
L 676.686867 -123.264233 
L 675.443551 -117.08696 
L 674.200236 -110.909688 
L 670.470289 -107.821051 
L 669.226974 -104.732415 
L 666.740343 -98.555142 
L 664.253712 -89.289233 
L 661.767081 -86.200597 
L 654.307188 -80.023324 
L 651.820556 -73.846051 
z
" id="mb99b54ff2a" style="stroke:#dd8452;stroke-opacity:0.2;"/>
    </defs>
    <g clip-path="url(#p202f217dff)">
     <use style="fill:#dd8452;fill-opacity:0.2;stroke:#dd8452;stroke-opacity:0.2;" x="0" xlink:href="#mb99b54ff2a" y="337.077812"/>
    </g>
   </g>
   <g id="line2d_13">
    <path clip-path="url(#p202f217dff)" d="M 651.820556 281.76358 
L 652.254271 281.76358 
L 652.687986 274.635957 
L 653.98913 266.320398 
L 654.422845 262.756587 
L 655.290274 258.004838 
L 656.157704 253.25309 
L 657.025133 249.689279 
L 660.494851 246.125468 
L 660.928565 242.561656 
L 661.36228 238.997845 
L 662.22971 235.434034 
L 663.097139 233.05816 
L 663.964568 225.930538 
L 666.133142 216.427041 
L 666.566857 211.675293 
L 668.73543 209.299419 
L 669.169145 205.735608 
L 670.904004 202.171796 
L 671.337719 196.232111 
L 671.771433 186.728615 
L 678.710869 179.600992 
L 679.144583 176.037181 
L 685.650304 173.661307 
L 689.120022 171.285433 
L 690.421166 168.909559 
L 690.854881 166.533684 
L 691.288595 162.969873 
L 691.72231 159.406062 
L 700.396604 157.030188 
L 702.131463 154.654314 
L 705.167466 151.090503 
L 705.601181 147.526691 
L 711.673187 145.150817 
L 712.974331 142.774943 
L 715.142904 140.399069 
L 715.576619 138.023195 
L 716.010334 135.647321 
L 716.444049 133.271447 
L 719.046337 130.895573 
L 721.21491 127.331761 
L 723.383484 122.580013 
L 724.250913 119.016202 
L 727.720631 116.640328 
L 744.20179 113.076517 
L 750.707511 109.512705 
L 757.646946 107.136831 
L 765.887526 104.760957 
L 768.923529 102.385083 
L 773.260676 98.821272 
L 774.128105 95.257461 
L 776.296679 92.881587 
L 778.031538 90.505712 
L 780.633826 88.129838 
L 781.501255 85.753964 
L 784.537258 83.37809 
L 791.910408 81.002216 
L 803.186991 78.626342 
L 806.656709 75.062531 
L 811.861285 71.498719 
L 816.198432 69.122845 
L 816.632147 65.559034 
L 819.234435 61.995223 
L 828.776159 59.619349 
L 829.209874 54.867601 
L 831.378447 50.115852 
L 836.583024 46.552041 
L 837.016739 42.98823 
L 839.185312 40.612356 
L 850.461895 38.236482 
L 855.232756 35.860608 
L 875.617348 34.67267 
" style="fill:none;stroke:#4c72b0;stroke-linecap:round;stroke-width:4;"/>
   </g>
   <g id="line2d_14">
    <path clip-path="url(#p202f217dff)" d="M 651.820556 274.556761 
L 654.307188 260.143125 
L 661.767081 253.965852 
L 664.253712 249.332898 
L 666.740343 243.155625 
L 669.226974 235.434034 
L 670.470289 230.80108 
L 674.200236 227.712443 
L 675.443551 223.079489 
L 676.686867 216.902216 
L 681.660129 212.269261 
L 685.390075 206.091989 
L 686.633391 198.370398 
L 687.876706 193.737443 
L 689.120022 190.648807 
L 692.849968 186.015852 
L 695.336599 179.83858 
L 696.579915 175.205625 
L 699.066546 172.116989 
L 700.309861 167.484034 
L 702.796492 162.85108 
L 706.526439 159.762443 
L 707.769754 155.129489 
L 711.499701 150.496534 
L 718.959594 147.407898 
L 725.176171 144.319261 
L 731.392749 141.230625 
L 733.87938 136.59767 
L 735.122696 128.87608 
L 737.609327 122.698807 
L 740.095958 118.065852 
L 741.339273 111.88858 
L 745.06922 105.711307 
L 746.312535 99.534034 
L 751.285797 94.90108 
L 756.259059 91.812443 
L 757.502375 88.723807 
L 762.475637 85.63517 
L 763.718952 82.546534 
L 764.962268 79.457898 
L 769.93553 76.369261 
L 783.612 73.280625 
L 796.045155 70.191989 
L 803.505048 67.103352 
L 820.911466 64.014716 
L 824.641412 60.92608 
L 827.128043 57.837443 
L 838.317883 54.748807 
L 840.804514 51.66017 
L 843.291145 48.571534 
L 851.994353 45.482898 
L 853.237669 42.394261 
L 859.454246 39.305625 
L 873.130717 36.216989 
L 875.617348 34.67267 
" style="fill:none;stroke:#dd8452;stroke-linecap:round;stroke-width:4;"/>
   </g>
   <g id="patch_15">
    <path d="M 640.630717 294.118125 
L 640.630717 22.318125 
" style="fill:none;stroke:#cccccc;stroke-linecap:square;stroke-linejoin:miter;stroke-width:1.25;"/>
   </g>
   <g id="patch_16">
    <path d="M 886.807188 294.118125 
L 886.807188 22.318125 
" style="fill:none;stroke:#cccccc;stroke-linecap:square;stroke-linejoin:miter;stroke-width:1.25;"/>
   </g>
   <g id="patch_17">
    <path d="M 640.630717 294.118125 
L 886.807188 294.118125 
" style="fill:none;stroke:#cccccc;stroke-linecap:square;stroke-linejoin:miter;stroke-width:1.25;"/>
   </g>
   <g id="patch_18">
    <path d="M 640.630717 22.318125 
L 886.807188 22.318125 
" style="fill:none;stroke:#cccccc;stroke-linecap:square;stroke-linejoin:miter;stroke-width:1.25;"/>
   </g>
   <g id="text_47">
    <!-- Overall survival -->
    <g style="fill:#262626;" transform="translate(715.661765 16.318125)scale(0.12 -0.12)">
     <defs>
      <path d="M 41.015625 3.8125 
Q 52.984375 3.8125 59.078125 12.03125 
Q 65.1875 20.265625 65.1875 36.375 
Q 65.1875 52.546875 59.078125 60.765625 
Q 52.984375 69 41.015625 69 
Q 29 69 22.890625 60.765625 
Q 16.796875 52.546875 16.796875 36.375 
Q 16.796875 20.265625 22.890625 12.03125 
Q 29 3.8125 41.015625 3.8125 
z
M 41.015625 -1.421875 
Q 33.59375 -1.421875 27.359375 1.015625 
Q 21.140625 3.46875 16.40625 8.203125 
Q 10.9375 13.671875 8.265625 20.609375 
Q 5.609375 27.546875 5.609375 36.375 
Q 5.609375 45.21875 8.265625 52.171875 
Q 10.9375 59.125 16.40625 64.59375 
Q 21.1875 69.390625 27.34375 71.796875 
Q 33.5 74.21875 41.015625 74.21875 
Q 56.890625 74.21875 66.65625 63.8125 
Q 76.421875 53.421875 76.421875 36.375 
Q 76.421875 27.640625 73.734375 20.625 
Q 71.046875 13.625 65.578125 8.203125 
Q 60.796875 3.421875 54.640625 1 
Q 48.484375 -1.421875 41.015625 -1.421875 
z
" id="DejaVuSerif-79"/>
     </defs>
     <use xlink:href="#DejaVuSerif-79"/>
     <use x="81.982422" xlink:href="#DejaVuSerif-118"/>
     <use x="138.476562" xlink:href="#DejaVuSerif-101"/>
     <use x="197.65625" xlink:href="#DejaVuSerif-114"/>
     <use x="245.458984" xlink:href="#DejaVuSerif-97"/>
     <use x="305.078125" xlink:href="#DejaVuSerif-108"/>
     <use x="337.060547" xlink:href="#DejaVuSerif-108"/>
     <use x="369.042969" xlink:href="#DejaVuSerif-32"/>
     <use x="400.830078" xlink:href="#DejaVuSerif-115"/>
     <use x="452.148438" xlink:href="#DejaVuSerif-117"/>
     <use x="516.552734" xlink:href="#DejaVuSerif-114"/>
     <use x="564.355469" xlink:href="#DejaVuSerif-118"/>
     <use x="620.849609" xlink:href="#DejaVuSerif-105"/>
     <use x="652.832031" xlink:href="#DejaVuSerif-118"/>
     <use x="709.326172" xlink:href="#DejaVuSerif-97"/>
     <use x="768.945312" xlink:href="#DejaVuSerif-108"/>
    </g>
   </g>
   <g id="legend_3">
    <g id="patch_19">
     <path d="M 708.516094 288.618125 
L 879.107188 288.618125 
Q 881.307188 288.618125 881.307188 286.418125 
L 881.307188 255.22625 
Q 881.307188 253.02625 879.107188 253.02625 
L 708.516094 253.02625 
Q 706.316094 253.02625 706.316094 255.22625 
L 706.316094 286.418125 
Q 706.316094 288.618125 708.516094 288.618125 
z
" style="fill:#ffffff;opacity:0.8;stroke:#cccccc;stroke-linejoin:miter;"/>
    </g>
    <g id="line2d_15">
     <path d="M 710.716094 261.934531 
L 732.716094 261.934531 
" style="fill:none;stroke:#4c72b0;stroke-linecap:round;stroke-width:4;"/>
    </g>
    <g id="line2d_16"/>
    <g id="text_48">
     <!-- Treated, AUC: 0.6987 -->
     <g style="fill:#262626;" transform="translate(741.516094 265.784531)scale(0.11 -0.11)">
      <use xlink:href="#DejaVuSerif-84"/>
      <use x="66.699219" xlink:href="#DejaVuSerif-114"/>
      <use x="114.501953" xlink:href="#DejaVuSerif-101"/>
      <use x="173.681641" xlink:href="#DejaVuSerif-97"/>
      <use x="233.300781" xlink:href="#DejaVuSerif-116"/>
      <use x="273.486328" xlink:href="#DejaVuSerif-101"/>
      <use x="332.666016" xlink:href="#DejaVuSerif-100"/>
      <use x="396.679688" xlink:href="#DejaVuSerif-44"/>
      <use x="428.466797" xlink:href="#DejaVuSerif-32"/>
      <use x="460.253906" xlink:href="#DejaVuSerif-65"/>
      <use x="532.470703" xlink:href="#DejaVuSerif-85"/>
      <use x="616.748047" xlink:href="#DejaVuSerif-67"/>
      <use x="693.261719" xlink:href="#DejaVuSerif-58"/>
      <use x="726.953125" xlink:href="#DejaVuSerif-32"/>
      <use x="758.740234" xlink:href="#DejaVuSerif-48"/>
      <use x="822.363281" xlink:href="#DejaVuSerif-46"/>
      <use x="854.150391" xlink:href="#DejaVuSerif-54"/>
      <use x="917.773438" xlink:href="#DejaVuSerif-57"/>
      <use x="981.396484" xlink:href="#DejaVuSerif-56"/>
      <use x="1045.019531" xlink:href="#DejaVuSerif-55"/>
     </g>
    </g>
    <g id="line2d_17">
     <path d="M 710.716094 278.080469 
L 732.716094 278.080469 
" style="fill:none;stroke:#dd8452;stroke-linecap:round;stroke-width:4;"/>
    </g>
    <g id="line2d_18"/>
    <g id="text_49">
     <!-- Untreated, AUC: 0.6805 -->
     <g style="fill:#262626;" transform="translate(741.516094 281.930469)scale(0.11 -0.11)">
      <use xlink:href="#DejaVuSerif-85"/>
      <use x="84.277344" xlink:href="#DejaVuSerif-110"/>
      <use x="148.681641" xlink:href="#DejaVuSerif-116"/>
      <use x="188.867188" xlink:href="#DejaVuSerif-114"/>
      <use x="236.669922" xlink:href="#DejaVuSerif-101"/>
      <use x="295.849609" xlink:href="#DejaVuSerif-97"/>
      <use x="355.46875" xlink:href="#DejaVuSerif-116"/>
      <use x="395.654297" xlink:href="#DejaVuSerif-101"/>
      <use x="454.833984" xlink:href="#DejaVuSerif-100"/>
      <use x="518.847656" xlink:href="#DejaVuSerif-44"/>
      <use x="550.634766" xlink:href="#DejaVuSerif-32"/>
      <use x="582.421875" xlink:href="#DejaVuSerif-65"/>
      <use x="654.638672" xlink:href="#DejaVuSerif-85"/>
      <use x="738.916016" xlink:href="#DejaVuSerif-67"/>
      <use x="815.429688" xlink:href="#DejaVuSerif-58"/>
      <use x="849.121094" xlink:href="#DejaVuSerif-32"/>
      <use x="880.908203" xlink:href="#DejaVuSerif-48"/>
      <use x="944.53125" xlink:href="#DejaVuSerif-46"/>
      <use x="976.318359" xlink:href="#DejaVuSerif-54"/>
      <use x="1039.941406" xlink:href="#DejaVuSerif-56"/>
      <use x="1103.564453" xlink:href="#DejaVuSerif-48"/>
      <use x="1167.1875" xlink:href="#DejaVuSerif-53"/>
     </g>
    </g>
   </g>
  </g>
 </g>
 <defs>
  <clipPath id="p81e6e48d39">
   <rect height="271.8" width="246.176471" x="49.807188" y="22.318125"/>
  </clipPath>
  <clipPath id="p059fdb4ae3">
   <rect height="271.8" width="246.176471" x="345.218952" y="22.318125"/>
  </clipPath>
  <clipPath id="p202f217dff">
   <rect height="271.8" width="246.176471" x="640.630717" y="22.318125"/>
  </clipPath>
 </defs>
</svg>
