<?xml version="1.0" encoding="utf-8" standalone="no"?>
<!DOCTYPE svg PUBLIC "-//W3C//DTD SVG 1.1//EN"
  "http://www.w3.org/Graphics/SVG/1.1/DTD/svg11.dtd">
<!-- Created with matplotlib (https://matplotlib.org/) -->
<svg height="337.077812pt" version="1.1" viewBox="0 0 894.007187 337.077812" width="894.007187pt" xmlns="http://www.w3.org/2000/svg" xmlns:xlink="http://www.w3.org/1999/xlink">
 <metadata>
  <rdf:RDF xmlns:cc="http://creativecommons.org/ns#" xmlns:dc="http://purl.org/dc/elements/1.1/" xmlns:rdf="http://www.w3.org/1999/02/22-rdf-syntax-ns#">
   <cc:Work>
    <dc:type rdf:resource="http://purl.org/dc/dcmitype/StillImage"/>
    <dc:date>2020-12-07T15:41:58.560812</dc:date>
    <dc:format>image/svg+xml</dc:format>
    <dc:creator>
     <cc:Agent>
      <dc:title>Matplotlib v3.3.0, https://matplotlib.org/</dc:title>
     </cc:Agent>
    </dc:creator>
   </cc:Work>
  </rdf:RDF>
 </metadata>
 <defs>
  <style type="text/css">*{stroke-linecap:butt;stroke-linejoin:round;}</style>
 </defs>
 <g id="figure_1">
  <g id="patch_1">
   <path d="M 0 337.077812 
L 894.007187 337.077812 
L 894.007187 0 
L 0 0 
z
" style="fill:#ffffff;"/>
  </g>
  <g id="axes_1">
   <g id="patch_2">
    <path d="M 49.807188 294.118125 
L 295.983658 294.118125 
L 295.983658 22.318125 
L 49.807188 22.318125 
z
" style="fill:#ffffff;"/>
   </g>
   <g id="matplotlib.axis_1">
    <g id="xtick_1">
     <g id="text_1">
      <!-- 0.0 -->
      <g style="fill:#262626;" transform="translate(52.250308 311.976406)scale(0.11 -0.11)">
       <defs>
        <path d="M 31.78125 3.421875 
Q 39.265625 3.421875 42.96875 11.625 
Q 46.6875 19.828125 46.6875 36.375 
Q 46.6875 52.984375 42.96875 61.1875 
Q 39.265625 69.390625 31.78125 69.390625 
Q 24.3125 69.390625 20.59375 61.1875 
Q 16.890625 52.984375 16.890625 36.375 
Q 16.890625 19.828125 20.59375 11.625 
Q 24.3125 3.421875 31.78125 3.421875 
z
M 31.78125 -1.421875 
Q 19.921875 -1.421875 13.25 8.53125 
Q 6.59375 18.5 6.59375 36.375 
Q 6.59375 54.296875 13.25 64.25 
Q 19.921875 74.21875 31.78125 74.21875 
Q 43.703125 74.21875 50.34375 64.25 
Q 56.984375 54.296875 56.984375 36.375 
Q 56.984375 18.5 50.34375 8.53125 
Q 43.703125 -1.421875 31.78125 -1.421875 
z
" id="DejaVuSerif-48"/>
        <path d="M 9.421875 5.078125 
Q 9.421875 7.8125 11.28125 9.71875 
Q 13.140625 11.625 15.921875 11.625 
Q 18.609375 11.625 20.5 9.71875 
Q 22.40625 7.8125 22.40625 5.078125 
Q 22.40625 2.390625 20.5 0.484375 
Q 18.609375 -1.421875 15.921875 -1.421875 
Q 13.140625 -1.421875 11.28125 0.453125 
Q 9.421875 2.34375 9.421875 5.078125 
z
" id="DejaVuSerif-46"/>
       </defs>
       <use xlink:href="#DejaVuSerif-48"/>
       <use x="63.623047" xlink:href="#DejaVuSerif-46"/>
       <use x="95.410156" xlink:href="#DejaVuSerif-48"/>
      </g>
     </g>
    </g>
    <g id="xtick_2">
     <g id="text_2">
      <!-- 0.2 -->
      <g style="fill:#262626;" transform="translate(97.009667 311.976406)scale(0.11 -0.11)">
       <defs>
        <path d="M 12.796875 55.515625 
L 7.328125 55.515625 
L 7.328125 68.5 
Q 12.546875 71.296875 17.84375 72.75 
Q 23.140625 74.21875 28.21875 74.21875 
Q 39.59375 74.21875 46.1875 68.703125 
Q 52.78125 63.1875 52.78125 53.71875 
Q 52.78125 43.015625 37.84375 28.125 
Q 36.671875 27 36.078125 26.421875 
L 17.671875 8.015625 
L 48.09375 8.015625 
L 48.09375 17 
L 53.8125 17 
L 53.8125 0 
L 6.78125 0 
L 6.78125 5.328125 
L 28.90625 27.390625 
Q 36.234375 34.71875 39.359375 40.84375 
Q 42.484375 46.96875 42.484375 53.71875 
Q 42.484375 61.078125 38.640625 65.234375 
Q 34.8125 69.390625 28.078125 69.390625 
Q 21.09375 69.390625 17.28125 65.921875 
Q 13.484375 62.453125 12.796875 55.515625 
z
" id="DejaVuSerif-50"/>
       </defs>
       <use xlink:href="#DejaVuSerif-48"/>
       <use x="63.623047" xlink:href="#DejaVuSerif-46"/>
       <use x="95.410156" xlink:href="#DejaVuSerif-50"/>
      </g>
     </g>
    </g>
    <g id="xtick_3">
     <g id="text_3">
      <!-- 0.4 -->
      <g style="fill:#262626;" transform="translate(141.769025 311.976406)scale(0.11 -0.11)">
       <defs>
        <path d="M 34.90625 24.703125 
L 34.90625 63.484375 
L 10.015625 24.703125 
z
M 56.390625 0 
L 23.1875 0 
L 23.1875 5.171875 
L 34.90625 5.171875 
L 34.90625 19.484375 
L 3.078125 19.484375 
L 3.078125 24.8125 
L 35.015625 74.21875 
L 44.671875 74.21875 
L 44.671875 24.703125 
L 58.59375 24.703125 
L 58.59375 19.484375 
L 44.671875 19.484375 
L 44.671875 5.171875 
L 56.390625 5.171875 
z
" id="DejaVuSerif-52"/>
       </defs>
       <use xlink:href="#DejaVuSerif-48"/>
       <use x="63.623047" xlink:href="#DejaVuSerif-46"/>
       <use x="95.410156" xlink:href="#DejaVuSerif-52"/>
      </g>
     </g>
    </g>
    <g id="xtick_4">
     <g id="text_4">
      <!-- 0.6 -->
      <g style="fill:#262626;" transform="translate(186.528383 311.976406)scale(0.11 -0.11)">
       <defs>
        <path d="M 32.71875 3.421875 
Q 39.59375 3.421875 43.296875 8.46875 
Q 47.015625 13.53125 47.015625 23 
Q 47.015625 32.46875 43.296875 37.515625 
Q 39.59375 42.578125 32.71875 42.578125 
Q 25.734375 42.578125 22.0625 37.6875 
Q 18.40625 32.8125 18.40625 23.578125 
Q 18.40625 13.875 22.109375 8.640625 
Q 25.828125 3.421875 32.71875 3.421875 
z
M 16.796875 40.140625 
Q 20.125 43.796875 24.3125 45.59375 
Q 28.515625 47.40625 33.796875 47.40625 
Q 44.671875 47.40625 51 40.859375 
Q 57.328125 34.328125 57.328125 23 
Q 57.328125 11.921875 50.515625 5.25 
Q 43.703125 -1.421875 32.328125 -1.421875 
Q 19.96875 -1.421875 13.328125 7.78125 
Q 6.6875 17 6.6875 34.078125 
Q 6.6875 53.21875 14.546875 63.71875 
Q 22.40625 74.21875 36.71875 74.21875 
Q 40.578125 74.21875 44.828125 73.484375 
Q 49.078125 72.75 53.515625 71.296875 
L 53.515625 59.28125 
L 48 59.28125 
Q 47.40625 64.203125 44.234375 66.796875 
Q 41.0625 69.390625 35.6875 69.390625 
Q 26.21875 69.390625 21.578125 62.203125 
Q 16.9375 55.03125 16.796875 40.140625 
z
" id="DejaVuSerif-54"/>
       </defs>
       <use xlink:href="#DejaVuSerif-48"/>
       <use x="63.623047" xlink:href="#DejaVuSerif-46"/>
       <use x="95.410156" xlink:href="#DejaVuSerif-54"/>
      </g>
     </g>
    </g>
    <g id="xtick_5">
     <g id="text_5">
      <!-- 0.8 -->
      <g style="fill:#262626;" transform="translate(231.287741 311.976406)scale(0.11 -0.11)">
       <defs>
        <path d="M 46.578125 19.921875 
Q 46.578125 27.734375 42.6875 32.046875 
Q 38.8125 36.375 31.78125 36.375 
Q 24.75 36.375 20.875 32.046875 
Q 17 27.734375 17 19.921875 
Q 17 12.0625 20.875 7.734375 
Q 24.75 3.421875 31.78125 3.421875 
Q 38.8125 3.421875 42.6875 7.734375 
Q 46.578125 12.0625 46.578125 19.921875 
z
M 44.578125 55.328125 
Q 44.578125 61.96875 41.203125 65.671875 
Q 37.84375 69.390625 31.78125 69.390625 
Q 25.78125 69.390625 22.390625 65.671875 
Q 19 61.96875 19 55.328125 
Q 19 48.640625 22.390625 44.921875 
Q 25.78125 41.21875 31.78125 41.21875 
Q 37.84375 41.21875 41.203125 44.921875 
Q 44.578125 48.640625 44.578125 55.328125 
z
M 39.3125 38.8125 
Q 47.609375 37.703125 52.25 32.6875 
Q 56.890625 27.6875 56.890625 19.921875 
Q 56.890625 9.671875 50.390625 4.125 
Q 43.890625 -1.421875 31.78125 -1.421875 
Q 19.734375 -1.421875 13.203125 4.125 
Q 6.6875 9.671875 6.6875 19.921875 
Q 6.6875 27.6875 11.328125 32.6875 
Q 15.96875 37.703125 24.3125 38.8125 
Q 16.9375 40.140625 13 44.40625 
Q 9.078125 48.6875 9.078125 55.328125 
Q 9.078125 64.109375 15.125 69.15625 
Q 21.1875 74.21875 31.78125 74.21875 
Q 42.390625 74.21875 48.4375 69.15625 
Q 54.5 64.109375 54.5 55.328125 
Q 54.5 48.6875 50.5625 44.40625 
Q 46.625 40.140625 39.3125 38.8125 
z
" id="DejaVuSerif-56"/>
       </defs>
       <use xlink:href="#DejaVuSerif-48"/>
       <use x="63.623047" xlink:href="#DejaVuSerif-46"/>
       <use x="95.410156" xlink:href="#DejaVuSerif-56"/>
      </g>
     </g>
    </g>
    <g id="xtick_6">
     <g id="text_6">
      <!-- 1.0 -->
      <g style="fill:#262626;" transform="translate(276.0471 311.976406)scale(0.11 -0.11)">
       <defs>
        <path d="M 14.203125 0 
L 14.203125 5.171875 
L 26.90625 5.171875 
L 26.90625 65.828125 
L 12.203125 56.296875 
L 12.203125 62.703125 
L 29.984375 74.21875 
L 36.71875 74.21875 
L 36.71875 5.171875 
L 49.421875 5.171875 
L 49.421875 0 
z
" id="DejaVuSerif-49"/>
       </defs>
       <use xlink:href="#DejaVuSerif-49"/>
       <use x="63.623047" xlink:href="#DejaVuSerif-46"/>
       <use x="95.410156" xlink:href="#DejaVuSerif-48"/>
      </g>
     </g>
    </g>
    <g id="text_7">
     <!-- False positive rate -->
     <g style="fill:#262626;" transform="translate(117.06636 327.382187)scale(0.12 -0.12)">
      <defs>
       <path d="M 5.515625 0 
L 5.515625 5.171875 
L 14.796875 5.171875 
L 14.796875 67.671875 
L 5.515625 67.671875 
L 5.515625 72.90625 
L 65.1875 72.90625 
L 65.1875 56.6875 
L 59.1875 56.6875 
L 59.1875 66.890625 
L 24.703125 66.890625 
L 24.703125 42.484375 
L 49.609375 42.484375 
L 49.609375 51.609375 
L 55.609375 51.609375 
L 55.609375 27.390625 
L 49.609375 27.390625 
L 49.609375 36.53125 
L 24.703125 36.53125 
L 24.703125 5.171875 
L 36.375 5.171875 
L 36.375 0 
z
" id="DejaVuSerif-70"/>
       <path d="M 39.796875 16.3125 
L 39.796875 27.296875 
L 28.21875 27.296875 
Q 21.53125 27.296875 18.25 24.40625 
Q 14.984375 21.53125 14.984375 15.578125 
Q 14.984375 10.15625 18.296875 6.984375 
Q 21.625 3.8125 27.296875 3.8125 
Q 32.90625 3.8125 36.34375 7.28125 
Q 39.796875 10.75 39.796875 16.3125 
z
M 48.78125 32.421875 
L 48.78125 5.171875 
L 56.78125 5.171875 
L 56.78125 0 
L 39.796875 0 
L 39.796875 5.609375 
Q 36.8125 2 32.90625 0.28125 
Q 29 -1.421875 23.78125 -1.421875 
Q 15.140625 -1.421875 10.0625 3.171875 
Q 4.984375 7.765625 4.984375 15.578125 
Q 4.984375 23.640625 10.796875 28.078125 
Q 16.609375 32.515625 27.203125 32.515625 
L 39.796875 32.515625 
L 39.796875 36.078125 
Q 39.796875 42 36.203125 45.234375 
Q 32.625 48.484375 26.125 48.484375 
Q 20.75 48.484375 17.578125 46.046875 
Q 14.40625 43.609375 13.625 38.8125 
L 8.984375 38.8125 
L 8.984375 49.3125 
Q 13.671875 51.3125 18.09375 52.3125 
Q 22.515625 53.328125 26.703125 53.328125 
Q 37.5 53.328125 43.140625 47.96875 
Q 48.78125 42.625 48.78125 32.421875 
z
" id="DejaVuSerif-97"/>
       <path d="M 20.515625 5.171875 
L 29 5.171875 
L 29 0 
L 2.875 0 
L 2.875 5.171875 
L 11.53125 5.171875 
L 11.53125 70.796875 
L 2.875 70.796875 
L 2.875 75.984375 
L 20.515625 75.984375 
z
" id="DejaVuSerif-108"/>
       <path d="M 5.609375 2.875 
L 5.609375 14.984375 
L 10.796875 14.984375 
Q 10.984375 9.1875 14.421875 6.296875 
Q 17.875 3.421875 24.609375 3.421875 
Q 30.671875 3.421875 33.84375 5.6875 
Q 37.015625 7.953125 37.015625 12.3125 
Q 37.015625 15.71875 34.6875 17.8125 
Q 32.375 19.921875 24.90625 22.3125 
L 18.40625 24.515625 
Q 11.71875 26.65625 8.71875 29.875 
Q 5.71875 33.109375 5.71875 38.09375 
Q 5.71875 45.21875 10.9375 49.265625 
Q 16.15625 53.328125 25.390625 53.328125 
Q 29.5 53.328125 34.03125 52.25 
Q 38.578125 51.171875 43.40625 49.125 
L 43.40625 37.796875 
L 38.234375 37.796875 
Q 38.03125 42.828125 34.703125 45.65625 
Q 31.390625 48.484375 25.6875 48.484375 
Q 20.015625 48.484375 17.109375 46.484375 
Q 14.203125 44.484375 14.203125 40.484375 
Q 14.203125 37.203125 16.40625 35.21875 
Q 18.609375 33.25 25.203125 31.203125 
L 32.328125 29 
Q 39.703125 26.703125 42.9375 23.265625 
Q 46.1875 19.828125 46.1875 14.40625 
Q 46.1875 7.03125 40.546875 2.796875 
Q 34.90625 -1.421875 25 -1.421875 
Q 19.96875 -1.421875 15.1875 -0.34375 
Q 10.40625 0.734375 5.609375 2.875 
z
" id="DejaVuSerif-115"/>
       <path d="M 54.203125 25 
L 15.484375 25 
L 15.484375 24.609375 
Q 15.484375 14.109375 19.4375 8.765625 
Q 23.390625 3.421875 31.109375 3.421875 
Q 37.015625 3.421875 40.796875 6.515625 
Q 44.578125 9.625 46.09375 15.71875 
L 53.328125 15.71875 
Q 51.171875 7.171875 45.375 2.875 
Q 39.59375 -1.421875 30.171875 -1.421875 
Q 18.796875 -1.421875 11.890625 6.078125 
Q 4.984375 13.578125 4.984375 25.984375 
Q 4.984375 38.28125 11.765625 45.796875 
Q 18.5625 53.328125 29.59375 53.328125 
Q 41.359375 53.328125 47.65625 46.0625 
Q 53.953125 38.8125 54.203125 25 
z
M 43.609375 30.171875 
Q 43.3125 39.265625 39.765625 43.875 
Q 36.234375 48.484375 29.59375 48.484375 
Q 23.390625 48.484375 19.828125 43.84375 
Q 16.265625 39.203125 15.484375 30.171875 
z
" id="DejaVuSerif-101"/>
       <path id="DejaVuSerif-32"/>
       <path d="M 20.515625 28.515625 
L 20.515625 23.390625 
Q 20.515625 14.015625 24.09375 9.109375 
Q 27.6875 4.203125 34.515625 4.203125 
Q 41.40625 4.203125 44.9375 9.71875 
Q 48.484375 15.234375 48.484375 25.984375 
Q 48.484375 36.765625 44.9375 42.234375 
Q 41.40625 47.703125 34.515625 47.703125 
Q 27.6875 47.703125 24.09375 42.765625 
Q 20.515625 37.84375 20.515625 28.515625 
z
M 11.53125 46.6875 
L 2.875 46.6875 
L 2.875 51.90625 
L 20.515625 51.90625 
L 20.515625 43.796875 
Q 23.140625 48.6875 27.21875 51 
Q 31.296875 53.328125 37.3125 53.328125 
Q 46.875 53.328125 52.921875 45.75 
Q 58.984375 38.1875 58.984375 25.984375 
Q 58.984375 13.765625 52.921875 6.171875 
Q 46.875 -1.421875 37.3125 -1.421875 
Q 31.296875 -1.421875 27.21875 0.890625 
Q 23.140625 3.21875 20.515625 8.109375 
L 20.515625 -15.578125 
L 29 -15.578125 
L 29 -20.796875 
L 2.875 -20.796875 
L 2.875 -15.578125 
L 11.53125 -15.578125 
z
" id="DejaVuSerif-112"/>
       <path d="M 30.078125 3.421875 
Q 37.3125 3.421875 40.984375 9.125 
Q 44.671875 14.84375 44.671875 25.984375 
Q 44.671875 37.109375 40.984375 42.796875 
Q 37.3125 48.484375 30.078125 48.484375 
Q 22.859375 48.484375 19.171875 42.796875 
Q 15.484375 37.109375 15.484375 25.984375 
Q 15.484375 14.84375 19.1875 9.125 
Q 22.90625 3.421875 30.078125 3.421875 
z
M 30.078125 -1.421875 
Q 18.75 -1.421875 11.859375 6.078125 
Q 4.984375 13.578125 4.984375 25.984375 
Q 4.984375 38.375 11.84375 45.84375 
Q 18.703125 53.328125 30.078125 53.328125 
Q 41.453125 53.328125 48.3125 45.84375 
Q 55.171875 38.375 55.171875 25.984375 
Q 55.171875 13.578125 48.3125 6.078125 
Q 41.453125 -1.421875 30.078125 -1.421875 
z
" id="DejaVuSerif-111"/>
       <path d="M 9.71875 68.015625 
Q 9.71875 70.265625 11.34375 71.921875 
Q 12.984375 73.578125 15.28125 73.578125 
Q 17.53125 73.578125 19.15625 71.921875 
Q 20.796875 70.265625 20.796875 68.015625 
Q 20.796875 65.71875 19.1875 64.109375 
Q 17.578125 62.5 15.28125 62.5 
Q 12.984375 62.5 11.34375 64.109375 
Q 9.71875 65.71875 9.71875 68.015625 
z
M 21.1875 5.171875 
L 29.6875 5.171875 
L 29.6875 0 
L 3.609375 0 
L 3.609375 5.171875 
L 12.203125 5.171875 
L 12.203125 46.6875 
L 3.609375 46.6875 
L 3.609375 51.90625 
L 21.1875 51.90625 
z
" id="DejaVuSerif-105"/>
       <path d="M 10.796875 46.6875 
L 2.875 46.6875 
L 2.875 51.90625 
L 10.796875 51.90625 
L 10.796875 68.015625 
L 19.828125 68.015625 
L 19.828125 51.90625 
L 36.71875 51.90625 
L 36.71875 46.6875 
L 19.828125 46.6875 
L 19.828125 13.71875 
Q 19.828125 7.125 21.09375 5.265625 
Q 22.359375 3.421875 25.78125 3.421875 
Q 29.296875 3.421875 30.90625 5.484375 
Q 32.515625 7.5625 32.625 12.203125 
L 39.40625 12.203125 
Q 39.015625 5.125 35.546875 1.84375 
Q 32.078125 -1.421875 25 -1.421875 
Q 17.234375 -1.421875 14.015625 2.015625 
Q 10.796875 5.46875 10.796875 13.71875 
z
" id="DejaVuSerif-116"/>
       <path d="M 24.703125 0 
L 5.609375 46.6875 
L -0.296875 46.6875 
L -0.296875 51.90625 
L 23.578125 51.90625 
L 23.578125 46.6875 
L 15.28125 46.6875 
L 29.890625 10.984375 
L 44.484375 46.6875 
L 36.71875 46.6875 
L 36.71875 51.90625 
L 56.203125 51.90625 
L 56.203125 46.6875 
L 50.390625 46.6875 
L 31.296875 0 
z
" id="DejaVuSerif-118"/>
       <path d="M 47.796875 52 
L 47.796875 39.015625 
L 42.625 39.015625 
Q 42.390625 42.875 40.484375 44.78125 
Q 38.578125 46.6875 34.90625 46.6875 
Q 28.265625 46.6875 24.71875 42.09375 
Q 21.1875 37.5 21.1875 28.90625 
L 21.1875 5.171875 
L 31.59375 5.171875 
L 31.59375 0 
L 4.109375 0 
L 4.109375 5.171875 
L 12.203125 5.171875 
L 12.203125 46.78125 
L 3.609375 46.78125 
L 3.609375 51.90625 
L 21.1875 51.90625 
L 21.1875 42.671875 
Q 23.828125 48.09375 27.96875 50.703125 
Q 32.125 53.328125 38.09375 53.328125 
Q 40.28125 53.328125 42.703125 52.984375 
Q 45.125 52.640625 47.796875 52 
z
" id="DejaVuSerif-114"/>
      </defs>
      <use xlink:href="#DejaVuSerif-70"/>
      <use x="62.634766" xlink:href="#DejaVuSerif-97"/>
      <use x="122.253906" xlink:href="#DejaVuSerif-108"/>
      <use x="154.236328" xlink:href="#DejaVuSerif-115"/>
      <use x="205.554688" xlink:href="#DejaVuSerif-101"/>
      <use x="264.734375" xlink:href="#DejaVuSerif-32"/>
      <use x="296.521484" xlink:href="#DejaVuSerif-112"/>
      <use x="360.535156" xlink:href="#DejaVuSerif-111"/>
      <use x="420.740234" xlink:href="#DejaVuSerif-115"/>
      <use x="472.058594" xlink:href="#DejaVuSerif-105"/>
      <use x="504.041016" xlink:href="#DejaVuSerif-116"/>
      <use x="544.226562" xlink:href="#DejaVuSerif-105"/>
      <use x="576.208984" xlink:href="#DejaVuSerif-118"/>
      <use x="632.703125" xlink:href="#DejaVuSerif-101"/>
      <use x="691.882812" xlink:href="#DejaVuSerif-32"/>
      <use x="723.669922" xlink:href="#DejaVuSerif-114"/>
      <use x="771.472656" xlink:href="#DejaVuSerif-97"/>
      <use x="831.091797" xlink:href="#DejaVuSerif-116"/>
      <use x="871.277344" xlink:href="#DejaVuSerif-101"/>
     </g>
    </g>
   </g>
   <g id="matplotlib.axis_2">
    <g id="ytick_1">
     <g id="text_8">
      <!-- 0.0 -->
      <g style="fill:#262626;" transform="translate(22.81375 285.94272)scale(0.11 -0.11)">
       <use xlink:href="#DejaVuSerif-48"/>
       <use x="63.623047" xlink:href="#DejaVuSerif-46"/>
       <use x="95.410156" xlink:href="#DejaVuSerif-48"/>
      </g>
     </g>
    </g>
    <g id="ytick_2">
     <g id="text_9">
      <!-- 0.2 -->
      <g style="fill:#262626;" transform="translate(22.81375 236.524538)scale(0.11 -0.11)">
       <use xlink:href="#DejaVuSerif-48"/>
       <use x="63.623047" xlink:href="#DejaVuSerif-46"/>
       <use x="95.410156" xlink:href="#DejaVuSerif-50"/>
      </g>
     </g>
    </g>
    <g id="ytick_3">
     <g id="text_10">
      <!-- 0.4 -->
      <g style="fill:#262626;" transform="translate(22.81375 187.106357)scale(0.11 -0.11)">
       <use xlink:href="#DejaVuSerif-48"/>
       <use x="63.623047" xlink:href="#DejaVuSerif-46"/>
       <use x="95.410156" xlink:href="#DejaVuSerif-52"/>
      </g>
     </g>
    </g>
    <g id="ytick_4">
     <g id="text_11">
      <!-- 0.6 -->
      <g style="fill:#262626;" transform="translate(22.81375 137.688175)scale(0.11 -0.11)">
       <use xlink:href="#DejaVuSerif-48"/>
       <use x="63.623047" xlink:href="#DejaVuSerif-46"/>
       <use x="95.410156" xlink:href="#DejaVuSerif-54"/>
      </g>
     </g>
    </g>
    <g id="ytick_5">
     <g id="text_12">
      <!-- 0.8 -->
      <g style="fill:#262626;" transform="translate(22.81375 88.269993)scale(0.11 -0.11)">
       <use xlink:href="#DejaVuSerif-48"/>
       <use x="63.623047" xlink:href="#DejaVuSerif-46"/>
       <use x="95.410156" xlink:href="#DejaVuSerif-56"/>
      </g>
     </g>
    </g>
    <g id="ytick_6">
     <g id="text_13">
      <!-- 1.0 -->
      <g style="fill:#262626;" transform="translate(22.81375 38.851811)scale(0.11 -0.11)">
       <use xlink:href="#DejaVuSerif-49"/>
       <use x="63.623047" xlink:href="#DejaVuSerif-46"/>
       <use x="95.410156" xlink:href="#DejaVuSerif-48"/>
      </g>
     </g>
    </g>
    <g id="text_14">
     <!-- True positive rate -->
     <g style="fill:#262626;" transform="translate(16.318125 212.447812)rotate(-90)scale(0.12 -0.12)">
      <defs>
       <path d="M 19.09375 0 
L 19.09375 5.171875 
L 28.421875 5.171875 
L 28.421875 67.09375 
L 6.984375 67.09375 
L 6.984375 55.71875 
L 0.984375 55.71875 
L 0.984375 72.90625 
L 65.71875 72.90625 
L 65.71875 55.71875 
L 59.71875 55.71875 
L 59.71875 67.09375 
L 38.28125 67.09375 
L 38.28125 5.171875 
L 47.609375 5.171875 
L 47.609375 0 
z
" id="DejaVuSerif-84"/>
       <path d="M 35.40625 51.90625 
L 52.203125 51.90625 
L 52.203125 5.171875 
L 60.6875 5.171875 
L 60.6875 0 
L 43.21875 0 
L 43.21875 9.1875 
Q 40.71875 4 36.765625 1.28125 
Q 32.8125 -1.421875 27.59375 -1.421875 
Q 18.953125 -1.421875 14.875 3.484375 
Q 10.796875 8.40625 10.796875 18.890625 
L 10.796875 46.6875 
L 2.6875 46.6875 
L 2.6875 51.90625 
L 19.828125 51.90625 
L 19.828125 21.6875 
Q 19.828125 12.203125 22.140625 8.6875 
Q 24.46875 5.171875 30.421875 5.171875 
Q 36.671875 5.171875 39.9375 9.765625 
Q 43.21875 14.359375 43.21875 23.09375 
L 43.21875 46.6875 
L 35.40625 46.6875 
z
" id="DejaVuSerif-117"/>
      </defs>
      <use xlink:href="#DejaVuSerif-84"/>
      <use x="66.699219" xlink:href="#DejaVuSerif-114"/>
      <use x="114.501953" xlink:href="#DejaVuSerif-117"/>
      <use x="178.90625" xlink:href="#DejaVuSerif-101"/>
      <use x="238.085938" xlink:href="#DejaVuSerif-32"/>
      <use x="269.873047" xlink:href="#DejaVuSerif-112"/>
      <use x="333.886719" xlink:href="#DejaVuSerif-111"/>
      <use x="394.091797" xlink:href="#DejaVuSerif-115"/>
      <use x="445.410156" xlink:href="#DejaVuSerif-105"/>
      <use x="477.392578" xlink:href="#DejaVuSerif-116"/>
      <use x="517.578125" xlink:href="#DejaVuSerif-105"/>
      <use x="549.560547" xlink:href="#DejaVuSerif-118"/>
      <use x="606.054688" xlink:href="#DejaVuSerif-101"/>
      <use x="665.234375" xlink:href="#DejaVuSerif-32"/>
      <use x="697.021484" xlink:href="#DejaVuSerif-114"/>
      <use x="744.824219" xlink:href="#DejaVuSerif-97"/>
      <use x="804.443359" xlink:href="#DejaVuSerif-116"/>
      <use x="844.628906" xlink:href="#DejaVuSerif-101"/>
     </g>
    </g>
   </g>
   <g id="PolyCollection_1">
    <path clip-path="url(#p35527c92f9)" d="M 60.997027 275.586307 
L 60.997027 281.76358 
L 61.44823 275.586307 
L 63.253043 260.143125 
L 65.509059 253.965852 
L 66.411466 247.78858 
L 68.667482 244.699943 
L 69.569888 238.52267 
L 70.472294 226.168125 
L 70.923498 219.990852 
L 73.630717 210.724943 
L 74.08192 207.636307 
L 74.533123 204.54767 
L 75.886733 198.370398 
L 79.947562 189.104489 
L 80.849968 186.015852 
L 81.301171 179.83858 
L 82.203578 164.395398 
L 87.166813 161.306761 
L 88.06922 158.218125 
L 90.325236 148.952216 
L 90.776439 145.86358 
L 92.581252 139.686307 
L 92.581252 136.59767 
L 92.581252 136.59767 
L 90.776439 139.686307 
L 90.325236 145.86358 
L 88.06922 148.952216 
L 87.166813 158.218125 
L 82.203578 161.306761 
L 81.301171 164.395398 
L 80.849968 179.83858 
L 79.947562 186.015852 
L 75.886733 189.104489 
L 74.533123 198.370398 
L 74.08192 204.54767 
L 73.630717 207.636307 
L 70.923498 210.724943 
L 70.472294 219.990852 
L 69.569888 226.168125 
L 68.667482 238.52267 
L 66.411466 244.699943 
L 65.509059 247.78858 
L 63.253043 253.965852 
L 61.44823 260.143125 
L 60.997027 275.586307 
z
" style="fill:#4c72b0;fill-opacity:0.2;stroke:#4c72b0;stroke-opacity:0.2;"/>
    <path clip-path="url(#p35527c92f9)" d="M 97.093284 133.509034 
L 97.093284 136.59767 
L 99.800503 133.509034 
L 101.154113 127.331761 
L 101.154113 124.243125 
L 101.154113 124.243125 
L 99.800503 127.331761 
L 97.093284 133.509034 
z
" style="fill:#4c72b0;fill-opacity:0.2;stroke:#4c72b0;stroke-opacity:0.2;"/>
    <path clip-path="url(#p35527c92f9)" d="M 103.861332 121.154489 
L 103.861332 124.243125 
L 108.824567 121.154489 
L 110.62938 118.065852 
L 111.080583 114.977216 
L 113.336599 111.88858 
L 113.336599 108.799943 
L 113.336599 108.799943 
L 111.080583 111.88858 
L 110.62938 114.977216 
L 108.824567 118.065852 
L 103.861332 121.154489 
z
" style="fill:#4c72b0;fill-opacity:0.2;stroke:#4c72b0;stroke-opacity:0.2;"/>
    <path clip-path="url(#p35527c92f9)" d="M 137.250369 105.711307 
L 137.250369 108.799943 
L 138.152776 105.711307 
L 141.762401 87.179489 
L 146.274433 81.002216 
L 148.981653 77.91358 
L 149.884059 74.824943 
L 152.591278 65.559034 
L 152.591278 62.470398 
L 152.591278 62.470398 
L 149.884059 65.559034 
L 148.981653 74.824943 
L 146.274433 77.91358 
L 141.762401 81.002216 
L 138.152776 87.179489 
L 137.250369 105.711307 
z
" style="fill:#4c72b0;fill-opacity:0.2;stroke:#4c72b0;stroke-opacity:0.2;"/>
    <path clip-path="url(#p35527c92f9)" d="M 175.602642 59.381761 
L 175.602642 62.470398 
L 175.602642 59.381761 
L 175.602642 59.381761 
z
" style="fill:#4c72b0;fill-opacity:0.2;stroke:#4c72b0;stroke-opacity:0.2;"/>
    <path clip-path="url(#p35527c92f9)" d="M 202.223631 56.293125 
L 202.223631 59.381761 
L 202.223631 56.293125 
L 202.223631 56.293125 
z
" style="fill:#4c72b0;fill-opacity:0.2;stroke:#4c72b0;stroke-opacity:0.2;"/>
    <path clip-path="url(#p35527c92f9)" d="M 208.540476 53.204489 
L 208.540476 56.293125 
L 208.540476 53.204489 
L 208.540476 53.204489 
z
" style="fill:#4c72b0;fill-opacity:0.2;stroke:#4c72b0;stroke-opacity:0.2;"/>
    <path clip-path="url(#p35527c92f9)" d="M 222.076573 50.115852 
L 222.076573 53.204489 
L 222.076573 50.115852 
L 222.076573 50.115852 
z
" style="fill:#4c72b0;fill-opacity:0.2;stroke:#4c72b0;stroke-opacity:0.2;"/>
    <path clip-path="url(#p35527c92f9)" d="M 229.295824 47.027216 
L 229.295824 50.115852 
L 229.295824 47.027216 
L 229.295824 47.027216 
z
" style="fill:#4c72b0;fill-opacity:0.2;stroke:#4c72b0;stroke-opacity:0.2;"/>
    <path clip-path="url(#p35527c92f9)" d="M 237.868685 43.93858 
L 237.868685 47.027216 
L 244.18553 43.93858 
L 244.18553 40.849943 
L 244.18553 40.849943 
L 237.868685 43.93858 
z
" style="fill:#4c72b0;fill-opacity:0.2;stroke:#4c72b0;stroke-opacity:0.2;"/>
    <path clip-path="url(#p35527c92f9)" d="M 263.587268 37.761307 
L 263.587268 40.849943 
L 263.587268 37.761307 
L 263.587268 37.761307 
z
" style="fill:#4c72b0;fill-opacity:0.2;stroke:#4c72b0;stroke-opacity:0.2;"/>
    <path clip-path="url(#p35527c92f9)" d="M 271.257722 34.67267 
L 271.257722 37.761307 
L 271.257722 34.67267 
L 271.257722 34.67267 
z
" style="fill:#4c72b0;fill-opacity:0.2;stroke:#4c72b0;stroke-opacity:0.2;"/>
   </g>
   <g id="PolyCollection_2">
    <path clip-path="url(#p35527c92f9)" d="M 60.997027 219.990852 
L 60.997027 281.76358 
L 67.213605 219.990852 
L 70.321893 207.636307 
L 71.35799 195.281761 
L 77.574567 182.927216 
L 77.574567 170.57267 
L 77.574567 170.57267 
L 71.35799 182.927216 
L 70.321893 195.281761 
L 67.213605 207.636307 
L 60.997027 219.990852 
z
" style="fill:#dd8452;fill-opacity:0.2;stroke:#dd8452;stroke-opacity:0.2;"/>
    <path clip-path="url(#p35527c92f9)" d="M 93.116011 158.218125 
L 93.116011 170.57267 
L 93.116011 158.218125 
L 93.116011 158.218125 
z
" style="fill:#dd8452;fill-opacity:0.2;stroke:#dd8452;stroke-opacity:0.2;"/>
    <path clip-path="url(#p35527c92f9)" d="M 121.09061 145.86358 
L 121.09061 158.218125 
L 122.126706 145.86358 
L 133.523765 133.509034 
L 133.523765 121.154489 
L 133.523765 121.154489 
L 122.126706 133.509034 
L 121.09061 145.86358 
z
" style="fill:#dd8452;fill-opacity:0.2;stroke:#dd8452;stroke-opacity:0.2;"/>
    <path clip-path="url(#p35527c92f9)" d="M 144.920824 108.799943 
L 144.920824 121.154489 
L 144.920824 108.799943 
L 144.920824 108.799943 
z
" style="fill:#dd8452;fill-opacity:0.2;stroke:#dd8452;stroke-opacity:0.2;"/>
    <path clip-path="url(#p35527c92f9)" d="M 238.169487 71.736307 
L 238.169487 84.090852 
L 238.169487 71.736307 
L 238.169487 71.736307 
z
" style="fill:#dd8452;fill-opacity:0.2;stroke:#dd8452;stroke-opacity:0.2;"/>
    <path clip-path="url(#p35527c92f9)" d="M 264.071893 59.381761 
L 264.071893 71.736307 
L 264.071893 59.381761 
L 264.071893 59.381761 
z
" style="fill:#dd8452;fill-opacity:0.2;stroke:#dd8452;stroke-opacity:0.2;"/>
   </g>
   <g id="line2d_1">
    <path clip-path="url(#p35527c92f9)" d="M 60.997027 278.674943 
L 61.44823 267.864716 
L 63.253043 257.054489 
L 65.509059 250.877216 
L 66.411466 246.244261 
L 68.667482 241.611307 
L 69.569888 232.345398 
L 70.472294 223.079489 
L 70.923498 215.357898 
L 73.630717 209.180625 
L 74.08192 206.091989 
L 74.533123 201.459034 
L 75.886733 194.252216 
L 79.947562 187.56017 
L 80.849968 182.927216 
L 81.301171 172.116989 
L 82.203578 162.85108 
L 87.166813 159.762443 
L 88.06922 153.070398 
L 90.325236 147.407898 
L 90.776439 142.774943 
L 92.581252 138.141989 
L 95.288471 136.59767 
L 96.190877 136.59767 
L 97.093284 135.053352 
L 99.800503 130.420398 
L 101.154113 125.787443 
L 102.056519 124.243125 
L 103.861332 122.698807 
L 108.824567 119.61017 
L 110.62938 116.521534 
L 111.080583 113.432898 
L 113.336599 110.344261 
L 116.043819 108.799943 
L 116.946225 108.799943 
L 117.397428 108.799943 
L 118.299835 108.799943 
L 133.640744 108.799943 
L 134.54315 108.799943 
L 137.250369 107.255625 
L 138.152776 95.415852 
L 141.762401 84.090852 
L 146.274433 79.457898 
L 148.981653 76.369261 
L 149.884059 69.677216 
L 152.591278 64.014716 
L 153.493685 62.470398 
L 154.396091 62.470398 
L 155.298498 62.470398 
L 156.652107 62.470398 
L 157.554514 62.470398 
L 175.602642 60.92608 
L 176.505048 59.381761 
L 177.407455 59.381761 
L 199.516412 59.381761 
L 200.418819 59.381761 
L 202.223631 57.837443 
L 204.479647 56.293125 
L 205.382054 56.293125 
L 208.540476 54.748807 
L 211.247696 53.204489 
L 212.150102 53.204489 
L 217.113337 53.204489 
L 218.015744 53.204489 
L 222.076573 51.66017 
L 227.039808 50.115852 
L 227.942214 50.115852 
L 229.295824 48.571534 
L 229.747027 47.027216 
L 230.649433 47.027216 
L 232.454246 47.027216 
L 233.356653 47.027216 
L 237.868685 45.482898 
L 244.18553 42.394261 
L 250.502375 40.849943 
L 251.404781 40.849943 
L 260.428845 40.849943 
L 261.331252 40.849943 
L 263.587268 39.305625 
L 268.0993 37.761307 
L 269.001706 37.761307 
L 271.257722 36.216989 
L 277.123364 34.67267 
L 278.02577 34.67267 
L 279.830583 34.67267 
L 281.635396 34.67267 
L 282.086599 34.67267 
L 282.989006 34.67267 
L 284.793819 34.67267 
" style="fill:none;stroke:#4c72b0;stroke-linecap:round;stroke-width:4;"/>
   </g>
   <g id="line2d_2">
    <path clip-path="url(#p35527c92f9)" d="M 60.997027 257.054489 
L 67.213605 213.81358 
L 70.321893 201.459034 
L 71.35799 189.104489 
L 77.574567 176.749943 
L 81.718952 170.57267 
L 83.791145 170.57267 
L 84.827241 170.57267 
L 90.007722 170.57267 
L 93.116011 164.395398 
L 95.188204 158.218125 
L 103.476974 158.218125 
L 109.693551 158.218125 
L 111.765744 158.218125 
L 120.054514 158.218125 
L 121.09061 152.040852 
L 122.126706 139.686307 
L 133.523765 127.331761 
L 138.704246 121.154489 
L 144.920824 114.977216 
L 146.993016 108.799943 
L 154.24569 108.799943 
L 160.462268 108.799943 
L 169.787134 108.799943 
L 176.003712 108.799943 
L 177.039808 108.799943 
L 183.256385 108.799943 
L 205.014407 108.799943 
L 210.194888 108.799943 
L 218.483658 108.799943 
L 219.519754 108.799943 
L 225.736332 96.445398 
L 230.916813 84.090852 
L 238.169487 77.91358 
L 240.241679 71.736307 
L 250.602642 71.736307 
L 256.81922 71.736307 
L 264.071893 65.559034 
L 269.252375 47.027216 
L 277.541145 47.027216 
L 284.793819 34.67267 
" style="fill:none;stroke:#dd8452;stroke-linecap:round;stroke-width:4;"/>
   </g>
   <g id="patch_3">
    <path d="M 49.807188 294.118125 
L 49.807188 22.318125 
" style="fill:none;stroke:#cccccc;stroke-linecap:square;stroke-linejoin:miter;stroke-width:1.25;"/>
   </g>
   <g id="patch_4">
    <path d="M 295.983658 294.118125 
L 295.983658 22.318125 
" style="fill:none;stroke:#cccccc;stroke-linecap:square;stroke-linejoin:miter;stroke-width:1.25;"/>
   </g>
   <g id="patch_5">
    <path d="M 49.807188 294.118125 
L 295.983658 294.118125 
" style="fill:none;stroke:#cccccc;stroke-linecap:square;stroke-linejoin:miter;stroke-width:1.25;"/>
   </g>
   <g id="patch_6">
    <path d="M 49.807188 22.318125 
L 295.983658 22.318125 
" style="fill:none;stroke:#cccccc;stroke-linecap:square;stroke-linejoin:miter;stroke-width:1.25;"/>
   </g>
   <g id="text_15">
    <!-- Distant relapse -->
    <g style="fill:#262626;" transform="translate(126.529485 16.318125)scale(0.12 -0.12)">
     <defs>
      <path d="M 24.703125 5.171875 
L 33.796875 5.171875 
Q 48 5.171875 55.59375 13.28125 
Q 63.1875 21.390625 63.1875 36.53125 
Q 63.1875 51.65625 55.609375 59.65625 
Q 48.046875 67.671875 33.796875 67.671875 
L 24.703125 67.671875 
z
M 5.515625 0 
L 5.515625 5.171875 
L 14.796875 5.171875 
L 14.796875 67.671875 
L 5.515625 67.671875 
L 5.515625 72.90625 
L 34.515625 72.90625 
Q 53.375 72.90625 63.890625 63.28125 
Q 74.421875 53.65625 74.421875 36.53125 
Q 74.421875 19.34375 63.875 9.671875 
Q 53.328125 0 34.515625 0 
z
" id="DejaVuSerif-68"/>
      <path d="M 4.109375 0 
L 4.109375 5.171875 
L 12.203125 5.171875 
L 12.203125 46.6875 
L 3.609375 46.6875 
L 3.609375 51.90625 
L 21.1875 51.90625 
L 21.1875 42.671875 
Q 23.6875 47.953125 27.65625 50.640625 
Q 31.640625 53.328125 36.921875 53.328125 
Q 45.515625 53.328125 49.5625 48.390625 
Q 53.609375 43.453125 53.609375 33.015625 
L 53.609375 5.171875 
L 61.625 5.171875 
L 61.625 0 
L 36.8125 0 
L 36.8125 5.171875 
L 44.578125 5.171875 
L 44.578125 30.171875 
Q 44.578125 39.703125 42.234375 43.234375 
Q 39.890625 46.78125 33.984375 46.78125 
Q 27.734375 46.78125 24.453125 42.203125 
Q 21.1875 37.640625 21.1875 28.90625 
L 21.1875 5.171875 
L 29 5.171875 
L 29 0 
z
" id="DejaVuSerif-110"/>
     </defs>
     <use xlink:href="#DejaVuSerif-68"/>
     <use x="80.175781" xlink:href="#DejaVuSerif-105"/>
     <use x="112.158203" xlink:href="#DejaVuSerif-115"/>
     <use x="163.476562" xlink:href="#DejaVuSerif-116"/>
     <use x="203.662109" xlink:href="#DejaVuSerif-97"/>
     <use x="263.28125" xlink:href="#DejaVuSerif-110"/>
     <use x="327.685547" xlink:href="#DejaVuSerif-116"/>
     <use x="367.871094" xlink:href="#DejaVuSerif-32"/>
     <use x="399.658203" xlink:href="#DejaVuSerif-114"/>
     <use x="447.460938" xlink:href="#DejaVuSerif-101"/>
     <use x="506.640625" xlink:href="#DejaVuSerif-108"/>
     <use x="538.623047" xlink:href="#DejaVuSerif-97"/>
     <use x="598.242188" xlink:href="#DejaVuSerif-112"/>
     <use x="662.255859" xlink:href="#DejaVuSerif-115"/>
     <use x="713.574219" xlink:href="#DejaVuSerif-101"/>
    </g>
   </g>
   <g id="legend_1">
    <g id="patch_7">
     <path d="M 117.692564 288.618125 
L 288.283658 288.618125 
Q 290.483658 288.618125 290.483658 286.418125 
L 290.483658 255.22625 
Q 290.483658 253.02625 288.283658 253.02625 
L 117.692564 253.02625 
Q 115.492564 253.02625 115.492564 255.22625 
L 115.492564 286.418125 
Q 115.492564 288.618125 117.692564 288.618125 
z
" style="fill:#ffffff;opacity:0.8;stroke:#cccccc;stroke-linejoin:miter;"/>
    </g>
    <g id="line2d_3">
     <path d="M 119.892564 261.934531 
L 141.892564 261.934531 
" style="fill:none;stroke:#4c72b0;stroke-linecap:round;stroke-width:4;"/>
    </g>
    <g id="line2d_4"/>
    <g id="text_16">
     <!-- Treated, AUC: 0.7899 -->
     <g style="fill:#262626;" transform="translate(150.692564 265.784531)scale(0.11 -0.11)">
      <defs>
       <path d="M 52.484375 5.171875 
L 61.078125 5.171875 
L 61.078125 0 
L 43.5 0 
L 43.5 8.109375 
Q 40.875 3.21875 36.796875 0.890625 
Q 32.71875 -1.421875 26.703125 -1.421875 
Q 17.140625 -1.421875 11.0625 6.171875 
Q 4.984375 13.765625 4.984375 25.984375 
Q 4.984375 38.1875 11.03125 45.75 
Q 17.09375 53.328125 26.703125 53.328125 
Q 32.71875 53.328125 36.796875 51 
Q 40.875 48.6875 43.5 43.796875 
L 43.5 70.796875 
L 35.015625 70.796875 
L 35.015625 75.984375 
L 52.484375 75.984375 
z
M 43.5 23.390625 
L 43.5 28.515625 
Q 43.5 37.84375 39.90625 42.765625 
Q 36.328125 47.703125 29.5 47.703125 
Q 22.5625 47.703125 19.015625 42.234375 
Q 15.484375 36.765625 15.484375 25.984375 
Q 15.484375 15.234375 19.015625 9.71875 
Q 22.5625 4.203125 29.5 4.203125 
Q 36.328125 4.203125 39.90625 9.109375 
Q 43.5 14.015625 43.5 23.390625 
z
" id="DejaVuSerif-100"/>
       <path d="M 3.609375 -9.71875 
Q 8.203125 -6.34375 10.34375 -1.78125 
Q 12.5 2.78125 12.5 9.28125 
L 12.5 11.078125 
L 22.125 11.078125 
Q 21.734375 2.734375 18.1875 -3.25 
Q 14.65625 -9.234375 7.515625 -13.625 
z
" id="DejaVuSerif-44"/>
       <path d="M 20.015625 26.421875 
L 46.78125 26.421875 
L 33.40625 61.078125 
z
M -0.59375 0 
L -0.59375 5.171875 
L 5.8125 5.171875 
L 31.78125 72.90625 
L 39.984375 72.90625 
L 66.015625 5.171875 
L 73.1875 5.171875 
L 73.1875 0 
L 46.6875 0 
L 46.6875 5.171875 
L 54.78125 5.171875 
L 48.6875 21.1875 
L 18.015625 21.1875 
L 11.921875 5.171875 
L 19.921875 5.171875 
L 19.921875 0 
z
" id="DejaVuSerif-65"/>
       <path d="M 14.015625 67.671875 
L 4.6875 67.671875 
L 4.6875 72.90625 
L 33.203125 72.90625 
L 33.203125 67.671875 
L 23.875 67.671875 
L 23.875 29.984375 
Q 23.875 16.015625 28.4375 10.5 
Q 33.015625 4.984375 44.1875 4.984375 
Q 55.375 4.984375 59.9375 10.5 
Q 64.5 16.015625 64.5 29.984375 
L 64.5 67.671875 
L 55.171875 67.671875 
L 55.171875 72.90625 
L 79.78125 72.90625 
L 79.78125 67.671875 
L 70.515625 67.671875 
L 70.515625 29 
Q 70.515625 12.359375 64.109375 5.46875 
Q 57.71875 -1.421875 42.390625 -1.421875 
Q 27.046875 -1.421875 20.53125 5.515625 
Q 14.015625 12.453125 14.015625 29 
z
" id="DejaVuSerif-85"/>
       <path d="M 70.515625 19.28125 
Q 67.28125 9.078125 59.6875 3.828125 
Q 52.09375 -1.421875 40.484375 -1.421875 
Q 33.34375 -1.421875 27.234375 1.015625 
Q 21.140625 3.46875 16.40625 8.203125 
Q 10.9375 13.671875 8.265625 20.625 
Q 5.609375 27.59375 5.609375 36.375 
Q 5.609375 53.375 15.421875 63.796875 
Q 25.25 74.21875 41.3125 74.21875 
Q 47.265625 74.21875 54 72.65625 
Q 60.75 71.09375 68.5 67.921875 
L 68.5 51.125 
L 62.984375 51.125 
Q 61.1875 60.296875 55.734375 64.640625 
Q 50.296875 69 40.484375 69 
Q 28.8125 69 22.796875 60.71875 
Q 16.796875 52.4375 16.796875 36.375 
Q 16.796875 20.359375 22.796875 12.078125 
Q 28.8125 3.8125 40.484375 3.8125 
Q 48.640625 3.8125 53.90625 7.6875 
Q 59.1875 11.578125 61.53125 19.28125 
z
" id="DejaVuSerif-67"/>
       <path d="M 10.40625 5.078125 
Q 10.40625 7.8125 12.28125 9.71875 
Q 14.15625 11.625 16.890625 11.625 
Q 19.625 11.625 21.5 9.71875 
Q 23.390625 7.8125 23.390625 5.078125 
Q 23.390625 2.34375 21.53125 0.453125 
Q 19.671875 -1.421875 16.890625 -1.421875 
Q 14.109375 -1.421875 12.25 0.453125 
Q 10.40625 2.34375 10.40625 5.078125 
z
M 10.40625 36.921875 
Q 10.40625 39.65625 12.28125 41.53125 
Q 14.15625 43.40625 16.890625 43.40625 
Q 19.671875 43.40625 21.53125 41.546875 
Q 23.390625 39.703125 23.390625 36.921875 
Q 23.390625 34.125 21.53125 32.265625 
Q 19.671875 30.421875 16.890625 30.421875 
Q 14.15625 30.421875 12.28125 32.296875 
Q 10.40625 34.1875 10.40625 36.921875 
z
" id="DejaVuSerif-58"/>
       <path d="M 56.390625 67.921875 
L 27.875 0 
L 20.609375 0 
L 47.796875 64.890625 
L 14.109375 64.890625 
L 14.109375 55.90625 
L 8.40625 55.90625 
L 8.40625 72.90625 
L 56.390625 72.90625 
z
" id="DejaVuSerif-55"/>
       <path d="M 46.78125 32.671875 
Q 43.5 29 39.25 27.1875 
Q 35.015625 25.390625 29.6875 25.390625 
Q 18.84375 25.390625 12.5625 31.9375 
Q 6.296875 38.484375 6.296875 49.8125 
Q 6.296875 60.890625 13.109375 67.546875 
Q 19.921875 74.21875 31.296875 74.21875 
Q 43.65625 74.21875 50.265625 65.015625 
Q 56.890625 55.8125 56.890625 38.71875 
Q 56.890625 19.578125 49.015625 9.078125 
Q 41.15625 -1.421875 26.90625 -1.421875 
Q 23.046875 -1.421875 18.796875 -0.6875 
Q 14.546875 0.046875 10.109375 1.515625 
L 10.109375 13.625 
L 15.578125 13.625 
Q 16.21875 8.6875 19.390625 6.046875 
Q 22.5625 3.421875 27.875 3.421875 
Q 37.359375 3.421875 41.984375 10.5625 
Q 46.625 17.71875 46.78125 32.671875 
z
M 30.90625 69.390625 
Q 23.96875 69.390625 20.28125 64.328125 
Q 16.609375 59.28125 16.609375 49.8125 
Q 16.609375 40.328125 20.28125 35.25 
Q 23.96875 30.171875 30.90625 30.171875 
Q 37.84375 30.171875 41.53125 35.078125 
Q 45.21875 39.984375 45.21875 49.21875 
Q 45.21875 58.9375 41.5 64.15625 
Q 37.796875 69.390625 30.90625 69.390625 
z
" id="DejaVuSerif-57"/>
      </defs>
      <use xlink:href="#DejaVuSerif-84"/>
      <use x="66.699219" xlink:href="#DejaVuSerif-114"/>
      <use x="114.501953" xlink:href="#DejaVuSerif-101"/>
      <use x="173.681641" xlink:href="#DejaVuSerif-97"/>
      <use x="233.300781" xlink:href="#DejaVuSerif-116"/>
      <use x="273.486328" xlink:href="#DejaVuSerif-101"/>
      <use x="332.666016" xlink:href="#DejaVuSerif-100"/>
      <use x="396.679688" xlink:href="#DejaVuSerif-44"/>
      <use x="428.466797" xlink:href="#DejaVuSerif-32"/>
      <use x="460.253906" xlink:href="#DejaVuSerif-65"/>
      <use x="532.470703" xlink:href="#DejaVuSerif-85"/>
      <use x="616.748047" xlink:href="#DejaVuSerif-67"/>
      <use x="693.261719" xlink:href="#DejaVuSerif-58"/>
      <use x="726.953125" xlink:href="#DejaVuSerif-32"/>
      <use x="758.740234" xlink:href="#DejaVuSerif-48"/>
      <use x="822.363281" xlink:href="#DejaVuSerif-46"/>
      <use x="854.150391" xlink:href="#DejaVuSerif-55"/>
      <use x="917.773438" xlink:href="#DejaVuSerif-56"/>
      <use x="981.396484" xlink:href="#DejaVuSerif-57"/>
      <use x="1045.019531" xlink:href="#DejaVuSerif-57"/>
     </g>
    </g>
    <g id="line2d_5">
     <path d="M 119.892564 278.080469 
L 141.892564 278.080469 
" style="fill:none;stroke:#dd8452;stroke-linecap:round;stroke-width:4;"/>
    </g>
    <g id="line2d_6"/>
    <g id="text_17">
     <!-- Untreated, AUC: 0.6677 -->
     <g style="fill:#262626;" transform="translate(150.692564 281.930469)scale(0.11 -0.11)">
      <use xlink:href="#DejaVuSerif-85"/>
      <use x="84.277344" xlink:href="#DejaVuSerif-110"/>
      <use x="148.681641" xlink:href="#DejaVuSerif-116"/>
      <use x="188.867188" xlink:href="#DejaVuSerif-114"/>
      <use x="236.669922" xlink:href="#DejaVuSerif-101"/>
      <use x="295.849609" xlink:href="#DejaVuSerif-97"/>
      <use x="355.46875" xlink:href="#DejaVuSerif-116"/>
      <use x="395.654297" xlink:href="#DejaVuSerif-101"/>
      <use x="454.833984" xlink:href="#DejaVuSerif-100"/>
      <use x="518.847656" xlink:href="#DejaVuSerif-44"/>
      <use x="550.634766" xlink:href="#DejaVuSerif-32"/>
      <use x="582.421875" xlink:href="#DejaVuSerif-65"/>
      <use x="654.638672" xlink:href="#DejaVuSerif-85"/>
      <use x="738.916016" xlink:href="#DejaVuSerif-67"/>
      <use x="815.429688" xlink:href="#DejaVuSerif-58"/>
      <use x="849.121094" xlink:href="#DejaVuSerif-32"/>
      <use x="880.908203" xlink:href="#DejaVuSerif-48"/>
      <use x="944.53125" xlink:href="#DejaVuSerif-46"/>
      <use x="976.318359" xlink:href="#DejaVuSerif-54"/>
      <use x="1039.941406" xlink:href="#DejaVuSerif-54"/>
      <use x="1103.564453" xlink:href="#DejaVuSerif-55"/>
      <use x="1167.1875" xlink:href="#DejaVuSerif-55"/>
     </g>
    </g>
   </g>
  </g>
  <g id="axes_2">
   <g id="patch_8">
    <path d="M 345.218952 294.118125 
L 591.395423 294.118125 
L 591.395423 22.318125 
L 345.218952 22.318125 
z
" style="fill:#ffffff;"/>
   </g>
   <g id="matplotlib.axis_3">
    <g id="xtick_7">
     <g id="text_18">
      <!-- 0.0 -->
      <g style="fill:#262626;" transform="translate(347.662073 311.976406)scale(0.11 -0.11)">
       <use xlink:href="#DejaVuSerif-48"/>
       <use x="63.623047" xlink:href="#DejaVuSerif-46"/>
       <use x="95.410156" xlink:href="#DejaVuSerif-48"/>
      </g>
     </g>
    </g>
    <g id="xtick_8">
     <g id="text_19">
      <!-- 0.2 -->
      <g style="fill:#262626;" transform="translate(392.421431 311.976406)scale(0.11 -0.11)">
       <use xlink:href="#DejaVuSerif-48"/>
       <use x="63.623047" xlink:href="#DejaVuSerif-46"/>
       <use x="95.410156" xlink:href="#DejaVuSerif-50"/>
      </g>
     </g>
    </g>
    <g id="xtick_9">
     <g id="text_20">
      <!-- 0.4 -->
      <g style="fill:#262626;" transform="translate(437.18079 311.976406)scale(0.11 -0.11)">
       <use xlink:href="#DejaVuSerif-48"/>
       <use x="63.623047" xlink:href="#DejaVuSerif-46"/>
       <use x="95.410156" xlink:href="#DejaVuSerif-52"/>
      </g>
     </g>
    </g>
    <g id="xtick_10">
     <g id="text_21">
      <!-- 0.6 -->
      <g style="fill:#262626;" transform="translate(481.940148 311.976406)scale(0.11 -0.11)">
       <use xlink:href="#DejaVuSerif-48"/>
       <use x="63.623047" xlink:href="#DejaVuSerif-46"/>
       <use x="95.410156" xlink:href="#DejaVuSerif-54"/>
      </g>
     </g>
    </g>
    <g id="xtick_11">
     <g id="text_22">
      <!-- 0.8 -->
      <g style="fill:#262626;" transform="translate(526.699506 311.976406)scale(0.11 -0.11)">
       <use xlink:href="#DejaVuSerif-48"/>
       <use x="63.623047" xlink:href="#DejaVuSerif-46"/>
       <use x="95.410156" xlink:href="#DejaVuSerif-56"/>
      </g>
     </g>
    </g>
    <g id="xtick_12">
     <g id="text_23">
      <!-- 1.0 -->
      <g style="fill:#262626;" transform="translate(571.458864 311.976406)scale(0.11 -0.11)">
       <use xlink:href="#DejaVuSerif-49"/>
       <use x="63.623047" xlink:href="#DejaVuSerif-46"/>
       <use x="95.410156" xlink:href="#DejaVuSerif-48"/>
      </g>
     </g>
    </g>
    <g id="text_24">
     <!-- False positive rate -->
     <g style="fill:#262626;" transform="translate(412.478125 327.382187)scale(0.12 -0.12)">
      <use xlink:href="#DejaVuSerif-70"/>
      <use x="62.634766" xlink:href="#DejaVuSerif-97"/>
      <use x="122.253906" xlink:href="#DejaVuSerif-108"/>
      <use x="154.236328" xlink:href="#DejaVuSerif-115"/>
      <use x="205.554688" xlink:href="#DejaVuSerif-101"/>
      <use x="264.734375" xlink:href="#DejaVuSerif-32"/>
      <use x="296.521484" xlink:href="#DejaVuSerif-112"/>
      <use x="360.535156" xlink:href="#DejaVuSerif-111"/>
      <use x="420.740234" xlink:href="#DejaVuSerif-115"/>
      <use x="472.058594" xlink:href="#DejaVuSerif-105"/>
      <use x="504.041016" xlink:href="#DejaVuSerif-116"/>
      <use x="544.226562" xlink:href="#DejaVuSerif-105"/>
      <use x="576.208984" xlink:href="#DejaVuSerif-118"/>
      <use x="632.703125" xlink:href="#DejaVuSerif-101"/>
      <use x="691.882812" xlink:href="#DejaVuSerif-32"/>
      <use x="723.669922" xlink:href="#DejaVuSerif-114"/>
      <use x="771.472656" xlink:href="#DejaVuSerif-97"/>
      <use x="831.091797" xlink:href="#DejaVuSerif-116"/>
      <use x="871.277344" xlink:href="#DejaVuSerif-101"/>
     </g>
    </g>
   </g>
   <g id="matplotlib.axis_4">
    <g id="ytick_7">
     <g id="text_25">
      <!-- 0.0 -->
      <g style="fill:#262626;" transform="translate(318.225515 285.94272)scale(0.11 -0.11)">
       <use xlink:href="#DejaVuSerif-48"/>
       <use x="63.623047" xlink:href="#DejaVuSerif-46"/>
       <use x="95.410156" xlink:href="#DejaVuSerif-48"/>
      </g>
     </g>
    </g>
    <g id="ytick_8">
     <g id="text_26">
      <!-- 0.2 -->
      <g style="fill:#262626;" transform="translate(318.225515 236.524538)scale(0.11 -0.11)">
       <use xlink:href="#DejaVuSerif-48"/>
       <use x="63.623047" xlink:href="#DejaVuSerif-46"/>
       <use x="95.410156" xlink:href="#DejaVuSerif-50"/>
      </g>
     </g>
    </g>
    <g id="ytick_9">
     <g id="text_27">
      <!-- 0.4 -->
      <g style="fill:#262626;" transform="translate(318.225515 187.106357)scale(0.11 -0.11)">
       <use xlink:href="#DejaVuSerif-48"/>
       <use x="63.623047" xlink:href="#DejaVuSerif-46"/>
       <use x="95.410156" xlink:href="#DejaVuSerif-52"/>
      </g>
     </g>
    </g>
    <g id="ytick_10">
     <g id="text_28">
      <!-- 0.6 -->
      <g style="fill:#262626;" transform="translate(318.225515 137.688175)scale(0.11 -0.11)">
       <use xlink:href="#DejaVuSerif-48"/>
       <use x="63.623047" xlink:href="#DejaVuSerif-46"/>
       <use x="95.410156" xlink:href="#DejaVuSerif-54"/>
      </g>
     </g>
    </g>
    <g id="ytick_11">
     <g id="text_29">
      <!-- 0.8 -->
      <g style="fill:#262626;" transform="translate(318.225515 88.269993)scale(0.11 -0.11)">
       <use xlink:href="#DejaVuSerif-48"/>
       <use x="63.623047" xlink:href="#DejaVuSerif-46"/>
       <use x="95.410156" xlink:href="#DejaVuSerif-56"/>
      </g>
     </g>
    </g>
    <g id="ytick_12">
     <g id="text_30">
      <!-- 1.0 -->
      <g style="fill:#262626;" transform="translate(318.225515 38.851811)scale(0.11 -0.11)">
       <use xlink:href="#DejaVuSerif-49"/>
       <use x="63.623047" xlink:href="#DejaVuSerif-46"/>
       <use x="95.410156" xlink:href="#DejaVuSerif-48"/>
      </g>
     </g>
    </g>
   </g>
   <g id="PolyCollection_3">
    <path clip-path="url(#p12070c7188)" d="M 357.213816 269.409034 
L 357.213816 281.76358 
L 360.836426 269.409034 
L 361.641451 257.054489 
L 364.861548 232.345398 
L 366.069085 219.990852 
L 366.471597 207.636307 
L 366.471597 195.281761 
L 366.471597 195.281761 
L 366.069085 207.636307 
L 364.861548 219.990852 
L 361.641451 232.345398 
L 360.836426 257.054489 
L 357.213816 269.409034 
z
" style="fill:#4c72b0;fill-opacity:0.2;stroke:#4c72b0;stroke-opacity:0.2;"/>
    <path clip-path="url(#p12070c7188)" d="M 376.534403 182.927216 
L 376.534403 195.281761 
L 377.741939 182.927216 
L 377.741939 170.57267 
L 377.741939 170.57267 
L 376.534403 182.927216 
z
" style="fill:#4c72b0;fill-opacity:0.2;stroke:#4c72b0;stroke-opacity:0.2;"/>
    <path clip-path="url(#p12070c7188)" d="M 380.962037 145.86358 
L 380.962037 170.57267 
L 386.597208 145.86358 
L 387.402232 133.509034 
L 389.414793 121.154489 
L 389.414793 108.799943 
L 389.414793 108.799943 
L 387.402232 121.154489 
L 386.597208 133.509034 
L 380.962037 145.86358 
z
" style="fill:#4c72b0;fill-opacity:0.2;stroke:#4c72b0;stroke-opacity:0.2;"/>
    <path clip-path="url(#p12070c7188)" d="M 398.270062 96.445398 
L 398.270062 108.799943 
L 398.270062 96.445398 
L 398.270062 96.445398 
z
" style="fill:#4c72b0;fill-opacity:0.2;stroke:#4c72b0;stroke-opacity:0.2;"/>
    <path clip-path="url(#p12070c7188)" d="M 438.521284 84.090852 
L 438.521284 96.445398 
L 438.521284 84.090852 
L 438.521284 84.090852 
z
" style="fill:#4c72b0;fill-opacity:0.2;stroke:#4c72b0;stroke-opacity:0.2;"/>
    <path clip-path="url(#p12070c7188)" d="M 494.067969 71.736307 
L 494.067969 84.090852 
L 501.313189 71.736307 
L 505.338311 59.381761 
L 505.338311 47.027216 
L 505.338311 47.027216 
L 501.313189 59.381761 
L 494.067969 71.736307 
z
" style="fill:#4c72b0;fill-opacity:0.2;stroke:#4c72b0;stroke-opacity:0.2;"/>
    <path clip-path="url(#p12070c7188)" d="M 541.564411 34.67267 
L 541.564411 47.027216 
L 541.564411 34.67267 
L 541.564411 34.67267 
z
" style="fill:#4c72b0;fill-opacity:0.2;stroke:#4c72b0;stroke-opacity:0.2;"/>
   </g>
   <g id="PolyCollection_4">
    <path clip-path="url(#p12070c7188)" d="M 357.527776 274.899943 
L 357.527776 281.76358 
L 364.241679 274.899943 
L 369.836599 268.036307 
L 370.955583 254.309034 
L 374.312535 247.445398 
L 375.431519 240.581761 
L 378.788471 233.718125 
L 381.026439 226.854489 
L 382.145423 219.990852 
L 383.264407 199.399943 
L 385.502375 185.67267 
L 387.740343 171.945398 
L 398.930182 165.081761 
L 401.16815 144.490852 
L 401.16815 130.76358 
L 401.16815 130.76358 
L 398.930182 144.490852 
L 387.740343 165.081761 
L 385.502375 171.945398 
L 383.264407 185.67267 
L 382.145423 199.399943 
L 381.026439 219.990852 
L 378.788471 226.854489 
L 375.431519 233.718125 
L 374.312535 240.581761 
L 370.955583 247.445398 
L 369.836599 254.309034 
L 364.241679 268.036307 
L 357.527776 274.899943 
z
" style="fill:#dd8452;fill-opacity:0.2;stroke:#dd8452;stroke-opacity:0.2;"/>
    <path clip-path="url(#p12070c7188)" d="M 411.239006 123.899943 
L 411.239006 130.76358 
L 413.476974 123.899943 
L 416.833925 117.036307 
L 423.547829 110.17267 
L 440.332589 103.309034 
L 447.046492 96.445398 
L 447.046492 82.718125 
L 447.046492 82.718125 
L 440.332589 96.445398 
L 423.547829 103.309034 
L 416.833925 110.17267 
L 413.476974 117.036307 
L 411.239006 123.899943 
z
" style="fill:#dd8452;fill-opacity:0.2;stroke:#dd8452;stroke-opacity:0.2;"/>
    <path clip-path="url(#p12070c7188)" d="M 461.593284 75.854489 
L 461.593284 82.718125 
L 462.712268 75.854489 
L 469.426171 68.990852 
L 472.783123 62.127216 
L 472.783123 55.26358 
L 472.783123 55.26358 
L 469.426171 62.127216 
L 462.712268 68.990852 
L 461.593284 75.854489 
z
" style="fill:#dd8452;fill-opacity:0.2;stroke:#dd8452;stroke-opacity:0.2;"/>
    <path clip-path="url(#p12070c7188)" d="M 483.972963 48.399943 
L 483.972963 55.26358 
L 483.972963 48.399943 
L 483.972963 48.399943 
z
" style="fill:#dd8452;fill-opacity:0.2;stroke:#dd8452;stroke-opacity:0.2;"/>
    <path clip-path="url(#p12070c7188)" d="M 514.18553 41.536307 
L 514.18553 48.399943 
L 514.18553 41.536307 
L 514.18553 41.536307 
z
" style="fill:#dd8452;fill-opacity:0.2;stroke:#dd8452;stroke-opacity:0.2;"/>
    <path clip-path="url(#p12070c7188)" d="M 571.253712 34.67267 
L 571.253712 41.536307 
L 571.253712 34.67267 
L 571.253712 34.67267 
z
" style="fill:#dd8452;fill-opacity:0.2;stroke:#dd8452;stroke-opacity:0.2;"/>
   </g>
   <g id="line2d_7">
    <path clip-path="url(#p12070c7188)" d="M 356.408792 281.76358 
L 356.811304 281.76358 
L 357.213816 275.586307 
L 360.836426 263.231761 
L 361.641451 244.699943 
L 364.861548 226.168125 
L 366.069085 213.81358 
L 366.471597 201.459034 
L 367.276622 195.281761 
L 368.081646 195.281761 
L 376.534403 189.104489 
L 377.741939 176.749943 
L 378.949476 170.57267 
L 379.7545 170.57267 
L 380.157012 170.57267 
L 380.962037 158.218125 
L 386.597208 139.686307 
L 387.402232 127.331761 
L 389.414793 114.977216 
L 391.829867 108.799943 
L 392.634891 108.799943 
L 398.270062 102.62267 
L 398.672574 96.445398 
L 399.477599 96.445398 
L 403.100209 96.445398 
L 403.905233 96.445398 
L 413.565526 96.445398 
L 414.370551 96.445398 
L 415.9806 96.445398 
L 416.785624 96.445398 
L 422.823307 96.445398 
L 423.628332 96.445398 
L 426.043405 96.445398 
L 426.848429 96.445398 
L 427.653454 96.445398 
L 429.263503 96.445398 
L 435.703698 96.445398 
L 436.508723 96.445398 
L 438.521284 90.268125 
L 439.326308 84.090852 
L 440.131332 84.090852 
L 447.779065 84.090852 
L 448.584089 84.090852 
L 461.866992 84.090852 
L 462.672016 84.090852 
L 494.067969 77.91358 
L 501.313189 65.559034 
L 505.338311 53.204489 
L 508.155897 47.027216 
L 508.960921 47.027216 
L 509.765946 47.027216 
L 510.57097 47.027216 
L 537.136776 47.027216 
L 537.941801 47.027216 
L 541.564411 40.849943 
L 548.004606 34.67267 
L 548.80963 34.67267 
L 550.419679 34.67267 
L 551.224704 34.67267 
L 559.67746 34.67267 
L 560.482485 34.67267 
L 564.507607 34.67267 
L 565.312631 34.67267 
L 580.205583 34.67267 
" style="fill:none;stroke:#4c72b0;stroke-linecap:round;stroke-width:4;"/>
   </g>
   <g id="line2d_8">
    <path clip-path="url(#p12070c7188)" d="M 356.408792 281.76358 
L 357.527776 278.331761 
L 364.241679 271.468125 
L 369.836599 261.17267 
L 370.955583 250.877216 
L 374.312535 244.01358 
L 375.431519 237.149943 
L 378.788471 230.286307 
L 381.026439 223.42267 
L 382.145423 209.695398 
L 383.264407 192.536307 
L 385.502375 178.809034 
L 387.740343 168.51358 
L 398.930182 154.786307 
L 401.16815 137.627216 
L 407.882054 130.76358 
L 410.120022 130.76358 
L 411.239006 127.331761 
L 413.476974 120.468125 
L 416.833925 113.604489 
L 423.547829 106.740852 
L 440.332589 99.877216 
L 447.046492 89.581761 
L 457.117348 82.718125 
L 459.355316 82.718125 
L 461.593284 79.286307 
L 462.712268 72.42267 
L 469.426171 65.559034 
L 472.783123 58.695398 
L 473.902107 55.26358 
L 476.140075 55.26358 
L 483.972963 51.831761 
L 490.686867 48.399943 
L 492.924835 48.399943 
L 514.18553 44.968125 
L 532.089273 41.536307 
L 534.327241 41.536307 
L 571.253712 38.104489 
L 580.205583 34.67267 
" style="fill:none;stroke:#dd8452;stroke-linecap:round;stroke-width:4;"/>
   </g>
   <g id="patch_9">
    <path d="M 345.218952 294.118125 
L 345.218952 22.318125 
" style="fill:none;stroke:#cccccc;stroke-linecap:square;stroke-linejoin:miter;stroke-width:1.25;"/>
   </g>
   <g id="patch_10">
    <path d="M 591.395423 294.118125 
L 591.395423 22.318125 
" style="fill:none;stroke:#cccccc;stroke-linecap:square;stroke-linejoin:miter;stroke-width:1.25;"/>
   </g>
   <g id="patch_11">
    <path d="M 345.218952 294.118125 
L 591.395423 294.118125 
" style="fill:none;stroke:#cccccc;stroke-linecap:square;stroke-linejoin:miter;stroke-width:1.25;"/>
   </g>
   <g id="patch_12">
    <path d="M 345.218952 22.318125 
L 591.395423 22.318125 
" style="fill:none;stroke:#cccccc;stroke-linecap:square;stroke-linejoin:miter;stroke-width:1.25;"/>
   </g>
   <g id="text_31">
    <!-- Local relapse -->
    <g style="fill:#262626;" transform="translate(427.560625 16.318125)scale(0.12 -0.12)">
     <defs>
      <path d="M 5.515625 0 
L 5.515625 5.171875 
L 14.796875 5.171875 
L 14.796875 67.671875 
L 5.515625 67.671875 
L 5.515625 72.90625 
L 33.984375 72.90625 
L 33.984375 67.671875 
L 24.703125 67.671875 
L 24.703125 6 
L 58.015625 6 
L 58.015625 18.21875 
L 64.015625 18.21875 
L 64.015625 0 
z
" id="DejaVuSerif-76"/>
      <path d="M 51.421875 15.578125 
Q 49.515625 7.28125 44.09375 2.921875 
Q 38.671875 -1.421875 30.078125 -1.421875 
Q 18.75 -1.421875 11.859375 6.078125 
Q 4.984375 13.578125 4.984375 25.984375 
Q 4.984375 38.421875 11.859375 45.875 
Q 18.75 53.328125 30.078125 53.328125 
Q 35.015625 53.328125 39.890625 52.171875 
Q 44.78125 51.03125 49.703125 48.6875 
L 49.703125 35.40625 
L 44.484375 35.40625 
Q 43.453125 42.234375 40.015625 45.359375 
Q 36.578125 48.484375 30.171875 48.484375 
Q 22.90625 48.484375 19.1875 42.84375 
Q 15.484375 37.203125 15.484375 25.984375 
Q 15.484375 14.75 19.171875 9.078125 
Q 22.859375 3.421875 30.171875 3.421875 
Q 35.984375 3.421875 39.453125 6.4375 
Q 42.921875 9.46875 44.1875 15.578125 
z
" id="DejaVuSerif-99"/>
     </defs>
     <use xlink:href="#DejaVuSerif-76"/>
     <use x="66.40625" xlink:href="#DejaVuSerif-111"/>
     <use x="126.611328" xlink:href="#DejaVuSerif-99"/>
     <use x="182.617188" xlink:href="#DejaVuSerif-97"/>
     <use x="242.236328" xlink:href="#DejaVuSerif-108"/>
     <use x="274.21875" xlink:href="#DejaVuSerif-32"/>
     <use x="306.005859" xlink:href="#DejaVuSerif-114"/>
     <use x="353.808594" xlink:href="#DejaVuSerif-101"/>
     <use x="412.988281" xlink:href="#DejaVuSerif-108"/>
     <use x="444.970703" xlink:href="#DejaVuSerif-97"/>
     <use x="504.589844" xlink:href="#DejaVuSerif-112"/>
     <use x="568.603516" xlink:href="#DejaVuSerif-115"/>
     <use x="619.921875" xlink:href="#DejaVuSerif-101"/>
    </g>
   </g>
   <g id="legend_2">
    <g id="patch_13">
     <path d="M 413.104329 288.618125 
L 583.695423 288.618125 
Q 585.895423 288.618125 585.895423 286.418125 
L 585.895423 255.22625 
Q 585.895423 253.02625 583.695423 253.02625 
L 413.104329 253.02625 
Q 410.904329 253.02625 410.904329 255.22625 
L 410.904329 286.418125 
Q 410.904329 288.618125 413.104329 288.618125 
z
" style="fill:#ffffff;opacity:0.8;stroke:#cccccc;stroke-linejoin:miter;"/>
    </g>
    <g id="line2d_9">
     <path d="M 415.304329 261.934531 
L 437.304329 261.934531 
" style="fill:none;stroke:#4c72b0;stroke-linecap:round;stroke-width:4;"/>
    </g>
    <g id="line2d_10"/>
    <g id="text_32">
     <!-- Treated, AUC: 0.7835 -->
     <g style="fill:#262626;" transform="translate(446.104329 265.784531)scale(0.11 -0.11)">
      <defs>
       <path d="M 9.71875 69.828125 
Q 15.4375 71.96875 20.671875 73.09375 
Q 25.921875 74.21875 30.515625 74.21875 
Q 41.21875 74.21875 47.21875 69.59375 
Q 53.21875 64.984375 53.21875 56.78125 
Q 53.21875 50.203125 49.0625 45.78125 
Q 44.921875 41.359375 37.3125 39.796875 
Q 46.296875 38.53125 51.25 33.28125 
Q 56.203125 28.03125 56.203125 19.671875 
Q 56.203125 9.46875 49.34375 4.015625 
Q 42.484375 -1.421875 29.59375 -1.421875 
Q 23.875 -1.421875 18.421875 -0.1875 
Q 12.984375 1.03125 7.625 3.515625 
L 7.625 17.671875 
L 13.09375 17.671875 
Q 13.578125 10.640625 17.828125 7.03125 
Q 22.078125 3.421875 29.78125 3.421875 
Q 37.25 3.421875 41.578125 7.734375 
Q 45.90625 12.0625 45.90625 19.578125 
Q 45.90625 28.171875 41.453125 32.59375 
Q 37.015625 37.015625 28.421875 37.015625 
L 23.78125 37.015625 
L 23.78125 42 
L 26.21875 42 
Q 34.765625 42 39.03125 45.53125 
Q 43.3125 49.078125 43.3125 56.203125 
Q 43.3125 62.59375 39.796875 65.984375 
Q 36.28125 69.390625 29.6875 69.390625 
Q 23.09375 69.390625 19.453125 66.265625 
Q 15.828125 63.140625 15.1875 56.984375 
L 9.71875 56.984375 
z
" id="DejaVuSerif-51"/>
       <path d="M 50.296875 72.90625 
L 50.296875 64.890625 
L 16.890625 64.890625 
L 16.890625 44 
Q 19.4375 45.75 22.828125 46.625 
Q 26.21875 47.515625 30.421875 47.515625 
Q 42.234375 47.515625 49.0625 40.96875 
Q 55.90625 34.421875 55.90625 23.09375 
Q 55.90625 11.53125 49 5.046875 
Q 42.09375 -1.421875 29.59375 -1.421875 
Q 24.5625 -1.421875 19.28125 -0.1875 
Q 14.015625 1.03125 8.5 3.515625 
L 8.5 17.671875 
L 14.015625 17.671875 
Q 14.453125 10.75 18.421875 7.078125 
Q 22.40625 3.421875 29.59375 3.421875 
Q 37.3125 3.421875 41.453125 8.5 
Q 45.609375 13.578125 45.609375 23.09375 
Q 45.609375 32.5625 41.484375 37.609375 
Q 37.359375 42.671875 29.59375 42.671875 
Q 25.203125 42.671875 21.84375 41.109375 
Q 18.5 39.546875 15.921875 36.28125 
L 11.71875 36.28125 
L 11.71875 72.90625 
z
" id="DejaVuSerif-53"/>
      </defs>
      <use xlink:href="#DejaVuSerif-84"/>
      <use x="66.699219" xlink:href="#DejaVuSerif-114"/>
      <use x="114.501953" xlink:href="#DejaVuSerif-101"/>
      <use x="173.681641" xlink:href="#DejaVuSerif-97"/>
      <use x="233.300781" xlink:href="#DejaVuSerif-116"/>
      <use x="273.486328" xlink:href="#DejaVuSerif-101"/>
      <use x="332.666016" xlink:href="#DejaVuSerif-100"/>
      <use x="396.679688" xlink:href="#DejaVuSerif-44"/>
      <use x="428.466797" xlink:href="#DejaVuSerif-32"/>
      <use x="460.253906" xlink:href="#DejaVuSerif-65"/>
      <use x="532.470703" xlink:href="#DejaVuSerif-85"/>
      <use x="616.748047" xlink:href="#DejaVuSerif-67"/>
      <use x="693.261719" xlink:href="#DejaVuSerif-58"/>
      <use x="726.953125" xlink:href="#DejaVuSerif-32"/>
      <use x="758.740234" xlink:href="#DejaVuSerif-48"/>
      <use x="822.363281" xlink:href="#DejaVuSerif-46"/>
      <use x="854.150391" xlink:href="#DejaVuSerif-55"/>
      <use x="917.773438" xlink:href="#DejaVuSerif-56"/>
      <use x="981.396484" xlink:href="#DejaVuSerif-51"/>
      <use x="1045.019531" xlink:href="#DejaVuSerif-53"/>
     </g>
    </g>
    <g id="line2d_11">
     <path d="M 415.304329 278.080469 
L 437.304329 278.080469 
" style="fill:none;stroke:#dd8452;stroke-linecap:round;stroke-width:4;"/>
    </g>
    <g id="line2d_12"/>
    <g id="text_33">
     <!-- Untreated, AUC: 0.7496 -->
     <g style="fill:#262626;" transform="translate(446.104329 281.930469)scale(0.11 -0.11)">
      <use xlink:href="#DejaVuSerif-85"/>
      <use x="84.277344" xlink:href="#DejaVuSerif-110"/>
      <use x="148.681641" xlink:href="#DejaVuSerif-116"/>
      <use x="188.867188" xlink:href="#DejaVuSerif-114"/>
      <use x="236.669922" xlink:href="#DejaVuSerif-101"/>
      <use x="295.849609" xlink:href="#DejaVuSerif-97"/>
      <use x="355.46875" xlink:href="#DejaVuSerif-116"/>
      <use x="395.654297" xlink:href="#DejaVuSerif-101"/>
      <use x="454.833984" xlink:href="#DejaVuSerif-100"/>
      <use x="518.847656" xlink:href="#DejaVuSerif-44"/>
      <use x="550.634766" xlink:href="#DejaVuSerif-32"/>
      <use x="582.421875" xlink:href="#DejaVuSerif-65"/>
      <use x="654.638672" xlink:href="#DejaVuSerif-85"/>
      <use x="738.916016" xlink:href="#DejaVuSerif-67"/>
      <use x="815.429688" xlink:href="#DejaVuSerif-58"/>
      <use x="849.121094" xlink:href="#DejaVuSerif-32"/>
      <use x="880.908203" xlink:href="#DejaVuSerif-48"/>
      <use x="944.53125" xlink:href="#DejaVuSerif-46"/>
      <use x="976.318359" xlink:href="#DejaVuSerif-55"/>
      <use x="1039.941406" xlink:href="#DejaVuSerif-52"/>
      <use x="1103.564453" xlink:href="#DejaVuSerif-57"/>
      <use x="1167.1875" xlink:href="#DejaVuSerif-54"/>
     </g>
    </g>
   </g>
  </g>
  <g id="axes_3">
   <g id="patch_14">
    <path d="M 640.630717 294.118125 
L 886.807188 294.118125 
L 886.807188 22.318125 
L 640.630717 22.318125 
z
" style="fill:#ffffff;"/>
   </g>
   <g id="matplotlib.axis_5">
    <g id="xtick_13">
     <g id="text_34">
      <!-- 0.0 -->
      <g style="fill:#262626;" transform="translate(643.073838 311.976406)scale(0.11 -0.11)">
       <use xlink:href="#DejaVuSerif-48"/>
       <use x="63.623047" xlink:href="#DejaVuSerif-46"/>
       <use x="95.410156" xlink:href="#DejaVuSerif-48"/>
      </g>
     </g>
    </g>
    <g id="xtick_14">
     <g id="text_35">
      <!-- 0.2 -->
      <g style="fill:#262626;" transform="translate(687.833196 311.976406)scale(0.11 -0.11)">
       <use xlink:href="#DejaVuSerif-48"/>
       <use x="63.623047" xlink:href="#DejaVuSerif-46"/>
       <use x="95.410156" xlink:href="#DejaVuSerif-50"/>
      </g>
     </g>
    </g>
    <g id="xtick_15">
     <g id="text_36">
      <!-- 0.4 -->
      <g style="fill:#262626;" transform="translate(732.592554 311.976406)scale(0.11 -0.11)">
       <use xlink:href="#DejaVuSerif-48"/>
       <use x="63.623047" xlink:href="#DejaVuSerif-46"/>
       <use x="95.410156" xlink:href="#DejaVuSerif-52"/>
      </g>
     </g>
    </g>
    <g id="xtick_16">
     <g id="text_37">
      <!-- 0.6 -->
      <g style="fill:#262626;" transform="translate(777.351913 311.976406)scale(0.11 -0.11)">
       <use xlink:href="#DejaVuSerif-48"/>
       <use x="63.623047" xlink:href="#DejaVuSerif-46"/>
       <use x="95.410156" xlink:href="#DejaVuSerif-54"/>
      </g>
     </g>
    </g>
    <g id="xtick_17">
     <g id="text_38">
      <!-- 0.8 -->
      <g style="fill:#262626;" transform="translate(822.111271 311.976406)scale(0.11 -0.11)">
       <use xlink:href="#DejaVuSerif-48"/>
       <use x="63.623047" xlink:href="#DejaVuSerif-46"/>
       <use x="95.410156" xlink:href="#DejaVuSerif-56"/>
      </g>
     </g>
    </g>
    <g id="xtick_18">
     <g id="text_39">
      <!-- 1.0 -->
      <g style="fill:#262626;" transform="translate(866.870629 311.976406)scale(0.11 -0.11)">
       <use xlink:href="#DejaVuSerif-49"/>
       <use x="63.623047" xlink:href="#DejaVuSerif-46"/>
       <use x="95.410156" xlink:href="#DejaVuSerif-48"/>
      </g>
     </g>
    </g>
    <g id="text_40">
     <!-- False positive rate -->
     <g style="fill:#262626;" transform="translate(707.88989 327.382187)scale(0.12 -0.12)">
      <use xlink:href="#DejaVuSerif-70"/>
      <use x="62.634766" xlink:href="#DejaVuSerif-97"/>
      <use x="122.253906" xlink:href="#DejaVuSerif-108"/>
      <use x="154.236328" xlink:href="#DejaVuSerif-115"/>
      <use x="205.554688" xlink:href="#DejaVuSerif-101"/>
      <use x="264.734375" xlink:href="#DejaVuSerif-32"/>
      <use x="296.521484" xlink:href="#DejaVuSerif-112"/>
      <use x="360.535156" xlink:href="#DejaVuSerif-111"/>
      <use x="420.740234" xlink:href="#DejaVuSerif-115"/>
      <use x="472.058594" xlink:href="#DejaVuSerif-105"/>
      <use x="504.041016" xlink:href="#DejaVuSerif-116"/>
      <use x="544.226562" xlink:href="#DejaVuSerif-105"/>
      <use x="576.208984" xlink:href="#DejaVuSerif-118"/>
      <use x="632.703125" xlink:href="#DejaVuSerif-101"/>
      <use x="691.882812" xlink:href="#DejaVuSerif-32"/>
      <use x="723.669922" xlink:href="#DejaVuSerif-114"/>
      <use x="771.472656" xlink:href="#DejaVuSerif-97"/>
      <use x="831.091797" xlink:href="#DejaVuSerif-116"/>
      <use x="871.277344" xlink:href="#DejaVuSerif-101"/>
     </g>
    </g>
   </g>
   <g id="matplotlib.axis_6">
    <g id="ytick_13">
     <g id="text_41">
      <!-- 0.0 -->
      <g style="fill:#262626;" transform="translate(613.637279 285.94272)scale(0.11 -0.11)">
       <use xlink:href="#DejaVuSerif-48"/>
       <use x="63.623047" xlink:href="#DejaVuSerif-46"/>
       <use x="95.410156" xlink:href="#DejaVuSerif-48"/>
      </g>
     </g>
    </g>
    <g id="ytick_14">
     <g id="text_42">
      <!-- 0.2 -->
      <g style="fill:#262626;" transform="translate(613.637279 236.524538)scale(0.11 -0.11)">
       <use xlink:href="#DejaVuSerif-48"/>
       <use x="63.623047" xlink:href="#DejaVuSerif-46"/>
       <use x="95.410156" xlink:href="#DejaVuSerif-50"/>
      </g>
     </g>
    </g>
    <g id="ytick_15">
     <g id="text_43">
      <!-- 0.4 -->
      <g style="fill:#262626;" transform="translate(613.637279 187.106357)scale(0.11 -0.11)">
       <use xlink:href="#DejaVuSerif-48"/>
       <use x="63.623047" xlink:href="#DejaVuSerif-46"/>
       <use x="95.410156" xlink:href="#DejaVuSerif-52"/>
      </g>
     </g>
    </g>
    <g id="ytick_16">
     <g id="text_44">
      <!-- 0.6 -->
      <g style="fill:#262626;" transform="translate(613.637279 137.688175)scale(0.11 -0.11)">
       <use xlink:href="#DejaVuSerif-48"/>
       <use x="63.623047" xlink:href="#DejaVuSerif-46"/>
       <use x="95.410156" xlink:href="#DejaVuSerif-54"/>
      </g>
     </g>
    </g>
    <g id="ytick_17">
     <g id="text_45">
      <!-- 0.8 -->
      <g style="fill:#262626;" transform="translate(613.637279 88.269993)scale(0.11 -0.11)">
       <use xlink:href="#DejaVuSerif-48"/>
       <use x="63.623047" xlink:href="#DejaVuSerif-46"/>
       <use x="95.410156" xlink:href="#DejaVuSerif-56"/>
      </g>
     </g>
    </g>
    <g id="ytick_18">
     <g id="text_46">
      <!-- 1.0 -->
      <g style="fill:#262626;" transform="translate(613.637279 38.851811)scale(0.11 -0.11)">
       <use xlink:href="#DejaVuSerif-49"/>
       <use x="63.623047" xlink:href="#DejaVuSerif-46"/>
       <use x="95.410156" xlink:href="#DejaVuSerif-48"/>
      </g>
     </g>
    </g>
   </g>
   <g id="PolyCollection_5">
    <path clip-path="url(#p09a4e74a23)" d="M 656.052008 274.350852 
L 656.052008 281.76358 
L 657.462492 271.879943 
L 657.932654 261.996307 
L 658.402815 247.170852 
L 659.343138 242.229034 
L 659.813299 239.758125 
L 660.28346 234.816307 
L 660.753622 217.519943 
L 661.223783 212.578125 
L 662.634267 207.636307 
L 663.104428 205.165398 
L 664.044751 202.694489 
L 665.455235 197.75267 
L 666.395558 192.810852 
L 667.33588 185.398125 
L 667.806042 180.456307 
L 668.276203 175.514489 
L 669.216526 170.57267 
L 669.686687 168.101761 
L 670.62701 145.86358 
L 671.097171 135.979943 
L 671.567332 133.509034 
L 673.918139 128.567216 
L 674.858461 123.625398 
L 676.268945 121.154489 
L 677.209268 118.68358 
L 678.149591 116.21267 
L 678.619752 111.270852 
L 680.970559 108.799943 
L 682.381043 103.858125 
L 684.261688 101.387216 
L 684.731849 98.916307 
L 685.202011 96.445398 
L 688.022979 93.974489 
L 689.903624 91.50358 
L 693.194753 84.090852 
L 694.135076 79.149034 
L 694.135076 76.678125 
L 694.135076 76.678125 
L 693.194753 79.149034 
L 689.903624 84.090852 
L 688.022979 91.50358 
L 685.202011 93.974489 
L 684.731849 96.445398 
L 684.261688 98.916307 
L 682.381043 101.387216 
L 680.970559 103.858125 
L 678.619752 108.799943 
L 678.149591 111.270852 
L 677.209268 116.21267 
L 676.268945 118.68358 
L 674.858461 121.154489 
L 673.918139 123.625398 
L 671.567332 128.567216 
L 671.097171 133.509034 
L 670.62701 135.979943 
L 669.686687 145.86358 
L 669.216526 168.101761 
L 668.276203 170.57267 
L 667.806042 175.514489 
L 667.33588 180.456307 
L 666.395558 185.398125 
L 665.455235 192.810852 
L 664.044751 197.75267 
L 663.104428 202.694489 
L 662.634267 205.165398 
L 661.223783 207.636307 
L 660.753622 212.578125 
L 660.28346 217.519943 
L 659.813299 234.816307 
L 659.343138 239.758125 
L 658.402815 242.229034 
L 657.932654 247.170852 
L 657.462492 263.231761 
L 656.052008 274.350852 
z
" style="fill:#4c72b0;fill-opacity:0.2;stroke:#4c72b0;stroke-opacity:0.2;"/>
    <path clip-path="url(#p09a4e74a23)" d="M 701.187496 74.207216 
L 701.187496 76.678125 
L 701.187496 74.207216 
L 701.187496 74.207216 
z
" style="fill:#4c72b0;fill-opacity:0.2;stroke:#4c72b0;stroke-opacity:0.2;"/>
    <path clip-path="url(#p09a4e74a23)" d="M 708.239916 71.736307 
L 708.239916 74.207216 
L 713.881852 71.736307 
L 713.881852 69.265398 
L 713.881852 69.265398 
L 708.239916 71.736307 
z
" style="fill:#4c72b0;fill-opacity:0.2;stroke:#4c72b0;stroke-opacity:0.2;"/>
    <path clip-path="url(#p09a4e74a23)" d="M 729.397175 66.794489 
L 729.397175 69.265398 
L 743.031854 66.794489 
L 752.43508 64.32358 
L 754.315726 61.85267 
L 754.315726 59.381761 
L 754.315726 59.381761 
L 752.43508 61.85267 
L 743.031854 64.32358 
L 729.397175 66.794489 
z
" style="fill:#4c72b0;fill-opacity:0.2;stroke:#4c72b0;stroke-opacity:0.2;"/>
    <path clip-path="url(#p09a4e74a23)" d="M 771.711695 56.910852 
L 771.711695 59.381761 
L 772.652017 56.910852 
L 772.652017 51.969034 
L 772.652017 51.969034 
L 771.711695 56.910852 
z
" style="fill:#4c72b0;fill-opacity:0.2;stroke:#4c72b0;stroke-opacity:0.2;"/>
    <path clip-path="url(#p09a4e74a23)" d="M 789.107664 49.498125 
L 789.107664 51.969034 
L 789.107664 49.498125 
L 789.107664 49.498125 
z
" style="fill:#4c72b0;fill-opacity:0.2;stroke:#4c72b0;stroke-opacity:0.2;"/>
    <path clip-path="url(#p09a4e74a23)" d="M 829.541538 44.556307 
L 829.541538 49.498125 
L 829.541538 44.556307 
L 829.541538 44.556307 
z
" style="fill:#4c72b0;fill-opacity:0.2;stroke:#4c72b0;stroke-opacity:0.2;"/>
    <path clip-path="url(#p09a4e74a23)" d="M 869.035089 42.085398 
L 869.035089 44.556307 
L 869.505251 42.085398 
L 871.856057 37.14358 
L 871.856057 34.67267 
L 871.856057 34.67267 
L 869.505251 37.14358 
L 869.035089 42.085398 
z
" style="fill:#4c72b0;fill-opacity:0.2;stroke:#4c72b0;stroke-opacity:0.2;"/>
   </g>
   <g id="PolyCollection_6">
    <path clip-path="url(#p09a4e74a23)" d="M 653.063872 219.990852 
L 653.063872 268.526567 
L 656.793819 219.990852 
L 658.037134 215.578515 
L 661.767081 206.753839 
L 669.226974 193.516826 
L 672.95692 189.104489 
L 679.173498 180.279813 
L 680.416813 175.867476 
L 682.903444 171.455138 
L 682.903444 167.0428 
L 682.903444 167.0428 
L 680.416813 171.455138 
L 679.173498 175.867476 
L 672.95692 180.279813 
L 669.226974 189.104489 
L 661.767081 193.516826 
L 658.037134 206.753839 
L 656.793819 215.578515 
L 653.063872 219.990852 
z
" style="fill:#dd8452;fill-opacity:0.2;stroke:#dd8452;stroke-opacity:0.2;"/>
    <path clip-path="url(#p09a4e74a23)" d="M 687.876706 158.218125 
L 687.876706 167.0428 
L 687.876706 158.218125 
L 687.876706 158.218125 
z
" style="fill:#dd8452;fill-opacity:0.2;stroke:#dd8452;stroke-opacity:0.2;"/>
    <path clip-path="url(#p09a4e74a23)" d="M 692.849968 153.805787 
L 692.849968 158.218125 
L 692.849968 153.805787 
L 692.849968 153.805787 
z
" style="fill:#dd8452;fill-opacity:0.2;stroke:#dd8452;stroke-opacity:0.2;"/>
    <path clip-path="url(#p09a4e74a23)" d="M 697.82323 149.39345 
L 697.82323 153.805787 
L 701.553177 149.39345 
L 705.283123 144.981112 
L 706.526439 140.568774 
L 710.256385 131.744099 
L 711.499701 118.507086 
L 711.499701 114.094748 
L 711.499701 114.094748 
L 710.256385 118.507086 
L 706.526439 131.744099 
L 705.283123 140.568774 
L 701.553177 144.981112 
L 697.82323 149.39345 
z
" style="fill:#dd8452;fill-opacity:0.2;stroke:#dd8452;stroke-opacity:0.2;"/>
    <path clip-path="url(#p09a4e74a23)" d="M 715.229647 96.445398 
L 715.229647 114.094748 
L 720.202909 96.445398 
L 731.392749 92.03306 
L 733.87938 87.620722 
L 733.87938 83.208385 
L 733.87938 83.208385 
L 731.392749 87.620722 
L 720.202909 92.03306 
L 715.229647 96.445398 
z
" style="fill:#dd8452;fill-opacity:0.2;stroke:#dd8452;stroke-opacity:0.2;"/>
    <path clip-path="url(#p09a4e74a23)" d="M 737.609327 78.796047 
L 737.609327 83.208385 
L 741.339273 78.796047 
L 743.825904 69.971372 
L 756.259059 65.559034 
L 761.232321 61.146696 
L 798.531786 56.734359 
L 798.531786 52.322021 
L 798.531786 52.322021 
L 761.232321 56.734359 
L 756.259059 61.146696 
L 743.825904 65.559034 
L 741.339273 69.971372 
L 737.609327 78.796047 
z
" style="fill:#dd8452;fill-opacity:0.2;stroke:#dd8452;stroke-opacity:0.2;"/>
    <path clip-path="url(#p09a4e74a23)" d="M 812.208257 47.909683 
L 812.208257 52.322021 
L 812.208257 47.909683 
L 812.208257 47.909683 
z
" style="fill:#dd8452;fill-opacity:0.2;stroke:#dd8452;stroke-opacity:0.2;"/>
    <path clip-path="url(#p09a4e74a23)" d="M 864.427508 39.085008 
L 864.427508 47.909683 
L 865.670824 39.085008 
L 865.670824 34.67267 
L 865.670824 34.67267 
L 864.427508 39.085008 
z
" style="fill:#dd8452;fill-opacity:0.2;stroke:#dd8452;stroke-opacity:0.2;"/>
   </g>
   <g id="line2d_13">
    <path clip-path="url(#p09a4e74a23)" d="M 651.820556 281.76358 
L 652.290718 281.76358 
L 654.171363 281.76358 
L 655.111686 281.76358 
L 656.052008 278.469034 
L 657.462492 267.555852 
L 657.932654 253.759943 
L 658.402815 244.699943 
L 659.343138 240.99358 
L 659.813299 237.287216 
L 660.28346 226.168125 
L 660.753622 215.049034 
L 661.223783 210.107216 
L 662.634267 206.400852 
L 663.104428 203.929943 
L 664.044751 200.22358 
L 665.455235 195.281761 
L 666.395558 189.104489 
L 667.33588 182.927216 
L 667.806042 177.985398 
L 668.276203 173.04358 
L 669.216526 169.337216 
L 669.686687 156.98267 
L 670.62701 140.921761 
L 671.097171 134.744489 
L 671.567332 131.038125 
L 673.918139 126.096307 
L 674.858461 122.389943 
L 676.268945 119.919034 
L 677.209268 117.448125 
L 678.149591 113.741761 
L 678.619752 110.035398 
L 680.970559 106.329034 
L 682.381043 102.62267 
L 684.261688 100.151761 
L 684.731849 97.680852 
L 685.202011 95.209943 
L 688.022979 92.739034 
L 689.903624 87.797216 
L 693.194753 81.619943 
L 694.135076 77.91358 
L 695.075399 76.678125 
L 696.485883 76.678125 
L 697.426205 76.678125 
L 701.187496 75.44267 
L 705.418948 74.207216 
L 706.35927 74.207216 
L 708.239916 72.971761 
L 713.881852 70.500852 
L 714.822174 69.265398 
L 715.762497 69.265398 
L 720.46411 69.265398 
L 721.404433 69.265398 
L 729.397175 68.029943 
L 743.031854 65.559034 
L 752.43508 63.088125 
L 754.315726 60.617216 
L 769.360888 59.381761 
L 770.301211 59.381761 
L 771.711695 58.146307 
L 772.652017 54.439943 
L 773.59234 51.969034 
L 779.234276 51.969034 
L 780.174599 51.969034 
L 789.107664 50.73358 
L 795.689922 49.498125 
L 796.630245 49.498125 
L 829.541538 47.027216 
L 836.123796 44.556307 
L 837.064119 44.556307 
L 841.295571 44.556307 
L 842.235894 44.556307 
L 865.273799 44.556307 
L 866.214121 44.556307 
L 866.684283 44.556307 
L 867.624605 44.556307 
L 869.035089 43.320852 
L 869.505251 39.614489 
L 871.856057 35.908125 
L 874.206864 34.67267 
L 875.147187 34.67267 
L 875.617348 34.67267 
" style="fill:none;stroke:#4c72b0;stroke-linecap:round;stroke-width:4;"/>
   </g>
   <g id="line2d_14">
    <path clip-path="url(#p09a4e74a23)" d="M 651.820556 281.76358 
L 653.063872 244.258709 
L 656.793819 217.784683 
L 658.037134 211.166177 
L 661.767081 200.135333 
L 669.226974 191.310657 
L 672.95692 184.692151 
L 679.173498 178.073644 
L 680.416813 173.661307 
L 682.903444 169.248969 
L 685.390075 167.0428 
L 687.876706 162.630463 
L 689.120022 158.218125 
L 691.606653 158.218125 
L 692.849968 156.011956 
L 695.336599 153.805787 
L 697.82323 151.599619 
L 701.553177 147.187281 
L 705.283123 142.774943 
L 706.526439 136.156437 
L 710.256385 125.125593 
L 711.499701 116.300917 
L 712.743016 114.094748 
L 715.229647 105.270073 
L 720.202909 94.239229 
L 731.392749 89.826891 
L 733.87938 85.414554 
L 735.122696 83.208385 
L 737.609327 81.002216 
L 741.339273 74.383709 
L 743.825904 67.765203 
L 756.259059 63.352865 
L 761.232321 58.940528 
L 798.531786 54.52819 
L 807.234995 52.322021 
L 809.721626 52.322021 
L 812.208257 50.115852 
L 827.128043 47.909683 
L 829.614674 47.909683 
L 842.047829 47.909683 
L 844.53446 47.909683 
L 860.697562 47.909683 
L 863.184193 47.909683 
L 864.427508 43.497346 
L 865.670824 36.878839 
L 868.157455 34.67267 
L 870.644086 34.67267 
L 871.887401 34.67267 
L 875.617348 34.67267 
" style="fill:none;stroke:#dd8452;stroke-linecap:round;stroke-width:4;"/>
   </g>
   <g id="patch_15">
    <path d="M 640.630717 294.118125 
L 640.630717 22.318125 
" style="fill:none;stroke:#cccccc;stroke-linecap:square;stroke-linejoin:miter;stroke-width:1.25;"/>
   </g>
   <g id="patch_16">
    <path d="M 886.807188 294.118125 
L 886.807188 22.318125 
" style="fill:none;stroke:#cccccc;stroke-linecap:square;stroke-linejoin:miter;stroke-width:1.25;"/>
   </g>
   <g id="patch_17">
    <path d="M 640.630717 294.118125 
L 886.807188 294.118125 
" style="fill:none;stroke:#cccccc;stroke-linecap:square;stroke-linejoin:miter;stroke-width:1.25;"/>
   </g>
   <g id="patch_18">
    <path d="M 640.630717 22.318125 
L 886.807188 22.318125 
" style="fill:none;stroke:#cccccc;stroke-linecap:square;stroke-linejoin:miter;stroke-width:1.25;"/>
   </g>
   <g id="text_47">
    <!-- Overall survival -->
    <g style="fill:#262626;" transform="translate(715.661765 16.318125)scale(0.12 -0.12)">
     <defs>
      <path d="M 41.015625 3.8125 
Q 52.984375 3.8125 59.078125 12.03125 
Q 65.1875 20.265625 65.1875 36.375 
Q 65.1875 52.546875 59.078125 60.765625 
Q 52.984375 69 41.015625 69 
Q 29 69 22.890625 60.765625 
Q 16.796875 52.546875 16.796875 36.375 
Q 16.796875 20.265625 22.890625 12.03125 
Q 29 3.8125 41.015625 3.8125 
z
M 41.015625 -1.421875 
Q 33.59375 -1.421875 27.359375 1.015625 
Q 21.140625 3.46875 16.40625 8.203125 
Q 10.9375 13.671875 8.265625 20.609375 
Q 5.609375 27.546875 5.609375 36.375 
Q 5.609375 45.21875 8.265625 52.171875 
Q 10.9375 59.125 16.40625 64.59375 
Q 21.1875 69.390625 27.34375 71.796875 
Q 33.5 74.21875 41.015625 74.21875 
Q 56.890625 74.21875 66.65625 63.8125 
Q 76.421875 53.421875 76.421875 36.375 
Q 76.421875 27.640625 73.734375 20.625 
Q 71.046875 13.625 65.578125 8.203125 
Q 60.796875 3.421875 54.640625 1 
Q 48.484375 -1.421875 41.015625 -1.421875 
z
" id="DejaVuSerif-79"/>
     </defs>
     <use xlink:href="#DejaVuSerif-79"/>
     <use x="81.982422" xlink:href="#DejaVuSerif-118"/>
     <use x="138.476562" xlink:href="#DejaVuSerif-101"/>
     <use x="197.65625" xlink:href="#DejaVuSerif-114"/>
     <use x="245.458984" xlink:href="#DejaVuSerif-97"/>
     <use x="305.078125" xlink:href="#DejaVuSerif-108"/>
     <use x="337.060547" xlink:href="#DejaVuSerif-108"/>
     <use x="369.042969" xlink:href="#DejaVuSerif-32"/>
     <use x="400.830078" xlink:href="#DejaVuSerif-115"/>
     <use x="452.148438" xlink:href="#DejaVuSerif-117"/>
     <use x="516.552734" xlink:href="#DejaVuSerif-114"/>
     <use x="564.355469" xlink:href="#DejaVuSerif-118"/>
     <use x="620.849609" xlink:href="#DejaVuSerif-105"/>
     <use x="652.832031" xlink:href="#DejaVuSerif-118"/>
     <use x="709.326172" xlink:href="#DejaVuSerif-97"/>
     <use x="768.945312" xlink:href="#DejaVuSerif-108"/>
    </g>
   </g>
   <g id="legend_3">
    <g id="patch_19">
     <path d="M 708.516094 288.618125 
L 879.107188 288.618125 
Q 881.307188 288.618125 881.307188 286.418125 
L 881.307188 255.22625 
Q 881.307188 253.02625 879.107188 253.02625 
L 708.516094 253.02625 
Q 706.316094 253.02625 706.316094 255.22625 
L 706.316094 286.418125 
Q 706.316094 288.618125 708.516094 288.618125 
z
" style="fill:#ffffff;opacity:0.8;stroke:#cccccc;stroke-linejoin:miter;"/>
    </g>
    <g id="line2d_15">
     <path d="M 710.716094 261.934531 
L 732.716094 261.934531 
" style="fill:none;stroke:#4c72b0;stroke-linecap:round;stroke-width:4;"/>
    </g>
    <g id="line2d_16"/>
    <g id="text_48">
     <!-- Treated, AUC: 0.8364 -->
     <g style="fill:#262626;" transform="translate(741.516094 265.784531)scale(0.11 -0.11)">
      <use xlink:href="#DejaVuSerif-84"/>
      <use x="66.699219" xlink:href="#DejaVuSerif-114"/>
      <use x="114.501953" xlink:href="#DejaVuSerif-101"/>
      <use x="173.681641" xlink:href="#DejaVuSerif-97"/>
      <use x="233.300781" xlink:href="#DejaVuSerif-116"/>
      <use x="273.486328" xlink:href="#DejaVuSerif-101"/>
      <use x="332.666016" xlink:href="#DejaVuSerif-100"/>
      <use x="396.679688" xlink:href="#DejaVuSerif-44"/>
      <use x="428.466797" xlink:href="#DejaVuSerif-32"/>
      <use x="460.253906" xlink:href="#DejaVuSerif-65"/>
      <use x="532.470703" xlink:href="#DejaVuSerif-85"/>
      <use x="616.748047" xlink:href="#DejaVuSerif-67"/>
      <use x="693.261719" xlink:href="#DejaVuSerif-58"/>
      <use x="726.953125" xlink:href="#DejaVuSerif-32"/>
      <use x="758.740234" xlink:href="#DejaVuSerif-48"/>
      <use x="822.363281" xlink:href="#DejaVuSerif-46"/>
      <use x="854.150391" xlink:href="#DejaVuSerif-56"/>
      <use x="917.773438" xlink:href="#DejaVuSerif-51"/>
      <use x="981.396484" xlink:href="#DejaVuSerif-54"/>
      <use x="1045.019531" xlink:href="#DejaVuSerif-52"/>
     </g>
    </g>
    <g id="line2d_17">
     <path d="M 710.716094 278.080469 
L 732.716094 278.080469 
" style="fill:none;stroke:#dd8452;stroke-linecap:round;stroke-width:4;"/>
    </g>
    <g id="line2d_18"/>
    <g id="text_49">
     <!-- Untreated, AUC: 0.7752 -->
     <g style="fill:#262626;" transform="translate(741.516094 281.930469)scale(0.11 -0.11)">
      <use xlink:href="#DejaVuSerif-85"/>
      <use x="84.277344" xlink:href="#DejaVuSerif-110"/>
      <use x="148.681641" xlink:href="#DejaVuSerif-116"/>
      <use x="188.867188" xlink:href="#DejaVuSerif-114"/>
      <use x="236.669922" xlink:href="#DejaVuSerif-101"/>
      <use x="295.849609" xlink:href="#DejaVuSerif-97"/>
      <use x="355.46875" xlink:href="#DejaVuSerif-116"/>
      <use x="395.654297" xlink:href="#DejaVuSerif-101"/>
      <use x="454.833984" xlink:href="#DejaVuSerif-100"/>
      <use x="518.847656" xlink:href="#DejaVuSerif-44"/>
      <use x="550.634766" xlink:href="#DejaVuSerif-32"/>
      <use x="582.421875" xlink:href="#DejaVuSerif-65"/>
      <use x="654.638672" xlink:href="#DejaVuSerif-85"/>
      <use x="738.916016" xlink:href="#DejaVuSerif-67"/>
      <use x="815.429688" xlink:href="#DejaVuSerif-58"/>
      <use x="849.121094" xlink:href="#DejaVuSerif-32"/>
      <use x="880.908203" xlink:href="#DejaVuSerif-48"/>
      <use x="944.53125" xlink:href="#DejaVuSerif-46"/>
      <use x="976.318359" xlink:href="#DejaVuSerif-55"/>
      <use x="1039.941406" xlink:href="#DejaVuSerif-55"/>
      <use x="1103.564453" xlink:href="#DejaVuSerif-53"/>
      <use x="1167.1875" xlink:href="#DejaVuSerif-50"/>
     </g>
    </g>
   </g>
  </g>
 </g>
 <defs>
  <clipPath id="p35527c92f9">
   <rect height="271.8" width="246.176471" x="49.807188" y="22.318125"/>
  </clipPath>
  <clipPath id="p12070c7188">
   <rect height="271.8" width="246.176471" x="345.218952" y="22.318125"/>
  </clipPath>
  <clipPath id="p09a4e74a23">
   <rect height="271.8" width="246.176471" x="640.630717" y="22.318125"/>
  </clipPath>
 </defs>
</svg>
