<?xml version="1.0" encoding="utf-8" standalone="no"?>
<!DOCTYPE svg PUBLIC "-//W3C//DTD SVG 1.1//EN"
  "http://www.w3.org/Graphics/SVG/1.1/DTD/svg11.dtd">
<!-- Created with matplotlib (https://matplotlib.org/) -->
<svg height="360pt" version="1.1" viewBox="0 0 1080 360" width="1080pt" xmlns="http://www.w3.org/2000/svg" xmlns:xlink="http://www.w3.org/1999/xlink">
 <metadata>
  <rdf:RDF xmlns:cc="http://creativecommons.org/ns#" xmlns:dc="http://purl.org/dc/elements/1.1/" xmlns:rdf="http://www.w3.org/1999/02/22-rdf-syntax-ns#">
   <cc:Work>
    <dc:type rdf:resource="http://purl.org/dc/dcmitype/StillImage"/>
    <dc:date>2020-12-07T15:31:30.210550</dc:date>
    <dc:format>image/svg+xml</dc:format>
    <dc:creator>
     <cc:Agent>
      <dc:title>Matplotlib v3.3.0, https://matplotlib.org/</dc:title>
     </cc:Agent>
    </dc:creator>
   </cc:Work>
  </rdf:RDF>
 </metadata>
 <defs>
  <style type="text/css">*{stroke-linecap:butt;stroke-linejoin:round;}</style>
 </defs>
 <g id="figure_1">
  <g id="patch_1">
   <path d="M 0 360 
L 1080 360 
L 1080 0 
L 0 0 
z
" style="fill:#ffffff;"/>
  </g>
  <g id="axes_1">
   <g id="patch_2">
    <path d="M 135 315 
L 381.176471 315 
L 381.176471 43.2 
L 135 43.2 
z
" style="fill:#ffffff;"/>
   </g>
   <g id="matplotlib.axis_1">
    <g id="xtick_1">
     <g id="text_1">
      <!-- 0.0 -->
      <g style="fill:#262626;" transform="translate(137.443121 332.858281)scale(0.11 -0.11)">
       <defs>
        <path d="M 31.78125 3.421875 
Q 39.265625 3.421875 42.96875 11.625 
Q 46.6875 19.828125 46.6875 36.375 
Q 46.6875 52.984375 42.96875 61.1875 
Q 39.265625 69.390625 31.78125 69.390625 
Q 24.3125 69.390625 20.59375 61.1875 
Q 16.890625 52.984375 16.890625 36.375 
Q 16.890625 19.828125 20.59375 11.625 
Q 24.3125 3.421875 31.78125 3.421875 
z
M 31.78125 -1.421875 
Q 19.921875 -1.421875 13.25 8.53125 
Q 6.59375 18.5 6.59375 36.375 
Q 6.59375 54.296875 13.25 64.25 
Q 19.921875 74.21875 31.78125 74.21875 
Q 43.703125 74.21875 50.34375 64.25 
Q 56.984375 54.296875 56.984375 36.375 
Q 56.984375 18.5 50.34375 8.53125 
Q 43.703125 -1.421875 31.78125 -1.421875 
z
" id="DejaVuSerif-48"/>
        <path d="M 9.421875 5.078125 
Q 9.421875 7.8125 11.28125 9.71875 
Q 13.140625 11.625 15.921875 11.625 
Q 18.609375 11.625 20.5 9.71875 
Q 22.40625 7.8125 22.40625 5.078125 
Q 22.40625 2.390625 20.5 0.484375 
Q 18.609375 -1.421875 15.921875 -1.421875 
Q 13.140625 -1.421875 11.28125 0.453125 
Q 9.421875 2.34375 9.421875 5.078125 
z
" id="DejaVuSerif-46"/>
       </defs>
       <use xlink:href="#DejaVuSerif-48"/>
       <use x="63.623047" xlink:href="#DejaVuSerif-46"/>
       <use x="95.410156" xlink:href="#DejaVuSerif-48"/>
      </g>
     </g>
    </g>
    <g id="xtick_2">
     <g id="text_2">
      <!-- 0.2 -->
      <g style="fill:#262626;" transform="translate(182.202479 332.858281)scale(0.11 -0.11)">
       <defs>
        <path d="M 12.796875 55.515625 
L 7.328125 55.515625 
L 7.328125 68.5 
Q 12.546875 71.296875 17.84375 72.75 
Q 23.140625 74.21875 28.21875 74.21875 
Q 39.59375 74.21875 46.1875 68.703125 
Q 52.78125 63.1875 52.78125 53.71875 
Q 52.78125 43.015625 37.84375 28.125 
Q 36.671875 27 36.078125 26.421875 
L 17.671875 8.015625 
L 48.09375 8.015625 
L 48.09375 17 
L 53.8125 17 
L 53.8125 0 
L 6.78125 0 
L 6.78125 5.328125 
L 28.90625 27.390625 
Q 36.234375 34.71875 39.359375 40.84375 
Q 42.484375 46.96875 42.484375 53.71875 
Q 42.484375 61.078125 38.640625 65.234375 
Q 34.8125 69.390625 28.078125 69.390625 
Q 21.09375 69.390625 17.28125 65.921875 
Q 13.484375 62.453125 12.796875 55.515625 
z
" id="DejaVuSerif-50"/>
       </defs>
       <use xlink:href="#DejaVuSerif-48"/>
       <use x="63.623047" xlink:href="#DejaVuSerif-46"/>
       <use x="95.410156" xlink:href="#DejaVuSerif-50"/>
      </g>
     </g>
    </g>
    <g id="xtick_3">
     <g id="text_3">
      <!-- 0.4 -->
      <g style="fill:#262626;" transform="translate(226.961837 332.858281)scale(0.11 -0.11)">
       <defs>
        <path d="M 34.90625 24.703125 
L 34.90625 63.484375 
L 10.015625 24.703125 
z
M 56.390625 0 
L 23.1875 0 
L 23.1875 5.171875 
L 34.90625 5.171875 
L 34.90625 19.484375 
L 3.078125 19.484375 
L 3.078125 24.8125 
L 35.015625 74.21875 
L 44.671875 74.21875 
L 44.671875 24.703125 
L 58.59375 24.703125 
L 58.59375 19.484375 
L 44.671875 19.484375 
L 44.671875 5.171875 
L 56.390625 5.171875 
z
" id="DejaVuSerif-52"/>
       </defs>
       <use xlink:href="#DejaVuSerif-48"/>
       <use x="63.623047" xlink:href="#DejaVuSerif-46"/>
       <use x="95.410156" xlink:href="#DejaVuSerif-52"/>
      </g>
     </g>
    </g>
    <g id="xtick_4">
     <g id="text_4">
      <!-- 0.6 -->
      <g style="fill:#262626;" transform="translate(271.721196 332.858281)scale(0.11 -0.11)">
       <defs>
        <path d="M 32.71875 3.421875 
Q 39.59375 3.421875 43.296875 8.46875 
Q 47.015625 13.53125 47.015625 23 
Q 47.015625 32.46875 43.296875 37.515625 
Q 39.59375 42.578125 32.71875 42.578125 
Q 25.734375 42.578125 22.0625 37.6875 
Q 18.40625 32.8125 18.40625 23.578125 
Q 18.40625 13.875 22.109375 8.640625 
Q 25.828125 3.421875 32.71875 3.421875 
z
M 16.796875 40.140625 
Q 20.125 43.796875 24.3125 45.59375 
Q 28.515625 47.40625 33.796875 47.40625 
Q 44.671875 47.40625 51 40.859375 
Q 57.328125 34.328125 57.328125 23 
Q 57.328125 11.921875 50.515625 5.25 
Q 43.703125 -1.421875 32.328125 -1.421875 
Q 19.96875 -1.421875 13.328125 7.78125 
Q 6.6875 17 6.6875 34.078125 
Q 6.6875 53.21875 14.546875 63.71875 
Q 22.40625 74.21875 36.71875 74.21875 
Q 40.578125 74.21875 44.828125 73.484375 
Q 49.078125 72.75 53.515625 71.296875 
L 53.515625 59.28125 
L 48 59.28125 
Q 47.40625 64.203125 44.234375 66.796875 
Q 41.0625 69.390625 35.6875 69.390625 
Q 26.21875 69.390625 21.578125 62.203125 
Q 16.9375 55.03125 16.796875 40.140625 
z
" id="DejaVuSerif-54"/>
       </defs>
       <use xlink:href="#DejaVuSerif-48"/>
       <use x="63.623047" xlink:href="#DejaVuSerif-46"/>
       <use x="95.410156" xlink:href="#DejaVuSerif-54"/>
      </g>
     </g>
    </g>
    <g id="xtick_5">
     <g id="text_5">
      <!-- 0.8 -->
      <g style="fill:#262626;" transform="translate(316.480554 332.858281)scale(0.11 -0.11)">
       <defs>
        <path d="M 46.578125 19.921875 
Q 46.578125 27.734375 42.6875 32.046875 
Q 38.8125 36.375 31.78125 36.375 
Q 24.75 36.375 20.875 32.046875 
Q 17 27.734375 17 19.921875 
Q 17 12.0625 20.875 7.734375 
Q 24.75 3.421875 31.78125 3.421875 
Q 38.8125 3.421875 42.6875 7.734375 
Q 46.578125 12.0625 46.578125 19.921875 
z
M 44.578125 55.328125 
Q 44.578125 61.96875 41.203125 65.671875 
Q 37.84375 69.390625 31.78125 69.390625 
Q 25.78125 69.390625 22.390625 65.671875 
Q 19 61.96875 19 55.328125 
Q 19 48.640625 22.390625 44.921875 
Q 25.78125 41.21875 31.78125 41.21875 
Q 37.84375 41.21875 41.203125 44.921875 
Q 44.578125 48.640625 44.578125 55.328125 
z
M 39.3125 38.8125 
Q 47.609375 37.703125 52.25 32.6875 
Q 56.890625 27.6875 56.890625 19.921875 
Q 56.890625 9.671875 50.390625 4.125 
Q 43.890625 -1.421875 31.78125 -1.421875 
Q 19.734375 -1.421875 13.203125 4.125 
Q 6.6875 9.671875 6.6875 19.921875 
Q 6.6875 27.6875 11.328125 32.6875 
Q 15.96875 37.703125 24.3125 38.8125 
Q 16.9375 40.140625 13 44.40625 
Q 9.078125 48.6875 9.078125 55.328125 
Q 9.078125 64.109375 15.125 69.15625 
Q 21.1875 74.21875 31.78125 74.21875 
Q 42.390625 74.21875 48.4375 69.15625 
Q 54.5 64.109375 54.5 55.328125 
Q 54.5 48.6875 50.5625 44.40625 
Q 46.625 40.140625 39.3125 38.8125 
z
" id="DejaVuSerif-56"/>
       </defs>
       <use xlink:href="#DejaVuSerif-48"/>
       <use x="63.623047" xlink:href="#DejaVuSerif-46"/>
       <use x="95.410156" xlink:href="#DejaVuSerif-56"/>
      </g>
     </g>
    </g>
    <g id="xtick_6">
     <g id="text_6">
      <!-- 1.0 -->
      <g style="fill:#262626;" transform="translate(361.239912 332.858281)scale(0.11 -0.11)">
       <defs>
        <path d="M 14.203125 0 
L 14.203125 5.171875 
L 26.90625 5.171875 
L 26.90625 65.828125 
L 12.203125 56.296875 
L 12.203125 62.703125 
L 29.984375 74.21875 
L 36.71875 74.21875 
L 36.71875 5.171875 
L 49.421875 5.171875 
L 49.421875 0 
z
" id="DejaVuSerif-49"/>
       </defs>
       <use xlink:href="#DejaVuSerif-49"/>
       <use x="63.623047" xlink:href="#DejaVuSerif-46"/>
       <use x="95.410156" xlink:href="#DejaVuSerif-48"/>
      </g>
     </g>
    </g>
    <g id="text_7">
     <!-- False positive rate -->
     <g style="fill:#262626;" transform="translate(202.259173 348.264063)scale(0.12 -0.12)">
      <defs>
       <path d="M 5.515625 0 
L 5.515625 5.171875 
L 14.796875 5.171875 
L 14.796875 67.671875 
L 5.515625 67.671875 
L 5.515625 72.90625 
L 65.1875 72.90625 
L 65.1875 56.6875 
L 59.1875 56.6875 
L 59.1875 66.890625 
L 24.703125 66.890625 
L 24.703125 42.484375 
L 49.609375 42.484375 
L 49.609375 51.609375 
L 55.609375 51.609375 
L 55.609375 27.390625 
L 49.609375 27.390625 
L 49.609375 36.53125 
L 24.703125 36.53125 
L 24.703125 5.171875 
L 36.375 5.171875 
L 36.375 0 
z
" id="DejaVuSerif-70"/>
       <path d="M 39.796875 16.3125 
L 39.796875 27.296875 
L 28.21875 27.296875 
Q 21.53125 27.296875 18.25 24.40625 
Q 14.984375 21.53125 14.984375 15.578125 
Q 14.984375 10.15625 18.296875 6.984375 
Q 21.625 3.8125 27.296875 3.8125 
Q 32.90625 3.8125 36.34375 7.28125 
Q 39.796875 10.75 39.796875 16.3125 
z
M 48.78125 32.421875 
L 48.78125 5.171875 
L 56.78125 5.171875 
L 56.78125 0 
L 39.796875 0 
L 39.796875 5.609375 
Q 36.8125 2 32.90625 0.28125 
Q 29 -1.421875 23.78125 -1.421875 
Q 15.140625 -1.421875 10.0625 3.171875 
Q 4.984375 7.765625 4.984375 15.578125 
Q 4.984375 23.640625 10.796875 28.078125 
Q 16.609375 32.515625 27.203125 32.515625 
L 39.796875 32.515625 
L 39.796875 36.078125 
Q 39.796875 42 36.203125 45.234375 
Q 32.625 48.484375 26.125 48.484375 
Q 20.75 48.484375 17.578125 46.046875 
Q 14.40625 43.609375 13.625 38.8125 
L 8.984375 38.8125 
L 8.984375 49.3125 
Q 13.671875 51.3125 18.09375 52.3125 
Q 22.515625 53.328125 26.703125 53.328125 
Q 37.5 53.328125 43.140625 47.96875 
Q 48.78125 42.625 48.78125 32.421875 
z
" id="DejaVuSerif-97"/>
       <path d="M 20.515625 5.171875 
L 29 5.171875 
L 29 0 
L 2.875 0 
L 2.875 5.171875 
L 11.53125 5.171875 
L 11.53125 70.796875 
L 2.875 70.796875 
L 2.875 75.984375 
L 20.515625 75.984375 
z
" id="DejaVuSerif-108"/>
       <path d="M 5.609375 2.875 
L 5.609375 14.984375 
L 10.796875 14.984375 
Q 10.984375 9.1875 14.421875 6.296875 
Q 17.875 3.421875 24.609375 3.421875 
Q 30.671875 3.421875 33.84375 5.6875 
Q 37.015625 7.953125 37.015625 12.3125 
Q 37.015625 15.71875 34.6875 17.8125 
Q 32.375 19.921875 24.90625 22.3125 
L 18.40625 24.515625 
Q 11.71875 26.65625 8.71875 29.875 
Q 5.71875 33.109375 5.71875 38.09375 
Q 5.71875 45.21875 10.9375 49.265625 
Q 16.15625 53.328125 25.390625 53.328125 
Q 29.5 53.328125 34.03125 52.25 
Q 38.578125 51.171875 43.40625 49.125 
L 43.40625 37.796875 
L 38.234375 37.796875 
Q 38.03125 42.828125 34.703125 45.65625 
Q 31.390625 48.484375 25.6875 48.484375 
Q 20.015625 48.484375 17.109375 46.484375 
Q 14.203125 44.484375 14.203125 40.484375 
Q 14.203125 37.203125 16.40625 35.21875 
Q 18.609375 33.25 25.203125 31.203125 
L 32.328125 29 
Q 39.703125 26.703125 42.9375 23.265625 
Q 46.1875 19.828125 46.1875 14.40625 
Q 46.1875 7.03125 40.546875 2.796875 
Q 34.90625 -1.421875 25 -1.421875 
Q 19.96875 -1.421875 15.1875 -0.34375 
Q 10.40625 0.734375 5.609375 2.875 
z
" id="DejaVuSerif-115"/>
       <path d="M 54.203125 25 
L 15.484375 25 
L 15.484375 24.609375 
Q 15.484375 14.109375 19.4375 8.765625 
Q 23.390625 3.421875 31.109375 3.421875 
Q 37.015625 3.421875 40.796875 6.515625 
Q 44.578125 9.625 46.09375 15.71875 
L 53.328125 15.71875 
Q 51.171875 7.171875 45.375 2.875 
Q 39.59375 -1.421875 30.171875 -1.421875 
Q 18.796875 -1.421875 11.890625 6.078125 
Q 4.984375 13.578125 4.984375 25.984375 
Q 4.984375 38.28125 11.765625 45.796875 
Q 18.5625 53.328125 29.59375 53.328125 
Q 41.359375 53.328125 47.65625 46.0625 
Q 53.953125 38.8125 54.203125 25 
z
M 43.609375 30.171875 
Q 43.3125 39.265625 39.765625 43.875 
Q 36.234375 48.484375 29.59375 48.484375 
Q 23.390625 48.484375 19.828125 43.84375 
Q 16.265625 39.203125 15.484375 30.171875 
z
" id="DejaVuSerif-101"/>
       <path id="DejaVuSerif-32"/>
       <path d="M 20.515625 28.515625 
L 20.515625 23.390625 
Q 20.515625 14.015625 24.09375 9.109375 
Q 27.6875 4.203125 34.515625 4.203125 
Q 41.40625 4.203125 44.9375 9.71875 
Q 48.484375 15.234375 48.484375 25.984375 
Q 48.484375 36.765625 44.9375 42.234375 
Q 41.40625 47.703125 34.515625 47.703125 
Q 27.6875 47.703125 24.09375 42.765625 
Q 20.515625 37.84375 20.515625 28.515625 
z
M 11.53125 46.6875 
L 2.875 46.6875 
L 2.875 51.90625 
L 20.515625 51.90625 
L 20.515625 43.796875 
Q 23.140625 48.6875 27.21875 51 
Q 31.296875 53.328125 37.3125 53.328125 
Q 46.875 53.328125 52.921875 45.75 
Q 58.984375 38.1875 58.984375 25.984375 
Q 58.984375 13.765625 52.921875 6.171875 
Q 46.875 -1.421875 37.3125 -1.421875 
Q 31.296875 -1.421875 27.21875 0.890625 
Q 23.140625 3.21875 20.515625 8.109375 
L 20.515625 -15.578125 
L 29 -15.578125 
L 29 -20.796875 
L 2.875 -20.796875 
L 2.875 -15.578125 
L 11.53125 -15.578125 
z
" id="DejaVuSerif-112"/>
       <path d="M 30.078125 3.421875 
Q 37.3125 3.421875 40.984375 9.125 
Q 44.671875 14.84375 44.671875 25.984375 
Q 44.671875 37.109375 40.984375 42.796875 
Q 37.3125 48.484375 30.078125 48.484375 
Q 22.859375 48.484375 19.171875 42.796875 
Q 15.484375 37.109375 15.484375 25.984375 
Q 15.484375 14.84375 19.1875 9.125 
Q 22.90625 3.421875 30.078125 3.421875 
z
M 30.078125 -1.421875 
Q 18.75 -1.421875 11.859375 6.078125 
Q 4.984375 13.578125 4.984375 25.984375 
Q 4.984375 38.375 11.84375 45.84375 
Q 18.703125 53.328125 30.078125 53.328125 
Q 41.453125 53.328125 48.3125 45.84375 
Q 55.171875 38.375 55.171875 25.984375 
Q 55.171875 13.578125 48.3125 6.078125 
Q 41.453125 -1.421875 30.078125 -1.421875 
z
" id="DejaVuSerif-111"/>
       <path d="M 9.71875 68.015625 
Q 9.71875 70.265625 11.34375 71.921875 
Q 12.984375 73.578125 15.28125 73.578125 
Q 17.53125 73.578125 19.15625 71.921875 
Q 20.796875 70.265625 20.796875 68.015625 
Q 20.796875 65.71875 19.1875 64.109375 
Q 17.578125 62.5 15.28125 62.5 
Q 12.984375 62.5 11.34375 64.109375 
Q 9.71875 65.71875 9.71875 68.015625 
z
M 21.1875 5.171875 
L 29.6875 5.171875 
L 29.6875 0 
L 3.609375 0 
L 3.609375 5.171875 
L 12.203125 5.171875 
L 12.203125 46.6875 
L 3.609375 46.6875 
L 3.609375 51.90625 
L 21.1875 51.90625 
z
" id="DejaVuSerif-105"/>
       <path d="M 10.796875 46.6875 
L 2.875 46.6875 
L 2.875 51.90625 
L 10.796875 51.90625 
L 10.796875 68.015625 
L 19.828125 68.015625 
L 19.828125 51.90625 
L 36.71875 51.90625 
L 36.71875 46.6875 
L 19.828125 46.6875 
L 19.828125 13.71875 
Q 19.828125 7.125 21.09375 5.265625 
Q 22.359375 3.421875 25.78125 3.421875 
Q 29.296875 3.421875 30.90625 5.484375 
Q 32.515625 7.5625 32.625 12.203125 
L 39.40625 12.203125 
Q 39.015625 5.125 35.546875 1.84375 
Q 32.078125 -1.421875 25 -1.421875 
Q 17.234375 -1.421875 14.015625 2.015625 
Q 10.796875 5.46875 10.796875 13.71875 
z
" id="DejaVuSerif-116"/>
       <path d="M 24.703125 0 
L 5.609375 46.6875 
L -0.296875 46.6875 
L -0.296875 51.90625 
L 23.578125 51.90625 
L 23.578125 46.6875 
L 15.28125 46.6875 
L 29.890625 10.984375 
L 44.484375 46.6875 
L 36.71875 46.6875 
L 36.71875 51.90625 
L 56.203125 51.90625 
L 56.203125 46.6875 
L 50.390625 46.6875 
L 31.296875 0 
z
" id="DejaVuSerif-118"/>
       <path d="M 47.796875 52 
L 47.796875 39.015625 
L 42.625 39.015625 
Q 42.390625 42.875 40.484375 44.78125 
Q 38.578125 46.6875 34.90625 46.6875 
Q 28.265625 46.6875 24.71875 42.09375 
Q 21.1875 37.5 21.1875 28.90625 
L 21.1875 5.171875 
L 31.59375 5.171875 
L 31.59375 0 
L 4.109375 0 
L 4.109375 5.171875 
L 12.203125 5.171875 
L 12.203125 46.78125 
L 3.609375 46.78125 
L 3.609375 51.90625 
L 21.1875 51.90625 
L 21.1875 42.671875 
Q 23.828125 48.09375 27.96875 50.703125 
Q 32.125 53.328125 38.09375 53.328125 
Q 40.28125 53.328125 42.703125 52.984375 
Q 45.125 52.640625 47.796875 52 
z
" id="DejaVuSerif-114"/>
      </defs>
      <use xlink:href="#DejaVuSerif-70"/>
      <use x="62.634766" xlink:href="#DejaVuSerif-97"/>
      <use x="122.253906" xlink:href="#DejaVuSerif-108"/>
      <use x="154.236328" xlink:href="#DejaVuSerif-115"/>
      <use x="205.554688" xlink:href="#DejaVuSerif-101"/>
      <use x="264.734375" xlink:href="#DejaVuSerif-32"/>
      <use x="296.521484" xlink:href="#DejaVuSerif-112"/>
      <use x="360.535156" xlink:href="#DejaVuSerif-111"/>
      <use x="420.740234" xlink:href="#DejaVuSerif-115"/>
      <use x="472.058594" xlink:href="#DejaVuSerif-105"/>
      <use x="504.041016" xlink:href="#DejaVuSerif-116"/>
      <use x="544.226562" xlink:href="#DejaVuSerif-105"/>
      <use x="576.208984" xlink:href="#DejaVuSerif-118"/>
      <use x="632.703125" xlink:href="#DejaVuSerif-101"/>
      <use x="691.882812" xlink:href="#DejaVuSerif-32"/>
      <use x="723.669922" xlink:href="#DejaVuSerif-114"/>
      <use x="771.472656" xlink:href="#DejaVuSerif-97"/>
      <use x="831.091797" xlink:href="#DejaVuSerif-116"/>
      <use x="871.277344" xlink:href="#DejaVuSerif-101"/>
     </g>
    </g>
   </g>
   <g id="matplotlib.axis_2">
    <g id="ytick_1">
     <g id="text_8">
      <!-- 0.0 -->
      <g style="fill:#262626;" transform="translate(108.006563 306.824595)scale(0.11 -0.11)">
       <use xlink:href="#DejaVuSerif-48"/>
       <use x="63.623047" xlink:href="#DejaVuSerif-46"/>
       <use x="95.410156" xlink:href="#DejaVuSerif-48"/>
      </g>
     </g>
    </g>
    <g id="ytick_2">
     <g id="text_9">
      <!-- 0.2 -->
      <g style="fill:#262626;" transform="translate(108.006563 257.406413)scale(0.11 -0.11)">
       <use xlink:href="#DejaVuSerif-48"/>
       <use x="63.623047" xlink:href="#DejaVuSerif-46"/>
       <use x="95.410156" xlink:href="#DejaVuSerif-50"/>
      </g>
     </g>
    </g>
    <g id="ytick_3">
     <g id="text_10">
      <!-- 0.4 -->
      <g style="fill:#262626;" transform="translate(108.006563 207.988232)scale(0.11 -0.11)">
       <use xlink:href="#DejaVuSerif-48"/>
       <use x="63.623047" xlink:href="#DejaVuSerif-46"/>
       <use x="95.410156" xlink:href="#DejaVuSerif-52"/>
      </g>
     </g>
    </g>
    <g id="ytick_4">
     <g id="text_11">
      <!-- 0.6 -->
      <g style="fill:#262626;" transform="translate(108.006563 158.57005)scale(0.11 -0.11)">
       <use xlink:href="#DejaVuSerif-48"/>
       <use x="63.623047" xlink:href="#DejaVuSerif-46"/>
       <use x="95.410156" xlink:href="#DejaVuSerif-54"/>
      </g>
     </g>
    </g>
    <g id="ytick_5">
     <g id="text_12">
      <!-- 0.8 -->
      <g style="fill:#262626;" transform="translate(108.006563 109.151868)scale(0.11 -0.11)">
       <use xlink:href="#DejaVuSerif-48"/>
       <use x="63.623047" xlink:href="#DejaVuSerif-46"/>
       <use x="95.410156" xlink:href="#DejaVuSerif-56"/>
      </g>
     </g>
    </g>
    <g id="ytick_6">
     <g id="text_13">
      <!-- 1.0 -->
      <g style="fill:#262626;" transform="translate(108.006563 59.733686)scale(0.11 -0.11)">
       <use xlink:href="#DejaVuSerif-49"/>
       <use x="63.623047" xlink:href="#DejaVuSerif-46"/>
       <use x="95.410156" xlink:href="#DejaVuSerif-48"/>
      </g>
     </g>
    </g>
    <g id="text_14">
     <!-- True positive rate -->
     <g style="fill:#262626;" transform="translate(101.510937 233.329687)rotate(-90)scale(0.12 -0.12)">
      <defs>
       <path d="M 19.09375 0 
L 19.09375 5.171875 
L 28.421875 5.171875 
L 28.421875 67.09375 
L 6.984375 67.09375 
L 6.984375 55.71875 
L 0.984375 55.71875 
L 0.984375 72.90625 
L 65.71875 72.90625 
L 65.71875 55.71875 
L 59.71875 55.71875 
L 59.71875 67.09375 
L 38.28125 67.09375 
L 38.28125 5.171875 
L 47.609375 5.171875 
L 47.609375 0 
z
" id="DejaVuSerif-84"/>
       <path d="M 35.40625 51.90625 
L 52.203125 51.90625 
L 52.203125 5.171875 
L 60.6875 5.171875 
L 60.6875 0 
L 43.21875 0 
L 43.21875 9.1875 
Q 40.71875 4 36.765625 1.28125 
Q 32.8125 -1.421875 27.59375 -1.421875 
Q 18.953125 -1.421875 14.875 3.484375 
Q 10.796875 8.40625 10.796875 18.890625 
L 10.796875 46.6875 
L 2.6875 46.6875 
L 2.6875 51.90625 
L 19.828125 51.90625 
L 19.828125 21.6875 
Q 19.828125 12.203125 22.140625 8.6875 
Q 24.46875 5.171875 30.421875 5.171875 
Q 36.671875 5.171875 39.9375 9.765625 
Q 43.21875 14.359375 43.21875 23.09375 
L 43.21875 46.6875 
L 35.40625 46.6875 
z
" id="DejaVuSerif-117"/>
      </defs>
      <use xlink:href="#DejaVuSerif-84"/>
      <use x="66.699219" xlink:href="#DejaVuSerif-114"/>
      <use x="114.501953" xlink:href="#DejaVuSerif-117"/>
      <use x="178.90625" xlink:href="#DejaVuSerif-101"/>
      <use x="238.085938" xlink:href="#DejaVuSerif-32"/>
      <use x="269.873047" xlink:href="#DejaVuSerif-112"/>
      <use x="333.886719" xlink:href="#DejaVuSerif-111"/>
      <use x="394.091797" xlink:href="#DejaVuSerif-115"/>
      <use x="445.410156" xlink:href="#DejaVuSerif-105"/>
      <use x="477.392578" xlink:href="#DejaVuSerif-116"/>
      <use x="517.578125" xlink:href="#DejaVuSerif-105"/>
      <use x="549.560547" xlink:href="#DejaVuSerif-118"/>
      <use x="606.054688" xlink:href="#DejaVuSerif-101"/>
      <use x="665.234375" xlink:href="#DejaVuSerif-32"/>
      <use x="697.021484" xlink:href="#DejaVuSerif-114"/>
      <use x="744.824219" xlink:href="#DejaVuSerif-97"/>
      <use x="804.443359" xlink:href="#DejaVuSerif-116"/>
      <use x="844.628906" xlink:href="#DejaVuSerif-101"/>
     </g>
    </g>
   </g>
   <g id="PolyCollection_1">
    <path clip-path="url(#p846f8ddeae)" d="M 146.18984 296.468182 
L 146.18984 302.645455 
L 146.641043 296.468182 
L 148.445856 281.025 
L 150.701872 274.847727 
L 151.604278 268.670455 
L 153.860294 265.581818 
L 154.762701 259.404545 
L 155.665107 247.05 
L 156.11631 240.872727 
L 158.823529 231.606818 
L 159.274733 228.518182 
L 159.725936 225.429545 
L 161.079545 219.252273 
L 165.140374 209.986364 
L 166.042781 206.897727 
L 166.493984 200.720455 
L 167.39639 185.277273 
L 172.359626 182.188636 
L 173.262032 179.1 
L 175.518048 169.834091 
L 175.969251 166.745455 
L 177.774064 160.568182 
L 177.774064 157.479545 
L 177.774064 157.479545 
L 175.969251 160.568182 
L 175.518048 166.745455 
L 173.262032 169.834091 
L 172.359626 179.1 
L 167.39639 182.188636 
L 166.493984 185.277273 
L 166.042781 200.720455 
L 165.140374 206.897727 
L 161.079545 209.986364 
L 159.725936 219.252273 
L 159.274733 225.429545 
L 158.823529 228.518182 
L 156.11631 231.606818 
L 155.665107 240.872727 
L 154.762701 247.05 
L 153.860294 259.404545 
L 151.604278 265.581818 
L 150.701872 268.670455 
L 148.445856 274.847727 
L 146.641043 281.025 
L 146.18984 296.468182 
z
" style="fill:#4c72b0;fill-opacity:0.2;stroke:#4c72b0;stroke-opacity:0.2;"/>
    <path clip-path="url(#p846f8ddeae)" d="M 182.286096 154.390909 
L 182.286096 157.479545 
L 184.993316 154.390909 
L 186.346925 148.213636 
L 186.346925 145.125 
L 186.346925 145.125 
L 184.993316 148.213636 
L 182.286096 154.390909 
z
" style="fill:#4c72b0;fill-opacity:0.2;stroke:#4c72b0;stroke-opacity:0.2;"/>
    <path clip-path="url(#p846f8ddeae)" d="M 189.054144 142.036364 
L 189.054144 145.125 
L 194.01738 142.036364 
L 195.822193 138.947727 
L 196.273396 135.859091 
L 198.529412 132.770455 
L 198.529412 129.681818 
L 198.529412 129.681818 
L 196.273396 132.770455 
L 195.822193 135.859091 
L 194.01738 138.947727 
L 189.054144 142.036364 
z
" style="fill:#4c72b0;fill-opacity:0.2;stroke:#4c72b0;stroke-opacity:0.2;"/>
    <path clip-path="url(#p846f8ddeae)" d="M 222.443182 126.593182 
L 222.443182 129.681818 
L 223.345588 126.593182 
L 226.955214 108.061364 
L 231.467246 101.884091 
L 234.174465 98.795455 
L 235.076872 95.706818 
L 237.784091 86.440909 
L 237.784091 83.352273 
L 237.784091 83.352273 
L 235.076872 86.440909 
L 234.174465 95.706818 
L 231.467246 98.795455 
L 226.955214 101.884091 
L 223.345588 108.061364 
L 222.443182 126.593182 
z
" style="fill:#4c72b0;fill-opacity:0.2;stroke:#4c72b0;stroke-opacity:0.2;"/>
    <path clip-path="url(#p846f8ddeae)" d="M 260.795455 80.263636 
L 260.795455 83.352273 
L 260.795455 80.263636 
L 260.795455 80.263636 
z
" style="fill:#4c72b0;fill-opacity:0.2;stroke:#4c72b0;stroke-opacity:0.2;"/>
    <path clip-path="url(#p846f8ddeae)" d="M 287.416444 77.175 
L 287.416444 80.263636 
L 287.416444 77.175 
L 287.416444 77.175 
z
" style="fill:#4c72b0;fill-opacity:0.2;stroke:#4c72b0;stroke-opacity:0.2;"/>
    <path clip-path="url(#p846f8ddeae)" d="M 293.733289 74.086364 
L 293.733289 77.175 
L 293.733289 74.086364 
L 293.733289 74.086364 
z
" style="fill:#4c72b0;fill-opacity:0.2;stroke:#4c72b0;stroke-opacity:0.2;"/>
    <path clip-path="url(#p846f8ddeae)" d="M 307.269385 70.997727 
L 307.269385 74.086364 
L 307.269385 70.997727 
L 307.269385 70.997727 
z
" style="fill:#4c72b0;fill-opacity:0.2;stroke:#4c72b0;stroke-opacity:0.2;"/>
    <path clip-path="url(#p846f8ddeae)" d="M 314.488636 67.909091 
L 314.488636 70.997727 
L 314.488636 67.909091 
L 314.488636 67.909091 
z
" style="fill:#4c72b0;fill-opacity:0.2;stroke:#4c72b0;stroke-opacity:0.2;"/>
    <path clip-path="url(#p846f8ddeae)" d="M 323.061497 64.820455 
L 323.061497 67.909091 
L 329.378342 64.820455 
L 329.378342 61.731818 
L 329.378342 61.731818 
L 323.061497 64.820455 
z
" style="fill:#4c72b0;fill-opacity:0.2;stroke:#4c72b0;stroke-opacity:0.2;"/>
    <path clip-path="url(#p846f8ddeae)" d="M 348.78008 58.643182 
L 348.78008 61.731818 
L 348.78008 58.643182 
L 348.78008 58.643182 
z
" style="fill:#4c72b0;fill-opacity:0.2;stroke:#4c72b0;stroke-opacity:0.2;"/>
    <path clip-path="url(#p846f8ddeae)" d="M 356.450535 55.554545 
L 356.450535 58.643182 
L 356.450535 55.554545 
L 356.450535 55.554545 
z
" style="fill:#4c72b0;fill-opacity:0.2;stroke:#4c72b0;stroke-opacity:0.2;"/>
   </g>
   <g id="PolyCollection_2">
    <path clip-path="url(#p846f8ddeae)" d="M 146.18984 240.872727 
L 146.18984 302.645455 
L 152.406417 240.872727 
L 155.514706 228.518182 
L 156.550802 216.163636 
L 162.76738 203.809091 
L 162.76738 191.454545 
L 162.76738 191.454545 
L 156.550802 203.809091 
L 155.514706 216.163636 
L 152.406417 228.518182 
L 146.18984 240.872727 
z
" style="fill:#dd8452;fill-opacity:0.2;stroke:#dd8452;stroke-opacity:0.2;"/>
    <path clip-path="url(#p846f8ddeae)" d="M 178.308824 179.1 
L 178.308824 191.454545 
L 178.308824 179.1 
L 178.308824 179.1 
z
" style="fill:#dd8452;fill-opacity:0.2;stroke:#dd8452;stroke-opacity:0.2;"/>
    <path clip-path="url(#p846f8ddeae)" d="M 206.283422 166.745455 
L 206.283422 179.1 
L 207.319519 166.745455 
L 218.716578 154.390909 
L 218.716578 142.036364 
L 218.716578 142.036364 
L 207.319519 154.390909 
L 206.283422 166.745455 
z
" style="fill:#dd8452;fill-opacity:0.2;stroke:#dd8452;stroke-opacity:0.2;"/>
    <path clip-path="url(#p846f8ddeae)" d="M 230.113636 129.681818 
L 230.113636 142.036364 
L 230.113636 129.681818 
L 230.113636 129.681818 
z
" style="fill:#dd8452;fill-opacity:0.2;stroke:#dd8452;stroke-opacity:0.2;"/>
    <path clip-path="url(#p846f8ddeae)" d="M 323.362299 92.618182 
L 323.362299 104.972727 
L 323.362299 92.618182 
L 323.362299 92.618182 
z
" style="fill:#dd8452;fill-opacity:0.2;stroke:#dd8452;stroke-opacity:0.2;"/>
    <path clip-path="url(#p846f8ddeae)" d="M 349.264706 80.263636 
L 349.264706 92.618182 
L 349.264706 80.263636 
L 349.264706 80.263636 
z
" style="fill:#dd8452;fill-opacity:0.2;stroke:#dd8452;stroke-opacity:0.2;"/>
   </g>
   <g id="line2d_1">
    <path clip-path="url(#p846f8ddeae)" d="M 146.18984 299.556818 
L 146.641043 288.746591 
L 148.445856 277.936364 
L 150.701872 271.759091 
L 151.604278 267.126136 
L 153.860294 262.493182 
L 154.762701 253.227273 
L 155.665107 243.961364 
L 156.11631 236.239773 
L 158.823529 230.0625 
L 159.274733 226.973864 
L 159.725936 222.340909 
L 161.079545 215.134091 
L 165.140374 208.442045 
L 166.042781 203.809091 
L 166.493984 192.998864 
L 167.39639 183.732955 
L 172.359626 180.644318 
L 173.262032 173.952273 
L 175.518048 168.289773 
L 175.969251 163.656818 
L 177.774064 159.023864 
L 180.481283 157.479545 
L 181.38369 157.479545 
L 182.286096 155.935227 
L 184.993316 151.302273 
L 186.346925 146.669318 
L 187.249332 145.125 
L 189.054144 143.580682 
L 194.01738 140.492045 
L 195.822193 137.403409 
L 196.273396 134.314773 
L 198.529412 131.226136 
L 201.236631 129.681818 
L 202.139037 129.681818 
L 202.590241 129.681818 
L 203.492647 129.681818 
L 218.833556 129.681818 
L 219.735963 129.681818 
L 222.443182 128.1375 
L 223.345588 116.297727 
L 226.955214 104.972727 
L 231.467246 100.339773 
L 234.174465 97.251136 
L 235.076872 90.559091 
L 237.784091 84.896591 
L 238.686497 83.352273 
L 239.588904 83.352273 
L 240.49131 83.352273 
L 241.84492 83.352273 
L 242.747326 83.352273 
L 260.795455 81.807955 
L 261.697861 80.263636 
L 262.600267 80.263636 
L 284.709225 80.263636 
L 285.611631 80.263636 
L 287.416444 78.719318 
L 289.67246 77.175 
L 290.574866 77.175 
L 293.733289 75.630682 
L 296.440508 74.086364 
L 297.342914 74.086364 
L 302.30615 74.086364 
L 303.208556 74.086364 
L 307.269385 72.542045 
L 312.23262 70.997727 
L 313.135027 70.997727 
L 314.488636 69.453409 
L 314.93984 67.909091 
L 315.842246 67.909091 
L 317.647059 67.909091 
L 318.549465 67.909091 
L 323.061497 66.364773 
L 329.378342 63.276136 
L 335.695187 61.731818 
L 336.597594 61.731818 
L 345.621658 61.731818 
L 346.524064 61.731818 
L 348.78008 60.1875 
L 353.292112 58.643182 
L 354.194519 58.643182 
L 356.450535 57.098864 
L 362.316176 55.554545 
L 363.218583 55.554545 
L 365.023396 55.554545 
L 366.828209 55.554545 
L 367.279412 55.554545 
L 368.181818 55.554545 
L 369.986631 55.554545 
" style="fill:none;stroke:#4c72b0;stroke-linecap:round;stroke-width:4;"/>
   </g>
   <g id="line2d_2">
    <path clip-path="url(#p846f8ddeae)" d="M 146.18984 277.936364 
L 152.406417 234.695455 
L 155.514706 222.340909 
L 156.550802 209.986364 
L 162.76738 197.631818 
L 166.911765 191.454545 
L 168.983957 191.454545 
L 170.020053 191.454545 
L 175.200535 191.454545 
L 178.308824 185.277273 
L 180.381016 179.1 
L 188.669786 179.1 
L 194.886364 179.1 
L 196.958556 179.1 
L 205.247326 179.1 
L 206.283422 172.922727 
L 207.319519 160.568182 
L 218.716578 148.213636 
L 223.897059 142.036364 
L 230.113636 135.859091 
L 232.185829 129.681818 
L 239.438503 129.681818 
L 245.65508 129.681818 
L 254.979947 129.681818 
L 261.196524 129.681818 
L 262.23262 129.681818 
L 268.449198 129.681818 
L 290.207219 129.681818 
L 295.387701 129.681818 
L 303.676471 129.681818 
L 304.712567 129.681818 
L 310.929144 117.327273 
L 316.109626 104.972727 
L 323.362299 98.795455 
L 325.434492 92.618182 
L 335.795455 92.618182 
L 342.012032 92.618182 
L 349.264706 86.440909 
L 354.445187 67.909091 
L 362.733957 67.909091 
L 369.986631 55.554545 
" style="fill:none;stroke:#dd8452;stroke-linecap:round;stroke-width:4;"/>
   </g>
   <g id="patch_3">
    <path d="M 135 315 
L 135 43.2 
" style="fill:none;stroke:#cccccc;stroke-linecap:square;stroke-linejoin:miter;stroke-width:1.25;"/>
   </g>
   <g id="patch_4">
    <path d="M 381.176471 315 
L 381.176471 43.2 
" style="fill:none;stroke:#cccccc;stroke-linecap:square;stroke-linejoin:miter;stroke-width:1.25;"/>
   </g>
   <g id="patch_5">
    <path d="M 135 315 
L 381.176471 315 
" style="fill:none;stroke:#cccccc;stroke-linecap:square;stroke-linejoin:miter;stroke-width:1.25;"/>
   </g>
   <g id="patch_6">
    <path d="M 135 43.2 
L 381.176471 43.2 
" style="fill:none;stroke:#cccccc;stroke-linecap:square;stroke-linejoin:miter;stroke-width:1.25;"/>
   </g>
   <g id="text_15">
    <!-- Distant relapse -->
    <g style="fill:#262626;" transform="translate(211.722298 37.2)scale(0.12 -0.12)">
     <defs>
      <path d="M 24.703125 5.171875 
L 33.796875 5.171875 
Q 48 5.171875 55.59375 13.28125 
Q 63.1875 21.390625 63.1875 36.53125 
Q 63.1875 51.65625 55.609375 59.65625 
Q 48.046875 67.671875 33.796875 67.671875 
L 24.703125 67.671875 
z
M 5.515625 0 
L 5.515625 5.171875 
L 14.796875 5.171875 
L 14.796875 67.671875 
L 5.515625 67.671875 
L 5.515625 72.90625 
L 34.515625 72.90625 
Q 53.375 72.90625 63.890625 63.28125 
Q 74.421875 53.65625 74.421875 36.53125 
Q 74.421875 19.34375 63.875 9.671875 
Q 53.328125 0 34.515625 0 
z
" id="DejaVuSerif-68"/>
      <path d="M 4.109375 0 
L 4.109375 5.171875 
L 12.203125 5.171875 
L 12.203125 46.6875 
L 3.609375 46.6875 
L 3.609375 51.90625 
L 21.1875 51.90625 
L 21.1875 42.671875 
Q 23.6875 47.953125 27.65625 50.640625 
Q 31.640625 53.328125 36.921875 53.328125 
Q 45.515625 53.328125 49.5625 48.390625 
Q 53.609375 43.453125 53.609375 33.015625 
L 53.609375 5.171875 
L 61.625 5.171875 
L 61.625 0 
L 36.8125 0 
L 36.8125 5.171875 
L 44.578125 5.171875 
L 44.578125 30.171875 
Q 44.578125 39.703125 42.234375 43.234375 
Q 39.890625 46.78125 33.984375 46.78125 
Q 27.734375 46.78125 24.453125 42.203125 
Q 21.1875 37.640625 21.1875 28.90625 
L 21.1875 5.171875 
L 29 5.171875 
L 29 0 
z
" id="DejaVuSerif-110"/>
     </defs>
     <use xlink:href="#DejaVuSerif-68"/>
     <use x="80.175781" xlink:href="#DejaVuSerif-105"/>
     <use x="112.158203" xlink:href="#DejaVuSerif-115"/>
     <use x="163.476562" xlink:href="#DejaVuSerif-116"/>
     <use x="203.662109" xlink:href="#DejaVuSerif-97"/>
     <use x="263.28125" xlink:href="#DejaVuSerif-110"/>
     <use x="327.685547" xlink:href="#DejaVuSerif-116"/>
     <use x="367.871094" xlink:href="#DejaVuSerif-32"/>
     <use x="399.658203" xlink:href="#DejaVuSerif-114"/>
     <use x="447.460938" xlink:href="#DejaVuSerif-101"/>
     <use x="506.640625" xlink:href="#DejaVuSerif-108"/>
     <use x="538.623047" xlink:href="#DejaVuSerif-97"/>
     <use x="598.242188" xlink:href="#DejaVuSerif-112"/>
     <use x="662.255859" xlink:href="#DejaVuSerif-115"/>
     <use x="713.574219" xlink:href="#DejaVuSerif-101"/>
    </g>
   </g>
   <g id="legend_1">
    <g id="patch_7">
     <path d="M 202.885377 309.5 
L 373.476471 309.5 
Q 375.676471 309.5 375.676471 307.3 
L 375.676471 276.108125 
Q 375.676471 273.908125 373.476471 273.908125 
L 202.885377 273.908125 
Q 200.685377 273.908125 200.685377 276.108125 
L 200.685377 307.3 
Q 200.685377 309.5 202.885377 309.5 
z
" style="fill:#ffffff;opacity:0.8;stroke:#cccccc;stroke-linejoin:miter;"/>
    </g>
    <g id="line2d_3">
     <path d="M 205.085377 282.816406 
L 227.085377 282.816406 
" style="fill:none;stroke:#4c72b0;stroke-linecap:round;stroke-width:4;"/>
    </g>
    <g id="line2d_4"/>
    <g id="text_16">
     <!-- Treated, AUC: 0.7899 -->
     <g style="fill:#262626;" transform="translate(235.885377 286.666406)scale(0.11 -0.11)">
      <defs>
       <path d="M 52.484375 5.171875 
L 61.078125 5.171875 
L 61.078125 0 
L 43.5 0 
L 43.5 8.109375 
Q 40.875 3.21875 36.796875 0.890625 
Q 32.71875 -1.421875 26.703125 -1.421875 
Q 17.140625 -1.421875 11.0625 6.171875 
Q 4.984375 13.765625 4.984375 25.984375 
Q 4.984375 38.1875 11.03125 45.75 
Q 17.09375 53.328125 26.703125 53.328125 
Q 32.71875 53.328125 36.796875 51 
Q 40.875 48.6875 43.5 43.796875 
L 43.5 70.796875 
L 35.015625 70.796875 
L 35.015625 75.984375 
L 52.484375 75.984375 
z
M 43.5 23.390625 
L 43.5 28.515625 
Q 43.5 37.84375 39.90625 42.765625 
Q 36.328125 47.703125 29.5 47.703125 
Q 22.5625 47.703125 19.015625 42.234375 
Q 15.484375 36.765625 15.484375 25.984375 
Q 15.484375 15.234375 19.015625 9.71875 
Q 22.5625 4.203125 29.5 4.203125 
Q 36.328125 4.203125 39.90625 9.109375 
Q 43.5 14.015625 43.5 23.390625 
z
" id="DejaVuSerif-100"/>
       <path d="M 3.609375 -9.71875 
Q 8.203125 -6.34375 10.34375 -1.78125 
Q 12.5 2.78125 12.5 9.28125 
L 12.5 11.078125 
L 22.125 11.078125 
Q 21.734375 2.734375 18.1875 -3.25 
Q 14.65625 -9.234375 7.515625 -13.625 
z
" id="DejaVuSerif-44"/>
       <path d="M 20.015625 26.421875 
L 46.78125 26.421875 
L 33.40625 61.078125 
z
M -0.59375 0 
L -0.59375 5.171875 
L 5.8125 5.171875 
L 31.78125 72.90625 
L 39.984375 72.90625 
L 66.015625 5.171875 
L 73.1875 5.171875 
L 73.1875 0 
L 46.6875 0 
L 46.6875 5.171875 
L 54.78125 5.171875 
L 48.6875 21.1875 
L 18.015625 21.1875 
L 11.921875 5.171875 
L 19.921875 5.171875 
L 19.921875 0 
z
" id="DejaVuSerif-65"/>
       <path d="M 14.015625 67.671875 
L 4.6875 67.671875 
L 4.6875 72.90625 
L 33.203125 72.90625 
L 33.203125 67.671875 
L 23.875 67.671875 
L 23.875 29.984375 
Q 23.875 16.015625 28.4375 10.5 
Q 33.015625 4.984375 44.1875 4.984375 
Q 55.375 4.984375 59.9375 10.5 
Q 64.5 16.015625 64.5 29.984375 
L 64.5 67.671875 
L 55.171875 67.671875 
L 55.171875 72.90625 
L 79.78125 72.90625 
L 79.78125 67.671875 
L 70.515625 67.671875 
L 70.515625 29 
Q 70.515625 12.359375 64.109375 5.46875 
Q 57.71875 -1.421875 42.390625 -1.421875 
Q 27.046875 -1.421875 20.53125 5.515625 
Q 14.015625 12.453125 14.015625 29 
z
" id="DejaVuSerif-85"/>
       <path d="M 70.515625 19.28125 
Q 67.28125 9.078125 59.6875 3.828125 
Q 52.09375 -1.421875 40.484375 -1.421875 
Q 33.34375 -1.421875 27.234375 1.015625 
Q 21.140625 3.46875 16.40625 8.203125 
Q 10.9375 13.671875 8.265625 20.625 
Q 5.609375 27.59375 5.609375 36.375 
Q 5.609375 53.375 15.421875 63.796875 
Q 25.25 74.21875 41.3125 74.21875 
Q 47.265625 74.21875 54 72.65625 
Q 60.75 71.09375 68.5 67.921875 
L 68.5 51.125 
L 62.984375 51.125 
Q 61.1875 60.296875 55.734375 64.640625 
Q 50.296875 69 40.484375 69 
Q 28.8125 69 22.796875 60.71875 
Q 16.796875 52.4375 16.796875 36.375 
Q 16.796875 20.359375 22.796875 12.078125 
Q 28.8125 3.8125 40.484375 3.8125 
Q 48.640625 3.8125 53.90625 7.6875 
Q 59.1875 11.578125 61.53125 19.28125 
z
" id="DejaVuSerif-67"/>
       <path d="M 10.40625 5.078125 
Q 10.40625 7.8125 12.28125 9.71875 
Q 14.15625 11.625 16.890625 11.625 
Q 19.625 11.625 21.5 9.71875 
Q 23.390625 7.8125 23.390625 5.078125 
Q 23.390625 2.34375 21.53125 0.453125 
Q 19.671875 -1.421875 16.890625 -1.421875 
Q 14.109375 -1.421875 12.25 0.453125 
Q 10.40625 2.34375 10.40625 5.078125 
z
M 10.40625 36.921875 
Q 10.40625 39.65625 12.28125 41.53125 
Q 14.15625 43.40625 16.890625 43.40625 
Q 19.671875 43.40625 21.53125 41.546875 
Q 23.390625 39.703125 23.390625 36.921875 
Q 23.390625 34.125 21.53125 32.265625 
Q 19.671875 30.421875 16.890625 30.421875 
Q 14.15625 30.421875 12.28125 32.296875 
Q 10.40625 34.1875 10.40625 36.921875 
z
" id="DejaVuSerif-58"/>
       <path d="M 56.390625 67.921875 
L 27.875 0 
L 20.609375 0 
L 47.796875 64.890625 
L 14.109375 64.890625 
L 14.109375 55.90625 
L 8.40625 55.90625 
L 8.40625 72.90625 
L 56.390625 72.90625 
z
" id="DejaVuSerif-55"/>
       <path d="M 46.78125 32.671875 
Q 43.5 29 39.25 27.1875 
Q 35.015625 25.390625 29.6875 25.390625 
Q 18.84375 25.390625 12.5625 31.9375 
Q 6.296875 38.484375 6.296875 49.8125 
Q 6.296875 60.890625 13.109375 67.546875 
Q 19.921875 74.21875 31.296875 74.21875 
Q 43.65625 74.21875 50.265625 65.015625 
Q 56.890625 55.8125 56.890625 38.71875 
Q 56.890625 19.578125 49.015625 9.078125 
Q 41.15625 -1.421875 26.90625 -1.421875 
Q 23.046875 -1.421875 18.796875 -0.6875 
Q 14.546875 0.046875 10.109375 1.515625 
L 10.109375 13.625 
L 15.578125 13.625 
Q 16.21875 8.6875 19.390625 6.046875 
Q 22.5625 3.421875 27.875 3.421875 
Q 37.359375 3.421875 41.984375 10.5625 
Q 46.625 17.71875 46.78125 32.671875 
z
M 30.90625 69.390625 
Q 23.96875 69.390625 20.28125 64.328125 
Q 16.609375 59.28125 16.609375 49.8125 
Q 16.609375 40.328125 20.28125 35.25 
Q 23.96875 30.171875 30.90625 30.171875 
Q 37.84375 30.171875 41.53125 35.078125 
Q 45.21875 39.984375 45.21875 49.21875 
Q 45.21875 58.9375 41.5 64.15625 
Q 37.796875 69.390625 30.90625 69.390625 
z
" id="DejaVuSerif-57"/>
      </defs>
      <use xlink:href="#DejaVuSerif-84"/>
      <use x="66.699219" xlink:href="#DejaVuSerif-114"/>
      <use x="114.501953" xlink:href="#DejaVuSerif-101"/>
      <use x="173.681641" xlink:href="#DejaVuSerif-97"/>
      <use x="233.300781" xlink:href="#DejaVuSerif-116"/>
      <use x="273.486328" xlink:href="#DejaVuSerif-101"/>
      <use x="332.666016" xlink:href="#DejaVuSerif-100"/>
      <use x="396.679688" xlink:href="#DejaVuSerif-44"/>
      <use x="428.466797" xlink:href="#DejaVuSerif-32"/>
      <use x="460.253906" xlink:href="#DejaVuSerif-65"/>
      <use x="532.470703" xlink:href="#DejaVuSerif-85"/>
      <use x="616.748047" xlink:href="#DejaVuSerif-67"/>
      <use x="693.261719" xlink:href="#DejaVuSerif-58"/>
      <use x="726.953125" xlink:href="#DejaVuSerif-32"/>
      <use x="758.740234" xlink:href="#DejaVuSerif-48"/>
      <use x="822.363281" xlink:href="#DejaVuSerif-46"/>
      <use x="854.150391" xlink:href="#DejaVuSerif-55"/>
      <use x="917.773438" xlink:href="#DejaVuSerif-56"/>
      <use x="981.396484" xlink:href="#DejaVuSerif-57"/>
      <use x="1045.019531" xlink:href="#DejaVuSerif-57"/>
     </g>
    </g>
    <g id="line2d_5">
     <path d="M 205.085377 298.962344 
L 227.085377 298.962344 
" style="fill:none;stroke:#dd8452;stroke-linecap:round;stroke-width:4;"/>
    </g>
    <g id="line2d_6"/>
    <g id="text_17">
     <!-- Untreated, AUC: 0.6677 -->
     <g style="fill:#262626;" transform="translate(235.885377 302.812344)scale(0.11 -0.11)">
      <use xlink:href="#DejaVuSerif-85"/>
      <use x="84.277344" xlink:href="#DejaVuSerif-110"/>
      <use x="148.681641" xlink:href="#DejaVuSerif-116"/>
      <use x="188.867188" xlink:href="#DejaVuSerif-114"/>
      <use x="236.669922" xlink:href="#DejaVuSerif-101"/>
      <use x="295.849609" xlink:href="#DejaVuSerif-97"/>
      <use x="355.46875" xlink:href="#DejaVuSerif-116"/>
      <use x="395.654297" xlink:href="#DejaVuSerif-101"/>
      <use x="454.833984" xlink:href="#DejaVuSerif-100"/>
      <use x="518.847656" xlink:href="#DejaVuSerif-44"/>
      <use x="550.634766" xlink:href="#DejaVuSerif-32"/>
      <use x="582.421875" xlink:href="#DejaVuSerif-65"/>
      <use x="654.638672" xlink:href="#DejaVuSerif-85"/>
      <use x="738.916016" xlink:href="#DejaVuSerif-67"/>
      <use x="815.429688" xlink:href="#DejaVuSerif-58"/>
      <use x="849.121094" xlink:href="#DejaVuSerif-32"/>
      <use x="880.908203" xlink:href="#DejaVuSerif-48"/>
      <use x="944.53125" xlink:href="#DejaVuSerif-46"/>
      <use x="976.318359" xlink:href="#DejaVuSerif-54"/>
      <use x="1039.941406" xlink:href="#DejaVuSerif-54"/>
      <use x="1103.564453" xlink:href="#DejaVuSerif-55"/>
      <use x="1167.1875" xlink:href="#DejaVuSerif-55"/>
     </g>
    </g>
   </g>
  </g>
  <g id="axes_2">
   <g id="patch_8">
    <path d="M 430.411765 315 
L 676.588235 315 
L 676.588235 43.2 
L 430.411765 43.2 
z
" style="fill:#ffffff;"/>
   </g>
   <g id="matplotlib.axis_3">
    <g id="xtick_7">
     <g id="text_18">
      <!-- 0.0 -->
      <g style="fill:#262626;" transform="translate(432.854886 332.858281)scale(0.11 -0.11)">
       <use xlink:href="#DejaVuSerif-48"/>
       <use x="63.623047" xlink:href="#DejaVuSerif-46"/>
       <use x="95.410156" xlink:href="#DejaVuSerif-48"/>
      </g>
     </g>
    </g>
    <g id="xtick_8">
     <g id="text_19">
      <!-- 0.2 -->
      <g style="fill:#262626;" transform="translate(477.614244 332.858281)scale(0.11 -0.11)">
       <use xlink:href="#DejaVuSerif-48"/>
       <use x="63.623047" xlink:href="#DejaVuSerif-46"/>
       <use x="95.410156" xlink:href="#DejaVuSerif-50"/>
      </g>
     </g>
    </g>
    <g id="xtick_9">
     <g id="text_20">
      <!-- 0.4 -->
      <g style="fill:#262626;" transform="translate(522.373602 332.858281)scale(0.11 -0.11)">
       <use xlink:href="#DejaVuSerif-48"/>
       <use x="63.623047" xlink:href="#DejaVuSerif-46"/>
       <use x="95.410156" xlink:href="#DejaVuSerif-52"/>
      </g>
     </g>
    </g>
    <g id="xtick_10">
     <g id="text_21">
      <!-- 0.6 -->
      <g style="fill:#262626;" transform="translate(567.13296 332.858281)scale(0.11 -0.11)">
       <use xlink:href="#DejaVuSerif-48"/>
       <use x="63.623047" xlink:href="#DejaVuSerif-46"/>
       <use x="95.410156" xlink:href="#DejaVuSerif-54"/>
      </g>
     </g>
    </g>
    <g id="xtick_11">
     <g id="text_22">
      <!-- 0.8 -->
      <g style="fill:#262626;" transform="translate(611.892319 332.858281)scale(0.11 -0.11)">
       <use xlink:href="#DejaVuSerif-48"/>
       <use x="63.623047" xlink:href="#DejaVuSerif-46"/>
       <use x="95.410156" xlink:href="#DejaVuSerif-56"/>
      </g>
     </g>
    </g>
    <g id="xtick_12">
     <g id="text_23">
      <!-- 1.0 -->
      <g style="fill:#262626;" transform="translate(656.651677 332.858281)scale(0.11 -0.11)">
       <use xlink:href="#DejaVuSerif-49"/>
       <use x="63.623047" xlink:href="#DejaVuSerif-46"/>
       <use x="95.410156" xlink:href="#DejaVuSerif-48"/>
      </g>
     </g>
    </g>
    <g id="text_24">
     <!-- False positive rate -->
     <g style="fill:#262626;" transform="translate(497.670937 348.264063)scale(0.12 -0.12)">
      <use xlink:href="#DejaVuSerif-70"/>
      <use x="62.634766" xlink:href="#DejaVuSerif-97"/>
      <use x="122.253906" xlink:href="#DejaVuSerif-108"/>
      <use x="154.236328" xlink:href="#DejaVuSerif-115"/>
      <use x="205.554688" xlink:href="#DejaVuSerif-101"/>
      <use x="264.734375" xlink:href="#DejaVuSerif-32"/>
      <use x="296.521484" xlink:href="#DejaVuSerif-112"/>
      <use x="360.535156" xlink:href="#DejaVuSerif-111"/>
      <use x="420.740234" xlink:href="#DejaVuSerif-115"/>
      <use x="472.058594" xlink:href="#DejaVuSerif-105"/>
      <use x="504.041016" xlink:href="#DejaVuSerif-116"/>
      <use x="544.226562" xlink:href="#DejaVuSerif-105"/>
      <use x="576.208984" xlink:href="#DejaVuSerif-118"/>
      <use x="632.703125" xlink:href="#DejaVuSerif-101"/>
      <use x="691.882812" xlink:href="#DejaVuSerif-32"/>
      <use x="723.669922" xlink:href="#DejaVuSerif-114"/>
      <use x="771.472656" xlink:href="#DejaVuSerif-97"/>
      <use x="831.091797" xlink:href="#DejaVuSerif-116"/>
      <use x="871.277344" xlink:href="#DejaVuSerif-101"/>
     </g>
    </g>
   </g>
   <g id="matplotlib.axis_4">
    <g id="ytick_7">
     <g id="text_25">
      <!-- 0.0 -->
      <g style="fill:#262626;" transform="translate(403.418327 306.824595)scale(0.11 -0.11)">
       <use xlink:href="#DejaVuSerif-48"/>
       <use x="63.623047" xlink:href="#DejaVuSerif-46"/>
       <use x="95.410156" xlink:href="#DejaVuSerif-48"/>
      </g>
     </g>
    </g>
    <g id="ytick_8">
     <g id="text_26">
      <!-- 0.2 -->
      <g style="fill:#262626;" transform="translate(403.418327 257.406413)scale(0.11 -0.11)">
       <use xlink:href="#DejaVuSerif-48"/>
       <use x="63.623047" xlink:href="#DejaVuSerif-46"/>
       <use x="95.410156" xlink:href="#DejaVuSerif-50"/>
      </g>
     </g>
    </g>
    <g id="ytick_9">
     <g id="text_27">
      <!-- 0.4 -->
      <g style="fill:#262626;" transform="translate(403.418327 207.988232)scale(0.11 -0.11)">
       <use xlink:href="#DejaVuSerif-48"/>
       <use x="63.623047" xlink:href="#DejaVuSerif-46"/>
       <use x="95.410156" xlink:href="#DejaVuSerif-52"/>
      </g>
     </g>
    </g>
    <g id="ytick_10">
     <g id="text_28">
      <!-- 0.6 -->
      <g style="fill:#262626;" transform="translate(403.418327 158.57005)scale(0.11 -0.11)">
       <use xlink:href="#DejaVuSerif-48"/>
       <use x="63.623047" xlink:href="#DejaVuSerif-46"/>
       <use x="95.410156" xlink:href="#DejaVuSerif-54"/>
      </g>
     </g>
    </g>
    <g id="ytick_11">
     <g id="text_29">
      <!-- 0.8 -->
      <g style="fill:#262626;" transform="translate(403.418327 109.151868)scale(0.11 -0.11)">
       <use xlink:href="#DejaVuSerif-48"/>
       <use x="63.623047" xlink:href="#DejaVuSerif-46"/>
       <use x="95.410156" xlink:href="#DejaVuSerif-56"/>
      </g>
     </g>
    </g>
    <g id="ytick_12">
     <g id="text_30">
      <!-- 1.0 -->
      <g style="fill:#262626;" transform="translate(403.418327 59.733686)scale(0.11 -0.11)">
       <use xlink:href="#DejaVuSerif-49"/>
       <use x="63.623047" xlink:href="#DejaVuSerif-46"/>
       <use x="95.410156" xlink:href="#DejaVuSerif-48"/>
      </g>
     </g>
    </g>
   </g>
   <g id="PolyCollection_3">
    <path clip-path="url(#pd067ad7836)" d="M 442.406629 290.290909 
L 442.406629 302.645455 
L 446.029239 290.290909 
L 446.834263 277.936364 
L 450.054361 253.227273 
L 451.261897 240.872727 
L 451.66441 228.518182 
L 451.66441 216.163636 
L 451.66441 216.163636 
L 451.261897 228.518182 
L 450.054361 240.872727 
L 446.834263 253.227273 
L 446.029239 277.936364 
L 442.406629 290.290909 
z
" style="fill:#4c72b0;fill-opacity:0.2;stroke:#4c72b0;stroke-opacity:0.2;"/>
    <path clip-path="url(#pd067ad7836)" d="M 461.727215 203.809091 
L 461.727215 216.163636 
L 462.934752 203.809091 
L 462.934752 191.454545 
L 462.934752 191.454545 
L 461.727215 203.809091 
z
" style="fill:#4c72b0;fill-opacity:0.2;stroke:#4c72b0;stroke-opacity:0.2;"/>
    <path clip-path="url(#pd067ad7836)" d="M 466.154849 166.745455 
L 466.154849 191.454545 
L 471.79002 166.745455 
L 472.595045 154.390909 
L 474.607606 142.036364 
L 474.607606 129.681818 
L 474.607606 129.681818 
L 472.595045 142.036364 
L 471.79002 154.390909 
L 466.154849 166.745455 
z
" style="fill:#4c72b0;fill-opacity:0.2;stroke:#4c72b0;stroke-opacity:0.2;"/>
    <path clip-path="url(#pd067ad7836)" d="M 483.462875 117.327273 
L 483.462875 129.681818 
L 483.462875 117.327273 
L 483.462875 117.327273 
z
" style="fill:#4c72b0;fill-opacity:0.2;stroke:#4c72b0;stroke-opacity:0.2;"/>
    <path clip-path="url(#pd067ad7836)" d="M 523.714096 104.972727 
L 523.714096 117.327273 
L 523.714096 104.972727 
L 523.714096 104.972727 
z
" style="fill:#4c72b0;fill-opacity:0.2;stroke:#4c72b0;stroke-opacity:0.2;"/>
    <path clip-path="url(#pd067ad7836)" d="M 579.260782 92.618182 
L 579.260782 104.972727 
L 586.506002 92.618182 
L 590.531124 80.263636 
L 590.531124 67.909091 
L 590.531124 67.909091 
L 586.506002 80.263636 
L 579.260782 92.618182 
z
" style="fill:#4c72b0;fill-opacity:0.2;stroke:#4c72b0;stroke-opacity:0.2;"/>
    <path clip-path="url(#pd067ad7836)" d="M 626.757223 55.554545 
L 626.757223 67.909091 
L 626.757223 55.554545 
L 626.757223 55.554545 
z
" style="fill:#4c72b0;fill-opacity:0.2;stroke:#4c72b0;stroke-opacity:0.2;"/>
   </g>
   <g id="PolyCollection_4">
    <path clip-path="url(#pd067ad7836)" d="M 442.720588 295.781818 
L 442.720588 302.645455 
L 449.434492 295.781818 
L 455.029412 288.918182 
L 456.148396 275.190909 
L 459.505348 268.327273 
L 460.624332 261.463636 
L 463.981283 254.6 
L 466.219251 247.736364 
L 467.338235 240.872727 
L 468.457219 220.281818 
L 470.695187 206.554545 
L 472.933155 192.827273 
L 484.122995 185.963636 
L 486.360963 165.372727 
L 486.360963 151.645455 
L 486.360963 151.645455 
L 484.122995 165.372727 
L 472.933155 185.963636 
L 470.695187 192.827273 
L 468.457219 206.554545 
L 467.338235 220.281818 
L 466.219251 240.872727 
L 463.981283 247.736364 
L 460.624332 254.6 
L 459.505348 261.463636 
L 456.148396 268.327273 
L 455.029412 275.190909 
L 449.434492 288.918182 
L 442.720588 295.781818 
z
" style="fill:#dd8452;fill-opacity:0.2;stroke:#dd8452;stroke-opacity:0.2;"/>
    <path clip-path="url(#pd067ad7836)" d="M 496.431818 144.781818 
L 496.431818 151.645455 
L 498.669786 144.781818 
L 502.026738 137.918182 
L 508.740642 131.054545 
L 525.525401 124.190909 
L 532.239305 117.327273 
L 532.239305 103.6 
L 532.239305 103.6 
L 525.525401 117.327273 
L 508.740642 124.190909 
L 502.026738 131.054545 
L 498.669786 137.918182 
L 496.431818 144.781818 
z
" style="fill:#dd8452;fill-opacity:0.2;stroke:#dd8452;stroke-opacity:0.2;"/>
    <path clip-path="url(#pd067ad7836)" d="M 546.786096 96.736364 
L 546.786096 103.6 
L 547.90508 96.736364 
L 554.618984 89.872727 
L 557.975936 83.009091 
L 557.975936 76.145455 
L 557.975936 76.145455 
L 554.618984 83.009091 
L 547.90508 89.872727 
L 546.786096 96.736364 
z
" style="fill:#dd8452;fill-opacity:0.2;stroke:#dd8452;stroke-opacity:0.2;"/>
    <path clip-path="url(#pd067ad7836)" d="M 569.165775 69.281818 
L 569.165775 76.145455 
L 569.165775 69.281818 
L 569.165775 69.281818 
z
" style="fill:#dd8452;fill-opacity:0.2;stroke:#dd8452;stroke-opacity:0.2;"/>
    <path clip-path="url(#pd067ad7836)" d="M 599.378342 62.418182 
L 599.378342 69.281818 
L 599.378342 62.418182 
L 599.378342 62.418182 
z
" style="fill:#dd8452;fill-opacity:0.2;stroke:#dd8452;stroke-opacity:0.2;"/>
    <path clip-path="url(#pd067ad7836)" d="M 656.446524 55.554545 
L 656.446524 62.418182 
L 656.446524 55.554545 
L 656.446524 55.554545 
z
" style="fill:#dd8452;fill-opacity:0.2;stroke:#dd8452;stroke-opacity:0.2;"/>
   </g>
   <g id="line2d_7">
    <path clip-path="url(#pd067ad7836)" d="M 441.601604 302.645455 
L 442.004116 302.645455 
L 442.406629 296.468182 
L 446.029239 284.113636 
L 446.834263 265.581818 
L 450.054361 247.05 
L 451.261897 234.695455 
L 451.66441 222.340909 
L 452.469434 216.163636 
L 453.274459 216.163636 
L 461.727215 209.986364 
L 462.934752 197.631818 
L 464.142288 191.454545 
L 464.947313 191.454545 
L 465.349825 191.454545 
L 466.154849 179.1 
L 471.79002 160.568182 
L 472.595045 148.213636 
L 474.607606 135.859091 
L 477.022679 129.681818 
L 477.827704 129.681818 
L 483.462875 123.504545 
L 483.865387 117.327273 
L 484.670411 117.327273 
L 488.293021 117.327273 
L 489.098046 117.327273 
L 498.758339 117.327273 
L 499.563363 117.327273 
L 501.173412 117.327273 
L 501.978437 117.327273 
L 508.01612 117.327273 
L 508.821144 117.327273 
L 511.236217 117.327273 
L 512.041242 117.327273 
L 512.846266 117.327273 
L 514.456315 117.327273 
L 520.896511 117.327273 
L 521.701535 117.327273 
L 523.714096 111.15 
L 524.519121 104.972727 
L 525.324145 104.972727 
L 532.971877 104.972727 
L 533.776901 104.972727 
L 547.059805 104.972727 
L 547.864829 104.972727 
L 579.260782 98.795455 
L 586.506002 86.440909 
L 590.531124 74.086364 
L 593.348709 67.909091 
L 594.153734 67.909091 
L 594.958758 67.909091 
L 595.763783 67.909091 
L 622.329589 67.909091 
L 623.134613 67.909091 
L 626.757223 61.731818 
L 633.197419 55.554545 
L 634.002443 55.554545 
L 635.612492 55.554545 
L 636.417516 55.554545 
L 644.870273 55.554545 
L 645.675297 55.554545 
L 649.700419 55.554545 
L 650.505444 55.554545 
L 665.398396 55.554545 
" style="fill:none;stroke:#4c72b0;stroke-linecap:round;stroke-width:4;"/>
   </g>
   <g id="line2d_8">
    <path clip-path="url(#pd067ad7836)" d="M 441.601604 302.645455 
L 442.720588 299.213636 
L 449.434492 292.35 
L 455.029412 282.054545 
L 456.148396 271.759091 
L 459.505348 264.895455 
L 460.624332 258.031818 
L 463.981283 251.168182 
L 466.219251 244.304545 
L 467.338235 230.577273 
L 468.457219 213.418182 
L 470.695187 199.690909 
L 472.933155 189.395455 
L 484.122995 175.668182 
L 486.360963 158.509091 
L 493.074866 151.645455 
L 495.312834 151.645455 
L 496.431818 148.213636 
L 498.669786 141.35 
L 502.026738 134.486364 
L 508.740642 127.622727 
L 525.525401 120.759091 
L 532.239305 110.463636 
L 542.31016 103.6 
L 544.548128 103.6 
L 546.786096 100.168182 
L 547.90508 93.304545 
L 554.618984 86.440909 
L 557.975936 79.577273 
L 559.09492 76.145455 
L 561.332888 76.145455 
L 569.165775 72.713636 
L 575.879679 69.281818 
L 578.117647 69.281818 
L 599.378342 65.85 
L 617.282086 62.418182 
L 619.520053 62.418182 
L 656.446524 58.986364 
L 665.398396 55.554545 
" style="fill:none;stroke:#dd8452;stroke-linecap:round;stroke-width:4;"/>
   </g>
   <g id="patch_9">
    <path d="M 430.411765 315 
L 430.411765 43.2 
" style="fill:none;stroke:#cccccc;stroke-linecap:square;stroke-linejoin:miter;stroke-width:1.25;"/>
   </g>
   <g id="patch_10">
    <path d="M 676.588235 315 
L 676.588235 43.2 
" style="fill:none;stroke:#cccccc;stroke-linecap:square;stroke-linejoin:miter;stroke-width:1.25;"/>
   </g>
   <g id="patch_11">
    <path d="M 430.411765 315 
L 676.588235 315 
" style="fill:none;stroke:#cccccc;stroke-linecap:square;stroke-linejoin:miter;stroke-width:1.25;"/>
   </g>
   <g id="patch_12">
    <path d="M 430.411765 43.2 
L 676.588235 43.2 
" style="fill:none;stroke:#cccccc;stroke-linecap:square;stroke-linejoin:miter;stroke-width:1.25;"/>
   </g>
   <g id="text_31">
    <!-- Local relapse -->
    <g style="fill:#262626;" transform="translate(512.753438 37.2)scale(0.12 -0.12)">
     <defs>
      <path d="M 5.515625 0 
L 5.515625 5.171875 
L 14.796875 5.171875 
L 14.796875 67.671875 
L 5.515625 67.671875 
L 5.515625 72.90625 
L 33.984375 72.90625 
L 33.984375 67.671875 
L 24.703125 67.671875 
L 24.703125 6 
L 58.015625 6 
L 58.015625 18.21875 
L 64.015625 18.21875 
L 64.015625 0 
z
" id="DejaVuSerif-76"/>
      <path d="M 51.421875 15.578125 
Q 49.515625 7.28125 44.09375 2.921875 
Q 38.671875 -1.421875 30.078125 -1.421875 
Q 18.75 -1.421875 11.859375 6.078125 
Q 4.984375 13.578125 4.984375 25.984375 
Q 4.984375 38.421875 11.859375 45.875 
Q 18.75 53.328125 30.078125 53.328125 
Q 35.015625 53.328125 39.890625 52.171875 
Q 44.78125 51.03125 49.703125 48.6875 
L 49.703125 35.40625 
L 44.484375 35.40625 
Q 43.453125 42.234375 40.015625 45.359375 
Q 36.578125 48.484375 30.171875 48.484375 
Q 22.90625 48.484375 19.1875 42.84375 
Q 15.484375 37.203125 15.484375 25.984375 
Q 15.484375 14.75 19.171875 9.078125 
Q 22.859375 3.421875 30.171875 3.421875 
Q 35.984375 3.421875 39.453125 6.4375 
Q 42.921875 9.46875 44.1875 15.578125 
z
" id="DejaVuSerif-99"/>
     </defs>
     <use xlink:href="#DejaVuSerif-76"/>
     <use x="66.40625" xlink:href="#DejaVuSerif-111"/>
     <use x="126.611328" xlink:href="#DejaVuSerif-99"/>
     <use x="182.617188" xlink:href="#DejaVuSerif-97"/>
     <use x="242.236328" xlink:href="#DejaVuSerif-108"/>
     <use x="274.21875" xlink:href="#DejaVuSerif-32"/>
     <use x="306.005859" xlink:href="#DejaVuSerif-114"/>
     <use x="353.808594" xlink:href="#DejaVuSerif-101"/>
     <use x="412.988281" xlink:href="#DejaVuSerif-108"/>
     <use x="444.970703" xlink:href="#DejaVuSerif-97"/>
     <use x="504.589844" xlink:href="#DejaVuSerif-112"/>
     <use x="568.603516" xlink:href="#DejaVuSerif-115"/>
     <use x="619.921875" xlink:href="#DejaVuSerif-101"/>
    </g>
   </g>
   <g id="legend_2">
    <g id="patch_13">
     <path d="M 498.297142 309.5 
L 668.888235 309.5 
Q 671.088235 309.5 671.088235 307.3 
L 671.088235 276.108125 
Q 671.088235 273.908125 668.888235 273.908125 
L 498.297142 273.908125 
Q 496.097142 273.908125 496.097142 276.108125 
L 496.097142 307.3 
Q 496.097142 309.5 498.297142 309.5 
z
" style="fill:#ffffff;opacity:0.8;stroke:#cccccc;stroke-linejoin:miter;"/>
    </g>
    <g id="line2d_9">
     <path d="M 500.497142 282.816406 
L 522.497142 282.816406 
" style="fill:none;stroke:#4c72b0;stroke-linecap:round;stroke-width:4;"/>
    </g>
    <g id="line2d_10"/>
    <g id="text_32">
     <!-- Treated, AUC: 0.7835 -->
     <g style="fill:#262626;" transform="translate(531.297142 286.666406)scale(0.11 -0.11)">
      <defs>
       <path d="M 9.71875 69.828125 
Q 15.4375 71.96875 20.671875 73.09375 
Q 25.921875 74.21875 30.515625 74.21875 
Q 41.21875 74.21875 47.21875 69.59375 
Q 53.21875 64.984375 53.21875 56.78125 
Q 53.21875 50.203125 49.0625 45.78125 
Q 44.921875 41.359375 37.3125 39.796875 
Q 46.296875 38.53125 51.25 33.28125 
Q 56.203125 28.03125 56.203125 19.671875 
Q 56.203125 9.46875 49.34375 4.015625 
Q 42.484375 -1.421875 29.59375 -1.421875 
Q 23.875 -1.421875 18.421875 -0.1875 
Q 12.984375 1.03125 7.625 3.515625 
L 7.625 17.671875 
L 13.09375 17.671875 
Q 13.578125 10.640625 17.828125 7.03125 
Q 22.078125 3.421875 29.78125 3.421875 
Q 37.25 3.421875 41.578125 7.734375 
Q 45.90625 12.0625 45.90625 19.578125 
Q 45.90625 28.171875 41.453125 32.59375 
Q 37.015625 37.015625 28.421875 37.015625 
L 23.78125 37.015625 
L 23.78125 42 
L 26.21875 42 
Q 34.765625 42 39.03125 45.53125 
Q 43.3125 49.078125 43.3125 56.203125 
Q 43.3125 62.59375 39.796875 65.984375 
Q 36.28125 69.390625 29.6875 69.390625 
Q 23.09375 69.390625 19.453125 66.265625 
Q 15.828125 63.140625 15.1875 56.984375 
L 9.71875 56.984375 
z
" id="DejaVuSerif-51"/>
       <path d="M 50.296875 72.90625 
L 50.296875 64.890625 
L 16.890625 64.890625 
L 16.890625 44 
Q 19.4375 45.75 22.828125 46.625 
Q 26.21875 47.515625 30.421875 47.515625 
Q 42.234375 47.515625 49.0625 40.96875 
Q 55.90625 34.421875 55.90625 23.09375 
Q 55.90625 11.53125 49 5.046875 
Q 42.09375 -1.421875 29.59375 -1.421875 
Q 24.5625 -1.421875 19.28125 -0.1875 
Q 14.015625 1.03125 8.5 3.515625 
L 8.5 17.671875 
L 14.015625 17.671875 
Q 14.453125 10.75 18.421875 7.078125 
Q 22.40625 3.421875 29.59375 3.421875 
Q 37.3125 3.421875 41.453125 8.5 
Q 45.609375 13.578125 45.609375 23.09375 
Q 45.609375 32.5625 41.484375 37.609375 
Q 37.359375 42.671875 29.59375 42.671875 
Q 25.203125 42.671875 21.84375 41.109375 
Q 18.5 39.546875 15.921875 36.28125 
L 11.71875 36.28125 
L 11.71875 72.90625 
z
" id="DejaVuSerif-53"/>
      </defs>
      <use xlink:href="#DejaVuSerif-84"/>
      <use x="66.699219" xlink:href="#DejaVuSerif-114"/>
      <use x="114.501953" xlink:href="#DejaVuSerif-101"/>
      <use x="173.681641" xlink:href="#DejaVuSerif-97"/>
      <use x="233.300781" xlink:href="#DejaVuSerif-116"/>
      <use x="273.486328" xlink:href="#DejaVuSerif-101"/>
      <use x="332.666016" xlink:href="#DejaVuSerif-100"/>
      <use x="396.679688" xlink:href="#DejaVuSerif-44"/>
      <use x="428.466797" xlink:href="#DejaVuSerif-32"/>
      <use x="460.253906" xlink:href="#DejaVuSerif-65"/>
      <use x="532.470703" xlink:href="#DejaVuSerif-85"/>
      <use x="616.748047" xlink:href="#DejaVuSerif-67"/>
      <use x="693.261719" xlink:href="#DejaVuSerif-58"/>
      <use x="726.953125" xlink:href="#DejaVuSerif-32"/>
      <use x="758.740234" xlink:href="#DejaVuSerif-48"/>
      <use x="822.363281" xlink:href="#DejaVuSerif-46"/>
      <use x="854.150391" xlink:href="#DejaVuSerif-55"/>
      <use x="917.773438" xlink:href="#DejaVuSerif-56"/>
      <use x="981.396484" xlink:href="#DejaVuSerif-51"/>
      <use x="1045.019531" xlink:href="#DejaVuSerif-53"/>
     </g>
    </g>
    <g id="line2d_11">
     <path d="M 500.497142 298.962344 
L 522.497142 298.962344 
" style="fill:none;stroke:#dd8452;stroke-linecap:round;stroke-width:4;"/>
    </g>
    <g id="line2d_12"/>
    <g id="text_33">
     <!-- Untreated, AUC: 0.7496 -->
     <g style="fill:#262626;" transform="translate(531.297142 302.812344)scale(0.11 -0.11)">
      <use xlink:href="#DejaVuSerif-85"/>
      <use x="84.277344" xlink:href="#DejaVuSerif-110"/>
      <use x="148.681641" xlink:href="#DejaVuSerif-116"/>
      <use x="188.867188" xlink:href="#DejaVuSerif-114"/>
      <use x="236.669922" xlink:href="#DejaVuSerif-101"/>
      <use x="295.849609" xlink:href="#DejaVuSerif-97"/>
      <use x="355.46875" xlink:href="#DejaVuSerif-116"/>
      <use x="395.654297" xlink:href="#DejaVuSerif-101"/>
      <use x="454.833984" xlink:href="#DejaVuSerif-100"/>
      <use x="518.847656" xlink:href="#DejaVuSerif-44"/>
      <use x="550.634766" xlink:href="#DejaVuSerif-32"/>
      <use x="582.421875" xlink:href="#DejaVuSerif-65"/>
      <use x="654.638672" xlink:href="#DejaVuSerif-85"/>
      <use x="738.916016" xlink:href="#DejaVuSerif-67"/>
      <use x="815.429688" xlink:href="#DejaVuSerif-58"/>
      <use x="849.121094" xlink:href="#DejaVuSerif-32"/>
      <use x="880.908203" xlink:href="#DejaVuSerif-48"/>
      <use x="944.53125" xlink:href="#DejaVuSerif-46"/>
      <use x="976.318359" xlink:href="#DejaVuSerif-55"/>
      <use x="1039.941406" xlink:href="#DejaVuSerif-52"/>
      <use x="1103.564453" xlink:href="#DejaVuSerif-57"/>
      <use x="1167.1875" xlink:href="#DejaVuSerif-54"/>
     </g>
    </g>
   </g>
  </g>
  <g id="axes_3">
   <g id="patch_14">
    <path d="M 725.823529 315 
L 972 315 
L 972 43.2 
L 725.823529 43.2 
z
" style="fill:#ffffff;"/>
   </g>
   <g id="matplotlib.axis_5">
    <g id="xtick_13">
     <g id="text_34">
      <!-- 0.0 -->
      <g style="fill:#262626;" transform="translate(728.26665 332.858281)scale(0.11 -0.11)">
       <use xlink:href="#DejaVuSerif-48"/>
       <use x="63.623047" xlink:href="#DejaVuSerif-46"/>
       <use x="95.410156" xlink:href="#DejaVuSerif-48"/>
      </g>
     </g>
    </g>
    <g id="xtick_14">
     <g id="text_35">
      <!-- 0.2 -->
      <g style="fill:#262626;" transform="translate(773.026009 332.858281)scale(0.11 -0.11)">
       <use xlink:href="#DejaVuSerif-48"/>
       <use x="63.623047" xlink:href="#DejaVuSerif-46"/>
       <use x="95.410156" xlink:href="#DejaVuSerif-50"/>
      </g>
     </g>
    </g>
    <g id="xtick_15">
     <g id="text_36">
      <!-- 0.4 -->
      <g style="fill:#262626;" transform="translate(817.785367 332.858281)scale(0.11 -0.11)">
       <use xlink:href="#DejaVuSerif-48"/>
       <use x="63.623047" xlink:href="#DejaVuSerif-46"/>
       <use x="95.410156" xlink:href="#DejaVuSerif-52"/>
      </g>
     </g>
    </g>
    <g id="xtick_16">
     <g id="text_37">
      <!-- 0.6 -->
      <g style="fill:#262626;" transform="translate(862.544725 332.858281)scale(0.11 -0.11)">
       <use xlink:href="#DejaVuSerif-48"/>
       <use x="63.623047" xlink:href="#DejaVuSerif-46"/>
       <use x="95.410156" xlink:href="#DejaVuSerif-54"/>
      </g>
     </g>
    </g>
    <g id="xtick_17">
     <g id="text_38">
      <!-- 0.8 -->
      <g style="fill:#262626;" transform="translate(907.304083 332.858281)scale(0.11 -0.11)">
       <use xlink:href="#DejaVuSerif-48"/>
       <use x="63.623047" xlink:href="#DejaVuSerif-46"/>
       <use x="95.410156" xlink:href="#DejaVuSerif-56"/>
      </g>
     </g>
    </g>
    <g id="xtick_18">
     <g id="text_39">
      <!-- 1.0 -->
      <g style="fill:#262626;" transform="translate(952.063442 332.858281)scale(0.11 -0.11)">
       <use xlink:href="#DejaVuSerif-49"/>
       <use x="63.623047" xlink:href="#DejaVuSerif-46"/>
       <use x="95.410156" xlink:href="#DejaVuSerif-48"/>
      </g>
     </g>
    </g>
    <g id="text_40">
     <!-- False positive rate -->
     <g style="fill:#262626;" transform="translate(793.082702 348.264063)scale(0.12 -0.12)">
      <use xlink:href="#DejaVuSerif-70"/>
      <use x="62.634766" xlink:href="#DejaVuSerif-97"/>
      <use x="122.253906" xlink:href="#DejaVuSerif-108"/>
      <use x="154.236328" xlink:href="#DejaVuSerif-115"/>
      <use x="205.554688" xlink:href="#DejaVuSerif-101"/>
      <use x="264.734375" xlink:href="#DejaVuSerif-32"/>
      <use x="296.521484" xlink:href="#DejaVuSerif-112"/>
      <use x="360.535156" xlink:href="#DejaVuSerif-111"/>
      <use x="420.740234" xlink:href="#DejaVuSerif-115"/>
      <use x="472.058594" xlink:href="#DejaVuSerif-105"/>
      <use x="504.041016" xlink:href="#DejaVuSerif-116"/>
      <use x="544.226562" xlink:href="#DejaVuSerif-105"/>
      <use x="576.208984" xlink:href="#DejaVuSerif-118"/>
      <use x="632.703125" xlink:href="#DejaVuSerif-101"/>
      <use x="691.882812" xlink:href="#DejaVuSerif-32"/>
      <use x="723.669922" xlink:href="#DejaVuSerif-114"/>
      <use x="771.472656" xlink:href="#DejaVuSerif-97"/>
      <use x="831.091797" xlink:href="#DejaVuSerif-116"/>
      <use x="871.277344" xlink:href="#DejaVuSerif-101"/>
     </g>
    </g>
   </g>
   <g id="matplotlib.axis_6">
    <g id="ytick_13">
     <g id="text_41">
      <!-- 0.0 -->
      <g style="fill:#262626;" transform="translate(698.830092 306.824595)scale(0.11 -0.11)">
       <use xlink:href="#DejaVuSerif-48"/>
       <use x="63.623047" xlink:href="#DejaVuSerif-46"/>
       <use x="95.410156" xlink:href="#DejaVuSerif-48"/>
      </g>
     </g>
    </g>
    <g id="ytick_14">
     <g id="text_42">
      <!-- 0.2 -->
      <g style="fill:#262626;" transform="translate(698.830092 257.406413)scale(0.11 -0.11)">
       <use xlink:href="#DejaVuSerif-48"/>
       <use x="63.623047" xlink:href="#DejaVuSerif-46"/>
       <use x="95.410156" xlink:href="#DejaVuSerif-50"/>
      </g>
     </g>
    </g>
    <g id="ytick_15">
     <g id="text_43">
      <!-- 0.4 -->
      <g style="fill:#262626;" transform="translate(698.830092 207.988232)scale(0.11 -0.11)">
       <use xlink:href="#DejaVuSerif-48"/>
       <use x="63.623047" xlink:href="#DejaVuSerif-46"/>
       <use x="95.410156" xlink:href="#DejaVuSerif-52"/>
      </g>
     </g>
    </g>
    <g id="ytick_16">
     <g id="text_44">
      <!-- 0.6 -->
      <g style="fill:#262626;" transform="translate(698.830092 158.57005)scale(0.11 -0.11)">
       <use xlink:href="#DejaVuSerif-48"/>
       <use x="63.623047" xlink:href="#DejaVuSerif-46"/>
       <use x="95.410156" xlink:href="#DejaVuSerif-54"/>
      </g>
     </g>
    </g>
    <g id="ytick_17">
     <g id="text_45">
      <!-- 0.8 -->
      <g style="fill:#262626;" transform="translate(698.830092 109.151868)scale(0.11 -0.11)">
       <use xlink:href="#DejaVuSerif-48"/>
       <use x="63.623047" xlink:href="#DejaVuSerif-46"/>
       <use x="95.410156" xlink:href="#DejaVuSerif-56"/>
      </g>
     </g>
    </g>
    <g id="ytick_18">
     <g id="text_46">
      <!-- 1.0 -->
      <g style="fill:#262626;" transform="translate(698.830092 59.733686)scale(0.11 -0.11)">
       <use xlink:href="#DejaVuSerif-49"/>
       <use x="63.623047" xlink:href="#DejaVuSerif-46"/>
       <use x="95.410156" xlink:href="#DejaVuSerif-48"/>
      </g>
     </g>
    </g>
   </g>
   <g id="PolyCollection_5">
    <path clip-path="url(#p1d5723d1e7)" d="M 741.244821 295.232727 
L 741.244821 302.645455 
L 742.655305 292.761818 
L 743.125466 282.878182 
L 743.595628 268.052727 
L 744.53595 263.110909 
L 745.006112 260.64 
L 745.476273 255.698182 
L 745.946434 238.401818 
L 746.416596 233.46 
L 747.827079 228.518182 
L 748.297241 226.047273 
L 749.237563 223.576364 
L 750.648047 218.634545 
L 751.58837 213.692727 
L 752.528693 206.28 
L 752.998854 201.338182 
L 753.469015 196.396364 
L 754.409338 191.454545 
L 754.879499 188.983636 
L 755.819822 166.745455 
L 756.289983 156.861818 
L 756.760145 154.390909 
L 759.110951 149.449091 
L 760.051274 144.507273 
L 761.461758 142.036364 
L 762.402081 139.565455 
L 763.342403 137.094545 
L 763.812565 132.152727 
L 766.163371 129.681818 
L 767.573855 124.74 
L 769.454501 122.269091 
L 769.924662 119.798182 
L 770.394823 117.327273 
L 773.215791 114.856364 
L 775.096436 112.385455 
L 778.387566 104.972727 
L 779.327888 100.030909 
L 779.327888 97.56 
L 779.327888 97.56 
L 778.387566 100.030909 
L 775.096436 104.972727 
L 773.215791 112.385455 
L 770.394823 114.856364 
L 769.924662 117.327273 
L 769.454501 119.798182 
L 767.573855 122.269091 
L 766.163371 124.74 
L 763.812565 129.681818 
L 763.342403 132.152727 
L 762.402081 137.094545 
L 761.461758 139.565455 
L 760.051274 142.036364 
L 759.110951 144.507273 
L 756.760145 149.449091 
L 756.289983 154.390909 
L 755.819822 156.861818 
L 754.879499 166.745455 
L 754.409338 188.983636 
L 753.469015 191.454545 
L 752.998854 196.396364 
L 752.528693 201.338182 
L 751.58837 206.28 
L 750.648047 213.692727 
L 749.237563 218.634545 
L 748.297241 223.576364 
L 747.827079 226.047273 
L 746.416596 228.518182 
L 745.946434 233.46 
L 745.476273 238.401818 
L 745.006112 255.698182 
L 744.53595 260.64 
L 743.595628 263.110909 
L 743.125466 268.052727 
L 742.655305 283.495909 
L 741.244821 295.232727 
z
" style="fill:#4c72b0;fill-opacity:0.2;stroke:#4c72b0;stroke-opacity:0.2;"/>
    <path clip-path="url(#p1d5723d1e7)" d="M 786.380308 95.089091 
L 786.380308 97.56 
L 786.380308 95.089091 
L 786.380308 95.089091 
z
" style="fill:#4c72b0;fill-opacity:0.2;stroke:#4c72b0;stroke-opacity:0.2;"/>
    <path clip-path="url(#p1d5723d1e7)" d="M 793.432728 92.618182 
L 793.432728 95.089091 
L 799.074664 92.618182 
L 799.074664 90.147273 
L 799.074664 90.147273 
L 793.432728 92.618182 
z
" style="fill:#4c72b0;fill-opacity:0.2;stroke:#4c72b0;stroke-opacity:0.2;"/>
    <path clip-path="url(#p1d5723d1e7)" d="M 814.589988 87.676364 
L 814.589988 90.147273 
L 828.224666 87.676364 
L 837.627893 85.205455 
L 839.508538 82.734545 
L 839.508538 80.263636 
L 839.508538 80.263636 
L 837.627893 82.734545 
L 828.224666 85.205455 
L 814.589988 87.676364 
z
" style="fill:#4c72b0;fill-opacity:0.2;stroke:#4c72b0;stroke-opacity:0.2;"/>
    <path clip-path="url(#p1d5723d1e7)" d="M 856.904507 77.792727 
L 856.904507 80.263636 
L 857.84483 77.792727 
L 857.84483 72.850909 
L 857.84483 72.850909 
L 856.904507 77.792727 
z
" style="fill:#4c72b0;fill-opacity:0.2;stroke:#4c72b0;stroke-opacity:0.2;"/>
    <path clip-path="url(#p1d5723d1e7)" d="M 874.300476 70.38 
L 874.300476 72.850909 
L 874.300476 70.38 
L 874.300476 70.38 
z
" style="fill:#4c72b0;fill-opacity:0.2;stroke:#4c72b0;stroke-opacity:0.2;"/>
    <path clip-path="url(#p1d5723d1e7)" d="M 914.73435 65.438182 
L 914.73435 70.38 
L 914.73435 65.438182 
L 914.73435 65.438182 
z
" style="fill:#4c72b0;fill-opacity:0.2;stroke:#4c72b0;stroke-opacity:0.2;"/>
    <path clip-path="url(#p1d5723d1e7)" d="M 954.227902 62.967273 
L 954.227902 65.438182 
L 954.698063 62.967273 
L 957.04887 58.025455 
L 957.04887 55.554545 
L 957.04887 55.554545 
L 954.698063 58.025455 
L 954.227902 62.967273 
z
" style="fill:#4c72b0;fill-opacity:0.2;stroke:#4c72b0;stroke-opacity:0.2;"/>
   </g>
   <g id="PolyCollection_6">
    <path clip-path="url(#p1d5723d1e7)" d="M 738.256684 240.872727 
L 738.256684 289.408442 
L 741.986631 240.872727 
L 743.229947 236.46039 
L 746.959893 227.635714 
L 754.419786 214.398701 
L 758.149733 209.986364 
L 764.36631 201.161688 
L 765.609626 196.749351 
L 768.096257 192.337013 
L 768.096257 187.924675 
L 768.096257 187.924675 
L 765.609626 192.337013 
L 764.36631 196.749351 
L 758.149733 201.161688 
L 754.419786 209.986364 
L 746.959893 214.398701 
L 743.229947 227.635714 
L 741.986631 236.46039 
L 738.256684 240.872727 
z
" style="fill:#dd8452;fill-opacity:0.2;stroke:#dd8452;stroke-opacity:0.2;"/>
    <path clip-path="url(#p1d5723d1e7)" d="M 773.069519 179.1 
L 773.069519 187.924675 
L 773.069519 179.1 
L 773.069519 179.1 
z
" style="fill:#dd8452;fill-opacity:0.2;stroke:#dd8452;stroke-opacity:0.2;"/>
    <path clip-path="url(#p1d5723d1e7)" d="M 778.042781 174.687662 
L 778.042781 179.1 
L 778.042781 174.687662 
L 778.042781 174.687662 
z
" style="fill:#dd8452;fill-opacity:0.2;stroke:#dd8452;stroke-opacity:0.2;"/>
    <path clip-path="url(#p1d5723d1e7)" d="M 783.016043 170.275325 
L 783.016043 174.687662 
L 786.745989 170.275325 
L 790.475936 165.862987 
L 791.719251 161.450649 
L 795.449198 152.625974 
L 796.692513 139.388961 
L 796.692513 134.976623 
L 796.692513 134.976623 
L 795.449198 139.388961 
L 791.719251 152.625974 
L 790.475936 161.450649 
L 786.745989 165.862987 
L 783.016043 170.275325 
z
" style="fill:#dd8452;fill-opacity:0.2;stroke:#dd8452;stroke-opacity:0.2;"/>
    <path clip-path="url(#p1d5723d1e7)" d="M 800.42246 117.327273 
L 800.42246 134.976623 
L 805.395722 117.327273 
L 816.585561 112.914935 
L 819.072193 108.502597 
L 819.072193 104.09026 
L 819.072193 104.09026 
L 816.585561 108.502597 
L 805.395722 112.914935 
L 800.42246 117.327273 
z
" style="fill:#dd8452;fill-opacity:0.2;stroke:#dd8452;stroke-opacity:0.2;"/>
    <path clip-path="url(#p1d5723d1e7)" d="M 822.802139 99.677922 
L 822.802139 104.09026 
L 826.532086 99.677922 
L 829.018717 90.853247 
L 841.451872 86.440909 
L 846.425134 82.028571 
L 883.724599 77.616234 
L 883.724599 73.203896 
L 883.724599 73.203896 
L 846.425134 77.616234 
L 841.451872 82.028571 
L 829.018717 86.440909 
L 826.532086 90.853247 
L 822.802139 99.677922 
z
" style="fill:#dd8452;fill-opacity:0.2;stroke:#dd8452;stroke-opacity:0.2;"/>
    <path clip-path="url(#p1d5723d1e7)" d="M 897.40107 68.791558 
L 897.40107 73.203896 
L 897.40107 68.791558 
L 897.40107 68.791558 
z
" style="fill:#dd8452;fill-opacity:0.2;stroke:#dd8452;stroke-opacity:0.2;"/>
    <path clip-path="url(#p1d5723d1e7)" d="M 949.620321 59.966883 
L 949.620321 68.791558 
L 950.863636 59.966883 
L 950.863636 55.554545 
L 950.863636 55.554545 
L 949.620321 59.966883 
z
" style="fill:#dd8452;fill-opacity:0.2;stroke:#dd8452;stroke-opacity:0.2;"/>
   </g>
   <g id="line2d_13">
    <path clip-path="url(#p1d5723d1e7)" d="M 737.013369 302.645455 
L 737.48353 302.645455 
L 739.364176 302.645455 
L 740.304498 302.645455 
L 741.244821 299.350909 
L 742.655305 288.437727 
L 743.125466 274.641818 
L 743.595628 265.581818 
L 744.53595 261.875455 
L 745.006112 258.169091 
L 745.476273 247.05 
L 745.946434 235.930909 
L 746.416596 230.989091 
L 747.827079 227.282727 
L 748.297241 224.811818 
L 749.237563 221.105455 
L 750.648047 216.163636 
L 751.58837 209.986364 
L 752.528693 203.809091 
L 752.998854 198.867273 
L 753.469015 193.925455 
L 754.409338 190.219091 
L 754.879499 177.864545 
L 755.819822 161.803636 
L 756.289983 155.626364 
L 756.760145 151.92 
L 759.110951 146.978182 
L 760.051274 143.271818 
L 761.461758 140.800909 
L 762.402081 138.33 
L 763.342403 134.623636 
L 763.812565 130.917273 
L 766.163371 127.210909 
L 767.573855 123.504545 
L 769.454501 121.033636 
L 769.924662 118.562727 
L 770.394823 116.091818 
L 773.215791 113.620909 
L 775.096436 108.679091 
L 778.387566 102.501818 
L 779.327888 98.795455 
L 780.268211 97.56 
L 781.678695 97.56 
L 782.619018 97.56 
L 786.380308 96.324545 
L 790.61176 95.089091 
L 791.552083 95.089091 
L 793.432728 93.853636 
L 799.074664 91.382727 
L 800.014987 90.147273 
L 800.955309 90.147273 
L 805.656923 90.147273 
L 806.597245 90.147273 
L 814.589988 88.911818 
L 828.224666 86.440909 
L 837.627893 83.97 
L 839.508538 81.499091 
L 854.553701 80.263636 
L 855.494023 80.263636 
L 856.904507 79.028182 
L 857.84483 75.321818 
L 858.785153 72.850909 
L 864.427088 72.850909 
L 865.367411 72.850909 
L 874.300476 71.615455 
L 880.882735 70.38 
L 881.823058 70.38 
L 914.73435 67.909091 
L 921.316609 65.438182 
L 922.256932 65.438182 
L 926.488384 65.438182 
L 927.428706 65.438182 
L 950.466611 65.438182 
L 951.406934 65.438182 
L 951.877095 65.438182 
L 952.817418 65.438182 
L 954.227902 64.202727 
L 954.698063 60.496364 
L 957.04887 56.79 
L 959.399676 55.554545 
L 960.339999 55.554545 
L 960.81016 55.554545 
" style="fill:none;stroke:#4c72b0;stroke-linecap:round;stroke-width:4;"/>
   </g>
   <g id="line2d_14">
    <path clip-path="url(#p1d5723d1e7)" d="M 737.013369 302.645455 
L 738.256684 265.140584 
L 741.986631 238.666558 
L 743.229947 232.048052 
L 746.959893 221.017208 
L 754.419786 212.192532 
L 758.149733 205.574026 
L 764.36631 198.955519 
L 765.609626 194.543182 
L 768.096257 190.130844 
L 770.582888 187.924675 
L 773.069519 183.512338 
L 774.312834 179.1 
L 776.799465 179.1 
L 778.042781 176.893831 
L 780.529412 174.687662 
L 783.016043 172.481494 
L 786.745989 168.069156 
L 790.475936 163.656818 
L 791.719251 157.038312 
L 795.449198 146.007468 
L 796.692513 137.182792 
L 797.935829 134.976623 
L 800.42246 126.151948 
L 805.395722 115.121104 
L 816.585561 110.708766 
L 819.072193 106.296429 
L 820.315508 104.09026 
L 822.802139 101.884091 
L 826.532086 95.265584 
L 829.018717 88.647078 
L 841.451872 84.23474 
L 846.425134 79.822403 
L 883.724599 75.410065 
L 892.427807 73.203896 
L 894.914439 73.203896 
L 897.40107 70.997727 
L 912.320856 68.791558 
L 914.807487 68.791558 
L 927.240642 68.791558 
L 929.727273 68.791558 
L 945.890374 68.791558 
L 948.377005 68.791558 
L 949.620321 64.379221 
L 950.863636 57.760714 
L 953.350267 55.554545 
L 955.836898 55.554545 
L 957.080214 55.554545 
L 960.81016 55.554545 
" style="fill:none;stroke:#dd8452;stroke-linecap:round;stroke-width:4;"/>
   </g>
   <g id="patch_15">
    <path d="M 725.823529 315 
L 725.823529 43.2 
" style="fill:none;stroke:#cccccc;stroke-linecap:square;stroke-linejoin:miter;stroke-width:1.25;"/>
   </g>
   <g id="patch_16">
    <path d="M 972 315 
L 972 43.2 
" style="fill:none;stroke:#cccccc;stroke-linecap:square;stroke-linejoin:miter;stroke-width:1.25;"/>
   </g>
   <g id="patch_17">
    <path d="M 725.823529 315 
L 972 315 
" style="fill:none;stroke:#cccccc;stroke-linecap:square;stroke-linejoin:miter;stroke-width:1.25;"/>
   </g>
   <g id="patch_18">
    <path d="M 725.823529 43.2 
L 972 43.2 
" style="fill:none;stroke:#cccccc;stroke-linecap:square;stroke-linejoin:miter;stroke-width:1.25;"/>
   </g>
   <g id="text_47">
    <!-- Overall survival -->
    <g style="fill:#262626;" transform="translate(800.854577 37.2)scale(0.12 -0.12)">
     <defs>
      <path d="M 41.015625 3.8125 
Q 52.984375 3.8125 59.078125 12.03125 
Q 65.1875 20.265625 65.1875 36.375 
Q 65.1875 52.546875 59.078125 60.765625 
Q 52.984375 69 41.015625 69 
Q 29 69 22.890625 60.765625 
Q 16.796875 52.546875 16.796875 36.375 
Q 16.796875 20.265625 22.890625 12.03125 
Q 29 3.8125 41.015625 3.8125 
z
M 41.015625 -1.421875 
Q 33.59375 -1.421875 27.359375 1.015625 
Q 21.140625 3.46875 16.40625 8.203125 
Q 10.9375 13.671875 8.265625 20.609375 
Q 5.609375 27.546875 5.609375 36.375 
Q 5.609375 45.21875 8.265625 52.171875 
Q 10.9375 59.125 16.40625 64.59375 
Q 21.1875 69.390625 27.34375 71.796875 
Q 33.5 74.21875 41.015625 74.21875 
Q 56.890625 74.21875 66.65625 63.8125 
Q 76.421875 53.421875 76.421875 36.375 
Q 76.421875 27.640625 73.734375 20.625 
Q 71.046875 13.625 65.578125 8.203125 
Q 60.796875 3.421875 54.640625 1 
Q 48.484375 -1.421875 41.015625 -1.421875 
z
" id="DejaVuSerif-79"/>
     </defs>
     <use xlink:href="#DejaVuSerif-79"/>
     <use x="81.982422" xlink:href="#DejaVuSerif-118"/>
     <use x="138.476562" xlink:href="#DejaVuSerif-101"/>
     <use x="197.65625" xlink:href="#DejaVuSerif-114"/>
     <use x="245.458984" xlink:href="#DejaVuSerif-97"/>
     <use x="305.078125" xlink:href="#DejaVuSerif-108"/>
     <use x="337.060547" xlink:href="#DejaVuSerif-108"/>
     <use x="369.042969" xlink:href="#DejaVuSerif-32"/>
     <use x="400.830078" xlink:href="#DejaVuSerif-115"/>
     <use x="452.148438" xlink:href="#DejaVuSerif-117"/>
     <use x="516.552734" xlink:href="#DejaVuSerif-114"/>
     <use x="564.355469" xlink:href="#DejaVuSerif-118"/>
     <use x="620.849609" xlink:href="#DejaVuSerif-105"/>
     <use x="652.832031" xlink:href="#DejaVuSerif-118"/>
     <use x="709.326172" xlink:href="#DejaVuSerif-97"/>
     <use x="768.945312" xlink:href="#DejaVuSerif-108"/>
    </g>
   </g>
   <g id="legend_3">
    <g id="patch_19">
     <path d="M 793.708906 309.5 
L 964.3 309.5 
Q 966.5 309.5 966.5 307.3 
L 966.5 276.108125 
Q 966.5 273.908125 964.3 273.908125 
L 793.708906 273.908125 
Q 791.508906 273.908125 791.508906 276.108125 
L 791.508906 307.3 
Q 791.508906 309.5 793.708906 309.5 
z
" style="fill:#ffffff;opacity:0.8;stroke:#cccccc;stroke-linejoin:miter;"/>
    </g>
    <g id="line2d_15">
     <path d="M 795.908906 282.816406 
L 817.908906 282.816406 
" style="fill:none;stroke:#4c72b0;stroke-linecap:round;stroke-width:4;"/>
    </g>
    <g id="line2d_16"/>
    <g id="text_48">
     <!-- Treated, AUC: 0.8364 -->
     <g style="fill:#262626;" transform="translate(826.708906 286.666406)scale(0.11 -0.11)">
      <use xlink:href="#DejaVuSerif-84"/>
      <use x="66.699219" xlink:href="#DejaVuSerif-114"/>
      <use x="114.501953" xlink:href="#DejaVuSerif-101"/>
      <use x="173.681641" xlink:href="#DejaVuSerif-97"/>
      <use x="233.300781" xlink:href="#DejaVuSerif-116"/>
      <use x="273.486328" xlink:href="#DejaVuSerif-101"/>
      <use x="332.666016" xlink:href="#DejaVuSerif-100"/>
      <use x="396.679688" xlink:href="#DejaVuSerif-44"/>
      <use x="428.466797" xlink:href="#DejaVuSerif-32"/>
      <use x="460.253906" xlink:href="#DejaVuSerif-65"/>
      <use x="532.470703" xlink:href="#DejaVuSerif-85"/>
      <use x="616.748047" xlink:href="#DejaVuSerif-67"/>
      <use x="693.261719" xlink:href="#DejaVuSerif-58"/>
      <use x="726.953125" xlink:href="#DejaVuSerif-32"/>
      <use x="758.740234" xlink:href="#DejaVuSerif-48"/>
      <use x="822.363281" xlink:href="#DejaVuSerif-46"/>
      <use x="854.150391" xlink:href="#DejaVuSerif-56"/>
      <use x="917.773438" xlink:href="#DejaVuSerif-51"/>
      <use x="981.396484" xlink:href="#DejaVuSerif-54"/>
      <use x="1045.019531" xlink:href="#DejaVuSerif-52"/>
     </g>
    </g>
    <g id="line2d_17">
     <path d="M 795.908906 298.962344 
L 817.908906 298.962344 
" style="fill:none;stroke:#dd8452;stroke-linecap:round;stroke-width:4;"/>
    </g>
    <g id="line2d_18"/>
    <g id="text_49">
     <!-- Untreated, AUC: 0.7752 -->
     <g style="fill:#262626;" transform="translate(826.708906 302.812344)scale(0.11 -0.11)">
      <use xlink:href="#DejaVuSerif-85"/>
      <use x="84.277344" xlink:href="#DejaVuSerif-110"/>
      <use x="148.681641" xlink:href="#DejaVuSerif-116"/>
      <use x="188.867188" xlink:href="#DejaVuSerif-114"/>
      <use x="236.669922" xlink:href="#DejaVuSerif-101"/>
      <use x="295.849609" xlink:href="#DejaVuSerif-97"/>
      <use x="355.46875" xlink:href="#DejaVuSerif-116"/>
      <use x="395.654297" xlink:href="#DejaVuSerif-101"/>
      <use x="454.833984" xlink:href="#DejaVuSerif-100"/>
      <use x="518.847656" xlink:href="#DejaVuSerif-44"/>
      <use x="550.634766" xlink:href="#DejaVuSerif-32"/>
      <use x="582.421875" xlink:href="#DejaVuSerif-65"/>
      <use x="654.638672" xlink:href="#DejaVuSerif-85"/>
      <use x="738.916016" xlink:href="#DejaVuSerif-67"/>
      <use x="815.429688" xlink:href="#DejaVuSerif-58"/>
      <use x="849.121094" xlink:href="#DejaVuSerif-32"/>
      <use x="880.908203" xlink:href="#DejaVuSerif-48"/>
      <use x="944.53125" xlink:href="#DejaVuSerif-46"/>
      <use x="976.318359" xlink:href="#DejaVuSerif-55"/>
      <use x="1039.941406" xlink:href="#DejaVuSerif-55"/>
      <use x="1103.564453" xlink:href="#DejaVuSerif-53"/>
      <use x="1167.1875" xlink:href="#DejaVuSerif-50"/>
     </g>
    </g>
   </g>
  </g>
 </g>
 <defs>
  <clipPath id="p846f8ddeae">
   <rect height="271.8" width="246.176471" x="135" y="43.2"/>
  </clipPath>
  <clipPath id="pd067ad7836">
   <rect height="271.8" width="246.176471" x="430.411765" y="43.2"/>
  </clipPath>
  <clipPath id="p1d5723d1e7">
   <rect height="271.8" width="246.176471" x="725.823529" y="43.2"/>
  </clipPath>
 </defs>
</svg>
