<?xml version="1.0" encoding="utf-8" standalone="no"?>
<!DOCTYPE svg PUBLIC "-//W3C//DTD SVG 1.1//EN"
  "http://www.w3.org/Graphics/SVG/1.1/DTD/svg11.dtd">
<!-- Created with matplotlib (https://matplotlib.org/) -->
<svg height="506.100625pt" version="1.1" viewBox="0 0 506.310625 506.100625" width="506.310625pt" xmlns="http://www.w3.org/2000/svg" xmlns:xlink="http://www.w3.org/1999/xlink">
 <metadata>
  <rdf:RDF xmlns:cc="http://creativecommons.org/ns#" xmlns:dc="http://purl.org/dc/elements/1.1/" xmlns:rdf="http://www.w3.org/1999/02/22-rdf-syntax-ns#">
   <cc:Work>
    <dc:type rdf:resource="http://purl.org/dc/dcmitype/StillImage"/>
    <dc:date>2021-01-15T09:52:15.771002</dc:date>
    <dc:format>image/svg+xml</dc:format>
    <dc:creator>
     <cc:Agent>
      <dc:title>Matplotlib v3.3.1, https://matplotlib.org/</dc:title>
     </cc:Agent>
    </dc:creator>
   </cc:Work>
  </rdf:RDF>
 </metadata>
 <defs>
  <style type="text/css">*{stroke-linecap:butt;stroke-linejoin:round;}</style>
 </defs>
 <g id="figure_1">
  <g id="patch_1">
   <path d="M 0 506.100625 
L 506.310625 506.100625 
L 506.310625 0 
L 0 0 
z
" style="fill:#ffffff;"/>
  </g>
  <g id="axes_1">
   <g id="patch_2">
    <path d="M 52.710625 460.2375 
L 499.110625 460.2375 
L 499.110625 25.3575 
L 52.710625 25.3575 
z
" style="fill:#ffffff;"/>
   </g>
   <g id="matplotlib.axis_1">
    <g id="xtick_1">
     <g id="text_1">
      <!-- 0.0 -->
      <g style="fill:#262626;" transform="translate(64.254815 478.095781)scale(0.11 -0.11)">
       <defs>
        <path d="M 31.78125 3.421875 
Q 39.265625 3.421875 42.96875 11.625 
Q 46.6875 19.828125 46.6875 36.375 
Q 46.6875 52.984375 42.96875 61.1875 
Q 39.265625 69.390625 31.78125 69.390625 
Q 24.3125 69.390625 20.59375 61.1875 
Q 16.890625 52.984375 16.890625 36.375 
Q 16.890625 19.828125 20.59375 11.625 
Q 24.3125 3.421875 31.78125 3.421875 
z
M 31.78125 -1.421875 
Q 19.921875 -1.421875 13.25 8.53125 
Q 6.59375 18.5 6.59375 36.375 
Q 6.59375 54.296875 13.25 64.25 
Q 19.921875 74.21875 31.78125 74.21875 
Q 43.703125 74.21875 50.34375 64.25 
Q 56.984375 54.296875 56.984375 36.375 
Q 56.984375 18.5 50.34375 8.53125 
Q 43.703125 -1.421875 31.78125 -1.421875 
z
" id="DejaVuSerif-48"/>
        <path d="M 9.421875 5.078125 
Q 9.421875 7.8125 11.28125 9.71875 
Q 13.140625 11.625 15.921875 11.625 
Q 18.609375 11.625 20.5 9.71875 
Q 22.40625 7.8125 22.40625 5.078125 
Q 22.40625 2.390625 20.5 0.484375 
Q 18.609375 -1.421875 15.921875 -1.421875 
Q 13.140625 -1.421875 11.28125 0.453125 
Q 9.421875 2.34375 9.421875 5.078125 
z
" id="DejaVuSerif-46"/>
       </defs>
       <use xlink:href="#DejaVuSerif-48"/>
       <use x="63.623047" xlink:href="#DejaVuSerif-46"/>
       <use x="95.410156" xlink:href="#DejaVuSerif-48"/>
      </g>
     </g>
    </g>
    <g id="xtick_2">
     <g id="text_2">
      <!-- 0.2 -->
      <g style="fill:#262626;" transform="translate(145.418452 478.095781)scale(0.11 -0.11)">
       <defs>
        <path d="M 12.796875 55.515625 
L 7.328125 55.515625 
L 7.328125 68.5 
Q 12.546875 71.296875 17.84375 72.75 
Q 23.140625 74.21875 28.21875 74.21875 
Q 39.59375 74.21875 46.1875 68.703125 
Q 52.78125 63.1875 52.78125 53.71875 
Q 52.78125 43.015625 37.84375 28.125 
Q 36.671875 27 36.078125 26.421875 
L 17.671875 8.015625 
L 48.09375 8.015625 
L 48.09375 17 
L 53.8125 17 
L 53.8125 0 
L 6.78125 0 
L 6.78125 5.328125 
L 28.90625 27.390625 
Q 36.234375 34.71875 39.359375 40.84375 
Q 42.484375 46.96875 42.484375 53.71875 
Q 42.484375 61.078125 38.640625 65.234375 
Q 34.8125 69.390625 28.078125 69.390625 
Q 21.09375 69.390625 17.28125 65.921875 
Q 13.484375 62.453125 12.796875 55.515625 
z
" id="DejaVuSerif-50"/>
       </defs>
       <use xlink:href="#DejaVuSerif-48"/>
       <use x="63.623047" xlink:href="#DejaVuSerif-46"/>
       <use x="95.410156" xlink:href="#DejaVuSerif-50"/>
      </g>
     </g>
    </g>
    <g id="xtick_3">
     <g id="text_3">
      <!-- 0.4 -->
      <g style="fill:#262626;" transform="translate(226.582088 478.095781)scale(0.11 -0.11)">
       <defs>
        <path d="M 34.90625 24.703125 
L 34.90625 63.484375 
L 10.015625 24.703125 
z
M 56.390625 0 
L 23.1875 0 
L 23.1875 5.171875 
L 34.90625 5.171875 
L 34.90625 19.484375 
L 3.078125 19.484375 
L 3.078125 24.8125 
L 35.015625 74.21875 
L 44.671875 74.21875 
L 44.671875 24.703125 
L 58.59375 24.703125 
L 58.59375 19.484375 
L 44.671875 19.484375 
L 44.671875 5.171875 
L 56.390625 5.171875 
z
" id="DejaVuSerif-52"/>
       </defs>
       <use xlink:href="#DejaVuSerif-48"/>
       <use x="63.623047" xlink:href="#DejaVuSerif-46"/>
       <use x="95.410156" xlink:href="#DejaVuSerif-52"/>
      </g>
     </g>
    </g>
    <g id="xtick_4">
     <g id="text_4">
      <!-- 0.6 -->
      <g style="fill:#262626;" transform="translate(307.745724 478.095781)scale(0.11 -0.11)">
       <defs>
        <path d="M 32.71875 3.421875 
Q 39.59375 3.421875 43.296875 8.46875 
Q 47.015625 13.53125 47.015625 23 
Q 47.015625 32.46875 43.296875 37.515625 
Q 39.59375 42.578125 32.71875 42.578125 
Q 25.734375 42.578125 22.0625 37.6875 
Q 18.40625 32.8125 18.40625 23.578125 
Q 18.40625 13.875 22.109375 8.640625 
Q 25.828125 3.421875 32.71875 3.421875 
z
M 16.796875 40.140625 
Q 20.125 43.796875 24.3125 45.59375 
Q 28.515625 47.40625 33.796875 47.40625 
Q 44.671875 47.40625 51 40.859375 
Q 57.328125 34.328125 57.328125 23 
Q 57.328125 11.921875 50.515625 5.25 
Q 43.703125 -1.421875 32.328125 -1.421875 
Q 19.96875 -1.421875 13.328125 7.78125 
Q 6.6875 17 6.6875 34.078125 
Q 6.6875 53.21875 14.546875 63.71875 
Q 22.40625 74.21875 36.71875 74.21875 
Q 40.578125 74.21875 44.828125 73.484375 
Q 49.078125 72.75 53.515625 71.296875 
L 53.515625 59.28125 
L 48 59.28125 
Q 47.40625 64.203125 44.234375 66.796875 
Q 41.0625 69.390625 35.6875 69.390625 
Q 26.21875 69.390625 21.578125 62.203125 
Q 16.9375 55.03125 16.796875 40.140625 
z
" id="DejaVuSerif-54"/>
       </defs>
       <use xlink:href="#DejaVuSerif-48"/>
       <use x="63.623047" xlink:href="#DejaVuSerif-46"/>
       <use x="95.410156" xlink:href="#DejaVuSerif-54"/>
      </g>
     </g>
    </g>
    <g id="xtick_5">
     <g id="text_5">
      <!-- 0.8 -->
      <g style="fill:#262626;" transform="translate(388.909361 478.095781)scale(0.11 -0.11)">
       <defs>
        <path d="M 46.578125 19.921875 
Q 46.578125 27.734375 42.6875 32.046875 
Q 38.8125 36.375 31.78125 36.375 
Q 24.75 36.375 20.875 32.046875 
Q 17 27.734375 17 19.921875 
Q 17 12.0625 20.875 7.734375 
Q 24.75 3.421875 31.78125 3.421875 
Q 38.8125 3.421875 42.6875 7.734375 
Q 46.578125 12.0625 46.578125 19.921875 
z
M 44.578125 55.328125 
Q 44.578125 61.96875 41.203125 65.671875 
Q 37.84375 69.390625 31.78125 69.390625 
Q 25.78125 69.390625 22.390625 65.671875 
Q 19 61.96875 19 55.328125 
Q 19 48.640625 22.390625 44.921875 
Q 25.78125 41.21875 31.78125 41.21875 
Q 37.84375 41.21875 41.203125 44.921875 
Q 44.578125 48.640625 44.578125 55.328125 
z
M 39.3125 38.8125 
Q 47.609375 37.703125 52.25 32.6875 
Q 56.890625 27.6875 56.890625 19.921875 
Q 56.890625 9.671875 50.390625 4.125 
Q 43.890625 -1.421875 31.78125 -1.421875 
Q 19.734375 -1.421875 13.203125 4.125 
Q 6.6875 9.671875 6.6875 19.921875 
Q 6.6875 27.6875 11.328125 32.6875 
Q 15.96875 37.703125 24.3125 38.8125 
Q 16.9375 40.140625 13 44.40625 
Q 9.078125 48.6875 9.078125 55.328125 
Q 9.078125 64.109375 15.125 69.15625 
Q 21.1875 74.21875 31.78125 74.21875 
Q 42.390625 74.21875 48.4375 69.15625 
Q 54.5 64.109375 54.5 55.328125 
Q 54.5 48.6875 50.5625 44.40625 
Q 46.625 40.140625 39.3125 38.8125 
z
" id="DejaVuSerif-56"/>
       </defs>
       <use xlink:href="#DejaVuSerif-48"/>
       <use x="63.623047" xlink:href="#DejaVuSerif-46"/>
       <use x="95.410156" xlink:href="#DejaVuSerif-56"/>
      </g>
     </g>
    </g>
    <g id="xtick_6">
     <g id="text_6">
      <!-- 1.0 -->
      <g style="fill:#262626;" transform="translate(470.072997 478.095781)scale(0.11 -0.11)">
       <defs>
        <path d="M 14.203125 0 
L 14.203125 5.171875 
L 26.90625 5.171875 
L 26.90625 65.828125 
L 12.203125 56.296875 
L 12.203125 62.703125 
L 29.984375 74.21875 
L 36.71875 74.21875 
L 36.71875 5.171875 
L 49.421875 5.171875 
L 49.421875 0 
z
" id="DejaVuSerif-49"/>
       </defs>
       <use xlink:href="#DejaVuSerif-49"/>
       <use x="63.623047" xlink:href="#DejaVuSerif-46"/>
       <use x="95.410156" xlink:href="#DejaVuSerif-48"/>
      </g>
     </g>
    </g>
    <g id="text_7">
     <!-- False positive rate -->
     <g style="fill:#262626;" transform="translate(206.124297 495.781094)scale(0.15 -0.15)">
      <defs>
       <path d="M 5.515625 0 
L 5.515625 5.171875 
L 14.796875 5.171875 
L 14.796875 67.671875 
L 5.515625 67.671875 
L 5.515625 72.90625 
L 65.1875 72.90625 
L 65.1875 56.6875 
L 59.1875 56.6875 
L 59.1875 66.890625 
L 24.703125 66.890625 
L 24.703125 42.484375 
L 49.609375 42.484375 
L 49.609375 51.609375 
L 55.609375 51.609375 
L 55.609375 27.390625 
L 49.609375 27.390625 
L 49.609375 36.53125 
L 24.703125 36.53125 
L 24.703125 5.171875 
L 36.375 5.171875 
L 36.375 0 
z
" id="DejaVuSerif-70"/>
       <path d="M 39.796875 16.3125 
L 39.796875 27.296875 
L 28.21875 27.296875 
Q 21.53125 27.296875 18.25 24.40625 
Q 14.984375 21.53125 14.984375 15.578125 
Q 14.984375 10.15625 18.296875 6.984375 
Q 21.625 3.8125 27.296875 3.8125 
Q 32.90625 3.8125 36.34375 7.28125 
Q 39.796875 10.75 39.796875 16.3125 
z
M 48.78125 32.421875 
L 48.78125 5.171875 
L 56.78125 5.171875 
L 56.78125 0 
L 39.796875 0 
L 39.796875 5.609375 
Q 36.8125 2 32.90625 0.28125 
Q 29 -1.421875 23.78125 -1.421875 
Q 15.140625 -1.421875 10.0625 3.171875 
Q 4.984375 7.765625 4.984375 15.578125 
Q 4.984375 23.640625 10.796875 28.078125 
Q 16.609375 32.515625 27.203125 32.515625 
L 39.796875 32.515625 
L 39.796875 36.078125 
Q 39.796875 42 36.203125 45.234375 
Q 32.625 48.484375 26.125 48.484375 
Q 20.75 48.484375 17.578125 46.046875 
Q 14.40625 43.609375 13.625 38.8125 
L 8.984375 38.8125 
L 8.984375 49.3125 
Q 13.671875 51.3125 18.09375 52.3125 
Q 22.515625 53.328125 26.703125 53.328125 
Q 37.5 53.328125 43.140625 47.96875 
Q 48.78125 42.625 48.78125 32.421875 
z
" id="DejaVuSerif-97"/>
       <path d="M 20.515625 5.171875 
L 29 5.171875 
L 29 0 
L 2.875 0 
L 2.875 5.171875 
L 11.53125 5.171875 
L 11.53125 70.796875 
L 2.875 70.796875 
L 2.875 75.984375 
L 20.515625 75.984375 
z
" id="DejaVuSerif-108"/>
       <path d="M 5.609375 2.875 
L 5.609375 14.984375 
L 10.796875 14.984375 
Q 10.984375 9.1875 14.421875 6.296875 
Q 17.875 3.421875 24.609375 3.421875 
Q 30.671875 3.421875 33.84375 5.6875 
Q 37.015625 7.953125 37.015625 12.3125 
Q 37.015625 15.71875 34.6875 17.8125 
Q 32.375 19.921875 24.90625 22.3125 
L 18.40625 24.515625 
Q 11.71875 26.65625 8.71875 29.875 
Q 5.71875 33.109375 5.71875 38.09375 
Q 5.71875 45.21875 10.9375 49.265625 
Q 16.15625 53.328125 25.390625 53.328125 
Q 29.5 53.328125 34.03125 52.25 
Q 38.578125 51.171875 43.40625 49.125 
L 43.40625 37.796875 
L 38.234375 37.796875 
Q 38.03125 42.828125 34.703125 45.65625 
Q 31.390625 48.484375 25.6875 48.484375 
Q 20.015625 48.484375 17.109375 46.484375 
Q 14.203125 44.484375 14.203125 40.484375 
Q 14.203125 37.203125 16.40625 35.21875 
Q 18.609375 33.25 25.203125 31.203125 
L 32.328125 29 
Q 39.703125 26.703125 42.9375 23.265625 
Q 46.1875 19.828125 46.1875 14.40625 
Q 46.1875 7.03125 40.546875 2.796875 
Q 34.90625 -1.421875 25 -1.421875 
Q 19.96875 -1.421875 15.1875 -0.34375 
Q 10.40625 0.734375 5.609375 2.875 
z
" id="DejaVuSerif-115"/>
       <path d="M 54.203125 25 
L 15.484375 25 
L 15.484375 24.609375 
Q 15.484375 14.109375 19.4375 8.765625 
Q 23.390625 3.421875 31.109375 3.421875 
Q 37.015625 3.421875 40.796875 6.515625 
Q 44.578125 9.625 46.09375 15.71875 
L 53.328125 15.71875 
Q 51.171875 7.171875 45.375 2.875 
Q 39.59375 -1.421875 30.171875 -1.421875 
Q 18.796875 -1.421875 11.890625 6.078125 
Q 4.984375 13.578125 4.984375 25.984375 
Q 4.984375 38.28125 11.765625 45.796875 
Q 18.5625 53.328125 29.59375 53.328125 
Q 41.359375 53.328125 47.65625 46.0625 
Q 53.953125 38.8125 54.203125 25 
z
M 43.609375 30.171875 
Q 43.3125 39.265625 39.765625 43.875 
Q 36.234375 48.484375 29.59375 48.484375 
Q 23.390625 48.484375 19.828125 43.84375 
Q 16.265625 39.203125 15.484375 30.171875 
z
" id="DejaVuSerif-101"/>
       <path id="DejaVuSerif-32"/>
       <path d="M 20.515625 28.515625 
L 20.515625 23.390625 
Q 20.515625 14.015625 24.09375 9.109375 
Q 27.6875 4.203125 34.515625 4.203125 
Q 41.40625 4.203125 44.9375 9.71875 
Q 48.484375 15.234375 48.484375 25.984375 
Q 48.484375 36.765625 44.9375 42.234375 
Q 41.40625 47.703125 34.515625 47.703125 
Q 27.6875 47.703125 24.09375 42.765625 
Q 20.515625 37.84375 20.515625 28.515625 
z
M 11.53125 46.6875 
L 2.875 46.6875 
L 2.875 51.90625 
L 20.515625 51.90625 
L 20.515625 43.796875 
Q 23.140625 48.6875 27.21875 51 
Q 31.296875 53.328125 37.3125 53.328125 
Q 46.875 53.328125 52.921875 45.75 
Q 58.984375 38.1875 58.984375 25.984375 
Q 58.984375 13.765625 52.921875 6.171875 
Q 46.875 -1.421875 37.3125 -1.421875 
Q 31.296875 -1.421875 27.21875 0.890625 
Q 23.140625 3.21875 20.515625 8.109375 
L 20.515625 -15.578125 
L 29 -15.578125 
L 29 -20.796875 
L 2.875 -20.796875 
L 2.875 -15.578125 
L 11.53125 -15.578125 
z
" id="DejaVuSerif-112"/>
       <path d="M 30.078125 3.421875 
Q 37.3125 3.421875 40.984375 9.125 
Q 44.671875 14.84375 44.671875 25.984375 
Q 44.671875 37.109375 40.984375 42.796875 
Q 37.3125 48.484375 30.078125 48.484375 
Q 22.859375 48.484375 19.171875 42.796875 
Q 15.484375 37.109375 15.484375 25.984375 
Q 15.484375 14.84375 19.1875 9.125 
Q 22.90625 3.421875 30.078125 3.421875 
z
M 30.078125 -1.421875 
Q 18.75 -1.421875 11.859375 6.078125 
Q 4.984375 13.578125 4.984375 25.984375 
Q 4.984375 38.375 11.84375 45.84375 
Q 18.703125 53.328125 30.078125 53.328125 
Q 41.453125 53.328125 48.3125 45.84375 
Q 55.171875 38.375 55.171875 25.984375 
Q 55.171875 13.578125 48.3125 6.078125 
Q 41.453125 -1.421875 30.078125 -1.421875 
z
" id="DejaVuSerif-111"/>
       <path d="M 9.71875 68.015625 
Q 9.71875 70.265625 11.34375 71.921875 
Q 12.984375 73.578125 15.28125 73.578125 
Q 17.53125 73.578125 19.15625 71.921875 
Q 20.796875 70.265625 20.796875 68.015625 
Q 20.796875 65.71875 19.1875 64.109375 
Q 17.578125 62.5 15.28125 62.5 
Q 12.984375 62.5 11.34375 64.109375 
Q 9.71875 65.71875 9.71875 68.015625 
z
M 21.1875 5.171875 
L 29.6875 5.171875 
L 29.6875 0 
L 3.609375 0 
L 3.609375 5.171875 
L 12.203125 5.171875 
L 12.203125 46.6875 
L 3.609375 46.6875 
L 3.609375 51.90625 
L 21.1875 51.90625 
z
" id="DejaVuSerif-105"/>
       <path d="M 10.796875 46.6875 
L 2.875 46.6875 
L 2.875 51.90625 
L 10.796875 51.90625 
L 10.796875 68.015625 
L 19.828125 68.015625 
L 19.828125 51.90625 
L 36.71875 51.90625 
L 36.71875 46.6875 
L 19.828125 46.6875 
L 19.828125 13.71875 
Q 19.828125 7.125 21.09375 5.265625 
Q 22.359375 3.421875 25.78125 3.421875 
Q 29.296875 3.421875 30.90625 5.484375 
Q 32.515625 7.5625 32.625 12.203125 
L 39.40625 12.203125 
Q 39.015625 5.125 35.546875 1.84375 
Q 32.078125 -1.421875 25 -1.421875 
Q 17.234375 -1.421875 14.015625 2.015625 
Q 10.796875 5.46875 10.796875 13.71875 
z
" id="DejaVuSerif-116"/>
       <path d="M 24.703125 0 
L 5.609375 46.6875 
L -0.296875 46.6875 
L -0.296875 51.90625 
L 23.578125 51.90625 
L 23.578125 46.6875 
L 15.28125 46.6875 
L 29.890625 10.984375 
L 44.484375 46.6875 
L 36.71875 46.6875 
L 36.71875 51.90625 
L 56.203125 51.90625 
L 56.203125 46.6875 
L 50.390625 46.6875 
L 31.296875 0 
z
" id="DejaVuSerif-118"/>
       <path d="M 47.796875 52 
L 47.796875 39.015625 
L 42.625 39.015625 
Q 42.390625 42.875 40.484375 44.78125 
Q 38.578125 46.6875 34.90625 46.6875 
Q 28.265625 46.6875 24.71875 42.09375 
Q 21.1875 37.5 21.1875 28.90625 
L 21.1875 5.171875 
L 31.59375 5.171875 
L 31.59375 0 
L 4.109375 0 
L 4.109375 5.171875 
L 12.203125 5.171875 
L 12.203125 46.78125 
L 3.609375 46.78125 
L 3.609375 51.90625 
L 21.1875 51.90625 
L 21.1875 42.671875 
Q 23.828125 48.09375 27.96875 50.703125 
Q 32.125 53.328125 38.09375 53.328125 
Q 40.28125 53.328125 42.703125 52.984375 
Q 45.125 52.640625 47.796875 52 
z
" id="DejaVuSerif-114"/>
      </defs>
      <use xlink:href="#DejaVuSerif-70"/>
      <use x="62.634766" xlink:href="#DejaVuSerif-97"/>
      <use x="122.253906" xlink:href="#DejaVuSerif-108"/>
      <use x="154.236328" xlink:href="#DejaVuSerif-115"/>
      <use x="205.554688" xlink:href="#DejaVuSerif-101"/>
      <use x="264.734375" xlink:href="#DejaVuSerif-32"/>
      <use x="296.521484" xlink:href="#DejaVuSerif-112"/>
      <use x="360.535156" xlink:href="#DejaVuSerif-111"/>
      <use x="420.740234" xlink:href="#DejaVuSerif-115"/>
      <use x="472.058594" xlink:href="#DejaVuSerif-105"/>
      <use x="504.041016" xlink:href="#DejaVuSerif-116"/>
      <use x="544.226562" xlink:href="#DejaVuSerif-105"/>
      <use x="576.208984" xlink:href="#DejaVuSerif-118"/>
      <use x="632.703125" xlink:href="#DejaVuSerif-101"/>
      <use x="691.882812" xlink:href="#DejaVuSerif-32"/>
      <use x="723.669922" xlink:href="#DejaVuSerif-114"/>
      <use x="771.472656" xlink:href="#DejaVuSerif-97"/>
      <use x="831.091797" xlink:href="#DejaVuSerif-116"/>
      <use x="871.277344" xlink:href="#DejaVuSerif-101"/>
     </g>
    </g>
   </g>
   <g id="matplotlib.axis_2">
    <g id="ytick_1">
     <g id="text_8">
      <!-- 0.0 -->
      <g style="fill:#262626;" transform="translate(25.717188 444.649368)scale(0.11 -0.11)">
       <use xlink:href="#DejaVuSerif-48"/>
       <use x="63.623047" xlink:href="#DejaVuSerif-46"/>
       <use x="95.410156" xlink:href="#DejaVuSerif-48"/>
      </g>
     </g>
    </g>
    <g id="ytick_2">
     <g id="text_9">
      <!-- 0.2 -->
      <g style="fill:#262626;" transform="translate(25.717188 365.580277)scale(0.11 -0.11)">
       <use xlink:href="#DejaVuSerif-48"/>
       <use x="63.623047" xlink:href="#DejaVuSerif-46"/>
       <use x="95.410156" xlink:href="#DejaVuSerif-50"/>
      </g>
     </g>
    </g>
    <g id="ytick_3">
     <g id="text_10">
      <!-- 0.4 -->
      <g style="fill:#262626;" transform="translate(25.717188 286.511186)scale(0.11 -0.11)">
       <use xlink:href="#DejaVuSerif-48"/>
       <use x="63.623047" xlink:href="#DejaVuSerif-46"/>
       <use x="95.410156" xlink:href="#DejaVuSerif-52"/>
      </g>
     </g>
    </g>
    <g id="ytick_4">
     <g id="text_11">
      <!-- 0.6 -->
      <g style="fill:#262626;" transform="translate(25.717188 207.442095)scale(0.11 -0.11)">
       <use xlink:href="#DejaVuSerif-48"/>
       <use x="63.623047" xlink:href="#DejaVuSerif-46"/>
       <use x="95.410156" xlink:href="#DejaVuSerif-54"/>
      </g>
     </g>
    </g>
    <g id="ytick_5">
     <g id="text_12">
      <!-- 0.8 -->
      <g style="fill:#262626;" transform="translate(25.717188 128.373004)scale(0.11 -0.11)">
       <use xlink:href="#DejaVuSerif-48"/>
       <use x="63.623047" xlink:href="#DejaVuSerif-46"/>
       <use x="95.410156" xlink:href="#DejaVuSerif-56"/>
      </g>
     </g>
    </g>
    <g id="ytick_6">
     <g id="text_13">
      <!-- 1.0 -->
      <g style="fill:#262626;" transform="translate(25.717188 49.303913)scale(0.11 -0.11)">
       <use xlink:href="#DejaVuSerif-49"/>
       <use x="63.623047" xlink:href="#DejaVuSerif-46"/>
       <use x="95.410156" xlink:href="#DejaVuSerif-48"/>
      </g>
     </g>
    </g>
    <g id="text_14">
     <!-- True positive rate -->
     <g style="fill:#262626;" transform="translate(18.597656 310.584609)rotate(-90)scale(0.15 -0.15)">
      <defs>
       <path d="M 19.09375 0 
L 19.09375 5.171875 
L 28.421875 5.171875 
L 28.421875 67.09375 
L 6.984375 67.09375 
L 6.984375 55.71875 
L 0.984375 55.71875 
L 0.984375 72.90625 
L 65.71875 72.90625 
L 65.71875 55.71875 
L 59.71875 55.71875 
L 59.71875 67.09375 
L 38.28125 67.09375 
L 38.28125 5.171875 
L 47.609375 5.171875 
L 47.609375 0 
z
" id="DejaVuSerif-84"/>
       <path d="M 35.40625 51.90625 
L 52.203125 51.90625 
L 52.203125 5.171875 
L 60.6875 5.171875 
L 60.6875 0 
L 43.21875 0 
L 43.21875 9.1875 
Q 40.71875 4 36.765625 1.28125 
Q 32.8125 -1.421875 27.59375 -1.421875 
Q 18.953125 -1.421875 14.875 3.484375 
Q 10.796875 8.40625 10.796875 18.890625 
L 10.796875 46.6875 
L 2.6875 46.6875 
L 2.6875 51.90625 
L 19.828125 51.90625 
L 19.828125 21.6875 
Q 19.828125 12.203125 22.140625 8.6875 
Q 24.46875 5.171875 30.421875 5.171875 
Q 36.671875 5.171875 39.9375 9.765625 
Q 43.21875 14.359375 43.21875 23.09375 
L 43.21875 46.6875 
L 35.40625 46.6875 
z
" id="DejaVuSerif-117"/>
      </defs>
      <use xlink:href="#DejaVuSerif-84"/>
      <use x="66.699219" xlink:href="#DejaVuSerif-114"/>
      <use x="114.501953" xlink:href="#DejaVuSerif-117"/>
      <use x="178.90625" xlink:href="#DejaVuSerif-101"/>
      <use x="238.085938" xlink:href="#DejaVuSerif-32"/>
      <use x="269.873047" xlink:href="#DejaVuSerif-112"/>
      <use x="333.886719" xlink:href="#DejaVuSerif-111"/>
      <use x="394.091797" xlink:href="#DejaVuSerif-115"/>
      <use x="445.410156" xlink:href="#DejaVuSerif-105"/>
      <use x="477.392578" xlink:href="#DejaVuSerif-116"/>
      <use x="517.578125" xlink:href="#DejaVuSerif-105"/>
      <use x="549.560547" xlink:href="#DejaVuSerif-118"/>
      <use x="606.054688" xlink:href="#DejaVuSerif-101"/>
      <use x="665.234375" xlink:href="#DejaVuSerif-32"/>
      <use x="697.021484" xlink:href="#DejaVuSerif-114"/>
      <use x="744.824219" xlink:href="#DejaVuSerif-97"/>
      <use x="804.443359" xlink:href="#DejaVuSerif-116"/>
      <use x="844.628906" xlink:href="#DejaVuSerif-101"/>
     </g>
    </g>
   </g>
   <g id="line2d_1">
    <path clip-path="url(#p05d77e8521)" d="M 73.001534 440.470227 
L 73.001534 437.256037 
L 73.001534 392.257367 
L 105.466989 392.257367 
L 105.466989 363.329651 
L 121.699716 363.329651 
L 121.699716 321.545172 
L 137.932443 321.545172 
L 137.932443 266.90393 
L 170.397898 266.90393 
L 170.397898 180.120782 
L 186.630625 180.120782 
L 186.630625 173.6924 
L 202.863352 173.6924 
L 202.863352 151.193065 
L 219.09608 151.193065 
L 219.09608 144.764684 
L 235.328807 144.764684 
L 235.328807 138.336303 
L 251.561534 138.336303 
L 251.561534 125.47954 
L 267.794261 125.47954 
L 267.794261 119.051159 
L 284.026989 119.051159 
L 284.026989 109.408586 
L 300.259716 109.408586 
L 300.259716 106.194396 
L 316.492443 106.194396 
L 316.492443 102.980205 
L 332.72517 102.980205 
L 332.72517 83.695061 
L 365.190625 83.695061 
L 365.190625 80.48087 
L 381.423352 80.48087 
L 381.423352 61.195726 
L 413.888807 61.195726 
L 413.888807 57.981535 
L 430.121534 57.981535 
L 430.121534 51.553154 
L 462.586989 51.553154 
L 462.586989 48.338963 
L 478.819716 48.338963 
L 478.819716 45.124773 
" style="fill:none;stroke:#4c72b0;stroke-linecap:round;stroke-width:4;"/>
   </g>
   <g id="line2d_2">
    <path clip-path="url(#p05d77e8521)" d="M 73.001534 440.470227 
L 73.001534 437.307464 
L 86.995264 437.307464 
L 86.995264 430.981936 
L 86.995264 421.493645 
L 86.995264 415.168118 
L 100.988995 412.005355 
L 100.988995 399.3543 
L 114.982725 399.3543 
L 142.970186 396.191536 
L 142.970186 389.866009 
L 142.970186 351.912845 
L 142.970186 339.261791 
L 142.970186 329.7735 
L 156.963917 326.610736 
L 156.963917 317.122445 
L 170.957647 317.122445 
L 170.957647 304.471391 
L 170.957647 301.308627 
L 170.957647 294.9831 
L 170.957647 285.494809 
L 170.957647 272.843755 
L 170.957647 263.355464 
L 170.957647 257.029936 
L 170.957647 244.378882 
L 170.957647 241.216118 
L 170.957647 234.890591 
L 184.951377 225.4023 
L 184.951377 222.239536 
L 198.945108 209.588482 
L 226.932569 196.937427 
L 240.926299 196.937427 
L 254.920029 184.286373 
L 254.920029 171.635318 
L 254.920029 165.309791 
L 254.920029 152.658736 
L 268.91376 136.844918 
L 268.91376 121.0311 
L 282.90749 117.868336 
L 324.888681 111.542809 
L 338.882412 111.542809 
L 352.876142 102.054518 
L 380.863603 92.566227 
L 380.863603 86.2407 
L 394.857333 86.2407 
L 422.844794 79.915173 
L 436.838525 73.589645 
L 436.838525 64.101355 
L 450.832255 54.613064 
L 478.819716 54.613064 
L 478.819716 45.124773 
" style="fill:none;stroke:#dd8452;stroke-linecap:round;stroke-width:4;"/>
   </g>
   <g id="line2d_3">
    <path clip-path="url(#p05d77e8521)" d="M 73.001534 440.470227 
L 86.995264 440.470227 
L 86.995264 431.05724 
L 86.995264 424.781916 
L 86.995264 421.644253 
L 100.988995 421.644253 
L 100.988995 415.368929 
L 114.982725 415.368929 
L 114.982725 405.955942 
L 128.976456 405.955942 
L 128.976456 352.615682 
L 128.976456 346.340357 
L 128.976456 340.065032 
L 128.976456 333.789708 
L 128.976456 330.652045 
L 142.970186 318.101396 
L 142.970186 314.963734 
L 156.963917 314.963734 
L 156.963917 308.688409 
L 156.963917 302.413084 
L 156.963917 299.275422 
L 156.963917 293.000097 
L 170.957647 289.862435 
L 170.957647 286.724773 
L 170.957647 280.449448 
L 170.957647 271.036461 
L 170.957647 264.761136 
L 170.957647 255.348149 
L 170.957647 230.246851 
L 170.957647 217.696201 
L 198.945108 217.696201 
L 198.945108 214.558539 
L 212.938838 214.558539 
L 240.926299 214.558539 
L 240.926299 208.283214 
L 240.926299 198.870227 
L 240.926299 192.594903 
L 240.926299 180.044253 
L 240.926299 170.631266 
L 240.926299 164.355942 
L 240.926299 151.805292 
L 240.926299 145.529968 
L 240.926299 142.392305 
L 254.920029 139.254643 
L 254.920029 136.116981 
L 254.920029 129.841656 
L 254.920029 126.703994 
L 268.91376 123.566331 
L 268.91376 120.428669 
L 282.90749 117.291006 
L 310.894951 117.291006 
L 310.894951 114.153344 
L 324.888681 114.153344 
L 324.888681 111.015682 
L 338.882412 111.015682 
L 338.882412 104.740357 
L 338.882412 101.602695 
L 366.869873 95.32737 
L 366.869873 92.189708 
L 380.863603 92.189708 
L 380.863603 89.052045 
L 394.857333 89.052045 
L 422.844794 82.776721 
L 422.844794 79.639058 
L 436.838525 79.639058 
L 436.838525 63.950747 
L 450.832255 63.950747 
L 450.832255 60.813084 
L 450.832255 51.400097 
L 450.832255 48.262435 
L 478.819716 48.262435 
L 478.819716 45.124773 
" style="fill:none;stroke:#55a868;stroke-linecap:round;stroke-width:4;"/>
   </g>
   <g id="line2d_4">
    <path clip-path="url(#p05d77e8521)" d="M 73.001534 440.470227 
L 73.001534 437.229691 
L 73.001534 433.989154 
L 89.234261 433.989154 
L 89.234261 427.508081 
L 105.466989 427.508081 
L 105.466989 411.305399 
L 121.699716 411.305399 
L 121.699716 378.900034 
L 137.932443 378.900034 
L 137.932443 262.240719 
L 154.16517 262.240719 
L 154.16517 203.911062 
L 170.397898 203.911062 
L 170.397898 200.670525 
L 186.630625 200.670525 
L 186.630625 187.708379 
L 202.863352 187.708379 
L 202.863352 161.784087 
L 219.09608 161.784087 
L 219.09608 145.581405 
L 251.561534 145.581405 
L 251.561534 135.859795 
L 267.794261 135.859795 
L 267.794261 132.619259 
L 284.026989 132.619259 
L 284.026989 126.138186 
L 316.492443 126.138186 
L 316.492443 109.935503 
L 332.72517 109.935503 
L 332.72517 100.213893 
L 348.957898 100.213893 
L 348.957898 84.011211 
L 381.423352 84.011211 
L 381.423352 67.808528 
L 397.65608 67.808528 
L 397.65608 64.567992 
L 413.888807 64.567992 
L 413.888807 61.327455 
L 430.121534 61.327455 
L 430.121534 54.846382 
L 462.586989 54.846382 
L 462.586989 45.124773 
L 478.819716 45.124773 
" style="fill:none;stroke:#c44e52;stroke-dasharray:5,8.25;stroke-dashoffset:0;stroke-width:5;"/>
   </g>
   <g id="patch_3">
    <path d="M 52.710625 460.2375 
L 52.710625 25.3575 
" style="fill:none;stroke:#cccccc;stroke-linecap:square;stroke-linejoin:miter;stroke-width:1.25;"/>
   </g>
   <g id="patch_4">
    <path d="M 499.110625 460.2375 
L 499.110625 25.3575 
" style="fill:none;stroke:#cccccc;stroke-linecap:square;stroke-linejoin:miter;stroke-width:1.25;"/>
   </g>
   <g id="patch_5">
    <path d="M 52.710625 460.2375 
L 499.110625 460.2375 
" style="fill:none;stroke:#cccccc;stroke-linecap:square;stroke-linejoin:miter;stroke-width:1.25;"/>
   </g>
   <g id="patch_6">
    <path d="M 52.710625 25.3575 
L 499.110625 25.3575 
" style="fill:none;stroke:#cccccc;stroke-linecap:square;stroke-linejoin:miter;stroke-width:1.25;"/>
   </g>
   <g id="text_15">
    <!-- ROC Mortality from WSI -->
    <g style="fill:#262626;" transform="translate(175.860625 19.3575)scale(0.16 -0.16)">
     <defs>
      <path d="M 47.90625 36.1875 
Q 51.3125 35.25 53.78125 33.03125 
Q 56.25 30.8125 58.203125 26.8125 
L 68.796875 5.171875 
L 77.6875 5.171875 
L 77.6875 0 
L 60.5 0 
L 49.125 23.1875 
Q 45.84375 29.9375 43.109375 31.90625 
Q 40.375 33.890625 35.59375 33.890625 
L 24.703125 33.890625 
L 24.703125 5.171875 
L 35.015625 5.171875 
L 35.015625 0 
L 5.515625 0 
L 5.515625 5.171875 
L 14.796875 5.171875 
L 14.796875 67.671875 
L 5.515625 67.671875 
L 5.515625 72.90625 
L 42.484375 72.90625 
Q 53.125 72.90625 58.90625 67.828125 
Q 64.703125 62.75 64.703125 53.421875 
Q 64.703125 45.90625 60.46875 41.578125 
Q 56.25 37.25 47.90625 36.1875 
z
M 24.703125 39.109375 
L 39.109375 39.109375 
Q 46.484375 39.109375 50 42.59375 
Q 53.515625 46.09375 53.515625 53.421875 
Q 53.515625 60.75 50 64.203125 
Q 46.484375 67.671875 39.109375 67.671875 
L 24.703125 67.671875 
z
" id="DejaVuSerif-82"/>
      <path d="M 41.015625 3.8125 
Q 52.984375 3.8125 59.078125 12.03125 
Q 65.1875 20.265625 65.1875 36.375 
Q 65.1875 52.546875 59.078125 60.765625 
Q 52.984375 69 41.015625 69 
Q 29 69 22.890625 60.765625 
Q 16.796875 52.546875 16.796875 36.375 
Q 16.796875 20.265625 22.890625 12.03125 
Q 29 3.8125 41.015625 3.8125 
z
M 41.015625 -1.421875 
Q 33.59375 -1.421875 27.359375 1.015625 
Q 21.140625 3.46875 16.40625 8.203125 
Q 10.9375 13.671875 8.265625 20.609375 
Q 5.609375 27.546875 5.609375 36.375 
Q 5.609375 45.21875 8.265625 52.171875 
Q 10.9375 59.125 16.40625 64.59375 
Q 21.1875 69.390625 27.34375 71.796875 
Q 33.5 74.21875 41.015625 74.21875 
Q 56.890625 74.21875 66.65625 63.8125 
Q 76.421875 53.421875 76.421875 36.375 
Q 76.421875 27.640625 73.734375 20.625 
Q 71.046875 13.625 65.578125 8.203125 
Q 60.796875 3.421875 54.640625 1 
Q 48.484375 -1.421875 41.015625 -1.421875 
z
" id="DejaVuSerif-79"/>
      <path d="M 70.515625 19.28125 
Q 67.28125 9.078125 59.6875 3.828125 
Q 52.09375 -1.421875 40.484375 -1.421875 
Q 33.34375 -1.421875 27.234375 1.015625 
Q 21.140625 3.46875 16.40625 8.203125 
Q 10.9375 13.671875 8.265625 20.625 
Q 5.609375 27.59375 5.609375 36.375 
Q 5.609375 53.375 15.421875 63.796875 
Q 25.25 74.21875 41.3125 74.21875 
Q 47.265625 74.21875 54 72.65625 
Q 60.75 71.09375 68.5 67.921875 
L 68.5 51.125 
L 62.984375 51.125 
Q 61.1875 60.296875 55.734375 64.640625 
Q 50.296875 69 40.484375 69 
Q 28.8125 69 22.796875 60.71875 
Q 16.796875 52.4375 16.796875 36.375 
Q 16.796875 20.359375 22.796875 12.078125 
Q 28.8125 3.8125 40.484375 3.8125 
Q 48.640625 3.8125 53.90625 7.6875 
Q 59.1875 11.578125 61.53125 19.28125 
z
" id="DejaVuSerif-67"/>
      <path d="M 5.515625 0 
L 5.515625 5.171875 
L 14.796875 5.171875 
L 14.796875 67.671875 
L 4.984375 67.671875 
L 4.984375 72.90625 
L 26.21875 72.90625 
L 51.8125 21 
L 77.390625 72.90625 
L 97.3125 72.90625 
L 97.3125 67.671875 
L 87.59375 67.671875 
L 87.59375 5.171875 
L 96.921875 5.171875 
L 96.921875 0 
L 68.40625 0 
L 68.40625 5.171875 
L 77.6875 5.171875 
L 77.6875 61.53125 
L 52.6875 10.6875 
L 45.796875 10.6875 
L 20.796875 61.53125 
L 20.796875 5.171875 
L 30.078125 5.171875 
L 30.078125 0 
z
" id="DejaVuSerif-77"/>
      <path d="M 21.578125 -9.515625 
L 25 -0.875 
L 5.609375 46.6875 
L -0.296875 46.6875 
L -0.296875 51.90625 
L 23.578125 51.90625 
L 23.578125 46.6875 
L 15.28125 46.6875 
L 29.890625 10.984375 
L 44.484375 46.6875 
L 36.71875 46.6875 
L 36.71875 51.90625 
L 56.203125 51.90625 
L 56.203125 46.6875 
L 50.390625 46.6875 
L 26.609375 -11.71875 
Q 24.171875 -17.78125 21.1875 -20 
Q 18.21875 -22.21875 12.796875 -22.21875 
Q 10.5 -22.21875 8.078125 -21.828125 
Q 5.671875 -21.4375 3.21875 -20.703125 
L 3.21875 -10.796875 
L 7.8125 -10.796875 
Q 8.109375 -14.109375 9.5 -15.546875 
Q 10.890625 -17 13.8125 -17 
Q 16.5 -17 18.140625 -15.5 
Q 19.78125 -14.015625 21.578125 -9.515625 
z
" id="DejaVuSerif-121"/>
      <path d="M 43.015625 63.71875 
L 38.28125 63.71875 
Q 38.234375 67.390625 36.203125 69.28125 
Q 34.1875 71.1875 30.328125 71.1875 
Q 25.296875 71.1875 23.234375 68.421875 
Q 21.1875 65.671875 21.1875 58.59375 
L 21.1875 51.90625 
L 35.6875 51.90625 
L 35.6875 46.6875 
L 21.1875 46.6875 
L 21.1875 5.171875 
L 32.71875 5.171875 
L 32.71875 0 
L 3.609375 0 
L 3.609375 5.171875 
L 12.203125 5.171875 
L 12.203125 46.6875 
L 3.609375 46.6875 
L 3.609375 51.90625 
L 12.203125 51.90625 
L 12.203125 58.40625 
Q 12.203125 67.09375 16.71875 71.53125 
Q 21.234375 75.984375 29.984375 75.984375 
Q 33.25 75.984375 36.515625 75.390625 
Q 39.796875 74.8125 43.015625 73.578125 
z
" id="DejaVuSerif-102"/>
      <path d="M 51.8125 41.796875 
Q 54.390625 47.515625 58.421875 50.421875 
Q 62.453125 53.328125 67.828125 53.328125 
Q 75.984375 53.328125 79.984375 48.265625 
Q 83.984375 43.21875 83.984375 33.015625 
L 83.984375 5.171875 
L 92.09375 5.171875 
L 92.09375 0 
L 67.1875 0 
L 67.1875 5.171875 
L 75 5.171875 
L 75 31.984375 
Q 75 39.9375 72.65625 43.3125 
Q 70.3125 46.6875 64.890625 46.6875 
Q 58.890625 46.6875 55.734375 42.140625 
Q 52.59375 37.59375 52.59375 28.90625 
L 52.59375 5.171875 
L 60.40625 5.171875 
L 60.40625 0 
L 35.796875 0 
L 35.796875 5.171875 
L 43.609375 5.171875 
L 43.609375 32.328125 
Q 43.609375 40.09375 41.265625 43.390625 
Q 38.921875 46.6875 33.5 46.6875 
Q 27.484375 46.6875 24.328125 42.140625 
Q 21.1875 37.59375 21.1875 28.90625 
L 21.1875 5.171875 
L 29 5.171875 
L 29 0 
L 4.109375 0 
L 4.109375 5.171875 
L 12.203125 5.171875 
L 12.203125 46.78125 
L 3.609375 46.78125 
L 3.609375 51.90625 
L 21.1875 51.90625 
L 21.1875 42.671875 
Q 23.6875 47.859375 27.53125 50.59375 
Q 31.390625 53.328125 36.28125 53.328125 
Q 42.328125 53.328125 46.375 50.3125 
Q 50.4375 47.3125 51.8125 41.796875 
z
" id="DejaVuSerif-109"/>
      <path d="M 76.21875 0 
L 68.21875 0 
L 51.515625 59.28125 
L 34.8125 0 
L 26.8125 0 
L 7.71875 67.671875 
L 0.484375 67.671875 
L 0.484375 72.90625 
L 27.09375 72.90625 
L 27.09375 67.671875 
L 18.015625 67.671875 
L 33.203125 13.8125 
L 49.8125 72.90625 
L 57.71875 72.90625 
L 74.609375 13.1875 
L 89.890625 67.671875 
L 81.5 67.671875 
L 81.5 72.90625 
L 102.484375 72.90625 
L 102.484375 67.671875 
L 95.3125 67.671875 
z
" id="DejaVuSerif-87"/>
      <path d="M 9.28125 3.515625 
L 9.28125 20.125 
L 14.890625 20.0625 
Q 15.140625 11.765625 19.703125 7.78125 
Q 24.265625 3.8125 33.59375 3.8125 
Q 42.28125 3.8125 46.84375 7.25 
Q 51.421875 10.6875 51.421875 17.28125 
Q 51.421875 22.5625 48.65625 25.390625 
Q 45.90625 28.21875 37.015625 30.90625 
L 27.390625 33.796875 
Q 16.9375 36.96875 12.671875 41.703125 
Q 8.40625 46.4375 8.40625 54.6875 
Q 8.40625 63.96875 14.984375 69.09375 
Q 21.578125 74.21875 33.5 74.21875 
Q 38.578125 74.21875 44.625 73.109375 
Q 50.6875 72.015625 57.515625 69.921875 
L 57.515625 54.390625 
L 52 54.390625 
Q 51.171875 62.109375 46.84375 65.546875 
Q 42.53125 69 33.6875 69 
Q 25.984375 69 21.953125 65.84375 
Q 17.921875 62.703125 17.921875 56.6875 
Q 17.921875 51.46875 20.9375 48.484375 
Q 23.96875 45.515625 33.796875 42.578125 
L 42.828125 39.890625 
Q 52.734375 36.921875 56.953125 32.296875 
Q 61.1875 27.6875 61.1875 19.921875 
Q 61.1875 9.328125 54.390625 3.953125 
Q 47.609375 -1.421875 34.1875 -1.421875 
Q 28.171875 -1.421875 21.9375 -0.1875 
Q 15.71875 1.03125 9.28125 3.515625 
z
" id="DejaVuSerif-83"/>
      <path d="M 24.703125 5.171875 
L 33.984375 5.171875 
L 33.984375 0 
L 5.515625 0 
L 5.515625 5.171875 
L 14.796875 5.171875 
L 14.796875 67.671875 
L 5.515625 67.671875 
L 5.515625 72.90625 
L 33.984375 72.90625 
L 33.984375 67.671875 
L 24.703125 67.671875 
z
" id="DejaVuSerif-73"/>
     </defs>
     <use xlink:href="#DejaVuSerif-82"/>
     <use x="75.292969" xlink:href="#DejaVuSerif-79"/>
     <use x="157.275391" xlink:href="#DejaVuSerif-67"/>
     <use x="233.789062" xlink:href="#DejaVuSerif-32"/>
     <use x="265.576172" xlink:href="#DejaVuSerif-77"/>
     <use x="367.96875" xlink:href="#DejaVuSerif-111"/>
     <use x="428.173828" xlink:href="#DejaVuSerif-114"/>
     <use x="475.976562" xlink:href="#DejaVuSerif-116"/>
     <use x="516.162109" xlink:href="#DejaVuSerif-97"/>
     <use x="575.78125" xlink:href="#DejaVuSerif-108"/>
     <use x="607.763672" xlink:href="#DejaVuSerif-105"/>
     <use x="639.746094" xlink:href="#DejaVuSerif-116"/>
     <use x="679.931641" xlink:href="#DejaVuSerif-121"/>
     <use x="736.425781" xlink:href="#DejaVuSerif-32"/>
     <use x="768.212891" xlink:href="#DejaVuSerif-102"/>
     <use x="805.224609" xlink:href="#DejaVuSerif-114"/>
     <use x="853.027344" xlink:href="#DejaVuSerif-111"/>
     <use x="913.232422" xlink:href="#DejaVuSerif-109"/>
     <use x="1008.056641" xlink:href="#DejaVuSerif-32"/>
     <use x="1039.84375" xlink:href="#DejaVuSerif-87"/>
     <use x="1142.626953" xlink:href="#DejaVuSerif-83"/>
     <use x="1211.132812" xlink:href="#DejaVuSerif-73"/>
    </g>
   </g>
   <g id="legend_1">
    <g id="patch_7">
     <path d="M 151.484062 453.2375 
L 489.310625 453.2375 
Q 492.110625 453.2375 492.110625 450.4375 
L 492.110625 351.02625 
Q 492.110625 348.22625 489.310625 348.22625 
L 151.484062 348.22625 
Q 148.684062 348.22625 148.684062 351.02625 
L 148.684062 450.4375 
Q 148.684062 453.2375 151.484062 453.2375 
z
" style="fill:#ffffff;opacity:0.8;stroke:#cccccc;stroke-linejoin:miter;"/>
    </g>
    <g id="text_16">
     <!-- Feature set -->
     <g style="fill:#262626;" transform="translate(285.792344 362.944375)scale(0.12 -0.12)">
      <use xlink:href="#DejaVuSerif-70"/>
      <use x="63.884766" xlink:href="#DejaVuSerif-101"/>
      <use x="123.064453" xlink:href="#DejaVuSerif-97"/>
      <use x="182.683594" xlink:href="#DejaVuSerif-116"/>
      <use x="222.869141" xlink:href="#DejaVuSerif-117"/>
      <use x="287.273438" xlink:href="#DejaVuSerif-114"/>
      <use x="335.076172" xlink:href="#DejaVuSerif-101"/>
      <use x="394.255859" xlink:href="#DejaVuSerif-32"/>
      <use x="426.042969" xlink:href="#DejaVuSerif-115"/>
      <use x="477.361328" xlink:href="#DejaVuSerif-101"/>
      <use x="536.541016" xlink:href="#DejaVuSerif-116"/>
     </g>
    </g>
    <g id="line2d_5">
     <path d="M 154.284062 378.177813 
L 182.284062 378.177813 
" style="fill:none;stroke:#4c72b0;stroke-linecap:round;stroke-width:4;"/>
    </g>
    <g id="line2d_6"/>
    <g id="text_17">
     <!-- Computed metrics (WSI), AUC: 0.72 -->
     <g style="fill:#262626;" transform="translate(193.484062 383.077812)scale(0.14 -0.14)">
      <defs>
       <path d="M 52.484375 5.171875 
L 61.078125 5.171875 
L 61.078125 0 
L 43.5 0 
L 43.5 8.109375 
Q 40.875 3.21875 36.796875 0.890625 
Q 32.71875 -1.421875 26.703125 -1.421875 
Q 17.140625 -1.421875 11.0625 6.171875 
Q 4.984375 13.765625 4.984375 25.984375 
Q 4.984375 38.1875 11.03125 45.75 
Q 17.09375 53.328125 26.703125 53.328125 
Q 32.71875 53.328125 36.796875 51 
Q 40.875 48.6875 43.5 43.796875 
L 43.5 70.796875 
L 35.015625 70.796875 
L 35.015625 75.984375 
L 52.484375 75.984375 
z
M 43.5 23.390625 
L 43.5 28.515625 
Q 43.5 37.84375 39.90625 42.765625 
Q 36.328125 47.703125 29.5 47.703125 
Q 22.5625 47.703125 19.015625 42.234375 
Q 15.484375 36.765625 15.484375 25.984375 
Q 15.484375 15.234375 19.015625 9.71875 
Q 22.5625 4.203125 29.5 4.203125 
Q 36.328125 4.203125 39.90625 9.109375 
Q 43.5 14.015625 43.5 23.390625 
z
" id="DejaVuSerif-100"/>
       <path d="M 51.421875 15.578125 
Q 49.515625 7.28125 44.09375 2.921875 
Q 38.671875 -1.421875 30.078125 -1.421875 
Q 18.75 -1.421875 11.859375 6.078125 
Q 4.984375 13.578125 4.984375 25.984375 
Q 4.984375 38.421875 11.859375 45.875 
Q 18.75 53.328125 30.078125 53.328125 
Q 35.015625 53.328125 39.890625 52.171875 
Q 44.78125 51.03125 49.703125 48.6875 
L 49.703125 35.40625 
L 44.484375 35.40625 
Q 43.453125 42.234375 40.015625 45.359375 
Q 36.578125 48.484375 30.171875 48.484375 
Q 22.90625 48.484375 19.1875 42.84375 
Q 15.484375 37.203125 15.484375 25.984375 
Q 15.484375 14.75 19.171875 9.078125 
Q 22.859375 3.421875 30.171875 3.421875 
Q 35.984375 3.421875 39.453125 6.4375 
Q 42.921875 9.46875 44.1875 15.578125 
z
" id="DejaVuSerif-99"/>
       <path d="M 31.890625 -15.578125 
Q 20.015625 -10.25 13.953125 1.296875 
Q 7.90625 12.84375 7.90625 30.171875 
Q 7.90625 47.5625 13.953125 59.109375 
Q 20.015625 70.65625 31.890625 75.984375 
L 31.890625 71.1875 
Q 24.359375 66.015625 21.09375 56.609375 
Q 17.828125 47.21875 17.828125 30.171875 
Q 17.828125 13.1875 21.09375 3.78125 
Q 24.359375 -5.609375 31.890625 -10.796875 
z
" id="DejaVuSerif-40"/>
       <path d="M 7.078125 -15.578125 
L 7.078125 -10.796875 
Q 14.59375 -5.609375 17.890625 3.78125 
Q 21.1875 13.1875 21.1875 30.171875 
Q 21.1875 47.21875 17.890625 56.609375 
Q 14.59375 66.015625 7.078125 71.1875 
L 7.078125 75.984375 
Q 19 70.65625 25.046875 59.109375 
Q 31.109375 47.5625 31.109375 30.171875 
Q 31.109375 12.84375 25.046875 1.296875 
Q 19 -10.25 7.078125 -15.578125 
z
" id="DejaVuSerif-41"/>
       <path d="M 3.609375 -9.71875 
Q 8.203125 -6.34375 10.34375 -1.78125 
Q 12.5 2.78125 12.5 9.28125 
L 12.5 11.078125 
L 22.125 11.078125 
Q 21.734375 2.734375 18.1875 -3.25 
Q 14.65625 -9.234375 7.515625 -13.625 
z
" id="DejaVuSerif-44"/>
       <path d="M 20.015625 26.421875 
L 46.78125 26.421875 
L 33.40625 61.078125 
z
M -0.59375 0 
L -0.59375 5.171875 
L 5.8125 5.171875 
L 31.78125 72.90625 
L 39.984375 72.90625 
L 66.015625 5.171875 
L 73.1875 5.171875 
L 73.1875 0 
L 46.6875 0 
L 46.6875 5.171875 
L 54.78125 5.171875 
L 48.6875 21.1875 
L 18.015625 21.1875 
L 11.921875 5.171875 
L 19.921875 5.171875 
L 19.921875 0 
z
" id="DejaVuSerif-65"/>
       <path d="M 14.015625 67.671875 
L 4.6875 67.671875 
L 4.6875 72.90625 
L 33.203125 72.90625 
L 33.203125 67.671875 
L 23.875 67.671875 
L 23.875 29.984375 
Q 23.875 16.015625 28.4375 10.5 
Q 33.015625 4.984375 44.1875 4.984375 
Q 55.375 4.984375 59.9375 10.5 
Q 64.5 16.015625 64.5 29.984375 
L 64.5 67.671875 
L 55.171875 67.671875 
L 55.171875 72.90625 
L 79.78125 72.90625 
L 79.78125 67.671875 
L 70.515625 67.671875 
L 70.515625 29 
Q 70.515625 12.359375 64.109375 5.46875 
Q 57.71875 -1.421875 42.390625 -1.421875 
Q 27.046875 -1.421875 20.53125 5.515625 
Q 14.015625 12.453125 14.015625 29 
z
" id="DejaVuSerif-85"/>
       <path d="M 10.40625 5.078125 
Q 10.40625 7.8125 12.28125 9.71875 
Q 14.15625 11.625 16.890625 11.625 
Q 19.625 11.625 21.5 9.71875 
Q 23.390625 7.8125 23.390625 5.078125 
Q 23.390625 2.34375 21.53125 0.453125 
Q 19.671875 -1.421875 16.890625 -1.421875 
Q 14.109375 -1.421875 12.25 0.453125 
Q 10.40625 2.34375 10.40625 5.078125 
z
M 10.40625 36.921875 
Q 10.40625 39.65625 12.28125 41.53125 
Q 14.15625 43.40625 16.890625 43.40625 
Q 19.671875 43.40625 21.53125 41.546875 
Q 23.390625 39.703125 23.390625 36.921875 
Q 23.390625 34.125 21.53125 32.265625 
Q 19.671875 30.421875 16.890625 30.421875 
Q 14.15625 30.421875 12.28125 32.296875 
Q 10.40625 34.1875 10.40625 36.921875 
z
" id="DejaVuSerif-58"/>
       <path d="M 56.390625 67.921875 
L 27.875 0 
L 20.609375 0 
L 47.796875 64.890625 
L 14.109375 64.890625 
L 14.109375 55.90625 
L 8.40625 55.90625 
L 8.40625 72.90625 
L 56.390625 72.90625 
z
" id="DejaVuSerif-55"/>
      </defs>
      <use xlink:href="#DejaVuSerif-67"/>
      <use x="76.513672" xlink:href="#DejaVuSerif-111"/>
      <use x="136.71875" xlink:href="#DejaVuSerif-109"/>
      <use x="231.542969" xlink:href="#DejaVuSerif-112"/>
      <use x="295.556641" xlink:href="#DejaVuSerif-117"/>
      <use x="359.960938" xlink:href="#DejaVuSerif-116"/>
      <use x="400.146484" xlink:href="#DejaVuSerif-101"/>
      <use x="459.326172" xlink:href="#DejaVuSerif-100"/>
      <use x="523.339844" xlink:href="#DejaVuSerif-32"/>
      <use x="555.126953" xlink:href="#DejaVuSerif-109"/>
      <use x="649.951172" xlink:href="#DejaVuSerif-101"/>
      <use x="709.130859" xlink:href="#DejaVuSerif-116"/>
      <use x="749.316406" xlink:href="#DejaVuSerif-114"/>
      <use x="797.119141" xlink:href="#DejaVuSerif-105"/>
      <use x="829.101562" xlink:href="#DejaVuSerif-99"/>
      <use x="885.107422" xlink:href="#DejaVuSerif-115"/>
      <use x="936.425781" xlink:href="#DejaVuSerif-32"/>
      <use x="968.212891" xlink:href="#DejaVuSerif-40"/>
      <use x="1007.226562" xlink:href="#DejaVuSerif-87"/>
      <use x="1110.009766" xlink:href="#DejaVuSerif-83"/>
      <use x="1178.515625" xlink:href="#DejaVuSerif-73"/>
      <use x="1218.017578" xlink:href="#DejaVuSerif-41"/>
      <use x="1257.03125" xlink:href="#DejaVuSerif-44"/>
      <use x="1288.818359" xlink:href="#DejaVuSerif-32"/>
      <use x="1320.605469" xlink:href="#DejaVuSerif-65"/>
      <use x="1392.822266" xlink:href="#DejaVuSerif-85"/>
      <use x="1477.099609" xlink:href="#DejaVuSerif-67"/>
      <use x="1553.613281" xlink:href="#DejaVuSerif-58"/>
      <use x="1587.304688" xlink:href="#DejaVuSerif-32"/>
      <use x="1619.091797" xlink:href="#DejaVuSerif-48"/>
      <use x="1682.714844" xlink:href="#DejaVuSerif-46"/>
      <use x="1714.501953" xlink:href="#DejaVuSerif-55"/>
      <use x="1778.125" xlink:href="#DejaVuSerif-50"/>
     </g>
    </g>
    <g id="line2d_7">
     <path d="M 154.284062 398.727188 
L 182.284062 398.727188 
" style="fill:none;stroke:#dd8452;stroke-linecap:round;stroke-width:4;"/>
    </g>
    <g id="line2d_8"/>
    <g id="text_18">
     <!-- Estimated stromal TILs (WSI), AUC: 0.64 -->
     <g style="fill:#262626;" transform="translate(193.484062 403.627187)scale(0.14 -0.14)">
      <defs>
       <path d="M 5.515625 0 
L 5.515625 5.171875 
L 14.796875 5.171875 
L 14.796875 67.671875 
L 5.515625 67.671875 
L 5.515625 72.90625 
L 64.203125 72.90625 
L 64.203125 56.6875 
L 58.203125 56.6875 
L 58.203125 66.890625 
L 24.703125 66.890625 
L 24.703125 42.484375 
L 48.578125 42.484375 
L 48.578125 51.609375 
L 54.59375 51.609375 
L 54.59375 27.390625 
L 48.578125 27.390625 
L 48.578125 36.53125 
L 24.703125 36.53125 
L 24.703125 6 
L 58.984375 6 
L 58.984375 16.21875 
L 64.984375 16.21875 
L 64.984375 0 
z
" id="DejaVuSerif-69"/>
       <path d="M 5.515625 0 
L 5.515625 5.171875 
L 14.796875 5.171875 
L 14.796875 67.671875 
L 5.515625 67.671875 
L 5.515625 72.90625 
L 33.984375 72.90625 
L 33.984375 67.671875 
L 24.703125 67.671875 
L 24.703125 6 
L 58.015625 6 
L 58.015625 18.21875 
L 64.015625 18.21875 
L 64.015625 0 
z
" id="DejaVuSerif-76"/>
      </defs>
      <use xlink:href="#DejaVuSerif-69"/>
      <use x="72.998047" xlink:href="#DejaVuSerif-115"/>
      <use x="124.316406" xlink:href="#DejaVuSerif-116"/>
      <use x="164.501953" xlink:href="#DejaVuSerif-105"/>
      <use x="196.484375" xlink:href="#DejaVuSerif-109"/>
      <use x="291.308594" xlink:href="#DejaVuSerif-97"/>
      <use x="350.927734" xlink:href="#DejaVuSerif-116"/>
      <use x="391.113281" xlink:href="#DejaVuSerif-101"/>
      <use x="450.292969" xlink:href="#DejaVuSerif-100"/>
      <use x="514.306641" xlink:href="#DejaVuSerif-32"/>
      <use x="546.09375" xlink:href="#DejaVuSerif-115"/>
      <use x="597.412109" xlink:href="#DejaVuSerif-116"/>
      <use x="637.597656" xlink:href="#DejaVuSerif-114"/>
      <use x="685.400391" xlink:href="#DejaVuSerif-111"/>
      <use x="745.605469" xlink:href="#DejaVuSerif-109"/>
      <use x="840.429688" xlink:href="#DejaVuSerif-97"/>
      <use x="900.048828" xlink:href="#DejaVuSerif-108"/>
      <use x="932.03125" xlink:href="#DejaVuSerif-32"/>
      <use x="963.818359" xlink:href="#DejaVuSerif-84"/>
      <use x="1030.517578" xlink:href="#DejaVuSerif-73"/>
      <use x="1070.019531" xlink:href="#DejaVuSerif-76"/>
      <use x="1136.425781" xlink:href="#DejaVuSerif-115"/>
      <use x="1187.744141" xlink:href="#DejaVuSerif-32"/>
      <use x="1219.53125" xlink:href="#DejaVuSerif-40"/>
      <use x="1258.544922" xlink:href="#DejaVuSerif-87"/>
      <use x="1361.328125" xlink:href="#DejaVuSerif-83"/>
      <use x="1429.833984" xlink:href="#DejaVuSerif-73"/>
      <use x="1469.335938" xlink:href="#DejaVuSerif-41"/>
      <use x="1508.349609" xlink:href="#DejaVuSerif-44"/>
      <use x="1540.136719" xlink:href="#DejaVuSerif-32"/>
      <use x="1571.923828" xlink:href="#DejaVuSerif-65"/>
      <use x="1644.140625" xlink:href="#DejaVuSerif-85"/>
      <use x="1728.417969" xlink:href="#DejaVuSerif-67"/>
      <use x="1804.931641" xlink:href="#DejaVuSerif-58"/>
      <use x="1838.623047" xlink:href="#DejaVuSerif-32"/>
      <use x="1870.410156" xlink:href="#DejaVuSerif-48"/>
      <use x="1934.033203" xlink:href="#DejaVuSerif-46"/>
      <use x="1965.820312" xlink:href="#DejaVuSerif-54"/>
      <use x="2029.443359" xlink:href="#DejaVuSerif-52"/>
     </g>
    </g>
    <g id="line2d_9">
     <path d="M 154.284062 419.276563 
L 182.284062 419.276563 
" style="fill:none;stroke:#55a868;stroke-linecap:round;stroke-width:4;"/>
    </g>
    <g id="line2d_10"/>
    <g id="text_19">
     <!-- Patient data, AUC: 0.65 -->
     <g style="fill:#262626;" transform="translate(193.484062 424.176562)scale(0.14 -0.14)">
      <defs>
       <path d="M 24.703125 37.109375 
L 37.59375 37.109375 
Q 44.875 37.109375 48.671875 41.03125 
Q 52.484375 44.96875 52.484375 52.390625 
Q 52.484375 59.859375 48.671875 63.765625 
Q 44.875 67.671875 37.59375 67.671875 
L 24.703125 67.671875 
z
M 5.515625 0 
L 5.515625 5.171875 
L 14.796875 5.171875 
L 14.796875 67.671875 
L 5.515625 67.671875 
L 5.515625 72.90625 
L 39.984375 72.90625 
Q 50.921875 72.90625 57.3125 67.359375 
Q 63.71875 61.8125 63.71875 52.390625 
Q 63.71875 43.015625 57.3125 37.453125 
Q 50.921875 31.890625 39.984375 31.890625 
L 24.703125 31.890625 
L 24.703125 5.171875 
L 35.984375 5.171875 
L 35.984375 0 
z
" id="DejaVuSerif-80"/>
       <path d="M 4.109375 0 
L 4.109375 5.171875 
L 12.203125 5.171875 
L 12.203125 46.6875 
L 3.609375 46.6875 
L 3.609375 51.90625 
L 21.1875 51.90625 
L 21.1875 42.671875 
Q 23.6875 47.953125 27.65625 50.640625 
Q 31.640625 53.328125 36.921875 53.328125 
Q 45.515625 53.328125 49.5625 48.390625 
Q 53.609375 43.453125 53.609375 33.015625 
L 53.609375 5.171875 
L 61.625 5.171875 
L 61.625 0 
L 36.8125 0 
L 36.8125 5.171875 
L 44.578125 5.171875 
L 44.578125 30.171875 
Q 44.578125 39.703125 42.234375 43.234375 
Q 39.890625 46.78125 33.984375 46.78125 
Q 27.734375 46.78125 24.453125 42.203125 
Q 21.1875 37.640625 21.1875 28.90625 
L 21.1875 5.171875 
L 29 5.171875 
L 29 0 
z
" id="DejaVuSerif-110"/>
       <path d="M 50.296875 72.90625 
L 50.296875 64.890625 
L 16.890625 64.890625 
L 16.890625 44 
Q 19.4375 45.75 22.828125 46.625 
Q 26.21875 47.515625 30.421875 47.515625 
Q 42.234375 47.515625 49.0625 40.96875 
Q 55.90625 34.421875 55.90625 23.09375 
Q 55.90625 11.53125 49 5.046875 
Q 42.09375 -1.421875 29.59375 -1.421875 
Q 24.5625 -1.421875 19.28125 -0.1875 
Q 14.015625 1.03125 8.5 3.515625 
L 8.5 17.671875 
L 14.015625 17.671875 
Q 14.453125 10.75 18.421875 7.078125 
Q 22.40625 3.421875 29.59375 3.421875 
Q 37.3125 3.421875 41.453125 8.5 
Q 45.609375 13.578125 45.609375 23.09375 
Q 45.609375 32.5625 41.484375 37.609375 
Q 37.359375 42.671875 29.59375 42.671875 
Q 25.203125 42.671875 21.84375 41.109375 
Q 18.5 39.546875 15.921875 36.28125 
L 11.71875 36.28125 
L 11.71875 72.90625 
z
" id="DejaVuSerif-53"/>
      </defs>
      <use xlink:href="#DejaVuSerif-80"/>
      <use x="62.785156" xlink:href="#DejaVuSerif-97"/>
      <use x="122.404297" xlink:href="#DejaVuSerif-116"/>
      <use x="162.589844" xlink:href="#DejaVuSerif-105"/>
      <use x="194.572266" xlink:href="#DejaVuSerif-101"/>
      <use x="253.751953" xlink:href="#DejaVuSerif-110"/>
      <use x="318.15625" xlink:href="#DejaVuSerif-116"/>
      <use x="358.341797" xlink:href="#DejaVuSerif-32"/>
      <use x="390.128906" xlink:href="#DejaVuSerif-100"/>
      <use x="454.142578" xlink:href="#DejaVuSerif-97"/>
      <use x="513.761719" xlink:href="#DejaVuSerif-116"/>
      <use x="553.947266" xlink:href="#DejaVuSerif-97"/>
      <use x="613.566406" xlink:href="#DejaVuSerif-44"/>
      <use x="645.353516" xlink:href="#DejaVuSerif-32"/>
      <use x="677.140625" xlink:href="#DejaVuSerif-65"/>
      <use x="749.357422" xlink:href="#DejaVuSerif-85"/>
      <use x="833.634766" xlink:href="#DejaVuSerif-67"/>
      <use x="910.148438" xlink:href="#DejaVuSerif-58"/>
      <use x="943.839844" xlink:href="#DejaVuSerif-32"/>
      <use x="975.626953" xlink:href="#DejaVuSerif-48"/>
      <use x="1039.25" xlink:href="#DejaVuSerif-46"/>
      <use x="1071.037109" xlink:href="#DejaVuSerif-54"/>
      <use x="1134.660156" xlink:href="#DejaVuSerif-53"/>
     </g>
    </g>
    <g id="line2d_11">
     <path d="M 154.284062 439.825938 
L 182.284062 439.825938 
" style="fill:none;stroke:#c44e52;stroke-dasharray:5,8.25;stroke-dashoffset:0;stroke-width:5;"/>
    </g>
    <g id="line2d_12"/>
    <g id="text_20">
     <!-- All features, AUC: 0.69 -->
     <g style="fill:#262626;" transform="translate(193.484062 444.725937)scale(0.14 -0.14)">
      <defs>
       <path d="M 46.78125 32.671875 
Q 43.5 29 39.25 27.1875 
Q 35.015625 25.390625 29.6875 25.390625 
Q 18.84375 25.390625 12.5625 31.9375 
Q 6.296875 38.484375 6.296875 49.8125 
Q 6.296875 60.890625 13.109375 67.546875 
Q 19.921875 74.21875 31.296875 74.21875 
Q 43.65625 74.21875 50.265625 65.015625 
Q 56.890625 55.8125 56.890625 38.71875 
Q 56.890625 19.578125 49.015625 9.078125 
Q 41.15625 -1.421875 26.90625 -1.421875 
Q 23.046875 -1.421875 18.796875 -0.6875 
Q 14.546875 0.046875 10.109375 1.515625 
L 10.109375 13.625 
L 15.578125 13.625 
Q 16.21875 8.6875 19.390625 6.046875 
Q 22.5625 3.421875 27.875 3.421875 
Q 37.359375 3.421875 41.984375 10.5625 
Q 46.625 17.71875 46.78125 32.671875 
z
M 30.90625 69.390625 
Q 23.96875 69.390625 20.28125 64.328125 
Q 16.609375 59.28125 16.609375 49.8125 
Q 16.609375 40.328125 20.28125 35.25 
Q 23.96875 30.171875 30.90625 30.171875 
Q 37.84375 30.171875 41.53125 35.078125 
Q 45.21875 39.984375 45.21875 49.21875 
Q 45.21875 58.9375 41.5 64.15625 
Q 37.796875 69.390625 30.90625 69.390625 
z
" id="DejaVuSerif-57"/>
      </defs>
      <use xlink:href="#DejaVuSerif-65"/>
      <use x="72.216797" xlink:href="#DejaVuSerif-108"/>
      <use x="104.199219" xlink:href="#DejaVuSerif-108"/>
      <use x="136.181641" xlink:href="#DejaVuSerif-32"/>
      <use x="167.96875" xlink:href="#DejaVuSerif-102"/>
      <use x="204.980469" xlink:href="#DejaVuSerif-101"/>
      <use x="264.160156" xlink:href="#DejaVuSerif-97"/>
      <use x="323.779297" xlink:href="#DejaVuSerif-116"/>
      <use x="363.964844" xlink:href="#DejaVuSerif-117"/>
      <use x="428.369141" xlink:href="#DejaVuSerif-114"/>
      <use x="476.171875" xlink:href="#DejaVuSerif-101"/>
      <use x="535.351562" xlink:href="#DejaVuSerif-115"/>
      <use x="586.669922" xlink:href="#DejaVuSerif-44"/>
      <use x="618.457031" xlink:href="#DejaVuSerif-32"/>
      <use x="650.244141" xlink:href="#DejaVuSerif-65"/>
      <use x="722.460938" xlink:href="#DejaVuSerif-85"/>
      <use x="806.738281" xlink:href="#DejaVuSerif-67"/>
      <use x="883.251953" xlink:href="#DejaVuSerif-58"/>
      <use x="916.943359" xlink:href="#DejaVuSerif-32"/>
      <use x="948.730469" xlink:href="#DejaVuSerif-48"/>
      <use x="1012.353516" xlink:href="#DejaVuSerif-46"/>
      <use x="1044.140625" xlink:href="#DejaVuSerif-54"/>
      <use x="1107.763672" xlink:href="#DejaVuSerif-57"/>
     </g>
    </g>
   </g>
  </g>
 </g>
 <defs>
  <clipPath id="p05d77e8521">
   <rect height="434.88" width="446.4" x="52.710625" y="25.3575"/>
  </clipPath>
 </defs>
</svg>
